<svg width="400" height="236" viewBox="0 0 400 236" fill="none" xmlns="http://www.w3.org/2000/svg">
  <path d="M54.5463 108.137C84.2362 108.137 108.305 84.1058 108.305 54.4616C108.305 24.8174 84.2362 0.786011 54.5463 0.786011C24.8565 0.786011 0.788086 24.8174 0.788086 54.4616C0.788086 84.1058 24.8565 108.137 54.5463 108.137Z" fill="#FEFDF1"/>
  <path d="M54.5454 108.923C24.4703 108.923 0 84.4905 0 54.4616C0 24.4327 24.4703 0 54.5454 0C84.6206 0 109.091 24.4327 109.091 54.4616C109.091 84.4905 84.6206 108.923 54.5454 108.923ZM54.5454 1.57592C25.3362 1.57592 1.57441 25.3012 1.57441 54.4655C1.57441 83.6298 25.3362 107.355 54.5454 107.355C83.7547 107.355 107.516 83.6298 107.516 54.4655C107.513 25.3012 83.7507 1.57592 54.5454 1.57592Z" fill="#30322C"/>
  <path d="M66.4407 42.5852H42.6475V66.3419H66.4407V42.5852Z" fill="#F266FF"/>
  <path d="M67.2271 67.1279H41.8594V41.7992H67.2271V67.1279ZM43.4338 65.5559H65.6527V43.3712H43.4338V65.5559Z" fill="#30322C"/>
  <path d="M200.001 235.214C229.691 235.214 253.76 211.183 253.76 181.538C253.76 151.894 229.691 127.863 200.001 127.863C170.312 127.863 146.243 151.894 146.243 181.538C146.243 211.183 170.312 235.214 200.001 235.214Z" fill="#FEFDF1"/>
  <path d="M200 236C169.925 236 145.455 211.567 145.455 181.538C145.455 151.51 169.925 127.077 200 127.077C230.076 127.077 254.546 151.51 254.546 181.538C254.546 211.567 230.08 236 200 236ZM200 128.653C170.791 128.653 147.029 152.378 147.029 181.542C147.029 210.707 170.791 234.432 200 234.432C229.21 234.432 252.972 210.707 252.972 181.542C252.972 152.378 229.21 128.653 200 128.653Z" fill="#30322C"/>
  <path d="M208.801 172.755H191.203V190.326H208.801V172.755Z" fill="#F8E64B"/>
  <path d="M209.588 191.112H190.416V171.969H209.588V191.112ZM191.99 189.54H208.014V173.541H191.99V189.54Z" fill="#30322C"/>
  <path d="M208.801 155.188H191.203V172.759H208.801V155.188Z" fill="#F266FF"/>
  <path d="M209.588 173.541H190.416V154.398H209.588V173.541ZM191.99 171.969H208.014V155.97H191.99V171.969Z" fill="#30322C"/>
  <path d="M208.801 190.326H191.203V207.897H208.801V190.326Z" fill="#F266FF"/>
  <path d="M209.584 208.679H190.412V189.536H209.584V208.679ZM191.99 207.107H208.014V191.108H191.99V207.107Z" fill="#30322C"/>
  <path d="M226.4 172.755H208.802V190.326H226.4V172.755Z" fill="#F266FF"/>
  <path d="M227.183 191.112H208.011V171.969H227.183V191.112ZM209.585 189.54H225.609V173.541H209.585V189.54Z" fill="#30322C"/>
  <path d="M191.207 172.755H173.609V190.326H191.207V172.755Z" fill="#F266FF"/>
  <path d="M191.991 191.112H172.818V171.969H191.991V191.112ZM174.397 189.54H190.42V173.541H174.397V189.54Z" fill="#30322C"/>
  <path d="M345.456 108.137C375.145 108.137 399.214 84.1058 399.214 54.4616C399.214 24.8174 375.145 0.785995 345.456 0.785995C315.766 0.785995 291.697 24.8174 291.697 54.4616C291.697 84.1058 315.766 108.137 345.456 108.137Z" fill="#FEFDF1"/>
  <path d="M345.455 108.923C315.379 108.923 290.909 84.4905 290.909 54.4616C290.909 24.4327 315.379 0 345.455 0C375.53 0 400 24.4327 400 54.4616C400 84.4905 375.53 108.923 345.455 108.923ZM345.455 1.57592C316.245 1.57592 292.484 25.3012 292.484 54.4655C292.484 83.6298 316.245 107.355 345.455 107.355C374.664 107.355 398.426 83.6298 398.426 54.4655C398.426 25.3012 374.664 1.57592 345.455 1.57592Z" fill="#30322C"/>
  <path d="M352.689 47.2382H338.221V61.6848H352.689V47.2382Z" fill="#F8E64B"/>
  <path d="M353.476 62.4747H337.433V46.4562H353.476V62.4747ZM339.007 60.9028H351.901V48.0282H339.007V60.9028Z" fill="#30322C"/>
  <path d="M352.689 32.7916H338.221V47.2382H352.689V32.7916Z" fill="#F8E64B"/>
  <path d="M353.476 48.0242H337.433V32.0057H353.476V48.0242ZM339.007 46.4522H351.901V33.5776H339.007V46.4522Z" fill="#30322C"/>
  <path d="M352.689 18.3452H338.221V32.7917H352.689V18.3452Z" fill="#F266FF"/>
  <path d="M353.476 33.5776H337.433V17.5592H353.476V33.5776ZM339.007 32.0057H351.901V19.1312H339.007V32.0057Z" fill="#30322C"/>
  <path d="M352.689 76.1354H338.221V90.5819H352.689V76.1354Z" fill="#F266FF"/>
  <path d="M353.476 91.3679H337.433V75.3493H353.476V91.3679ZM339.007 89.7959H351.901V76.9213H339.007V89.7959Z" fill="#30322C"/>
  <path d="M352.689 61.6888H338.221V76.1353H352.689V61.6888Z" fill="#F8E64B"/>
  <path d="M353.476 76.9213H337.433V60.9027H353.476V76.9213ZM339.007 75.3493H351.901V62.4747H339.007V75.3493Z" fill="#30322C"/>
  <path d="M367.157 47.2382H352.688V61.6848H367.157V47.2382Z" fill="#F8E64B"/>
  <path d="M367.945 62.4747H351.901V46.4562H367.945V62.4747ZM353.476 60.9028H366.37V48.0282H353.476V60.9028Z" fill="#30322C"/>
  <path d="M367.157 32.7916H352.688V47.2382H367.157V32.7916Z" fill="#F266FF"/>
  <path d="M367.945 48.0242H351.901V32.0057H367.945V48.0242ZM353.476 46.4522H366.37V33.5776H353.476V46.4522Z" fill="#30322C"/>
  <path d="M367.157 61.6888H352.688V76.1353H367.157V61.6888Z" fill="#F266FF"/>
  <path d="M367.945 76.9213H351.901V60.9027H367.945V76.9213ZM353.476 75.3493H366.37V62.4747H353.476V75.3493Z" fill="#30322C"/>
  <path d="M381.628 47.2382H367.159V61.6848H381.628V47.2382Z" fill="#F266FF"/>
  <path d="M382.419 62.4747H366.376V46.4562H382.419V62.4747ZM367.946 60.9028H380.841V48.0282H367.946V60.9028Z" fill="#30322C"/>
  <path d="M323.748 47.2382H309.279V61.6848H323.748V47.2382Z" fill="#F266FF"/>
  <path d="M324.539 62.4747H308.496V46.4562H324.539V62.4747ZM310.067 60.9028H322.961V48.0282H310.067V60.9028Z" fill="#30322C"/>
  <path d="M338.221 32.7916H323.752V47.2382H338.221V32.7916Z" fill="#F266FF"/>
  <path d="M339.007 48.0242H322.964V32.0057H339.007V48.0242ZM324.538 46.4522H337.433V33.5776H324.538V46.4522Z" fill="#30322C"/>
  <path d="M338.221 61.6888H323.752V76.1353H338.221V61.6888Z" fill="#F266FF"/>
  <path d="M339.007 76.9213H322.964V60.9027H339.007V76.9213ZM324.538 75.3493H337.433V62.4747H324.538V75.3493Z" fill="#30322C"/>
  <path d="M338.221 47.2382H323.752V61.6848H338.221V47.2382Z" fill="#F8E64B"/>
  <path d="M339.007 62.4747H322.964V46.4562H339.007V62.4747ZM324.538 60.9028H337.433V48.0282H324.538V60.9028Z" fill="#30322C"/>
  <path d="M277.503 97.2795L252.884 121.86L258.589 127.557L283.208 102.976L277.503 97.2795Z" fill="#F8E64B"/>
  <path d="M284.274 102.947L258.561 128.621L251.818 121.889L277.531 96.2154L284.274 102.947ZM258.618 126.493L282.142 103.004L277.474 98.3436L253.95 121.832L258.618 126.493Z" fill="#30322C"/>
  <path d="M287.473 107.235L262.854 131.816L268.56 137.512L293.178 112.932L287.473 107.235Z" fill="#F8E64B"/>
  <path d="M294.244 112.903L268.531 138.577L261.789 131.844L287.502 106.171L294.244 112.903ZM268.588 136.448L292.113 112.96L287.445 108.299L263.921 131.788L268.588 136.448Z" fill="#30322C"/>
  <path d="M147.375 121.86L122.756 97.2795L117.051 102.976L141.67 127.557L147.375 121.86Z" fill="#F8E64B"/>
  <path d="M141.698 128.621L115.985 102.948L122.728 96.2155L148.441 121.889L141.698 128.621ZM118.117 103.004L141.641 126.493L146.309 121.832L122.784 98.3437L118.117 103.004Z" fill="#30322C"/>
  <path d="M137.404 131.816L112.785 107.235L107.08 112.932L131.699 137.512L137.404 131.816Z" fill="#F8E64B"/>
  <path d="M131.727 138.577L106.014 112.903L112.757 106.171L138.47 131.844L131.727 138.577ZM108.146 112.96L131.671 136.448L136.338 131.788L112.814 108.299L108.146 112.96Z" fill="#30322C"/>
</svg>
