<svg width="290" height="290" viewBox="0 0 290 290" fill="none" xmlns="http://www.w3.org/2000/svg">
  <path d="M87.047 125.496L74.0049 128.991L77.5079 142.064L90.55 138.569L87.047 125.496Z" fill="#7C4FFF"/>
  <path d="M91.4956 139.114L76.9652 143.007L73.0635 128.446L87.5902 124.553L91.4919 139.115L91.4956 139.114ZM78.0511 141.121L89.6086 138.024L86.5043 126.439L74.9468 129.536L78.0511 141.121Z" fill="#30322C"/>
  <path d="M74.004 128.991L60.9619 132.486L64.4649 145.559L77.507 142.064L74.004 128.991Z" fill="#7C4FFF"/>
  <path d="M78.449 142.609L63.9222 146.502L60.0205 131.94L74.5472 128.048L78.449 142.609ZM65.0081 144.616L76.5656 141.519L73.4614 129.934L61.9038 133.031L65.0081 144.616Z" fill="#30322C"/>
  <path d="M90.5509 138.569L77.5088 142.064L81.0118 155.137L94.0539 151.643L90.5509 138.569Z" fill="#7C4FFF"/>
  <path d="M94.9986 152.187L80.4681 156.08L76.5664 141.519L91.0931 137.627L94.9948 152.188L94.9986 152.187ZM81.554 154.194L93.1115 151.098L90.0073 139.512L78.4497 142.609L81.554 154.194Z" fill="#30322C"/>
  <path d="M97.5568 164.72L84.5146 168.214L88.0176 181.288L101.06 177.793L97.5568 164.72Z" fill="#7C4FFF"/>
  <path d="M102.005 178.337L87.475 182.231L83.5732 167.669L98.1 163.777L102.002 178.338L102.005 178.337ZM88.5608 180.345L100.118 177.248L97.0141 165.663L85.4566 168.76L88.5608 180.345Z" fill="#30322C"/>
  <path d="M101.06 177.794L88.0176 181.289L91.5206 194.362L104.563 190.867L101.06 177.794Z" fill="#7C4FFF"/>
  <path d="M105.508 191.412L90.9779 195.305L87.0762 180.744L101.603 176.851L105.505 191.413L105.508 191.412ZM92.0637 193.419L103.621 190.322L100.517 178.737L88.9595 181.834L92.0637 193.419Z" fill="#30322C"/>
  <path d="M94.0529 151.643L81.0107 155.137L84.5137 168.211L97.5558 164.716L94.0529 151.643Z" fill="#7C4FFF"/>
  <path d="M98.5015 165.264L83.9711 169.158L80.0693 154.596L94.596 150.704L98.4978 165.265L98.5015 165.264ZM85.0569 167.272L96.6144 164.175L93.5102 152.59L81.9527 155.687L85.0569 167.272Z" fill="#30322C"/>
  <path d="M118.506 132.714L108.47 135.403L111.165 145.463L121.201 142.774L118.506 132.714Z" fill="#B5EE85"/>
  <path d="M122.146 143.318L110.626 146.405L107.531 134.857L119.052 131.77L122.146 143.318ZM111.708 144.52L120.259 142.229L117.962 133.657L109.411 135.948L111.708 144.52Z" fill="#30322C"/>
  <path d="M128.544 130.024L118.508 132.713L121.203 142.773L131.239 140.084L128.544 130.024Z" fill="#B5EE85"/>
  <path d="M132.181 140.629L120.661 143.716L117.566 132.168L129.087 129.081L132.181 140.629ZM121.747 141.83L130.298 139.539L128.001 130.967L119.45 133.258L121.747 141.83Z" fill="#30322C"/>
  <path d="M138.565 127.338L128.529 130.027L131.225 140.087L141.261 137.398L138.565 127.338Z" fill="#B5EE85"/>
  <path d="M142.207 137.943L130.686 141.029L127.592 129.481L139.112 126.395L142.207 137.943ZM131.768 139.145L140.319 136.853L138.023 128.282L129.471 130.573L131.768 139.145Z" fill="#30322C"/>
  <path d="M133.928 150.145L123.893 152.834L126.588 162.894L136.624 160.205L133.928 150.145Z" fill="#B5EE85"/>
  <path d="M137.566 160.754L126.045 163.841L122.951 152.293L134.472 149.206L137.566 160.754ZM127.131 161.955L135.683 159.664L133.386 151.092L124.835 153.384L127.131 161.955Z" fill="#30322C"/>
  <path d="M143.953 147.459L133.917 150.148L136.613 160.208L146.648 157.519L143.953 147.459Z" fill="#B5EE85"/>
  <path d="M147.591 158.068L136.071 161.155L132.977 149.607L144.497 146.52L147.591 158.068ZM137.157 159.269L145.708 156.978L143.411 148.406L134.86 150.697L137.157 159.269Z" fill="#30322C"/>
  <path d="M139.32 170.27L129.284 172.959L131.98 183.019L142.016 180.329L139.32 170.27Z" fill="#B5EE85"/>
  <path d="M142.957 180.875L131.437 183.962L128.343 172.414L139.863 169.327L142.957 180.875ZM132.523 182.076L141.074 179.784L138.777 171.213L130.226 173.504L132.523 182.076Z" fill="#30322C"/>
  <path d="M149.344 167.584L139.309 170.273L142.004 180.333L152.04 177.643L149.344 167.584Z" fill="#B5EE85"/>
  <path d="M152.982 178.189L141.461 181.276L138.367 169.728L149.888 166.641L152.982 178.189ZM142.547 179.39L151.099 177.098L148.802 168.527L140.251 170.818L142.547 179.39Z" fill="#30322C"/>
  <path d="M121.201 142.773L111.165 145.463L113.861 155.522L123.896 152.833L121.201 142.773Z" fill="#B5EE85"/>
  <path d="M124.841 153.378L113.321 156.465L110.227 144.917L121.747 141.83L124.841 153.378ZM114.403 154.58L122.954 152.288L120.657 143.717L112.106 146.008L114.403 154.58Z" fill="#30322C"/>
  <path d="M126.593 162.898L116.558 165.587L119.253 175.647L129.289 172.958L126.593 162.898Z" fill="#B5EE85"/>
  <path d="M130.234 173.502L118.713 176.589L115.619 165.041L127.14 161.954L130.234 173.502ZM119.796 174.704L128.347 172.413L126.05 163.841L117.499 166.132L119.796 174.704Z" fill="#30322C"/>
  <path d="M129.289 172.958L119.253 175.647L121.948 185.707L131.984 183.018L129.289 172.958Z" fill="#B5EE85"/>
  <path d="M132.929 183.562L121.409 186.649L118.314 175.101L129.835 172.014L132.929 183.562ZM122.491 184.764L131.042 182.473L128.745 173.901L120.194 176.192L122.491 184.764Z" fill="#30322C"/>
  <path d="M123.896 152.833L113.86 155.523L116.556 165.582L126.592 162.893L123.896 152.833Z" fill="#B5EE85"/>
  <path d="M127.538 163.441L116.017 166.528L112.923 154.98L124.443 151.893L127.538 163.441ZM117.099 164.643L125.65 162.352L123.354 153.78L114.802 156.072L117.099 164.643Z" fill="#30322C"/>
  <path d="M156.938 122.416L146.902 125.105L149.598 135.164L159.634 132.475L156.938 122.416Z" fill="#B5EE85"/>
  <path d="M160.579 133.02L149.058 136.107L145.964 124.559L157.484 121.472L160.579 133.02ZM150.14 134.222L158.692 131.931L156.395 123.359L147.843 125.65L150.14 134.222Z" fill="#30322C"/>
  <path d="M166.977 119.726L156.941 122.415L159.637 132.475L169.673 129.786L166.977 119.726Z" fill="#B5EE85"/>
  <path d="M170.615 130.331L159.094 133.418L156 121.87L167.52 118.783L170.615 130.331ZM160.18 131.532L168.731 129.24L166.435 120.669L157.883 122.96L160.18 131.532Z" fill="#30322C"/>
  <path d="M176.998 117.041L166.962 119.73L169.657 129.789L179.693 127.1L176.998 117.041Z" fill="#B5EE85"/>
  <path d="M180.639 127.645L169.119 130.732L166.024 119.184L177.545 116.097L180.639 127.645ZM170.201 128.847L178.752 126.555L176.455 117.984L167.904 120.275L170.201 128.847Z" fill="#30322C"/>
  <path d="M172.36 139.847L162.324 142.537L165.02 152.596L175.056 149.907L172.36 139.847Z" fill="#B5EE85"/>
  <path d="M175.998 150.456L164.478 153.543L161.384 141.995L172.904 138.908L175.998 150.456ZM165.564 151.657L174.115 149.366L171.818 140.794L163.267 143.086L165.564 151.657Z" fill="#30322C"/>
  <path d="M177.752 159.972L167.716 162.661L170.411 172.721L180.447 170.032L177.752 159.972Z" fill="#B5EE85"/>
  <path d="M181.389 170.577L169.869 173.664L166.774 162.116L178.295 159.029L181.389 170.577ZM170.955 171.778L179.506 169.487L177.209 160.915L168.658 163.206L170.955 171.778Z" fill="#30322C"/>
  <path d="M169.623 129.631L159.587 132.32L162.282 142.38L172.318 139.691L169.623 129.631Z" fill="#B5EE85"/>
  <path d="M173.26 140.237L161.74 143.323L158.646 131.775L170.166 128.689L173.26 140.237ZM162.826 141.438L171.377 139.146L169.08 130.575L160.529 132.866L162.826 141.438Z" fill="#30322C"/>
  <path d="M175.098 150.069L165.062 152.758L167.758 162.817L177.794 160.128L175.098 150.069Z" fill="#B5EE85"/>
  <path d="M178.736 160.673L167.215 163.76L164.121 152.212L175.642 149.125L178.736 160.673ZM168.301 161.874L176.852 159.583L174.556 151.011L166.004 153.303L168.301 161.874Z" fill="#30322C"/>
  <path d="M195.37 112.118L185.334 114.807L188.03 124.867L198.065 122.178L195.37 112.118Z" fill="#B5EE85"/>
  <path d="M199.01 122.722L187.49 125.809L184.396 114.261L195.916 111.174L199.01 122.722ZM188.572 123.924L197.123 121.633L194.826 113.061L186.275 115.352L188.572 123.924Z" fill="#30322C"/>
  <path d="M215.43 106.743L205.395 109.432L208.09 119.491L218.126 116.802L215.43 106.743Z" fill="#B5EE85"/>
  <path d="M219.071 117.347L207.55 120.434L204.456 108.886L215.976 105.799L219.071 117.347ZM208.632 118.549L217.184 116.258L214.887 107.686L206.336 109.977L208.632 118.549Z" fill="#30322C"/>
  <path d="M210.793 129.55L200.757 132.239L203.452 142.299L213.488 139.609L210.793 129.55Z" fill="#B5EE85"/>
  <path d="M214.431 140.158L202.911 143.245L199.816 131.697L211.337 128.61L214.431 140.158ZM203.997 141.359L212.548 139.068L210.251 130.496L201.7 132.788L203.997 141.359Z" fill="#30322C"/>
  <path d="M220.818 126.863L210.782 129.552L213.478 139.612L223.514 136.923L220.818 126.863Z" fill="#B5EE85"/>
  <path d="M224.455 137.472L212.935 140.559L209.841 129.011L221.361 125.924L224.455 137.472ZM214.021 138.673L222.572 136.382L220.275 127.81L211.724 130.102L214.021 138.673Z" fill="#30322C"/>
  <path d="M218.122 116.804L208.086 119.493L210.781 129.553L220.817 126.863L218.122 116.804Z" fill="#B5EE85"/>
  <path d="M221.759 127.409L210.239 130.495L207.145 118.947L218.665 115.861L221.759 127.409ZM211.325 128.609L219.876 126.318L217.579 117.746L209.028 120.038L211.325 128.609Z" fill="#30322C"/>
  <path d="M223.518 136.927L213.482 139.616L216.178 149.676L226.214 146.987L223.518 136.927Z" fill="#B5EE85"/>
  <path d="M227.159 147.531L215.638 150.618L212.544 139.07L224.064 135.983L227.159 147.531ZM216.72 148.733L225.272 146.442L222.975 137.87L214.424 140.161L216.72 148.733Z" fill="#30322C"/>
  <path d="M226.21 146.988L216.174 149.677L218.869 159.737L228.905 157.047L226.21 146.988Z" fill="#B5EE85"/>
  <path d="M229.847 157.593L218.327 160.68L215.232 149.132L226.753 146.045L229.847 157.593ZM219.413 158.794L227.964 156.502L225.667 147.931L217.116 150.222L219.413 158.794Z" fill="#30322C"/>
  <path d="M198.066 122.178L188.03 124.867L190.726 134.927L200.762 132.237L198.066 122.178Z" fill="#B5EE85"/>
  <path d="M201.706 132.782L190.186 135.869L187.092 124.321L198.612 121.234L201.706 132.782ZM191.268 133.984L199.819 131.692L197.523 123.121L188.971 125.412L191.268 133.984Z" fill="#30322C"/>
  <path d="M203.458 142.302L193.422 144.991L196.117 155.051L206.153 152.362L203.458 142.302Z" fill="#B5EE85"/>
  <path d="M207.098 152.906L195.578 155.993L192.483 144.445L204.004 141.358L207.098 152.906ZM196.66 154.108L205.211 151.817L202.914 143.245L194.363 145.536L196.66 154.108Z" fill="#30322C"/>
  <path d="M206.152 152.362L196.116 155.051L198.812 165.111L208.848 162.422L206.152 152.362Z" fill="#B5EE85"/>
  <path d="M209.793 162.966L198.273 166.053L195.179 154.505L206.699 151.418L209.793 162.966ZM199.355 164.168L207.906 161.877L205.61 153.305L197.058 155.596L199.355 164.168Z" fill="#30322C"/>
  <path d="M200.761 132.238L190.726 134.927L193.421 144.986L203.457 142.297L200.761 132.238Z" fill="#B5EE85"/>
  <path d="M204.403 142.846L192.882 145.932L189.788 134.384L201.308 131.298L204.403 142.846ZM193.964 144.047L202.516 141.756L200.219 133.185L191.668 135.476L193.964 144.047Z" fill="#30322C"/>
  <path d="M167.011 260.777L178.152 257.792L175.16 246.623L164.018 249.609L167.011 260.777Z" fill="#F266FF"/>
  <path d="M179.096 258.337L166.469 261.721L163.078 249.064L175.705 245.681L179.096 258.337ZM167.555 259.835L177.213 257.247L174.619 247.567L164.961 250.154L167.555 259.835Z" fill="#30322C"/>
  <path d="M149.537 262.789L161 261.501L159.701 250.013L148.238 251.3L149.537 262.789Z" fill="#B5EE85"/>
  <path d="M161.866 262.145L148.875 263.604L147.403 250.585L160.394 249.125L161.866 262.145ZM150.229 261.902L160.165 260.786L159.04 250.828L149.104 251.943L150.229 261.902Z" fill="#30322C"/>
  <path d="M132.005 262.058L143.534 262.498L143.959 250.945L132.43 250.506L132.005 262.058Z" fill="#F8E64B"/>
  <path d="M144.255 263.331L131.189 262.832L131.671 249.74L144.737 250.239L144.255 263.331ZM132.782 261.353L142.773 261.734L143.141 251.723L133.15 251.341L132.782 261.353Z" fill="#30322C"/>
  <path d="M114.713 258.798L126.05 260.954L128.188 249.596L116.851 247.439L114.713 258.798Z" fill="#B5EE85"/>
  <path d="M126.665 261.879L113.818 259.436L116.241 246.565L129.088 249.009L126.665 261.879ZM115.614 258.209L125.439 260.079L127.292 250.235L117.467 248.366L115.614 258.209Z" fill="#30322C"/>
  <path d="M98.1177 253.04L109.009 256.864L112.813 245.955L101.921 242.131L98.1177 253.04Z" fill="#7C4FFF"/>
  <path d="M109.481 257.815L97.1381 253.482L101.447 241.119L113.79 245.452L109.481 257.815ZM99.096 252.535L108.537 255.851L111.835 246.394L102.394 243.078L99.096 252.535Z" fill="#30322C"/>
  <path d="M82.5678 244.74L92.7715 250.148L98.1563 239.93L87.9526 234.522L82.5678 244.74Z" fill="#B5EE85"/>
  <path d="M93.0943 251.228L81.5311 245.1L87.6333 233.52L99.1964 239.648L93.0943 251.228ZM83.6071 244.46L92.4494 249.148L97.1177 240.293L88.2754 235.605L83.6071 244.46Z" fill="#30322C"/>
  <path d="M68.3922 234.326L77.6787 241.197L84.5235 231.899L75.237 225.029L68.3922 234.326Z" fill="#F266FF"/>
  <path d="M77.8646 242.27L67.3409 234.483L75.0991 223.947L85.6228 231.734L77.8646 242.27ZM69.4906 234.163L77.5382 240.117L83.4704 232.059L75.4228 226.105L69.4906 234.163Z" fill="#30322C"/>
  <path d="M55.9547 221.877L64.1172 230.057L72.2697 221.887L64.1072 213.708L55.9547 221.877Z" fill="#5CB318"/>
  <path d="M64.1332 231.14L54.8832 221.871L64.1215 212.613L73.3715 221.882L64.1332 231.14ZM57.0552 221.872L64.1297 228.96L71.1948 221.879L64.1202 214.791L57.0552 221.872Z" fill="#30322C"/>
  <path d="M45.5435 207.718L52.3994 217.025L61.6782 210.166L54.8223 200.859L45.5435 207.718Z" fill="#B5EE85"/>
  <path d="M52.2107 218.086L44.4403 207.54L54.9554 199.766L62.7258 210.312L52.2107 218.086ZM46.5918 207.864L52.5358 215.929L60.577 209.983L54.633 201.918L46.5918 207.864Z" fill="#30322C"/>
  <path d="M37.2744 192.153L42.6709 202.377L52.8672 196.982L47.4707 186.758L37.2744 192.153Z" fill="#F266FF"/>
  <path d="M42.3601 203.4L36.2439 191.812L47.8002 185.697L53.9164 197.285L42.3601 203.4ZM38.3217 192.456L42.9997 201.318L51.8386 196.641L47.1606 187.778L38.3217 192.456Z" fill="#30322C"/>
  <path d="M31.4638 175.525L35.2803 186.44L46.1674 182.628L42.3509 171.714L31.4638 175.525Z" fill="#B5EE85"/>
  <path d="M34.8038 187.404L30.4798 175.037L42.8159 170.719L47.14 183.086L34.8038 187.404ZM32.4361 175.984L35.743 185.446L45.1799 182.14L41.873 172.678L32.4361 175.984Z" fill="#30322C"/>
  <path d="M28.1547 158.19L30.3066 169.55L41.6408 167.408L39.4889 156.047L28.1547 158.19Z" fill="#5CB318"/>
  <path d="M42.552 168.038L29.7095 170.467L27.2708 157.595L40.1134 155.166L42.552 168.038ZM30.9302 168.668L40.7548 166.809L38.888 156.962L29.0623 158.817L30.9302 168.668Z" fill="#30322C"/>
  <path d="M27.4678 140.604L27.9062 152.156L39.4343 151.731L38.9959 140.178L27.4678 140.604Z" fill="#F266FF"/>
  <path d="M40.2511 152.474L27.1855 152.956L26.6885 139.863L39.7541 139.381L40.2511 152.474ZM28.6632 151.36L38.6565 150.991L38.2763 140.977L28.2831 141.346L28.6632 151.36Z" fill="#30322C"/>
  <path d="M29.4347 123.079L28.1504 134.566L39.6155 135.867L40.8999 124.379L29.4347 123.079Z" fill="#F8E64B"/>
  <path d="M40.2881 136.745L27.2948 135.27L28.7511 122.252L41.7444 123.727L40.2881 136.745ZM28.9957 133.913L38.9329 135.043L40.0481 125.086L30.1109 123.957L28.9957 133.913Z" fill="#30322C"/>
  <path d="M33.9461 106.1L30.9668 117.264L42.1119 120.263L45.0913 109.099L33.9461 106.1Z" fill="#7C4FFF"/>
  <path d="M42.668 121.202L30.0383 117.804L33.4148 105.152L46.0445 108.551L42.668 121.202ZM31.922 116.713L41.5808 119.313L44.1635 109.637L34.5047 107.037L31.922 116.713Z" fill="#30322C"/>
  <path d="M40.955 89.965L36.3477 100.558L46.9242 105.188L51.5316 94.5946L40.955 89.965Z" fill="#B5EE85"/>
  <path d="M47.3329 106.188L35.346 100.942L40.5664 88.9369L52.5532 94.1824L47.3329 106.188ZM37.369 100.149L46.5351 104.161L50.5275 94.9804L41.3614 90.9687L37.369 100.149Z" fill="#30322C"/>
  <path d="M50.3249 75.0527L44.1924 84.8382L53.9649 90.9951L60.0975 81.2097L50.3249 75.0527Z" fill="#7C4FFF"/>
  <path d="M54.1781 92.0402L43.1036 85.0629L50.0533 73.9738L61.1278 80.9511L54.1781 92.0402ZM45.2225 84.5829L53.6929 89.9173L59.0062 81.4359L50.5359 76.1014L45.2225 84.5829Z" fill="#30322C"/>
  <path d="M61.7208 61.6777L54.2012 70.4355L62.9498 77.9812L70.4695 69.2234L61.7208 61.6777Z" fill="#5CB318"/>
  <path d="M63.0536 79.0794L53.1365 70.5279L61.6595 60.6042L71.5729 69.1567L63.0536 79.0794ZM55.3085 70.3646L62.8928 76.9055L69.4111 69.3133L61.8268 62.7724L55.3085 70.3646Z" fill="#30322C"/>
  <path d="M75.0675 50.2074L66.3271 57.7433L73.8579 66.5107L82.5982 58.9748L75.0675 50.2074Z" fill="#F8E64B"/>
  <path d="M73.7578 67.5865L65.2243 57.6515L75.1286 49.1121L83.6621 59.0472L73.7578 67.5865ZM67.3927 57.8161L73.9195 65.4138L81.4938 58.8825L74.9669 51.2848L67.3927 57.8161Z" fill="#30322C"/>
  <path d="M89.9466 40.8244L80.1816 46.9698L86.326 56.7623L96.0909 50.6169L89.9466 40.8244Z" fill="#B5EE85"/>
  <path d="M86.0561 57.8276L79.0926 46.7302L90.1588 39.7656L97.1222 50.863L86.0561 57.8276ZM81.2153 47.2141L86.5402 55.7001L95.0023 50.3744L89.6774 41.8883L81.2153 47.2141Z" fill="#30322C"/>
  <path d="M105.987 33.7843L95.416 38.4005L100.035 48.999L110.606 44.3829L105.987 33.7843Z" fill="#7C4FFF"/>
  <path d="M99.6703 50.0124L94.4351 38.0013L106.415 32.7696L111.65 44.7807L99.6703 50.0124ZM96.4588 38.7989L100.464 47.9855L109.627 43.9832L105.622 34.7966L96.4588 38.7989Z" fill="#30322C"/>
  <path d="M122.988 29.2223L111.846 32.2077L114.838 43.3762L125.98 40.3908L122.988 29.2223Z" fill="#F8E64B"/>
  <path d="M126.922 40.936L114.296 44.3193L110.904 31.6626L123.531 28.2794L126.922 40.936ZM115.381 42.4333L125.039 39.8457L122.445 30.1653L112.788 32.753L115.381 42.4333Z" fill="#30322C"/>
  <path d="M140.456 27.2197L128.993 28.5076L130.292 39.9958L141.755 38.7079L140.456 27.2197Z" fill="#B5EE85"/>
  <path d="M142.597 39.4156L129.606 40.8748L128.135 27.8554L141.125 26.3961L142.597 39.4156ZM130.961 39.176L140.898 38.0607L139.773 28.1024L129.836 29.2177L130.961 39.176Z" fill="#30322C"/>
  <path d="M158.007 27.9337L146.478 27.4942L146.053 39.0469L157.582 39.4865L158.007 27.9337Z" fill="#5CB318"/>
  <path d="M158.329 40.2563L145.263 39.7579L145.745 26.6655L158.811 27.164L158.329 40.2563ZM146.856 38.2784L156.847 38.6597L157.216 28.6481L147.224 28.2669L146.856 38.2784Z" fill="#30322C"/>
  <path d="M175.293 31.1984L163.956 29.0422L161.818 40.4004L173.155 42.5566L175.293 31.1984Z" fill="#F266FF"/>
  <path d="M173.76 43.4345L160.913 40.9914L163.336 28.1207L176.183 30.5638L173.76 43.4345ZM162.708 39.7646L172.533 41.6339L174.387 31.7906L164.562 29.9214L162.708 39.7646Z" fill="#30322C"/>
  <path d="M191.874 36.9675L180.982 33.1429L177.179 44.052L188.07 47.8767L191.874 36.9675Z" fill="#B5EE85"/>
  <path d="M188.549 48.8819L176.206 44.5492L180.515 32.1859L192.858 36.5185L188.549 48.8819ZM178.165 43.6056L187.606 46.9215L190.904 37.4649L181.463 34.149L178.165 43.6056Z" fill="#30322C"/>
  <path d="M207.442 45.2531L197.238 39.8449L191.853 50.0633L202.057 55.4715L207.442 45.2531Z" fill="#5CB318"/>
  <path d="M202.368 56.4801L190.805 50.3514L196.907 38.7716L208.47 44.9002L202.368 56.4801ZM192.884 49.7104L201.727 54.3989L206.395 45.544L197.553 40.8554L192.884 49.7104Z" fill="#30322C"/>
  <path d="M221.606 55.6655L212.319 48.7954L205.475 58.093L214.761 64.9631L221.606 55.6655Z" fill="#B5EE85"/>
  <path d="M214.906 66.0518L204.382 58.265L212.14 47.7288L222.664 55.5156L214.906 66.0518ZM206.531 57.9404L214.578 63.8946L220.51 55.8374L212.463 49.8833L206.531 57.9404Z" fill="#30322C"/>
  <path d="M234.038 68.1169L225.875 59.9377L217.722 68.1074L225.885 76.2866L234.038 68.1169Z" fill="#F266FF"/>
  <path d="M225.878 77.3867L216.628 68.1182L225.867 58.8601L235.117 68.1286L225.878 77.3867ZM218.8 68.1183L225.875 75.2065L232.94 68.1257L225.865 61.0376L218.8 68.1183Z" fill="#30322C"/>
  <path d="M244.453 82.2921L237.597 72.9859L228.318 79.8449L235.174 89.1511L244.453 82.2921Z" fill="#7C4FFF"/>
  <path d="M235.046 90.2343L227.275 79.6881L237.79 71.9142L245.561 82.4604L235.046 90.2343ZM229.427 80.0128L235.367 88.0787L243.409 82.1357L237.469 74.0698L229.427 80.0128Z" fill="#30322C"/>
  <path d="M252.722 97.8423L247.325 87.6184L237.129 93.0139L242.525 103.238L252.722 97.8423Z" fill="#F8E64B"/>
  <path d="M242.2 104.303L236.084 92.7153L247.64 86.6002L253.756 98.1878L242.2 104.303ZM238.162 93.3587L242.84 102.221L251.678 97.5443L247 88.6816L238.162 93.3587Z" fill="#30322C"/>
  <path d="M258.53 114.472L254.714 103.557L243.827 107.369L247.643 118.283L258.53 114.472Z" fill="#F266FF"/>
  <path d="M247.185 119.284L242.861 106.917L255.197 102.599L259.521 114.966L247.185 119.284ZM244.82 107.86L248.13 117.32L257.568 114.017L254.261 104.556L244.82 107.86Z" fill="#30322C"/>
  <path d="M261.849 131.807L259.697 120.447L248.363 122.589L250.515 133.95L261.849 131.807Z" fill="#7C4FFF"/>
  <path d="M262.731 132.408L249.888 134.836L247.45 121.964L260.292 119.536L262.731 132.408ZM251.113 133.037L260.937 131.178L259.07 121.331L249.245 123.186L251.113 133.037Z" fill="#30322C"/>
  <path d="M262.537 149.391L262.099 137.839L250.571 138.264L251.009 149.817L262.537 149.391Z" fill="#F8E64B"/>
  <path d="M263.311 150.133L250.245 150.616L249.748 137.523L262.814 137.04L263.311 150.133ZM251.723 149.02L261.716 148.651L261.336 138.636L251.343 139.005L251.723 149.02Z" fill="#30322C"/>
  <path d="M260.574 166.931L261.858 155.444L250.393 154.143L249.109 165.63L260.574 166.931Z" fill="#F266FF"/>
  <path d="M261.248 167.745L248.255 166.27L249.711 153.251L262.704 154.726L261.248 167.745ZM249.952 164.914L259.889 166.043L261.004 156.087L251.068 154.961L249.952 164.914Z" fill="#30322C"/>
  <path d="M256.056 183.893L259.035 172.728L247.89 169.729L244.911 180.894L256.056 183.893Z" fill="#B5EE85"/>
  <path d="M256.587 184.852L243.957 181.453L247.334 168.801L259.963 172.2L256.587 184.852ZM245.837 180.363L255.496 182.963L258.079 173.287L248.42 170.687L245.837 180.363Z" fill="#30322C"/>
  <path d="M249.045 200.027L253.652 189.434L243.076 184.804L238.468 195.397L249.045 200.027Z" fill="#F8E64B"/>
  <path d="M249.431 201.064L237.444 195.819L242.664 183.813L254.651 189.059L249.431 201.064ZM239.469 195.021L248.635 199.032L252.628 189.852L243.462 185.84L239.469 195.021Z" fill="#30322C"/>
  <path d="M239.662 214.946L245.795 205.161L236.022 199.004L229.89 208.789L239.662 214.946Z" fill="#B5EE85"/>
  <path d="M239.946 216.023L228.871 209.045L235.821 197.956L246.895 204.933L239.946 216.023ZM230.99 208.565L239.46 213.9L244.774 205.418L236.303 200.084L230.99 208.565Z" fill="#30322C"/>
  <path d="M228.287 228.328L235.807 219.57L227.058 212.024L219.538 220.782L228.287 228.328Z" fill="#7C4FFF"/>
  <path d="M228.339 229.4L218.422 220.849L226.945 210.925L236.858 219.478L228.339 229.4ZM220.594 220.686L228.178 227.226L234.696 219.634L227.112 213.094L220.594 220.686Z" fill="#30322C"/>
  <path d="M214.928 239.79L223.668 232.255L216.137 223.487L207.397 231.023L214.928 239.79Z" fill="#F266FF"/>
  <path d="M214.872 240.888L206.339 230.953L216.243 222.414L224.776 232.349L214.872 240.888ZM208.503 231.119L215.03 238.716L222.604 232.185L216.077 224.587L208.503 231.119Z" fill="#30322C"/>
  <path d="M200.04 249.178L209.805 243.032L203.66 233.24L193.895 239.385L200.04 249.178Z" fill="#5CB318"/>
  <path d="M199.841 250.235L192.878 239.137L203.944 232.173L210.907 243.27L199.841 250.235ZM194.997 239.622L200.322 248.108L208.784 242.783L203.459 234.296L194.997 239.622Z" fill="#30322C"/>
  <path d="M184.021 256.219L194.592 251.603L189.973 241.004L179.401 245.62L184.021 256.219Z" fill="#7C4FFF"/>
  <path d="M183.585 257.23L178.35 245.219L190.33 239.988L195.565 251.999L183.585 257.23ZM180.374 246.017L184.379 255.203L193.542 251.201L189.537 242.015L180.374 246.017Z" fill="#30322C"/>
</svg>
