<svg width="360" height="216" viewBox="0 0 360 216" fill="none" xmlns="http://www.w3.org/2000/svg">
  <path d="M94.0086 185.113C69.3855 185.113 43.5961 174.082 26.3564 161.003C11.3177 149.594 2.07091 133.981 0.983564 118.167C0.0847508 105.062 4.7805 92.9585 14.5666 83.1563C23.2741 74.4345 36.5941 69.7617 48.4058 70.6532C60.0641 57.285 78.4262 49.9948 94.4382 52.722C125.756 58.0535 149.678 84.0654 168.895 104.97C189.822 127.727 212.696 150.208 241.848 153.379C259.162 155.259 277.638 148.206 287.819 135.83C292.712 129.884 297.724 120.13 293.804 107.447C292.059 101.803 288.17 97.3634 283.303 94.175C280.326 104.904 274.438 114.566 266.774 120.674C260.767 125.466 252.629 125.839 246.048 121.627C240.436 118.039 235.372 110.354 237.99 99.5504C240.318 89.9327 249.166 83.96 261.648 83.5691C267.936 83.3715 274.368 84.6495 280.133 87.2011C280.528 84.7988 280.764 82.357 280.826 79.9197C281.168 66.1957 276.099 53.9956 266.546 45.5636C247.688 28.9192 224.49 20.2632 208.82 24.0312C201.375 25.823 196.807 30.083 194.101 36.9252L189.581 34.7601C192.825 26.5565 198.88 21.6685 207.741 19.5386C225.073 15.3709 249.35 24.2245 269.597 42.0942C280.19 51.4485 285.82 64.9221 285.438 80.0338C285.359 83.1783 285.013 86.3183 284.421 89.4057C291.349 93.5207 296.11 99.2694 298.215 106.076C301.748 117.508 299.324 129.115 291.384 138.764C280.256 152.29 260.149 160.011 241.353 157.968C210.609 154.631 187.025 131.5 165.506 108.097C145.785 86.6521 123.433 62.3442 93.6666 57.2762C85.757 55.928 77.2029 57.2323 68.9295 61.0487C63.3305 63.631 58.17 67.2453 53.9303 71.5096C55.1184 71.7995 56.2803 72.1508 57.4027 72.5724C64.3959 75.1898 70.7797 80.1876 74.9186 86.2876C79.6012 93.1825 80.8201 100.644 78.3604 107.306C75.7254 114.443 68.6883 119.533 60.8533 119.976C56.9424 120.196 47.1782 119.388 40.9961 107.108C36.1118 97.4117 37.5368 85.8528 44.872 75.1898C35.213 75.3875 24.7342 79.4981 17.8286 86.4193C9.01589 95.2466 4.7805 106.116 5.58286 117.846C6.57375 132.325 15.1629 146.713 29.1362 157.318C39.5449 165.215 53.0928 172.057 66.312 176.093C82.324 180.981 97.6696 181.811 110.683 178.5L111.818 182.979C106.057 184.446 100.068 185.113 94.0086 185.113ZM262.85 88.1716C262.494 88.1716 262.144 88.176 261.797 88.1892C251.511 88.5098 244.286 93.1649 242.475 100.64C241.133 106.173 242.023 113.569 248.534 117.732C253.427 120.863 259.46 120.595 263.906 117.056C271.092 111.329 276.56 102.093 279.16 91.8562C273.99 89.4189 268.19 88.1716 262.85 88.1716ZM50.3613 75.528C50.0588 75.9101 49.7694 76.2921 49.4844 76.6786C42.443 86.2305 40.8514 96.5641 45.1175 105.031C49.8922 114.517 56.8635 115.576 60.5946 115.365C66.5312 115.031 72.06 111.057 74.0374 105.703C78.2377 94.3287 67.7939 81.3953 55.7893 76.9026C54.0749 76.2614 52.2554 75.8091 50.3613 75.528Z" fill="#7C4FFF"/>
  <path d="M94.0082 185.992C67.342 185.992 41.3027 173.445 25.8256 161.706C10.5852 150.142 1.21126 134.297 0.110759 118.228C-0.805592 104.864 3.97785 92.5237 13.9481 82.537C22.5109 73.9601 35.8484 68.9668 48.0329 69.7485C59.9454 56.3188 78.5925 49.134 94.5826 51.8568C126.195 57.241 150.226 83.3715 169.539 104.372C190.357 127.007 213.09 149.37 241.944 152.505C258.978 154.354 277.143 147.428 287.143 135.272C291.901 129.493 296.772 120.016 292.966 107.71C291.51 102.998 288.354 98.8302 283.811 95.5891C280.646 106.155 274.683 115.501 267.321 121.364C261.017 126.392 252.48 126.788 245.579 122.369C239.712 118.615 234.412 110.595 237.139 99.344C239.568 89.3222 248.718 83.0948 261.622 82.6951C267.655 82.5107 273.788 83.6306 279.436 85.9538C279.725 83.9336 279.896 81.9003 279.944 79.902C280.282 66.4416 275.314 54.4831 265.962 46.2267C247.311 29.7623 224.424 21.1854 209.017 24.892C202.068 26.5652 197.582 30.4913 194.908 37.2545L194.561 38.1285L188.458 35.2036L188.761 34.4395C192.067 26.0821 198.205 20.9307 207.531 18.6865C225.13 14.453 249.718 23.3856 270.171 41.4398C280.966 50.9653 286.696 64.6805 286.31 80.0601C286.236 83.007 285.929 86.0021 285.39 88.9752C292.216 93.1781 296.934 98.9926 299.047 105.822C302.669 117.543 300.187 129.444 292.054 139.326C281.952 151.605 264.585 159.172 247.398 159.172C245.342 159.172 243.29 159.062 241.251 158.842C210.209 155.47 186.49 132.22 164.852 108.694C145.223 87.3503 122.981 63.161 93.5128 58.1413C85.7786 56.8238 77.3999 58.1062 69.2887 61.8479C64.2992 64.1491 59.6078 67.3199 55.6399 71.066C56.3414 71.2724 57.0341 71.5052 57.7006 71.7555C64.856 74.4344 71.3976 79.5551 75.6374 85.8001C80.4822 92.9365 81.7405 100.683 79.1756 107.618C76.4222 115.075 69.0738 120.398 60.8925 120.859C56.8105 121.087 46.6167 120.244 40.2022 107.508C35.4188 98.0089 36.5193 86.6608 43.1836 76.1472C33.9675 76.7708 24.6155 80.8594 18.4422 87.0429C9.81356 95.6857 5.66586 106.318 6.45068 117.789C7.42841 132.018 15.886 146.168 29.662 156.62C39.9918 164.459 53.4433 171.249 66.5659 175.254C82.4245 180.094 97.6035 180.924 110.467 177.647L111.318 177.432L112.888 183.611L112.037 183.827C106.399 185.263 100.335 185.992 94.0082 185.992ZM45.4986 71.4217C34.4805 71.4217 22.8485 76.1033 15.1889 83.7755C5.58694 93.3933 0.97888 105.264 1.86016 118.105C2.92558 133.665 12.0496 149.045 26.8866 160.305C42.1358 171.872 67.776 184.235 94.0082 184.235C99.8703 184.235 105.5 183.598 110.757 182.338L110.051 179.562C97.0642 182.667 81.8765 181.762 66.0617 176.936C52.7505 172.874 39.1017 165.979 28.6097 158.021C14.4304 147.266 5.71848 132.646 4.71005 117.912C3.88577 105.918 8.20885 94.8162 17.2101 85.8045C24.0718 78.9315 34.6646 74.531 44.8541 74.3202L46.5641 74.2851L45.5907 75.6992C38.4572 86.0636 37.0673 97.3721 41.7719 106.722C47.7172 118.527 57.0561 119.317 60.796 119.106C68.289 118.681 75.0148 113.819 77.5314 107.007C79.8903 100.622 78.7021 93.4372 74.1861 86.7882C70.1437 80.8375 63.9133 75.9583 57.0867 73.4024C56.0082 72.9983 54.8726 72.6514 53.7151 72.3703L52.1981 72.0014L53.2986 70.8947C57.6348 66.5382 62.9093 62.858 68.5521 60.2537C76.9834 56.3627 85.7172 55.0364 93.8022 56.411C123.871 61.5317 146.332 85.9538 166.15 107.504C187.559 130.784 211.007 153.792 241.449 157.094C259.96 159.106 279.756 151.517 290.708 138.206C298.451 128.795 300.819 117.477 297.377 106.34C295.342 99.7568 290.708 94.1662 283.974 90.1654L283.443 89.8492L283.557 89.2431C284.145 86.169 284.482 83.064 284.557 80.0118C284.929 65.1636 279.409 51.9315 269.014 42.7529C248.977 25.0632 225.007 16.2887 207.943 20.3905C199.498 22.4195 193.851 26.9824 190.703 34.3253L193.641 35.7306C196.578 28.9191 201.357 24.9183 208.609 23.1748C224.547 19.3409 248.06 28.0715 267.12 44.9004C276.871 53.5081 282.049 65.9497 281.698 79.9416C281.637 82.3877 281.4 84.8778 280.996 87.3459L280.812 88.4658L279.778 88.0091C274.082 85.4883 267.826 84.2586 261.679 84.4518C249.613 84.8295 241.076 90.5518 238.844 99.7612C236.336 110.112 241.168 117.464 246.526 120.89C252.787 124.895 260.521 124.543 266.234 119.989C273.582 114.135 279.497 104.64 282.465 93.9422L282.785 92.7828L283.789 93.4416C289.209 96.9944 292.966 101.746 294.645 107.188C298.683 120.244 293.532 130.275 288.503 136.388C279.256 147.63 263.292 154.556 247.46 154.556C245.553 154.556 243.65 154.455 241.76 154.249C212.305 151.047 189.296 128.443 168.255 105.563C149.121 84.7592 125.313 58.8703 94.2932 53.5871C78.7547 50.939 60.5812 58.0315 49.0676 71.2285L48.7782 71.5579L48.3398 71.5227C47.4015 71.4569 46.4501 71.4217 45.4986 71.4217ZM255.825 120.793C253.168 120.793 250.485 120.024 248.065 118.474C241.164 114.06 240.212 106.261 241.624 100.433C243.531 92.5501 251.064 87.6446 261.771 87.3108C267.676 87.1307 274.056 88.4746 279.536 91.0657L280.19 91.3731L280.01 92.0758C277.318 102.651 271.649 112.01 264.45 117.745C261.915 119.77 258.89 120.793 255.825 120.793ZM262.849 89.0499C262.507 89.0499 262.165 89.0543 261.823 89.0675C251.954 89.3749 245.04 93.7797 243.325 100.846C242.058 106.085 242.882 113.077 249.007 116.994C253.58 119.919 259.215 119.673 263.362 116.37C270.105 110.995 275.463 102.269 278.129 92.348C273.368 90.2181 267.97 89.0499 262.849 89.0499ZM59.77 116.269C55.6837 116.269 48.9843 114.667 44.3324 105.426C39.9128 96.6519 41.5351 85.9845 48.7782 76.156C49.072 75.7607 49.3701 75.3698 49.6726 74.979L49.9883 74.5793L50.4881 74.654C52.4699 74.9482 54.3552 75.4269 56.0915 76.0769C68.4819 80.7145 79.237 94.1486 74.8569 106.006C72.7612 111.676 66.9167 115.883 60.6425 116.239C60.3707 116.261 60.0769 116.269 59.77 116.269ZM50.7381 76.4765C50.5539 76.7181 50.3698 76.9596 50.19 77.2012C43.3546 86.4764 41.7894 96.4762 45.8976 104.636C50.4487 113.67 57.0254 114.688 60.5417 114.491C66.1406 114.175 71.3494 110.437 73.2128 105.4C76.4397 96.6607 69.9507 83.1431 55.4777 77.7238C54.0045 77.1748 52.4129 76.7532 50.7381 76.4765Z" fill="#30322C"/>
  <path d="M115.181 187.195L113.016 172.817L103.335 174.279L105.5 188.657L115.181 187.195Z" fill="#B5EE85"/>
  <path d="M104.755 189.659L102.33 173.546L113.747 171.824L116.172 187.937L104.755 189.659ZM104.325 175.017L106.228 187.656L114.177 186.457L112.274 173.818L104.325 175.017Z" fill="#30322C"/>
  <path d="M119.703 176.921L119.335 174.48L113.4 175.377L113.768 177.817L119.703 176.921Z" fill="#30322C"/>
  <path d="M120.73 183.744L120.362 181.303L114.427 182.2L114.795 184.64L120.73 183.744Z" fill="#30322C"/>
  <path d="M279.751 93.0551L278.063 92.5808L278.335 91.6059C278.888 89.6516 279.116 88.8435 279.296 86.898L281.041 87.0605C280.848 89.1641 280.589 90.0776 280.023 92.0846L279.751 93.0551Z" fill="#30322C"/>
  <path d="M284.158 94.6713L282.435 94.3375C282.706 92.919 282.899 92.1153 283.083 91.338C283.268 90.5607 283.443 89.8273 283.697 88.501L285.42 88.8347C285.157 90.1962 284.973 90.9823 284.789 91.7464C284.609 92.5062 284.421 93.2923 284.158 94.6713Z" fill="#30322C"/>
  <path d="M43.8022 78.5275L42.2808 77.6579C43.9819 74.676 44.8413 73.6395 46.4065 71.7555C46.8932 71.167 47.4544 70.4907 48.134 69.6431L49.502 70.741C48.8136 71.6018 48.248 72.2825 47.7526 72.8798C46.2049 74.7418 45.4288 75.6817 43.8022 78.5275Z" fill="#30322C"/>
  <path d="M48.98 78.9315L47.5156 77.9653C50.2515 73.8064 51.8519 72.2035 53.9827 70.2316L55.1753 71.5228C53.1365 73.4024 51.6063 74.9395 48.98 78.9315Z" fill="#30322C"/>
  <path d="M293.931 100.095V75.853C293.931 63.7275 303.748 53.8946 315.853 53.8946H318.133C330.239 53.8946 340.056 63.7275 340.056 75.853V78.1366C340.056 90.262 330.239 100.095 318.133 100.095H293.931Z" fill="#FEFDF1"/>
  <path d="M318.133 100.973H293.054V75.853C293.054 63.262 303.283 53.0163 315.853 53.0163H318.133C330.704 53.0163 340.932 63.262 340.932 75.853V78.1366C340.932 90.7276 330.708 100.973 318.133 100.973ZM294.808 99.2167H318.133C329.739 99.2167 339.179 89.7614 339.179 78.1366V75.853C339.179 64.2282 329.739 54.7729 318.133 54.7729H315.853C304.248 54.7729 294.808 64.2282 294.808 75.853V99.2167Z" fill="#30322C"/>
  <path d="M333.939 76.9948C333.939 67.6186 326.354 60.021 316.993 60.021C307.632 60.021 300.047 67.6186 300.047 76.9948C300.047 81.606 301.884 85.7825 304.861 88.8435C306.746 83.9731 311.464 80.5213 316.993 80.5213C322.517 80.5213 327.239 83.9731 329.125 88.8435C332.102 85.7825 333.939 81.606 333.939 76.9948Z" fill="#F266FF"/>
  <path d="M328.8 90.4333L328.309 89.1597C326.485 84.4431 322.044 81.3996 316.997 81.3996C311.951 81.3996 307.509 84.4475 305.685 89.1597L305.194 90.4333L304.243 89.454C300.976 86.0987 299.179 81.6763 299.179 76.9948C299.179 67.1531 307.172 59.1427 317.002 59.1427C326.831 59.1427 334.824 67.1487 334.824 76.9948C334.824 81.6763 333.027 86.0987 329.76 89.454L328.8 90.4333ZM316.993 60.8993C308.132 60.8993 300.924 68.1192 300.924 76.9948C300.924 80.776 302.226 84.3684 304.611 87.2494C306.961 82.5854 311.683 79.643 316.993 79.643C322.302 79.643 327.02 82.5854 329.374 87.2494C331.76 84.3684 333.062 80.7716 333.062 76.9948C333.062 68.1192 325.854 60.8993 316.993 60.8993Z" fill="#30322C"/>
  <path d="M316.993 80.5213C311.469 80.5213 306.747 83.9732 304.861 88.8435C307.939 92.0055 312.236 93.9686 316.993 93.9686C321.75 93.9686 326.047 92.0011 329.125 88.8435C327.24 83.9732 322.522 80.5213 316.993 80.5213Z" fill="#FEFDF1"/>
  <path d="M316.993 94.8469C312.152 94.8469 307.619 92.9322 304.234 89.454L303.839 89.0499L304.041 88.5229C306.132 83.1256 311.214 79.6386 316.988 79.6386C322.763 79.6386 327.844 83.1256 329.936 88.5229L330.137 89.0499L329.743 89.454C326.367 92.9322 321.838 94.8469 316.993 94.8469ZM305.9 88.6327C308.903 91.5093 312.819 93.0903 316.993 93.0903C321.167 93.0903 325.082 91.5137 328.085 88.6327C326.143 84.2191 321.846 81.3996 316.993 81.3996C312.139 81.3996 307.842 84.2191 305.9 88.6327Z" fill="#30322C"/>
  <path d="M309.268 72.5724V71.8082C309.268 67.7459 312.556 64.4522 316.612 64.4522H317.374C321.43 64.4522 324.718 67.7459 324.718 71.8082V72.5724C324.718 76.6347 321.43 79.9284 317.374 79.9284H316.612C312.556 79.9284 309.268 76.6347 309.268 72.5724Z" fill="#FEFDF1"/>
  <path d="M317.374 80.8068H316.611C312.078 80.8068 308.391 77.1134 308.391 72.5724V71.8082C308.391 67.2672 312.078 63.5738 316.611 63.5738H317.374C321.908 63.5738 325.595 67.2672 325.595 71.8082V72.5724C325.595 77.1134 321.908 80.8068 317.374 80.8068ZM316.611 65.3305C313.047 65.3305 310.144 68.2334 310.144 71.8082V72.5724C310.144 76.1428 313.047 79.0501 316.611 79.0501H317.374C320.939 79.0501 323.841 76.1472 323.841 72.5724V71.8082C323.841 68.2378 320.943 65.3305 317.374 65.3305H316.611Z" fill="#30322C"/>
  <path d="M100.098 151.561V149.277C100.098 137.152 90.2813 127.319 78.1758 127.319H75.8959C63.7904 127.319 53.9736 137.152 53.9736 149.277V173.519H78.1758C90.2857 173.519 100.098 163.691 100.098 151.561Z" fill="#FEFDF1"/>
  <path d="M78.1758 174.398H53.0967V149.277C53.0967 136.686 63.3256 126.441 75.8958 126.441H78.1758C90.746 126.441 100.975 136.686 100.975 149.277V151.561C100.975 164.156 90.746 174.398 78.1758 174.398ZM54.8505 172.641H78.1758C89.7814 172.641 99.2211 163.186 99.2211 151.561V149.277C99.2211 137.653 89.7814 128.197 78.1758 128.197H75.8958C64.2902 128.197 54.8505 137.653 54.8505 149.277V172.641Z" fill="#30322C"/>
  <path d="M60.0898 150.419C60.0898 141.043 67.675 133.445 77.0358 133.445C86.3966 133.445 93.9817 141.043 93.9817 150.419C93.9817 155.03 92.1446 159.207 89.1675 162.268C87.2822 157.398 82.5646 153.946 77.0358 153.946C71.5114 153.946 66.7893 157.398 64.904 162.268C61.9269 159.207 60.0898 155.03 60.0898 150.419Z" fill="#B5EE85"/>
  <path d="M88.8431 163.858L88.352 162.584C86.5281 157.867 82.0866 154.824 77.0401 154.824C71.9936 154.824 67.5521 157.872 65.7282 162.584L65.2372 163.858L64.2857 162.878C61.0193 159.523 59.2217 155.101 59.2217 150.419C59.2217 140.577 67.2145 132.567 77.0445 132.567C86.87 132.567 94.8673 140.573 94.8673 150.419C94.8673 155.101 93.0697 159.523 89.8032 162.878L88.8431 163.858ZM77.0357 134.324C68.1747 134.324 60.9667 141.544 60.9667 150.419C60.9667 154.196 62.2689 157.793 64.654 160.674C67.0041 156.01 71.7261 153.067 77.0357 153.067C82.3453 153.067 87.063 156.01 89.4174 160.674C91.8026 157.793 93.1047 154.196 93.1047 150.419C93.1047 141.544 85.8967 134.324 77.0357 134.324Z" fill="#30322C"/>
  <path d="M77.0361 153.946C82.5605 153.946 87.2826 157.398 89.1679 162.268C86.09 165.43 81.7932 167.393 77.0361 167.393C72.279 167.393 67.9822 165.425 64.9043 162.268C66.7896 157.398 71.5073 153.946 77.0361 153.946Z" fill="#FEFDF1"/>
  <path d="M77.0357 168.271C72.1953 168.271 67.6617 166.357 64.2769 162.878L63.8823 162.474L64.084 161.947C66.1754 156.55 71.257 153.063 77.0313 153.063C82.8056 153.063 87.8872 156.55 89.9786 161.947L90.1803 162.474L89.7857 162.878C86.4097 166.357 81.8761 168.271 77.0357 168.271ZM65.943 162.057C68.9464 164.934 72.8661 166.515 77.0357 166.515C81.2097 166.515 85.125 164.938 88.1284 162.057C86.186 157.643 81.8893 154.824 77.0357 154.824C72.1777 154.824 67.8853 157.643 65.943 162.057Z" fill="#30322C"/>
  <path d="M84.7614 146.001V145.237C84.7614 141.175 81.473 137.881 77.4174 137.881H76.6545C72.5989 137.881 69.3105 141.175 69.3105 145.237V146.001C69.3105 150.063 72.5989 153.357 76.6545 153.357H77.4174C81.473 153.353 84.7614 150.059 84.7614 146.001Z" fill="#FEFDF1"/>
  <path d="M77.4174 154.231H76.6544C72.1209 154.231 68.4336 150.538 68.4336 145.997V145.233C68.4336 140.692 72.1209 136.998 76.6544 136.998H77.4174C81.9509 136.998 85.6382 140.692 85.6382 145.233V145.997C85.6382 150.538 81.9509 154.231 77.4174 154.231ZM76.6544 138.759C73.0899 138.759 70.1874 141.667 70.1874 145.237V146.001C70.1874 149.572 73.0899 152.479 76.6544 152.479H77.4174C80.9819 152.479 83.8844 149.576 83.8844 146.001V145.237C83.8844 141.667 80.9819 138.759 77.4174 138.759H76.6544Z" fill="#30322C"/>
  <path d="M84.8754 53.9034V29.6614C84.8754 17.536 75.0586 7.70302 62.9532 7.70302H60.6733C48.5678 7.70302 38.751 17.536 38.751 29.6614V31.945C38.751 44.0705 48.5678 53.9034 60.6733 53.9034H84.8754Z" fill="#FEFDF1"/>
  <path d="M85.7523 54.7817H60.6732C48.103 54.7817 37.874 44.536 37.874 31.945V29.6614C37.874 17.0704 48.103 6.82466 60.6732 6.82466H62.9531C75.5233 6.82466 85.7523 17.0704 85.7523 29.6614V54.7817ZM60.6732 8.58133C49.0675 8.58133 39.6278 18.0366 39.6278 29.6614V31.945C39.6278 43.5698 49.0675 53.0251 60.6732 53.0251H83.9985V29.6614C83.9985 18.0366 74.5588 8.58133 62.9531 8.58133H60.6732Z" fill="#30322C"/>
  <path d="M44.8672 30.8032C44.8672 21.427 52.4523 13.8294 61.8131 13.8294C71.1739 13.8294 78.759 21.427 78.759 30.8032C78.759 35.4145 76.9219 39.5909 73.9449 42.6519C72.0596 37.7816 67.3419 34.3297 61.8131 34.3297C56.2887 34.3297 51.5666 37.7816 49.6813 42.6519C46.7043 39.5909 44.8672 35.4145 44.8672 30.8032Z" fill="#7C4FFF"/>
  <path d="M50.0101 44.2417L49.0587 43.2624C45.7923 39.9071 43.9946 35.4847 43.9946 30.8032C43.9946 20.9615 51.9875 12.9511 61.8174 12.9511C71.643 12.9511 79.6403 20.9571 79.6403 30.8032C79.6403 35.4847 77.8426 39.9071 74.5762 43.2624L73.6248 44.2417L73.1337 42.9681C71.3098 38.2515 66.8683 35.2081 61.8218 35.2081C56.7753 35.2081 52.3339 38.2559 50.5099 42.9681L50.0101 44.2417ZM61.8131 33.4514C67.1182 33.4514 71.8403 36.3938 74.1948 41.0578C76.5799 38.1768 77.8821 34.58 77.8821 30.8032C77.8821 21.9276 70.674 14.7077 61.8131 14.7077C52.9521 14.7077 45.744 21.9276 45.744 30.8032C45.744 34.58 47.0462 38.1768 49.4314 41.0578C51.7858 36.3938 56.5079 33.4514 61.8131 33.4514Z" fill="#30322C"/>
  <path d="M61.8139 34.3297C67.3383 34.3297 72.0604 37.7816 73.9457 42.6519C70.8678 45.8139 66.571 47.777 61.8139 47.777C57.0568 47.777 52.76 45.8095 49.6821 42.6519C51.5718 37.7816 56.2895 34.3297 61.8139 34.3297Z" fill="#FEFDF1"/>
  <path d="M61.813 48.6553C56.9726 48.6553 52.4391 46.7406 49.0543 43.2624L48.6597 42.8583L48.8614 42.3313C50.9527 36.934 56.0343 33.447 61.8087 33.447C67.583 33.447 72.6646 36.934 74.756 42.3313L74.9576 42.8583L74.563 43.2624C71.187 46.7406 66.6535 48.6553 61.813 48.6553ZM50.7204 42.4411C53.7237 45.3177 57.6434 46.8987 61.813 46.8987C65.9827 46.8987 69.9024 45.3221 72.9057 42.4411C70.9634 38.0275 66.6666 35.208 61.813 35.208C56.9594 35.208 52.6627 38.0275 50.7204 42.4411Z" fill="#30322C"/>
  <path d="M69.5387 26.3808V25.6166C69.5387 21.5543 66.2504 18.2606 62.1948 18.2606H61.4319C57.3762 18.2606 54.0879 21.5543 54.0879 25.6166V26.3808C54.0879 30.4431 57.3762 33.7368 61.4319 33.7368H62.1948C66.2504 33.7368 69.5387 30.4431 69.5387 26.3808Z" fill="#FEFDF1"/>
  <path d="M62.1947 34.6151H61.4318C56.8983 34.6151 53.2109 30.9218 53.2109 26.3808V25.6166C53.2109 21.0756 56.8983 17.3822 61.4318 17.3822H62.1947C66.7282 17.3822 70.4155 21.0756 70.4155 25.6166V26.3808C70.4155 30.9218 66.7282 34.6151 62.1947 34.6151ZM61.4318 19.1389C57.8672 19.1389 54.9647 22.0462 54.9647 25.6166V26.3808C54.9647 29.9512 57.8672 32.8585 61.4318 32.8585H62.1947C65.7593 32.8585 68.6618 29.9512 68.6618 26.3808V25.6166C68.6618 22.0462 65.7593 19.1389 62.1947 19.1389H61.4318Z" fill="#30322C"/>
  <path d="M257.884 192.905L245.035 195.174L247.3 208.045L260.15 205.776L257.884 192.905Z" fill="#F8E64B"/>
  <path d="M246.605 209.052L244.036 194.45L258.614 191.877L261.183 206.479L246.605 209.052ZM246.066 195.873L248.025 207.015L259.149 205.052L257.189 193.91L246.066 195.873Z" fill="#30322C"/>
  <path d="M173.836 174.492L165.448 184.504L175.443 192.905L183.83 182.894L173.836 174.492Z" fill="#B5EE85"/>
  <path d="M175.559 194.129L164.221 184.6L173.735 173.243L185.074 182.773L175.559 194.129ZM166.69 184.384L175.34 191.657L182.601 182.992L173.95 175.72L166.69 184.384Z" fill="#30322C"/>
  <path d="M127.548 1.18363L116.027 7.31981L122.153 18.8603L133.674 12.7241L127.548 1.18363Z" fill="#F266FF"/>
  <path d="M121.779 20.0524L114.83 6.9608L127.9 0L134.85 13.0916L121.779 20.0524ZM117.202 7.68982L122.503 17.6809L132.478 12.3713L127.177 2.38029L117.202 7.68982Z" fill="#30322C"/>
  <path d="M347.501 26.0121L340.977 37.3304L352.277 43.8652L358.801 32.5469L347.501 26.0121Z" fill="#F5C2E4"/>
  <path d="M352.599 45.0542L339.779 37.641L347.18 24.7998L360 32.2129L352.599 45.0542ZM342.177 36.9954L351.959 42.6519L357.606 32.8541L347.824 27.1976L342.177 36.9954Z" fill="#30322C"/>
  <path d="M31.3016 196.939L20.002 203.474L26.526 214.792L37.8257 208.258L31.3016 196.939Z" fill="#5CB318"/>
  <path d="M26.2071 216L18.8062 203.159L31.6263 195.746L39.0273 208.587L26.2071 216ZM21.2001 203.804L26.8472 213.602L36.629 207.946L30.9818 198.148L21.2001 203.804Z" fill="#30322C"/>
  <path d="M305.173 156.856L300.711 169.138L312.972 173.607L317.435 161.326L305.173 156.856Z" fill="#7C4FFF"/>
  <path d="M313.503 174.74L299.595 169.668L304.659 155.737L318.567 160.81L313.503 174.74ZM301.844 168.618L312.459 172.487L316.322 161.855L305.707 157.986L301.844 168.618Z" fill="#30322C"/>
  <path d="M187.046 46.376L198.49 35.2959L187.608 30.4431L187.046 46.376Z" fill="#F8E64B"/>
  <path d="M186.095 48.5192L186.779 29.108L200.037 35.0192L186.095 48.5192ZM188.436 31.7737L187.998 44.2329L196.946 35.5725L188.436 31.7737Z" fill="#30322C"/>
  <path d="M165.269 152.132C196.602 152.132 222.003 126.895 222.003 95.7648C222.003 64.6341 196.602 39.3977 165.269 39.3977C133.935 39.3977 108.534 64.6341 108.534 95.7648C108.534 126.895 133.935 152.132 165.269 152.132Z" fill="#FEFDF1"/>
  <path d="M140.479 84.7637C141.176 83.1915 141.829 81.2415 142.86 79.8274C143.517 78.9271 144.184 77.9785 144.776 77.0299C146.025 75.0317 147.306 73.0643 148.507 71.0397C149.037 70.1438 149.625 69.2303 150.261 68.3827C150.967 67.4429 151.813 66.648 152.567 65.7653C153.282 64.9309 154.106 64.2985 154.869 63.5387C155.649 62.7658 156.421 61.9885 157.184 61.2023C157.534 60.8378 157.96 60.5568 158.328 60.2142C158.714 59.8585 159.021 59.4105 159.402 59.0504C159.709 58.7606 160.029 58.4576 160.367 58.2028C160.625 58.0052 160.919 57.8866 161.174 57.7022C160.805 57.4694 160.358 57.3333 159.963 57.1444C159.512 56.9293 159.165 56.5428 158.784 56.2398C158.144 55.7347 157.67 55.1638 157.162 54.5314C156.294 53.4511 155.39 52.3575 154.531 51.2596C153.632 50.109 153.115 48.6685 152.142 47.5662C151.615 46.9689 151.195 46.319 150.804 45.6251C150.418 44.94 150.331 44.2285 150.033 43.5215C149.704 42.7398 149.077 42.2347 148.735 41.4837C148.52 41.0138 148.481 40.9348 147.994 41.1763C147.678 41.33 147.336 41.3608 147.021 41.4837C146.692 41.6067 146.372 41.8702 146.025 42.0195C145.578 42.2128 145.078 42.406 144.596 42.5509C143.798 42.7881 143.11 43.2492 142.32 43.4951C141.514 43.7455 140.786 44.2417 139.988 44.5535C139.738 44.6501 139.506 44.6633 139.256 44.8039C138.914 44.9971 138.624 45.2255 138.26 45.3879C137.725 45.6251 137.213 45.8886 136.669 46.0994C136.283 46.2487 135.84 46.3234 135.481 46.5254C135.104 46.7362 134.884 47.0963 134.556 47.3422C134.126 47.6628 133.613 47.6804 133.201 48.0932C132.534 48.7651 131.828 49.3273 131.101 49.9289C129.193 51.5143 127.545 53.4247 125.686 55.054C125.011 55.6469 124.296 56.1915 123.612 56.7755C123.209 57.1181 122.941 57.4782 122.63 57.913C122.27 58.4136 121.823 58.8089 121.433 59.2788C121.117 59.6653 120.885 60.1659 120.495 60.4821C120.126 60.7808 119.793 61.0399 119.486 61.4263C118.877 62.1993 118.289 62.9854 117.671 63.7539C116.435 65.2822 115.474 66.9686 114.676 68.7692C114.405 69.384 114.124 69.9945 113.857 70.6093C113.629 71.1319 113.843 71.4437 113.821 71.9751C113.817 72.1332 113.694 72.3879 113.76 72.5285C113.83 72.6734 114.163 72.7524 114.383 72.8491C114.448 73.095 114.654 73.1038 114.755 73.3014" fill="#B5EE85"/>
  <path d="M153.251 121.992C157.364 113.375 161.323 104.684 165.128 95.9273C173.586 99.5416 182.052 103.143 190.523 106.731C185.687 116.862 178.751 125.984 170.289 133.349C167.785 131.372 165.203 129.497 162.555 127.719L153.251 121.992Z" fill="#F266FF"/>
  <path d="M189.944 43.5741C194.381 45.4362 198.209 48.4752 201.962 51.4879C203.378 52.6254 204.795 53.7716 206.101 55.0364C209.249 58.093 211.682 61.7952 214.09 65.4666C215.396 67.4648 216.751 69.5992 216.808 71.9883C210.179 73.3146 203.413 73.9645 196.653 73.9294C196.416 70.7015 196.148 67.4692 195.53 64.294C194.158 57.2322 191.084 50.5789 189.944 43.5741Z" fill="#FEFDF1"/>
  <path d="M218.504 72.0542C218.25 71.4877 217.987 70.9211 217.72 70.3634C212.292 59.1339 203.26 49.582 191.373 43.6576C190.738 43.337 190.093 43.0296 189.435 42.731C189.321 42.6783 189.212 42.6256 189.093 42.5729C188.975 42.5202 188.861 42.4719 188.747 42.4236C188.089 42.1337 187.427 41.8614 186.765 41.6023C174.331 36.6837 161.108 36.3806 149.072 39.9335C148.48 40.1092 147.888 40.2892 147.296 40.4825C132.267 45.445 119.289 56.4857 112.361 72.0761C105.429 87.6666 105.92 104.719 112.295 119.225C112.545 119.796 112.808 120.358 113.071 120.916C118.399 132.066 127.268 141.579 138.953 147.565C139.808 148.008 140.676 148.425 141.562 148.825L142.057 149.045C142.947 149.435 143.842 149.804 144.74 150.143C156.912 154.802 169.806 155.066 181.583 151.649C182.175 151.473 182.771 151.293 183.363 151.1C198.503 146.177 211.577 135.105 218.548 119.427C225.52 103.749 224.985 86.617 218.504 72.0542ZM164.729 94.6406L141.978 84.4958C146.477 74.5399 152.948 66.0859 160.726 59.3754C165.097 63.4597 170.17 66.9247 175.87 69.5729L164.729 94.6406ZM163.979 96.327L152.996 121.03C147.288 118.593 141.399 117.139 135.52 116.603C135.226 106.454 137.054 96.103 141.242 86.1866L163.979 96.327ZM152.247 122.721L142.246 145.224C138.387 136.845 136.107 127.763 135.594 118.474C141.202 119.006 146.81 120.402 152.247 122.721ZM186.835 44.9049L176.62 67.8821C171.187 65.3525 166.338 62.0587 162.151 58.1765C169.482 52.1819 177.878 47.6892 186.835 44.9049ZM185.928 43.258C176.817 46.1389 168.267 50.7502 160.814 56.8898C156.302 52.4146 152.615 47.2412 149.87 41.6287C161.393 38.2866 174.028 38.594 185.928 43.258ZM148.081 42.1733C150.914 48.0274 154.719 53.4247 159.398 58.0843C151.475 64.9485 144.885 73.5869 140.295 83.7404L114.352 72.1684C121.161 57.3596 133.652 46.8767 148.081 42.1733ZM113.602 73.8636L139.554 85.4356C135.274 95.554 133.398 106.116 133.67 116.472C127.001 116.076 120.376 116.854 114.071 118.685C107.955 104.913 107.332 88.7513 113.602 73.8636ZM114.865 120.376C120.942 118.645 127.325 117.925 133.749 118.325C134.244 128.092 136.655 137.631 140.759 146.405C129.066 140.687 120.183 131.368 114.865 120.376ZM215.94 70.9124C209.972 72.6383 203.702 73.3893 197.398 73.0643C196.946 63.4553 194.653 54.0571 190.711 45.388C202.05 51.084 210.687 60.1967 215.94 70.9124ZM188.659 45.3484C192.706 53.9649 195.065 63.3411 195.543 72.9413C189.747 72.445 183.937 71.0397 178.312 68.6331L188.659 45.3484ZM177.558 70.3239C183.451 72.8447 189.536 74.3071 195.609 74.799C195.854 85.1194 193.912 95.6419 189.519 105.694L166.413 95.3915L177.558 70.3239ZM165.667 97.0823L188.76 107.381C184.183 117.174 177.69 125.492 169.92 132.075C165.531 127.951 160.428 124.456 154.684 121.785L165.667 97.0823ZM153.935 123.472C159.406 126.019 164.282 129.344 168.482 133.257C161.138 139.168 152.738 143.577 143.793 146.278L153.935 123.472ZM144.407 148.03C153.619 145.228 162.274 140.665 169.824 134.548C174.366 139.067 178.053 144.293 180.802 149.962C169.153 153.283 156.39 152.879 144.407 148.03ZM216.395 119.704C209.508 134.416 196.999 144.793 182.587 149.422C179.763 143.515 175.949 138.07 171.249 133.366C179.163 126.629 185.779 118.127 190.444 108.132L216.395 119.704C216.549 119.37 216.711 119.032 216.865 118.685C216.961 118.465 217.058 118.246 217.15 118.017L191.207 106.445C195.688 96.1908 197.687 85.4532 197.455 74.9176C204.018 75.2381 210.529 74.4301 216.729 72.6031C222.99 86.5379 223.621 102.945 217.15 118.013L217.917 118.356L217.167 120.042L216.395 119.704Z" fill="#30322C"/>
  <path d="M217.917 118.36L217.167 120.046L216.396 119.704C216.549 119.37 216.711 119.032 216.865 118.685C216.961 118.465 217.058 118.246 217.15 118.017L217.917 118.36Z" fill="#30322C"/>
  <path d="M148.455 150.59L135.608 144.947L131.64 154.398L144.298 160.046L148.455 150.59Z" fill="#7C4FFF"/>
  <path d="M144.745 161.205L130.5 154.855L135.143 143.788L149.612 150.138L144.745 161.205ZM132.784 153.946L143.851 158.882L147.297 151.038L136.068 146.111L132.784 153.946Z" fill="#30322C"/>
</svg>
