<svg width="370" height="272" viewBox="0 0 370 272" fill="none" xmlns="http://www.w3.org/2000/svg">
  <path d="M7.41938 86.1564L7.03125 86.3806L86.3836 223.865L86.7717 223.641L7.41938 86.1564Z" fill="#FEFDF1"/>
  <path d="M16.0102 81.1924L15.6221 81.4166L94.9744 218.901L95.3625 218.677L16.0102 81.1924Z" fill="#FEFDF1"/>
  <path d="M24.5966 76.2311L24.2085 76.4553L103.561 213.94L103.949 213.715L24.5966 76.2311Z" fill="#FEFDF1"/>
  <path d="M33.1889 71.2715L32.8008 71.4957L112.153 208.98L112.541 208.756L33.1889 71.2715Z" fill="#FEFDF1"/>
  <path d="M41.7792 66.3083L41.3911 66.5325L120.743 204.017L121.132 203.793L41.7792 66.3083Z" fill="#FEFDF1"/>
  <path d="M50.3686 61.3504L49.9805 61.5746L129.333 199.059L129.721 198.835L50.3686 61.3504Z" fill="#FEFDF1"/>
  <path d="M58.9589 56.3869L58.5708 56.6111L137.923 194.095L138.311 193.871L58.9589 56.3869Z" fill="#FEFDF1"/>
  <path d="M67.5478 51.4294L67.1597 51.6535L146.512 189.138L146.9 188.914L67.5478 51.4294Z" fill="#FEFDF1"/>
  <path d="M76.1381 46.4658L75.75 46.6899L155.102 184.174L155.49 183.95L76.1381 46.4658Z" fill="#FEFDF1"/>
  <path d="M84.7285 41.5023L84.3403 41.7264L163.693 179.211L164.081 178.987L84.7285 41.5023Z" fill="#FEFDF1"/>
  <path d="M93.3173 36.5448L92.9292 36.769L172.281 174.253L172.67 174.029L93.3173 36.5448Z" fill="#FEFDF1"/>
  <path d="M101.908 31.5817L101.52 31.8059L180.872 169.29L181.26 169.066L101.908 31.5817Z" fill="#FEFDF1"/>
  <path d="M110.5 26.6215L110.112 26.8457L189.465 164.33L189.853 164.106L110.5 26.6215Z" fill="#FEFDF1"/>
  <path d="M119.087 21.6602L118.699 21.8843L198.051 159.369L198.439 159.144L119.087 21.6602Z" fill="#FEFDF1"/>
  <path d="M127.68 16.7005L127.292 16.9247L206.644 154.409L207.032 154.185L127.68 16.7005Z" fill="#FEFDF1"/>
  <path d="M136.27 11.7374L135.882 11.9616L215.234 149.446L215.622 149.222L136.27 11.7374Z" fill="#FEFDF1"/>
  <path d="M144.857 6.77557L144.469 6.99974L223.821 144.484L224.209 144.26L144.857 6.77557Z" fill="#FEFDF1"/>
  <path d="M144.518 6.6758L7.11133 86.1024L7.33556 86.4905L144.742 7.06398L144.518 6.6758Z" fill="#FEFDF1"/>
  <path d="M149.479 15.2693L12.0728 94.6958L12.297 95.084L149.703 15.6575L149.479 15.2693Z" fill="#FEFDF1"/>
  <path d="M154.438 23.8589L17.0317 103.285L17.256 103.674L154.662 24.2471L154.438 23.8589Z" fill="#FEFDF1"/>
  <path d="M159.396 32.4547L21.9893 111.881L22.2135 112.269L159.62 32.8429L159.396 32.4547Z" fill="#FEFDF1"/>
  <path d="M164.358 41.0482L26.9512 120.475L27.1754 120.863L164.582 41.4364L164.358 41.0482Z" fill="#FEFDF1"/>
  <path d="M169.313 49.6402L31.9062 129.067L32.1305 129.455L169.537 50.0283L169.313 49.6402Z" fill="#FEFDF1"/>
  <path d="M174.275 58.2337L36.8682 137.66L37.0924 138.048L174.499 58.6219L174.275 58.2337Z" fill="#FEFDF1"/>
  <path d="M179.232 66.8293L41.8257 146.256L42.0499 146.644L179.456 67.2175L179.232 66.8293Z" fill="#FEFDF1"/>
  <path d="M184.191 75.4189L46.7847 154.845L47.0089 155.234L184.415 75.8071L184.191 75.4189Z" fill="#FEFDF1"/>
  <path d="M189.153 84.0124L51.7466 163.439L51.9708 163.827L189.377 84.4006L189.153 84.0124Z" fill="#FEFDF1"/>
  <path d="M194.108 92.6043L56.7017 172.031L56.9259 172.419L194.332 92.9925L194.108 92.6043Z" fill="#FEFDF1"/>
  <path d="M199.07 101.198L61.6631 180.624L61.8873 181.013L199.294 101.586L199.07 101.198Z" fill="#FEFDF1"/>
  <path d="M204.028 109.794L66.6211 189.22L66.8453 189.608L204.252 110.182L204.028 109.794Z" fill="#FEFDF1"/>
  <path d="M208.987 118.383L71.5801 197.81L71.8043 198.198L209.211 118.771L208.987 118.383Z" fill="#FEFDF1"/>
  <path d="M213.945 126.979L76.5381 206.406L76.7623 206.794L214.169 127.367L213.945 126.979Z" fill="#FEFDF1"/>
  <path d="M218.906 135.572L81.4995 214.999L81.7237 215.387L219.13 135.961L218.906 135.572Z" fill="#FEFDF1"/>
  <path d="M223.865 144.162L86.459 223.589L86.6832 223.977L224.09 144.55L223.865 144.162Z" fill="#FEFDF1"/>
  <path d="M226.731 145.115L85.681 226.579L4.34766 85.6512L145.398 4.18755L226.731 145.115ZM87.1331 221.154L221.313 143.658L143.941 9.60349L9.76629 87.1039L87.1331 221.154Z" fill="#F8E64B"/>
  <path d="M85.3538 227.802L3.11963 85.3194L145.725 2.95905L227.959 145.438L85.3538 227.802ZM5.57124 85.9785L86.0127 225.35L225.512 144.783L145.071 5.41149L5.57124 85.9785ZM86.806 222.382L8.54275 86.7721L144.273 8.37951L222.541 143.985L86.806 222.382ZM10.9899 87.4311L87.4603 219.93L220.089 143.33L143.614 10.8319L10.9899 87.4311Z" fill="#30322C"/>
  <path d="M122.992 207.551L84.7304 229.609L63.123 191.46L70.0297 187.546L87.6929 218.737L119.026 200.673L122.992 207.551Z" fill="#5CB318"/>
  <path d="M84.3945 230.833L61.9043 191.119L70.3706 186.322L88.0294 217.504L119.358 199.445L124.216 207.878L84.3945 230.833ZM64.3469 191.801L85.0623 228.381L121.765 207.224L118.699 201.902L87.3571 219.97L69.6894 188.77L64.3469 191.801Z" fill="#30322C"/>
  <path d="M23.279 122.828L1.22803 84.5528L39.3602 62.9427L43.2729 69.8516L12.0922 87.5208L30.1543 118.864L23.279 122.828Z" fill="#5CB318"/>
  <path d="M22.9474 124.056L0 84.221L39.7008 61.7232L44.4965 70.1879L13.3247 87.8571L31.3779 119.196L22.9474 124.056ZM2.45609 84.889L23.6062 121.604L28.9263 118.537L10.8642 87.1846L42.0493 69.5109L39.0196 64.1622L2.45609 84.889Z" fill="#30322C"/>
  <path d="M107.633 23.2869L145.895 1.22845L167.502 39.3779L160.596 43.2874L142.932 12.1007L111.599 30.1644L107.633 23.2869Z" fill="#5CB318"/>
  <path d="M160.26 44.5114L142.601 13.3292L111.272 31.3884L106.414 22.9551L146.236 0L168.726 39.7141L160.26 44.5114ZM143.269 10.8723L160.937 42.0679L166.279 39.0371L145.564 2.4569L108.861 23.6142L111.927 28.936L143.269 10.8723Z" fill="#30322C"/>
  <path d="M207.347 108.006L229.398 146.28L191.266 167.895L187.353 160.986L218.534 143.317L200.472 111.969L207.347 108.006Z" fill="#B5EE85"/>
  <path d="M190.925 169.114L186.129 160.65L217.301 142.981L199.243 111.642L207.674 106.782L230.621 146.617L190.925 169.114ZM188.577 161.327L191.606 166.675L228.174 145.949L207.024 109.234L201.704 112.301L219.766 143.653L188.577 161.327Z" fill="#30322C"/>
  <path d="M140.136 98.8862L115.799 112.897L102.004 88.7044L98.5573 90.6681L112.357 114.874L88.5537 128.58L90.5302 132.023L114.325 118.322L128.08 142.447L131.526 140.479L117.762 116.345L142.113 102.325L140.136 98.8862Z" fill="#7C4FFF"/>
  <path d="M127.744 143.671L113.993 119.55L90.203 133.247L87.3301 128.253L111.138 114.547L97.3337 90.3364L102.336 87.4804L116.126 111.673L140.459 97.6623L143.332 102.657L118.977 116.676L132.741 140.815L127.744 143.671ZM114.656 117.098L128.411 141.223L130.303 140.147L116.543 116.013L140.889 101.998L139.804 100.11L115.463 114.121L101.668 89.9239L99.7764 90.9999L113.576 115.206L89.7727 128.912L90.8574 130.799L114.656 117.098Z" fill="#30322C"/>
  <path d="M351.539 50.2785L186.521 21.1794L158.349 181.043L323.368 210.142L351.539 50.2785Z" fill="#FEFDF1"/>
  <path d="M295.283 173.061L275.748 169.616L272.316 189.092L291.851 192.537L295.283 173.061Z" fill="#F5C2E4"/>
  <path d="M310.187 145.396L281.113 140.269L277.681 159.745L306.755 164.872L310.187 145.396Z" fill="#F5C2E4"/>
  <path d="M326.932 107.999L297.545 102.817L290.662 141.874L320.049 147.056L326.932 107.999Z" fill="#F5C2E4"/>
  <path d="M219.46 89.0483L190.073 83.8662L183.191 122.924L212.578 128.106L219.46 89.0483Z" fill="#F5C2E4"/>
  <path d="M335.413 59.1189L198.683 35.0081L183.19 122.925L319.921 147.036L335.413 59.1189Z" fill="#F5C2E4"/>
  <path d="M217.119 159.363L197.583 155.918L194.151 175.394L213.687 178.839L217.119 159.363Z" fill="#F5C2E4"/>
  <path d="M222.29 130.025L192.987 124.857L189.555 144.333L218.858 149.5L222.29 130.025Z" fill="#F5C2E4"/>
  <path d="M298.895 153.574L201.037 136.318L197.605 155.794L295.463 173.05L298.895 153.574Z" fill="#F5C2E4"/>
  <path d="M294.741 62.0794L236.042 51.7285L229.164 90.7595L287.863 101.11L294.741 62.0794Z" fill="#F5C2E4"/>
  <path d="M210.216 27.0688L200.492 25.3542L198.778 35.081L208.502 36.7956L210.216 27.0688Z" fill="#30322C"/>
  <path d="M214.999 58.1161L205.276 56.4015L203.562 66.1283L213.285 67.843L214.999 58.1161Z" fill="#30322C"/>
  <path d="M245.25 113.799L235.526 112.084L233.812 121.811L243.536 123.525L245.25 113.799Z" fill="#30322C"/>
  <path d="M218.777 149.452L209.053 147.737L207.339 157.464L217.063 159.178L218.777 149.452Z" fill="#30322C"/>
  <path d="M287.198 161.527L277.475 159.812L275.761 169.539L285.484 171.253L287.198 161.527Z" fill="#30322C"/>
  <path d="M274.553 118.966L264.829 117.251L263.115 126.978L272.839 128.693L274.553 118.966Z" fill="#30322C"/>
  <path d="M310.765 84.9396L291.23 81.4948L287.786 101.037L307.322 104.482L310.765 84.9396Z" fill="#30322C"/>
  <path d="M232.659 71.1885L213.124 67.7437L209.68 87.2857L229.215 90.7305L232.659 71.1885Z" fill="#30322C"/>
  <path d="M198.68 35.1115L188.957 33.3969L185.521 52.8947L195.244 54.6093L198.68 35.1115Z" fill="#30322C"/>
  <path d="M205.055 56.3628L195.331 54.6481L191.895 74.146L201.619 75.8606L205.055 56.3628Z" fill="#30322C"/>
  <path d="M193.011 124.722L183.287 123.007L179.851 142.505L189.575 144.22L193.011 124.722Z" fill="#30322C"/>
  <path d="M199.288 146L189.564 144.285L182.954 181.797L192.677 183.512L199.288 146Z" fill="#30322C"/>
  <path d="M225.054 170.719L215.33 169.005L211.894 188.502L221.618 190.217L225.054 170.719Z" fill="#30322C"/>
  <path d="M273.987 179.348L264.264 177.633L260.828 197.131L270.551 198.846L273.987 179.348Z" fill="#30322C"/>
  <path d="M227.399 100.523L217.676 98.8085L212.499 128.183L222.223 129.898L227.399 100.523Z" fill="#30322C"/>
  <path d="M191.799 74.1645L182.075 72.4498L173.468 121.296L183.191 123.011L191.799 74.1645Z" fill="#30322C"/>
  <path d="M338.33 99.9913L328.607 98.2766L319.999 147.123L329.723 148.837L338.33 99.9913Z" fill="#30322C"/>
  <path d="M296.054 112.629L286.33 110.915L281.154 140.29L290.877 142.004L296.054 112.629Z" fill="#30322C"/>
  <path d="M345.212 60.929L335.488 59.2143L332.052 78.7122L341.776 80.4268L345.212 60.929Z" fill="#30322C"/>
  <path d="M331.974 78.6481L322.25 76.9335L318.814 96.4313L328.538 98.146L331.974 78.6481Z" fill="#30322C"/>
  <path d="M331.974 78.6481L322.25 76.9335L318.814 96.4313L328.538 98.146L331.974 78.6481Z" fill="#30322C"/>
  <path d="M320.087 147.128L310.363 145.413L306.927 164.911L316.651 166.626L320.087 147.128Z" fill="#30322C"/>
  <path d="M306.909 165.003L297.186 163.289L290.579 200.779L300.303 202.493L306.909 165.003Z" fill="#30322C"/>
  <path d="M220.161 28.8215L210.438 27.1068L208.723 36.8337L218.447 38.5483L220.161 28.8215Z" fill="#30322C"/>
  <path d="M229.712 30.5072L219.988 28.7925L218.274 38.5194L227.998 40.234L229.712 30.5072Z" fill="#30322C"/>
  <path d="M306.179 54.0675L228.033 40.2874L226.319 50.0142L304.465 63.7944L306.179 54.0675Z" fill="#30322C"/>
  <path d="M287.8 101.219L229.189 90.8838L227.475 100.611L286.086 110.946L287.8 101.219Z" fill="#30322C"/>
  <path d="M280.922 140.247L222.311 129.912L220.597 139.639L279.208 149.974L280.922 140.247Z" fill="#30322C"/>
  <path d="M275.756 169.56L217.145 159.224L215.431 168.951L274.042 179.287L275.756 169.56Z" fill="#30322C"/>
  <path d="M213.687 178.838L194.02 175.37L192.305 185.097L211.973 188.565L213.687 178.838Z" fill="#30322C"/>
  <path d="M291.914 192.563L272.246 189.095L270.532 198.822L290.2 202.29L291.914 192.563Z" fill="#30322C"/>
  <path d="M317.625 46.0104L307.901 44.2958L306.187 54.0226L315.911 55.7372L317.625 46.0104Z" fill="#30322C"/>
  <path d="M327.57 47.7631L317.847 46.0485L316.133 55.7753L325.856 57.4899L327.57 47.7631Z" fill="#30322C"/>
  <path d="M337.117 49.448L327.393 47.7334L325.679 57.4602L335.403 59.1748L337.117 49.448Z" fill="#30322C"/>
  <path d="M322.408 77.0578L312.685 75.3432L310.971 85.07L320.694 86.7846L322.408 77.0578Z" fill="#30322C"/>
  <path d="M190.489 23.5518L162.891 179.896L163.332 179.974L190.931 23.6297L190.489 23.5518Z" fill="#FEFDF1"/>
  <path d="M200.256 25.2722L172.658 181.617L173.099 181.695L200.698 25.3501L200.256 25.2722Z" fill="#FEFDF1"/>
  <path d="M210.028 26.9975L182.429 183.342L182.871 183.42L210.469 27.0755L210.028 26.9975Z" fill="#FEFDF1"/>
  <path d="M219.796 28.7179L192.197 185.063L192.638 185.141L220.237 28.7959L219.796 28.7179Z" fill="#FEFDF1"/>
  <path d="M229.562 30.4427L201.963 186.787L202.404 186.865L230.003 30.5206L229.562 30.4427Z" fill="#FEFDF1"/>
  <path d="M239.33 32.1629L211.731 188.508L212.172 188.586L239.771 32.2408L239.33 32.1629Z" fill="#FEFDF1"/>
  <path d="M249.101 33.8883L221.502 190.233L221.943 190.311L249.542 33.9663L249.101 33.8883Z" fill="#FEFDF1"/>
  <path d="M258.868 35.6088L231.27 191.953L231.711 192.031L259.31 35.6868L258.868 35.6088Z" fill="#FEFDF1"/>
  <path d="M268.635 37.3334L241.036 193.678L241.478 193.756L269.076 37.4113L268.635 37.3334Z" fill="#FEFDF1"/>
  <path d="M278.407 39.0545L250.809 195.399L251.25 195.477L278.849 39.1324L278.407 39.0545Z" fill="#FEFDF1"/>
  <path d="M288.173 40.7793L260.575 197.124L261.016 197.202L288.615 40.8572L288.173 40.7793Z" fill="#FEFDF1"/>
  <path d="M297.941 42.4995L270.342 198.844L270.784 198.922L298.382 42.5774L297.941 42.4995Z" fill="#FEFDF1"/>
  <path d="M307.713 44.2249L280.114 200.57L280.555 200.648L308.154 44.3029L307.713 44.2249Z" fill="#FEFDF1"/>
  <path d="M317.48 45.9452L289.881 202.29L290.322 202.368L317.921 46.0232L317.48 45.9452Z" fill="#FEFDF1"/>
  <path d="M327.247 47.6701L299.648 204.015L300.089 204.093L327.688 47.7481L327.247 47.6701Z" fill="#FEFDF1"/>
  <path d="M337.019 49.391L309.42 205.736L309.861 205.814L337.46 49.469L337.019 49.391Z" fill="#FEFDF1"/>
  <path d="M346.785 51.1159L319.187 207.461L319.628 207.539L347.227 51.1938L346.785 51.1159Z" fill="#FEFDF1"/>
  <path d="M190.694 23.3616L190.616 23.8032L346.909 51.3635L346.986 50.922L190.694 23.3616Z" fill="#FEFDF1"/>
  <path d="M188.974 33.1321L188.896 33.5736L345.188 61.1339L345.266 60.6924L188.974 33.1321Z" fill="#FEFDF1"/>
  <path d="M187.249 42.9057L187.171 43.3472L343.463 70.9076L343.541 70.4661L187.249 42.9057Z" fill="#FEFDF1"/>
  <path d="M185.528 52.676L185.451 53.1175L341.743 80.6779L341.821 80.2364L185.528 52.676Z" fill="#FEFDF1"/>
  <path d="M183.804 62.4452L183.727 62.8867L340.019 90.4471L340.097 90.0056L183.804 62.4452Z" fill="#FEFDF1"/>
  <path d="M182.083 72.2203L182.005 72.6618L338.298 100.222L338.375 99.7806L182.083 72.2203Z" fill="#FEFDF1"/>
  <path d="M180.359 81.9896L180.281 82.4311L336.573 109.991L336.651 109.55L180.359 81.9896Z" fill="#FEFDF1"/>
  <path d="M178.639 91.7596L178.561 92.2011L334.853 119.762L334.931 119.32L178.639 91.7596Z" fill="#FEFDF1"/>
  <path d="M176.913 101.534L176.835 101.975L333.128 129.536L333.206 129.094L176.913 101.534Z" fill="#FEFDF1"/>
  <path d="M175.193 111.304L175.115 111.745L331.408 139.306L331.485 138.864L175.193 111.304Z" fill="#FEFDF1"/>
  <path d="M173.469 121.073L173.391 121.515L329.683 149.075L329.761 148.634L173.469 121.073Z" fill="#FEFDF1"/>
  <path d="M171.748 130.848L171.67 131.289L327.963 158.85L328.041 158.408L171.748 130.848Z" fill="#FEFDF1"/>
  <path d="M170.023 140.618L169.945 141.059L326.238 168.619L326.315 168.178L170.023 140.618Z" fill="#FEFDF1"/>
  <path d="M168.303 150.388L168.226 150.829L324.518 178.39L324.596 177.948L168.303 150.388Z" fill="#FEFDF1"/>
  <path d="M166.579 160.157L166.501 160.599L322.793 188.159L322.871 187.717L166.579 160.157Z" fill="#FEFDF1"/>
  <path d="M164.858 169.931L164.78 170.373L321.073 197.933L321.15 197.492L164.858 169.931Z" fill="#FEFDF1"/>
  <path d="M163.133 179.701L163.056 180.143L319.348 207.703L319.426 207.262L163.133 179.701Z" fill="#FEFDF1"/>
  <path d="M322.926 212.532L157.907 183.426L186.967 18.5479L351.987 47.6542L322.926 212.532ZM162.635 180.112L319.619 207.802L347.263 50.9675L190.28 23.2779L162.635 180.112Z" fill="#7C4FFF"/>
  <path d="M323.657 213.568L322.774 213.411L156.872 184.147L186.246 17.5032L187.129 17.6602L353.032 46.9234L323.657 213.568ZM158.947 182.695L322.2 211.492L350.952 48.3805L187.698 19.588L158.947 182.695ZM320.345 208.838L319.462 208.681L161.596 180.834L189.554 22.2333L190.437 22.3902L348.299 50.2367L320.345 208.838ZM163.675 179.382L318.893 206.762L346.224 51.6938L191.006 24.318L163.675 179.382Z" fill="#30322C"/>
  <path d="M199.889 193.11L155.151 185.183L163.344 140.824L171.371 142.308L164.675 178.575L201.315 185.067L199.889 193.11Z" fill="#B5EE85"/>
  <path d="M200.615 194.15L154.106 185.909L162.627 139.784L172.42 141.595L165.724 177.857L202.354 184.349L200.615 194.15ZM156.199 184.457L199.168 192.07L200.279 185.793L163.635 179.301L170.335 143.025L164.07 141.869L156.199 184.457Z" fill="#30322C"/>
  <path d="M177.31 60.3737L185.238 15.6202L229.578 23.8159L228.094 31.8457L191.84 25.1475L185.35 61.7994L177.31 60.3737Z" fill="#B5EE85"/>
  <path d="M186.076 62.8396L176.27 61.1L184.507 14.5756L230.617 23.0986L228.807 32.8948L192.557 26.1966L186.076 62.8396ZM178.349 59.6474L184.624 60.7593L191.114 24.1029L227.372 30.8056L228.529 24.5377L185.955 16.6693L178.349 59.6474Z" fill="#30322C"/>
  <path d="M309.602 37.728L354.34 45.6546L346.148 90.0136L338.12 88.5296L344.816 52.2632L308.177 45.7712L309.602 37.728Z" fill="#B5EE85"/>
  <path d="M346.869 91.0582L337.076 89.2469L343.772 52.985L307.141 46.4975L308.88 36.6878L355.389 44.9283L346.869 91.0582ZM339.164 87.8077L345.43 88.9645L353.296 46.3765L310.332 38.7636L309.221 45.0404L345.865 51.5324L339.164 87.8077Z" fill="#30322C"/>
  <path d="M332.182 170.464L324.258 215.213L279.914 207.022L281.398 198.988L317.652 205.69L324.142 169.038L332.182 170.464Z" fill="#B5EE85"/>
  <path d="M324.984 216.262L278.874 207.739L280.685 197.943L316.934 204.641L323.424 167.998L333.231 169.738L324.984 216.262ZM280.958 206.3L323.532 214.168L331.142 171.186L324.867 170.074L318.378 206.73L282.119 200.028L280.958 206.3Z" fill="#30322C"/>
  <path d="M142.502 216.141H134.565V224.081H142.502V216.141Z" fill="#F266FF"/>
  <path d="M143.394 224.973H133.664V215.24H143.394V224.973ZM135.461 223.18H141.606V217.033H135.461V223.18Z" fill="#30322C"/>
  <path d="M142.502 224.077H134.565V232.017H142.502V224.077Z" fill="#F266FF"/>
  <path d="M143.394 232.914H133.664V223.18H143.394V232.914ZM135.461 231.12H141.606V224.973H135.461V231.12Z" fill="#30322C"/>
  <path d="M142.502 232.017H134.565V239.957H142.502V232.017Z" fill="#F266FF"/>
  <path d="M143.394 240.849H133.664V231.116H143.394V240.849ZM135.461 239.056H141.606V232.909H135.461V239.056Z" fill="#30322C"/>
  <path d="M142.502 239.957H134.565V247.897H142.502V239.957Z" fill="#F266FF"/>
  <path d="M143.394 248.789H133.664V239.056H143.394V248.789ZM135.461 246.996H141.606V240.849H135.461V246.996Z" fill="#30322C"/>
  <path d="M142.502 247.893H134.565V255.833H142.502V247.893Z" fill="#F266FF"/>
  <path d="M143.394 256.73H133.664V246.996H143.394V256.73ZM135.461 254.936H141.606V248.789H135.461V254.936Z" fill="#30322C"/>
  <path d="M158.373 216.141H150.436V224.081H158.373V216.141Z" fill="#F266FF"/>
  <path d="M159.265 224.973H149.535V215.24H159.265V224.973ZM151.332 223.18H157.477V217.033H151.332V223.18Z" fill="#30322C"/>
  <path d="M166.414 216.141H158.476V224.081H166.414V216.141Z" fill="#F266FF"/>
  <path d="M167.31 224.973H157.58V215.24H167.31V224.973ZM159.372 223.18H165.517V217.033H159.372V223.18Z" fill="#30322C"/>
  <path d="M174.351 216.141H166.413V224.081H174.351V216.141Z" fill="#F266FF"/>
  <path d="M175.243 224.973H165.513V215.24H175.243V224.973ZM167.31 223.18H173.455V217.033H167.31V223.18Z" fill="#30322C"/>
  <path d="M166.414 247.906H158.476V255.846H166.414V247.906Z" fill="#F266FF"/>
  <path d="M167.31 256.738H157.58V247.005H167.31V256.738ZM159.372 254.945H165.517V248.798H159.372V254.945Z" fill="#30322C"/>
  <path d="M174.351 247.906H166.413V255.846H174.351V247.906Z" fill="#F266FF"/>
  <path d="M175.243 256.738H165.513V247.005H175.243V256.738ZM167.31 254.945H173.455V248.798H167.31V254.945Z" fill="#30322C"/>
  <path d="M166.414 232.017H158.476V239.957H166.414V232.017Z" fill="#F266FF"/>
  <path d="M167.31 240.849H157.58V231.116H167.31V240.849ZM159.372 239.056H165.517V232.909H159.372V239.056Z" fill="#30322C"/>
  <path d="M174.351 232.017H166.413V239.957H174.351V232.017Z" fill="#F266FF"/>
  <path d="M175.243 240.849H165.513V231.116H175.243V240.849ZM167.31 239.056H173.455V232.909H167.31V239.056Z" fill="#30322C"/>
  <path d="M174.351 239.957H166.413V247.897H174.351V239.957Z" fill="#F266FF"/>
  <path d="M175.243 248.789H165.513V239.056H175.243V248.789ZM167.31 246.996H173.455V240.849H167.31V246.996Z" fill="#30322C"/>
  <path d="M158.373 224.077H150.436V232.017H158.373V224.077Z" fill="#F266FF"/>
  <path d="M159.265 232.914H149.535V223.18H159.265V232.914ZM151.332 231.12H157.477V224.973H151.332V231.12Z" fill="#30322C"/>
  <path d="M158.373 232.017H150.436V239.957H158.373V232.017Z" fill="#F266FF"/>
  <path d="M159.265 240.849H149.535V231.116H159.265V240.849ZM151.332 239.056H157.477V232.909H151.332V239.056Z" fill="#30322C"/>
  <path d="M158.373 239.957H150.436V247.897H158.373V239.957Z" fill="#F266FF"/>
  <path d="M159.265 248.789H149.535V239.056H159.265V248.789ZM151.332 246.996H157.477V240.849H151.332V246.996Z" fill="#30322C"/>
  <path d="M158.373 247.893H150.436V255.833H158.373V247.893Z" fill="#F266FF"/>
  <path d="M159.265 256.73H149.535V246.996H159.265V256.73ZM151.332 254.936H157.477V248.789H151.332V254.936Z" fill="#30322C"/>
  <path d="M233.951 216.141H226.014V224.081H233.951V216.141Z" fill="#F266FF"/>
  <path d="M234.844 224.973H225.113V215.24H234.844V224.973ZM226.911 223.18H233.055V217.033H226.911V223.18Z" fill="#30322C"/>
  <path d="M233.951 224.077H226.014V232.017H233.951V224.077Z" fill="#F266FF"/>
  <path d="M234.844 232.914H225.113V223.18H234.844V232.914ZM226.911 231.12H233.055V224.973H226.911V231.12Z" fill="#30322C"/>
  <path d="M233.951 232.017H226.014V239.957H233.951V232.017Z" fill="#F266FF"/>
  <path d="M234.844 240.849H225.113V231.116H234.844V240.849ZM226.911 239.056H233.055V232.909H226.911V239.056Z" fill="#30322C"/>
  <path d="M233.951 239.957H226.014V247.897H233.951V239.957Z" fill="#F266FF"/>
  <path d="M234.844 248.789H225.113V239.056H234.844V248.789ZM226.911 246.996H233.055V240.849H226.911V246.996Z" fill="#30322C"/>
  <path d="M233.951 247.893H226.014V255.833H233.951V247.893Z" fill="#F266FF"/>
  <path d="M234.844 256.73H225.113V246.996H234.844V256.73ZM226.911 254.936H233.055V248.789H226.911V254.936Z" fill="#30322C"/>
  <path d="M249.822 216.141H241.885V224.081H249.822V216.141Z" fill="#F266FF"/>
  <path d="M250.714 224.973H240.988V215.24H250.719V224.973H250.714ZM242.781 223.18H248.926V217.033H242.781V223.18Z" fill="#30322C"/>
  <path d="M257.862 216.141H249.925V224.081H257.862V216.141Z" fill="#F266FF"/>
  <path d="M258.754 224.973H249.024V215.24H258.754V224.973ZM250.821 223.18H256.966V217.033H250.821V223.18Z" fill="#30322C"/>
  <path d="M265.795 216.141H257.858V224.081H265.795V216.141Z" fill="#F266FF"/>
  <path d="M266.692 224.973H256.961V215.24H266.692V224.973ZM258.754 223.18H264.899V217.033H258.754V223.18Z" fill="#30322C"/>
  <path d="M257.862 247.906H249.925V255.846H257.862V247.906Z" fill="#F266FF"/>
  <path d="M258.755 256.738H249.024V247.005H258.755V256.738ZM250.822 254.945H256.966V248.798H250.822V254.945Z" fill="#30322C"/>
  <path d="M265.795 247.906H257.858V255.846H265.795V247.906Z" fill="#F266FF"/>
  <path d="M266.692 256.738H256.961V247.005H266.692V256.738ZM258.754 254.945H264.899V248.798H258.754V254.945Z" fill="#30322C"/>
  <path d="M257.862 232.017H249.925V239.957H257.862V232.017Z" fill="#F266FF"/>
  <path d="M258.755 240.849H249.024V231.116H258.755V240.849ZM250.822 239.056H256.966V232.909H250.822V239.056Z" fill="#30322C"/>
  <path d="M265.795 232.017H257.858V239.957H265.795V232.017Z" fill="#F266FF"/>
  <path d="M266.692 240.849H256.961V231.116H266.692V240.849ZM258.754 239.056H264.899V232.909H258.754V239.056Z" fill="#30322C"/>
  <path d="M265.795 239.957H257.858V247.897H265.795V239.957Z" fill="#F266FF"/>
  <path d="M266.692 248.789H256.961V239.056H266.692V248.789ZM258.754 246.996H264.899V240.849H258.754V246.996Z" fill="#30322C"/>
  <path d="M249.822 224.077H241.885V232.017H249.822V224.077Z" fill="#F266FF"/>
  <path d="M250.714 232.914H240.988V223.18H250.719V232.914H250.714ZM242.781 231.12H248.926V224.973H242.781V231.12Z" fill="#30322C"/>
  <path d="M249.822 232.017H241.885V239.957H249.822V232.017Z" fill="#F266FF"/>
  <path d="M250.714 240.849H240.988V231.116H250.719V240.849H250.714ZM242.781 239.056H248.926V232.909H242.781V239.056Z" fill="#30322C"/>
  <path d="M249.822 239.957H241.885V247.897H249.822V239.957Z" fill="#F266FF"/>
  <path d="M250.714 248.789H240.988V239.056H250.719V248.789H250.714ZM242.781 246.996H248.926V240.849H242.781V246.996Z" fill="#30322C"/>
  <path d="M249.822 247.893H241.885V255.833H249.822V247.893Z" fill="#F266FF"/>
  <path d="M250.714 256.73H240.988V246.996H250.719V256.73H250.714ZM242.781 254.936H248.926V248.789H242.781V254.936Z" fill="#30322C"/>
  <path d="M200.866 230.373L195.253 235.988L200.866 241.602L206.479 235.988L200.866 230.373Z" fill="#F266FF"/>
  <path d="M200.87 242.871L193.991 235.989L200.87 229.107L207.75 235.989L200.87 242.871ZM196.527 235.994L200.87 240.338L205.213 235.994L200.87 231.649L196.527 235.994Z" fill="#30322C"/>
  <path d="M206.48 224.763L200.868 230.377L206.48 235.992L212.093 230.377L206.48 224.763Z" fill="#F266FF"/>
  <path d="M206.482 237.258L199.602 230.376L206.482 223.494L213.362 230.376L206.482 237.258ZM202.139 230.38L206.482 234.725L210.825 230.38L206.482 226.036L202.139 230.38Z" fill="#30322C"/>
  <path d="M195.255 235.986L189.643 241.601L195.255 247.215L200.868 241.601L195.255 235.986Z" fill="#F266FF"/>
  <path d="M195.259 248.484L188.379 241.602L195.259 234.72L202.139 241.602L195.259 248.484ZM190.916 241.607L195.259 245.951L199.602 241.607L195.259 237.262L190.916 241.607Z" fill="#30322C"/>
  <path d="M206.477 235.986L200.864 241.6L206.477 247.215L212.089 241.6L206.477 235.986Z" fill="#F266FF"/>
  <path d="M206.481 248.484L199.602 241.602L206.481 234.72L213.361 241.602L206.481 248.484ZM202.138 241.607L206.481 245.951L210.824 241.607L206.481 237.262L202.138 241.607Z" fill="#30322C"/>
  <path d="M195.258 224.763L189.645 230.378L195.258 235.992L200.87 230.378L195.258 224.763Z" fill="#F266FF"/>
  <path d="M195.259 237.258L188.379 230.376L195.259 223.494L202.139 230.376L195.259 237.258ZM190.916 230.38L195.259 234.725L199.602 230.38L195.259 226.036L190.916 230.38Z" fill="#30322C"/>
  <path d="M25.6924 212.501L21.5283 221.943L30.9677 226.109L35.1318 216.666L25.6924 212.501Z" fill="#B5EE85"/>
  <path d="M31.4406 227.3L20.3613 222.413L25.2466 211.33L36.3259 216.217L31.4406 227.3ZM22.7278 221.494L30.5263 224.938L33.9684 217.136L26.1699 213.693L22.7278 221.494Z" fill="#30322C"/>
  <path d="M103.576 256.855L94.4194 261.611L99.1737 270.771L108.33 266.015L103.576 256.855Z" fill="#5CB318"/>
  <path d="M98.768 272L93.188 261.249L103.936 255.667L109.516 266.418L98.768 272ZM95.6037 262.015L99.5299 269.583L107.095 265.656L103.169 258.088L95.6037 262.015Z" fill="#30322C"/>
  <path d="M364.722 135.533L355.244 139.611L359.321 149.092L368.798 145.014L364.722 135.533Z" fill="#5CB318"/>
  <path d="M358.872 150.275L354.089 139.147L365.213 134.359L370 145.487L358.872 150.275ZM356.442 140.084L359.808 147.917L367.638 144.55L364.272 136.717L356.442 140.084Z" fill="#30322C"/>
  <path d="M287.038 249.448L281.039 257.845L289.433 263.846L295.432 255.448L287.038 249.448Z" fill="#B5EE85"/>
  <path d="M289.648 265.087L279.797 258.043L286.838 248.189L296.689 255.232L289.648 265.087ZM282.298 257.626L289.231 262.585L294.188 255.649L287.255 250.69L282.298 257.626Z" fill="#30322C"/>
  <path d="M355.262 218.82L347.966 226.118L355.262 233.416L362.557 226.118L355.262 218.82Z" fill="#7C4FFF"/>
  <path d="M355.264 234.684L346.703 226.121L355.264 217.558L363.824 226.121L355.264 234.684ZM349.24 226.121L355.268 232.151L361.296 226.121L355.268 220.091L349.24 226.121Z" fill="#30322C"/>
</svg>
