<svg width="1048" height="362" viewBox="0 0 1048 362" fill="none" xmlns="http://www.w3.org/2000/svg">
  <path opacity="0.6" d="M215.175 281.362C215.552 278.246 215.044 224.508 215.044 182.439C227.314 182.984 266.136 184.192 290.348 184.192C327.304 184.192 364.403 180.921 373.401 180.451C359.097 198.486 348.714 217.137 340.888 236.928C334.737 252.35 329.737 268.887 327.904 284.058C327.201 284.083 215.224 281.332 215.175 281.362Z" fill="#B5EE85"/>
  <path opacity="0.6" d="M215.175 182.447C210.393 187.567 203.489 195.526 194.175 205.492C186.235 213.988 177.837 222.944 172.346 232.257C166.02 242.987 159.973 271.487 159.525 279.538C178.006 280.196 197.267 280.724 215.181 281.362C215.219 248.45 215.175 215.472 215.175 182.447Z" fill="#5CB318"/>
  <path opacity="0.6" d="M524.193 104.071C524.182 126.181 524.204 148.366 524.193 170.476C545.831 169.03 584.32 168.019 603.979 168.019C635.079 168.019 660.589 168.896 660.589 168.896C660.589 168.896 661.238 133.464 660.589 104.075C619.537 104.071 523.746 103.744 524.193 104.071Z" fill="#F5C2E4"/>
  <path opacity="0.6" d="M660.605 104.205C660.513 125.678 660.682 147.419 660.589 168.891C671.959 169.319 686.339 170.032 694.535 170.338C683.1 148.24 671.735 126.281 660.491 104.129C660.556 104.054 660.605 103.983 660.605 104.205Z" fill="#7C4FFF"/>
  <path opacity="0.6" d="M832.005 179.479C843.866 214.076 855.323 247.906 867.184 282.503C922.36 282.503 988.791 279.165 1033.05 273.726C1016.78 243.96 1001.63 211.841 985.361 182.074C972.344 183.32 948.879 184.238 921.395 183.852C892.253 183.446 858.693 181.63 832.005 179.479Z" fill="#F8E64B"/>
  <path opacity="0.6" d="M151.274 103.924V28.6921L253.304 28.5956L251.499 104.071L151.274 103.924Z" fill="#F5C2E4"/>
  <path opacity="0.6" d="M151.024 29.0485C151.013 54.144 151.28 78.8285 151.269 103.924C137.249 104.037 124.123 103.958 110.103 104.071C124.243 78.7237 137.211 53.9847 151.024 29.0485Z" fill="#F266FF"/>
  <path d="M1048 103.861H0V104.281H1048V103.861Z" fill="#30322C"/>
  <path d="M520.871 29.159C347.601 29.159 173.933 29.0922 1 28.9585V28.4015C173.917 28.5351 347.622 28.602 520.871 28.602C697.45 28.602 873.555 28.5351 1048 28.3959V28.9529C873.577 29.0866 697.428 29.159 520.871 29.159Z" fill="#30322C"/>
  <path d="M524.46 28.5956H523.915V361.871H524.46V28.5956Z" fill="#30322C"/>
  <path d="M334.174 361.871C334.087 361.716 328.853 354.195 326.257 327.28C324.736 311.476 325.532 294.952 328.619 278.154C332.48 257.164 339.95 235.691 350.83 214.336C355.721 204.734 362.303 195.547 368.667 186.662C376.563 175.642 384.018 165.235 387.372 155.272C398.322 122.764 396.037 96.7707 392.481 70.8073C390.605 57.1295 388.026 28.8934 388.004 28.6083L388.55 28.5789C388.577 28.864 391.156 57.0917 393.027 70.7611C396.588 96.7623 398.878 122.801 387.901 155.373C384.525 165.39 377.054 175.818 369.142 186.863C362.783 195.735 356.212 204.914 351.331 214.491C326.726 262.782 324.409 302.461 326.797 327.251C329.382 354.095 334.581 361.716 334.668 361.871H334.174Z" fill="#30322C"/>
  <path d="M151.762 361.871H151.268C151.301 360.915 154.443 274.074 169.63 236.861C173.224 228.051 186.732 213.258 201.024 197.597C212.04 185.534 223.426 173.055 231.328 162.224C247.071 140.651 250.229 120.55 251.249 103.735C252.372 85.1811 253.026 29.1535 253.032 28.5874L253.577 28.5916C253.572 29.1577 252.917 85.1937 251.794 103.756C250.774 120.621 247.6 140.781 231.802 162.43C223.884 173.282 212.487 185.764 201.472 197.84C187.201 213.472 173.72 228.24 170.148 236.991C154.983 274.15 151.795 360.919 151.762 361.871Z" fill="#30322C"/>
  <path d="M0 306.323V305.373C27.6969 254.205 56.3502 201.752 83.8617 151.49C105.898 111.233 128.687 69.6039 151.024 28.5119L151.525 28.6712C129.189 69.7632 106.405 111.392 84.3634 151.65C56.8519 201.916 27.7024 255.155 0 306.323Z" fill="#30322C"/>
  <path d="M711.849 361.871H711.355C711.47 360.751 721.949 257.57 714.74 221.766C710.459 200.511 691.929 165.273 677.042 136.961C670.53 124.583 664.385 112.893 660.262 103.983C651.804 85.7052 645.653 29.1828 645.587 28.6125L646.133 28.5789C646.193 29.1492 652.344 85.6129 660.775 103.84C664.892 112.742 671.043 124.428 677.549 136.802C692.447 165.134 710.993 200.398 715.285 221.699C722.494 257.554 711.964 360.751 711.849 361.871Z" fill="#30322C"/>
  <path d="M780.777 28.502L780.25 28.6085L894.26 361.871L894.755 361.871L780.777 28.502Z" fill="#30322C"/>
  <path d="M1048 302.524C1018.66 247.553 990.689 193.048 962.855 138.907C948.999 111.958 934.673 84.0866 920.386 56.555C919.764 55.4774 919.077 54.3704 918.412 53.3012C916.737 50.5967 915.003 47.7999 913.831 44.7977C913.176 42.7892 912.14 41.0994 911.044 39.3131C910.324 38.1432 909.583 36.9314 908.928 35.5897C908.552 33.8915 907.69 32.3778 906.856 30.9186C906.442 30.1932 906.011 29.4384 905.646 28.6753L906.158 28.5286C906.518 29.2833 906.943 30.0297 907.358 30.7509C908.209 32.2353 909.081 33.7699 909.452 35.4848C910.084 36.7721 910.821 37.9756 911.535 39.1412C912.642 40.9484 913.689 42.655 914.354 44.697C915.51 47.6573 917.234 50.4415 918.902 53.1335C919.568 54.2069 920.255 55.318 920.882 56.404C935.175 83.9441 949.5 111.811 963.351 138.764C991.185 192.905 1018.66 246.608 1048 301.575V302.524Z" fill="#30322C"/>
  <path d="M290.939 184.306C289.219 184.306 287.538 184.298 285.885 184.277C215.124 183.488 2.13946 174.119 0 174.026L0.0327467 173.619C2.17766 173.712 215.146 183.08 285.896 183.87C317.343 184.225 361.268 181.138 412.14 177.568C468.421 173.619 532.206 169.14 594.719 168.273C660.802 167.357 732.72 172.393 796.177 176.839C839.703 179.888 880.811 182.767 915.381 183.463C999.928 185.161 1047.53 173.504 1048 173.386V174.013C1047.56 174.119 1006.36 184.041 932.398 184.041C926.897 184.041 921.226 183.988 915.365 183.87C880.779 183.174 839.66 180.296 796.123 177.246C732.682 172.804 660.77 167.764 594.73 168.684C532.239 169.551 468.464 174.026 412.194 177.975C363.975 181.358 321.988 184.306 290.939 184.306Z" fill="#30322C"/>
  <path d="M402.046 285.282C397.515 285.282 392.792 285.257 387.857 285.207C345.867 284.775 302.7 283.89 264.609 283.11C173.715 280.536 85.9973 277.29 0 273.089V272.614C85.9973 276.815 173.736 280.117 264.625 282.691C302.705 283.471 345.873 284.356 387.863 284.788C474.023 285.668 497.221 278.62 521.783 271.156C537.733 266.309 554.224 261.298 588.503 257.956C656.248 251.352 721.382 264.422 764.484 273.072C782.539 276.695 796.805 279.559 806.692 280.179C879.607 284.754 959.401 281.736 1048 271.664V272.139C959.363 282.215 879.607 285.178 806.648 280.599C796.718 279.974 782.43 277.11 764.348 273.479C721.289 264.837 656.216 251.78 588.574 258.371C554.366 261.705 537.903 266.707 521.985 271.546C498.781 278.599 476.783 285.282 402.046 285.282Z" fill="#30322C"/>
  <path d="M215.448 182.292H214.902V281.362H215.448V182.292Z" fill="#30322C"/>
  <path d="M660.861 104.071H660.316V168.891H660.861V104.071Z" fill="#30322C"/>
  <path d="M151.547 28.5956H151.002V103.928H151.547V28.5956Z" fill="#30322C"/>
  <path d="M1048 0.0943604H0V362H1048V0.0943604Z" fill="url(#paint0_linear_511_4190)"/>
  <defs>
    <linearGradient id="paint0_linear_511_4190" x1="524" y1="24.86" x2="523.999" y2="370.614" gradientUnits="userSpaceOnUse">
      <stop stop-color="#FEFDF1"/>
      <stop offset="0.315448" stop-color="#FEFDF1" stop-opacity="0"/>
      <stop offset="0.635946" stop-color="#FEFDF1" stop-opacity="0"/>
    </linearGradient>
  </defs>
</svg>
