<svg width="260" height="252" viewBox="0 0 260 252" fill="none" xmlns="http://www.w3.org/2000/svg">
  <path d="M110.917 131.595C145.059 131.595 172.736 104.001 172.736 69.9634C172.736 35.9254 145.059 8.33218 110.917 8.33218C76.7759 8.33218 49.0986 35.9254 49.0986 69.9634C49.0986 104.001 76.7759 131.595 110.917 131.595Z" fill="#30322C"/>
  <path d="M110.918 132.352C76.41 132.352 48.334 104.362 48.334 69.9587C48.334 35.5558 76.41 7.56494 110.918 7.56494C145.425 7.56494 173.501 35.5558 173.501 69.9587C173.501 104.366 145.425 132.352 110.918 132.352ZM110.918 9.09448C77.2532 9.09448 49.8682 36.4009 49.8682 69.9587C49.8682 103.521 77.2578 130.823 110.918 130.823C144.578 130.823 171.967 103.516 171.967 69.9587C171.972 36.4009 144.582 9.09448 110.918 9.09448Z" fill="#30322C"/>
  <path d="M106.799 135.361C140.941 135.361 168.618 107.768 168.618 73.7298C168.618 39.6918 140.941 12.0986 106.799 12.0986C72.6577 12.0986 44.9805 39.6918 44.9805 73.7298C44.9805 107.768 72.6577 135.361 106.799 135.361Z" fill="#F266FF"/>
  <path d="M106.798 136.119C72.2908 136.119 44.2148 108.128 44.2148 73.7251C44.2148 39.3222 72.2908 11.3313 106.798 11.3313C141.306 11.3313 169.382 39.3222 169.382 73.7251C169.382 108.133 141.306 136.119 106.798 136.119ZM106.798 12.8609C73.134 12.8609 45.749 40.1673 45.749 73.7251C45.749 107.287 73.1386 134.594 106.798 134.594C140.463 134.594 167.848 107.287 167.848 73.7251C167.848 40.1673 140.463 12.8609 106.798 12.8609Z" fill="#30322C"/>
  <path d="M106.798 129.826C75.7739 129.826 50.5312 104.66 50.5312 73.7296C50.5312 42.7992 75.7739 17.6332 106.798 17.6332C137.823 17.6332 163.066 42.7992 163.066 73.7296C163.066 104.66 137.823 129.826 106.798 129.826ZM106.798 19.1581C76.617 19.1581 52.0609 43.6397 52.0609 73.7296C52.0609 103.82 76.617 128.301 106.798 128.301C136.98 128.301 161.536 103.82 161.536 73.7296C161.536 43.6397 136.98 19.1581 106.798 19.1581Z" fill="#30322C"/>
  <path d="M113.682 66.174V57.8971H132.668V45.2843H80.967V57.8971H99.9577V66.1694C84.5237 66.8768 72.9229 69.922 72.9229 73.5736C72.9229 77.2252 84.5329 80.2705 99.9577 80.9824V107.499H113.687V80.9824C129.093 80.2751 140.671 77.2298 140.671 73.5828C140.671 69.9358 129.093 66.8814 113.682 66.174ZM113.687 78.7318V78.7272C113.3 78.7501 111.31 78.8695 106.878 78.8695C103.335 78.8695 100.842 78.7685 99.9623 78.7226V78.7318C86.3297 78.13 76.1525 75.7646 76.1525 72.9306C76.1525 70.0966 86.3297 67.7357 99.9623 67.1294V76.3709C100.856 76.4306 103.408 76.5821 106.933 76.5821C111.167 76.5821 113.295 76.4076 113.687 76.3709V67.1294C127.297 67.7357 137.446 70.1012 137.446 72.926C137.446 75.7462 127.287 78.1209 113.687 78.7226" fill="#F8E64B"/>
  <path d="M114.456 108.257H99.1969V81.708C85.6196 81.0098 72.1621 78.2493 72.1621 73.5735C72.1621 68.893 85.6196 66.1371 99.1969 65.4435V58.664H80.2062V44.5262H133.437V58.664H114.451V65.4527C128.005 66.1509 141.44 68.9068 141.44 73.5827C141.44 78.2585 128.005 81.0144 114.456 81.708V108.257ZM100.722 106.727H112.922V80.2428L113.654 80.2106C121.118 79.8661 127.899 78.9521 132.755 77.6384C138.026 76.2099 139.906 74.6023 139.906 73.5735C139.906 72.9258 139.164 72.0531 137.312 71.1391C137.888 71.6765 138.215 72.269 138.215 72.9258C138.215 78.1345 117.814 79.3058 113.723 79.4849C113.018 79.5308 110.968 79.6273 106.877 79.6273C103.938 79.6273 101.772 79.5584 100.667 79.5124L99.9294 79.4895C95.829 79.3103 75.3871 78.1437 75.3871 72.9258C75.3871 72.2552 75.7234 71.6535 76.3223 71.1115C74.438 72.0348 73.687 72.9166 73.687 73.5643C73.687 74.5931 75.5714 76.2053 80.8558 77.6338C85.721 78.9521 92.5211 79.8661 99.9939 80.2106L100.722 80.2428V106.727ZM113.686 78.727L113.696 78.8418L113.686 78.727ZM99.2015 77.9278L100.008 77.9599C100.473 77.9829 102.989 78.1023 106.882 78.1023C110.95 78.1023 112.963 78.0013 113.64 77.9599L114.456 77.9094V77.9232C120.731 77.6109 126.402 76.8989 130.493 75.916C135.382 74.7401 136.685 73.4816 136.685 72.9258C136.685 71.2723 128.968 68.6542 114.456 67.9285V77.0689L113.76 77.1332C113.368 77.1699 111.189 77.349 106.937 77.349C103.408 77.349 100.851 77.2021 99.911 77.1378L99.1969 77.0872V67.933C84.0025 68.6863 76.9167 71.3412 76.9167 72.9304C76.9213 74.5242 84.0071 77.1791 99.2015 77.9278ZM100.731 75.6588C101.952 75.7277 104.131 75.8241 106.937 75.8241C109.991 75.8241 111.945 75.7323 112.926 75.668V66.3346L113.682 66.3668L113.691 66.1739H112.922V57.1345H131.908V46.0466H81.7404V57.1345H100.731V66.3392H100.736V75.6588H100.731Z" fill="#30322C"/>
  <path d="M197.416 183.291C231.557 183.291 259.234 155.698 259.234 121.66C259.234 87.6216 231.557 60.0284 197.416 60.0284C163.274 60.0284 135.597 87.6216 135.597 121.66C135.597 155.698 163.274 183.291 197.416 183.291Z" fill="#30322C"/>
  <path d="M197.416 184.053C162.908 184.053 134.832 156.062 134.832 121.659C134.832 87.2566 162.908 59.2657 197.416 59.2657C231.923 59.2657 259.999 87.2566 259.999 121.659C259.999 156.062 231.923 184.053 197.416 184.053ZM197.416 60.7953C163.751 60.7953 136.366 88.1017 136.366 121.659C136.366 155.217 163.756 182.524 197.416 182.524C231.076 182.524 258.465 155.217 258.465 121.659C258.465 88.1017 231.076 60.7953 197.416 60.7953Z" fill="#30322C"/>
  <path d="M193.292 187.057C227.434 187.057 255.111 159.464 255.111 125.426C255.111 91.388 227.434 63.7948 193.292 63.7948C159.151 63.7948 131.474 91.388 131.474 125.426C131.474 159.464 159.151 187.057 193.292 187.057Z" fill="#7C4FFF"/>
  <path d="M193.293 187.82C158.785 187.82 130.709 159.829 130.709 125.426C130.709 91.023 158.785 63.0322 193.293 63.0322C227.8 63.0322 255.876 91.023 255.876 125.426C255.876 159.829 227.8 187.82 193.293 187.82ZM193.293 64.5617C159.628 64.5617 132.243 91.8681 132.243 125.426C132.243 158.984 159.633 186.29 193.293 186.29C226.957 186.29 254.342 158.984 254.342 125.426C254.342 91.8681 226.957 64.5617 193.293 64.5617Z" fill="#30322C"/>
  <path d="M193.293 181.522C162.268 181.522 137.025 156.356 137.025 125.426C137.025 94.4954 162.268 69.3294 193.293 69.3294C224.317 69.3294 249.56 94.4954 249.56 125.426C249.56 156.356 224.317 181.522 193.293 181.522ZM193.293 70.8543C163.111 70.8543 138.555 95.336 138.555 125.426C138.555 155.516 163.111 179.997 193.293 179.997C223.474 179.997 248.03 155.516 248.03 125.426C248.03 95.336 223.474 70.8543 193.293 70.8543Z" fill="#30322C"/>
  <path d="M178.504 117.489L193.293 102.749L208.091 117.503L216.693 108.923L193.298 85.5892L169.902 108.913L178.504 117.489Z" fill="#FEFDF1"/>
  <path d="M208.091 118.798L193.293 104.045L178.504 118.784L168.594 108.913L193.293 84.2894L217.992 108.923L208.091 118.798ZM193.293 101.449L208.086 116.198L215.384 108.918L193.288 86.8845L171.192 108.909L178.495 116.184L193.293 101.449Z" fill="#30322C"/>
  <path d="M155.211 123.547L163.813 114.967L172.419 123.547L163.813 132.123L155.211 123.547Z" fill="#FEFDF1"/>
  <path d="M163.812 133.423L153.906 123.547L163.812 113.667L173.722 123.547L163.812 133.423ZM156.514 123.547L163.812 130.823L171.114 123.547L163.812 116.267L156.514 123.547Z" fill="#30322C"/>
  <path d="M178.504 129.606L193.293 144.35L208.091 129.596L216.697 138.167L193.302 161.501L169.897 138.186L178.504 129.606Z" fill="#FEFDF1"/>
  <path d="M193.302 162.801L168.594 138.19L178.504 128.31L193.293 143.054L208.086 128.306L217.996 138.172L193.302 162.801ZM171.201 138.186L193.302 160.201L215.398 138.167L208.096 130.896L193.297 145.65L178.508 130.906L171.201 138.186Z" fill="#30322C"/>
  <path d="M214.154 123.547L222.756 114.967L231.362 123.543L222.756 132.127L214.154 123.547Z" fill="#FEFDF1"/>
  <path d="M222.756 133.432L212.851 123.552L222.756 113.672L232.666 123.547L222.756 133.432ZM215.454 123.547L222.751 130.827L230.054 123.538L222.751 116.262L215.454 123.547Z" fill="#30322C"/>
  <path d="M202.024 123.543L193.298 114.834L186.843 121.269L186.097 122.009L184.567 123.533L193.293 132.228L202.019 123.552V123.543H202.024Z" fill="#FEFDF1"/>
  <path d="M193.293 133.524L183.264 123.533L193.293 113.539L202.941 123.166V123.933L193.293 133.524ZM185.871 123.529L193.298 130.924L200.725 123.543L193.298 116.134L185.871 123.529Z" fill="#30322C"/>
  <path d="M110.028 224.703C144.169 224.703 171.847 197.11 171.847 163.072C171.847 129.034 144.169 101.44 110.028 101.44C75.8862 101.44 48.209 129.034 48.209 163.072C48.209 197.11 75.8862 224.703 110.028 224.703Z" fill="#30322C"/>
  <path d="M110.029 225.465C75.5213 225.465 47.4453 197.474 47.4453 163.072C47.4453 128.669 75.5213 100.678 110.029 100.678C144.537 100.678 172.613 128.669 172.613 163.072C172.613 197.474 144.537 225.465 110.029 225.465ZM110.029 102.207C76.3644 102.207 48.9795 129.514 48.9795 163.072C48.9795 196.629 76.369 223.936 110.029 223.936C143.689 223.936 171.078 196.629 171.078 163.072C171.078 129.514 143.693 102.207 110.029 102.207Z" fill="#30322C"/>
  <path d="M105.91 228.469C140.051 228.469 167.728 200.876 167.728 166.838C167.728 132.8 140.051 105.207 105.91 105.207C71.7681 105.207 44.0908 132.8 44.0908 166.838C44.0908 200.876 71.7681 228.469 105.91 228.469Z" fill="#B5EE85"/>
  <path d="M105.91 229.232C71.4022 229.232 43.3262 201.241 43.3262 166.838C43.3262 132.435 71.4022 104.444 105.91 104.444C140.417 104.444 168.493 132.435 168.493 166.838C168.493 201.241 140.417 229.232 105.91 229.232ZM105.91 105.974C72.2453 105.974 44.8604 133.28 44.8604 166.838C44.8604 200.396 72.25 227.702 105.91 227.702C139.57 227.702 166.959 200.396 166.959 166.838C166.959 133.28 139.574 105.974 105.91 105.974Z" fill="#30322C"/>
  <path d="M105.91 222.934C74.8852 222.934 49.6426 197.768 49.6426 166.838C49.6426 135.907 74.8852 110.741 105.91 110.741C136.934 110.741 162.177 135.907 162.177 166.838C162.177 197.768 136.934 222.934 105.91 222.934ZM105.91 112.266C75.7283 112.266 51.1721 136.748 51.1721 166.838C51.1721 196.928 75.7283 221.409 105.91 221.409C136.091 221.409 160.647 196.928 160.647 166.838C160.647 136.748 136.091 112.266 105.91 112.266Z" fill="#30322C"/>
  <path d="M105.9 124.714V182.905L131.839 167.619L105.9 124.714Z" fill="#4754BA"/>
  <path d="M105.901 183.667C105.772 183.667 105.638 183.635 105.523 183.566C105.283 183.428 105.136 183.176 105.136 182.905V124.714C105.136 124.369 105.366 124.071 105.698 123.979C106.03 123.887 106.38 124.025 106.559 124.319L132.498 167.224C132.604 167.398 132.636 167.605 132.585 167.802C132.534 168 132.41 168.17 132.23 168.271L106.292 183.557C106.172 183.635 106.034 183.667 105.901 183.667ZM106.665 127.461V181.568L130.784 167.357L106.665 127.461Z" fill="#30322C"/>
  <path d="M105.901 124.714L79.9629 167.619L105.901 182.905V155.865V124.714Z" fill="#323E99"/>
  <path d="M105.901 183.667C105.767 183.667 105.633 183.631 105.509 183.562L79.5706 168.276C79.3956 168.17 79.2666 168.005 79.2159 167.807C79.1652 167.61 79.1975 167.403 79.3034 167.228L105.242 124.323C105.417 124.03 105.772 123.892 106.103 123.984C106.435 124.075 106.665 124.374 106.665 124.718V182.909C106.665 183.185 106.518 183.438 106.278 183.571C106.163 183.635 106.03 183.667 105.901 183.667ZM81.0173 167.357L105.136 181.568V127.461L81.0173 167.357Z" fill="#30322C"/>
  <path d="M105.901 187.801L105.583 188.192V208.034L105.901 208.962L131.853 172.524L105.901 187.801Z" fill="#4754BA"/>
  <path d="M105.901 209.729C105.864 209.729 105.827 209.724 105.791 209.72C105.505 209.678 105.27 209.481 105.178 209.21L104.86 208.282C104.832 208.204 104.818 208.117 104.818 208.034V188.192C104.818 188.017 104.878 187.843 104.993 187.709L105.311 187.319C105.367 187.25 105.436 187.19 105.514 187.144L131.466 171.867C131.779 171.684 132.176 171.743 132.42 172.01C132.664 172.276 132.687 172.676 132.48 172.97L106.528 209.407C106.38 209.61 106.145 209.729 105.901 209.729ZM106.348 188.463V207.019L129.153 175L106.408 188.389L106.348 188.463Z" fill="#30322C"/>
  <path d="M105.901 208.962V187.801L79.9629 172.524L105.901 208.962Z" fill="#323E99"/>
  <path d="M105.9 209.729C105.656 209.729 105.421 209.614 105.278 209.407L79.34 172.97C79.1327 172.676 79.1557 172.276 79.3999 172.01C79.6441 171.743 80.0403 171.688 80.3536 171.867L106.292 187.144C106.527 187.282 106.67 187.53 106.67 187.801V208.962C106.67 209.293 106.453 209.587 106.135 209.688C106.057 209.715 105.979 209.729 105.9 209.729ZM82.6664 175.005L105.135 206.569V188.238L82.6664 175.005Z" fill="#30322C"/>
  <path d="M105.9 182.905L131.839 167.619L105.9 155.865V182.905Z" fill="#7C4FFF"/>
  <path d="M105.901 183.667C105.772 183.667 105.638 183.635 105.523 183.566C105.283 183.428 105.136 183.176 105.136 182.905V155.865C105.136 155.608 105.269 155.364 105.486 155.222C105.707 155.079 105.979 155.061 106.218 155.167L132.157 166.921C132.415 167.04 132.59 167.288 132.604 167.573C132.617 167.858 132.475 168.124 132.23 168.271L106.292 183.557C106.172 183.635 106.034 183.667 105.901 183.667ZM106.665 157.054V181.568L130.18 167.711L106.665 157.054Z" fill="#30322C"/>
  <path d="M79.9619 167.619L105.9 182.905V155.865L79.9619 167.619Z" fill="#4E5BC2"/>
  <path d="M105.9 183.667C105.766 183.667 105.633 183.631 105.508 183.562L79.5701 168.276C79.3259 168.133 79.1784 167.862 79.1969 167.577C79.2107 167.293 79.3858 167.04 79.6438 166.925L105.582 155.171C105.817 155.066 106.093 155.084 106.315 155.226C106.531 155.369 106.665 155.608 106.665 155.869V182.909C106.665 183.185 106.517 183.438 106.278 183.571C106.163 183.635 106.029 183.667 105.9 183.667ZM81.6156 167.711L105.135 181.568V157.054L81.6156 167.711Z" fill="#30322C"/>
  <path d="M191.884 239.555L189.577 248.78L198.831 251.08L201.138 241.855L191.884 239.555Z" fill="#F8E64B"/>
  <path d="M199.384 252L188.645 249.331L191.321 238.625L202.061 241.293L199.384 252ZM190.501 248.22L198.269 250.149L200.204 242.405L192.436 240.476L190.501 248.22Z" fill="#30322C"/>
  <path d="M16.9648 155.529L7.80566 158.177L10.4617 167.309L19.6208 164.661L16.9648 155.529Z" fill="#7C4FFF"/>
  <path d="M9.96112 168.262L6.87891 157.665L17.5077 154.593L20.5898 165.189L9.96112 168.262ZM8.77244 158.703L11.0023 166.369L18.6917 164.146L16.4618 156.48L8.77244 158.703Z" fill="#30322C"/>
  <path d="M201.944 38.6283L192.494 39.9061L193.776 49.3275L203.226 48.0496L201.944 38.6283Z" fill="#7C4FFF"/>
  <path d="M193.137 50.208L191.648 39.2763L202.613 37.7927L204.102 48.7244L193.137 50.208ZM193.372 40.5853L194.445 48.4948L202.378 47.4246L201.305 39.5151L193.372 40.5853Z" fill="#30322C"/>
  <path d="M224.338 7.53071L220.107 16.0517L228.654 20.2693L232.885 11.7484L224.338 7.53071Z" fill="#F8E64B"/>
  <path d="M228.976 21.2526L219.057 16.3609L223.963 6.4718L233.882 11.3635L228.976 21.2526ZM221.111 15.6673L228.285 19.2087L231.837 12.0571L224.664 8.51576L221.111 15.6673Z" fill="#30322C"/>
  <path d="M22.2833 104.138L18.0527 112.659L26.5996 116.877L30.8302 108.356L22.2833 104.138Z" fill="#F266FF"/>
  <path d="M26.9388 117.861L17.0195 112.965L21.9308 103.075L31.85 107.972L26.9388 117.861ZM19.0697 112.276L26.2431 115.817L29.7952 108.665L22.6219 105.124L19.0697 112.276Z" fill="#30322C"/>
  <path d="M164.863 221.763L155.413 223.04L156.695 232.462L166.145 231.184L164.863 221.763Z" fill="#7C4FFF"/>
  <path d="M156.049 233.347L154.561 222.415L165.526 220.932L167.014 231.863L156.049 233.347ZM156.284 223.72L157.357 231.629L165.291 230.559L164.217 222.65L156.284 223.72Z" fill="#30322C"/>
  <path d="M5.10573 61.6885L1.00488 70.2723L9.61473 74.3607L13.7156 65.7769L5.10573 61.6885Z" fill="#5CB318"/>
  <path d="M9.9929 75.374L0 70.6292L4.75917 60.6666L14.7521 65.4114L9.9929 75.374ZM2.04555 69.9081L9.27421 73.3392L12.7157 66.1325L5.48708 62.7014L2.04555 69.9081Z" fill="#30322C"/>
  <path d="M195.599 205.705L191.498 214.289L200.108 218.377L204.209 209.794L195.599 205.705Z" fill="#5CB318"/>
  <path d="M200.495 219.393L190.502 214.648L195.261 204.686L205.254 209.43L200.495 219.393ZM192.543 213.923L199.772 217.354L203.213 210.147L195.984 206.716L192.543 213.923Z" fill="#30322C"/>
  <path d="M182.109 1.02228L173.656 5.42632L178.074 13.8531L186.526 9.44911L182.109 1.02228Z" fill="#F266FF"/>
  <path d="M177.716 14.8911L172.588 5.11219L182.396 0L187.524 9.77886L177.716 14.8911ZM174.657 5.75525L178.365 12.8287L185.46 9.13122L181.752 2.05773L174.657 5.75525Z" fill="#30322C"/>
</svg>
