<svg width="290" height="300" viewBox="0 0 290 300" fill="none" xmlns="http://www.w3.org/2000/svg">
  <path d="M261.538 56.6125L250.1 67.8467L261.538 79.0809L272.977 67.8467L261.538 56.6125Z" fill="#F8E64B"/>
  <path d="M274.119 67.8468L261.538 55.491L248.956 67.8468L261.538 80.2027L274.119 67.8468ZM261.538 57.7387L271.832 67.8513L261.538 77.9639L251.243 67.8513L261.538 57.7387Z" fill="#30322C"/>
  <path d="M174.56 62.4732L189.917 57.4822L184.837 42.4011L169.48 47.3876L174.56 62.4732Z" fill="#7C4FFF"/>
  <path d="M168.458 46.883L174.045 63.473L190.936 57.9821L185.349 41.392L168.458 46.883ZM175.076 61.4686L170.503 47.892L184.322 43.401L188.895 56.9776L175.076 61.4686Z" fill="#30322C"/>
  <path d="M188.765 114.703L204.117 109.712L199.037 94.6306L183.68 99.6216L188.765 114.703Z" fill="#F8E64B"/>
  <path d="M182.662 99.1172L188.249 115.707L205.14 110.216L199.553 93.6262L182.662 99.1172ZM189.276 113.703L184.702 100.126L198.522 95.6352L203.095 109.212L189.276 113.703Z" fill="#30322C"/>
  <path d="M218.573 79.0629L230.675 68.5179L219.936 56.635L207.839 67.1755L218.573 79.0629Z" fill="#5CB318"/>
  <path d="M206.696 67.1126L218.502 80.1847L231.81 68.5856L220.004 55.5135L206.696 67.1126ZM218.641 77.9414L208.978 67.2477L219.869 57.7567L229.532 68.4549L218.641 77.9414Z" fill="#30322C"/>
  <path d="M205.143 155.581L221.069 158.338L223.881 142.694L207.95 139.933L205.143 155.581Z" fill="#F5C2E4"/>
  <path d="M207.296 139.014L204.206 156.225L221.729 159.261L224.818 142.05L207.296 139.014ZM206.08 154.937L208.609 140.856L222.944 143.338L220.415 157.419L206.08 154.937Z" fill="#30322C"/>
  <path d="M184.532 16.5676L200.458 19.3244L203.27 3.68024L187.338 0.918976L184.532 16.5676Z" fill="#F266FF"/>
  <path d="M186.684 0L183.595 17.2117L201.118 20.2478L204.207 3.03605L186.684 0ZM185.469 15.9234L187.998 1.84236L202.333 4.32433L199.804 18.4054L185.469 15.9234Z" fill="#30322C"/>
  <path d="M232.885 115.87L247.619 122.419L254.291 107.946L239.553 101.397L232.885 115.87Z" fill="#B5EE85"/>
  <path d="M239.149 100.347L231.814 116.27L248.023 123.478L255.358 107.554L239.149 100.347ZM233.953 115.473L239.956 102.446L253.22 108.342L247.216 121.369L233.953 115.473Z" fill="#30322C"/>
  <path d="M237.655 36.554L247.82 24.1937L235.234 14.2162L225.074 26.5765L237.655 36.554Z" fill="#B5EE85"/>
  <path d="M223.935 26.6937L237.777 37.6712L248.955 24.0766L235.114 13.0992L223.935 26.6937ZM237.535 35.4415L226.209 26.4595L235.356 15.3334L246.682 24.3154L237.535 35.4415Z" fill="#30322C"/>
  <path d="M197.935 246.599C223.658 246.599 298.063 191.234 288.32 180.523C278.895 170.162 223.138 206.725 223.138 206.725L94.3582 206.847L92.7486 223.117C92.7486 223.117 169.749 246.599 197.935 246.599Z" fill="#FEFDF1"/>
  <path d="M197.934 247.392C208.301 247.392 227.379 238.59 248.965 223.847C269.388 209.897 285.109 195.347 289.014 186.779C290.359 183.824 290.328 181.541 288.92 179.991C284.732 175.388 272.245 178.433 251.812 189.036C237.818 196.297 224.676 204.77 222.891 205.933L93.6225 206.054L91.8783 223.685L92.506 223.879C92.6988 223.937 112.033 229.82 134.564 235.631C164.857 243.433 186.178 247.392 197.934 247.392ZM282.867 179.437C285.028 179.437 286.696 179.933 287.714 181.05C288.66 182.09 288.602 183.797 287.539 186.131C283.804 194.324 267.936 208.96 248.045 222.541C227.039 236.888 207.839 245.802 197.934 245.802C186.478 245.802 164.709 241.752 134.981 234.09C114.764 228.879 97.1199 223.604 93.6135 222.55L95.0887 207.64L223.38 207.518L223.582 207.383C236.804 198.716 269.402 179.437 282.867 179.437Z" fill="#30322C"/>
  <path d="M191.755 211.316C220.94 211.316 244.906 212.55 244.906 199.014C244.906 186.311 214.241 191.144 193.746 191.144C179.747 191.144 166.116 175.014 113.091 185.442C112.104 193.428 111.113 201.415 110.127 209.401" fill="#FEFDF1"/>
  <path d="M204.948 212.14C223.049 212.14 237.092 211.595 242.908 205.901C244.769 204.077 245.715 201.761 245.715 199.009C245.715 196.928 244.962 195.162 243.473 193.766C237.895 188.532 222.596 189.23 207.8 189.901C202.809 190.126 198.092 190.342 193.743 190.342C189.82 190.342 185.91 189.027 180.955 187.36C168.947 183.32 150.797 177.212 112.926 184.658L112.352 184.77L109.317 209.302L110.922 209.496L113.814 186.108C150.864 178.923 168.642 184.905 180.426 188.869C185.52 190.586 189.546 191.937 193.738 191.937C198.124 191.937 202.858 191.721 207.867 191.496C222.323 190.838 237.267 190.162 242.347 194.924C243.518 196.023 244.092 197.36 244.092 199.014C244.092 201.36 243.329 203.243 241.76 204.779C235.747 210.667 218.498 210.608 198.527 210.541C196.308 210.532 194.043 210.527 191.748 210.527V212.117C194.039 212.117 196.299 212.126 198.518 212.131C200.72 212.131 202.858 212.14 204.948 212.14Z" fill="#30322C"/>
  <path d="M0.812004 209.441C0.812004 221.459 2.07642 232.923 4.37663 243.401C10.7706 272.572 25.1637 294.059 42.4667 298.396C42.4757 298.401 42.4847 298.401 42.4936 298.401C42.7447 298.464 42.9913 298.523 43.2424 298.577C43.2738 298.586 43.3097 298.59 43.3411 298.599C43.5742 298.649 43.8029 298.698 44.0361 298.739C44.1168 298.752 44.1975 298.766 44.2827 298.784C44.471 298.815 44.6593 298.851 44.8431 298.883C45.1167 298.928 45.3947 298.964 45.6682 299C45.9372 299.036 46.2062 299.063 46.4753 299.09C46.7846 299.117 47.0896 299.14 47.399 299.158C47.5828 299.171 47.7756 299.18 47.9639 299.185C48.0581 299.189 48.1522 299.194 48.2464 299.194C48.4751 299.203 48.6992 299.207 48.9279 299.207C69.0603 299.207 86.3095 276.144 93.4837 243.405C95.7839 232.928 97.0483 221.464 97.0483 209.446C97.0483 197.428 95.7839 185.964 93.4837 175.487C86.3095 142.748 69.0648 119.685 48.9279 119.685C48.6992 119.685 48.4706 119.689 48.2464 119.698C48.1522 119.698 48.0581 119.703 47.9639 119.707C47.7756 119.712 47.5828 119.725 47.399 119.734C47.0896 119.752 46.7846 119.775 46.4753 119.802C46.2062 119.829 45.9372 119.856 45.6682 119.892C45.3992 119.923 45.1301 119.964 44.8611 120.009C44.4889 120.068 44.1168 120.135 43.7446 120.212C43.6819 120.225 43.6146 120.239 43.5518 120.252C43.211 120.324 42.8658 120.401 42.5295 120.487C42.5071 120.491 42.4892 120.496 42.4667 120.5C25.1637 124.833 10.7706 146.324 4.37663 175.496C2.07642 185.959 0.812004 197.423 0.812004 209.441Z" fill="#F8E64B"/>
  <path d="M48.9329 300C68.9666 300 86.7674 277.851 94.2778 243.568C96.6542 232.734 97.8604 221.252 97.8604 209.441C97.8604 197.631 96.6542 186.149 94.2778 175.315C86.7674 141.036 68.9666 118.883 48.9329 118.883C48.6907 118.883 48.4576 118.887 48.2199 118.896C48.1527 118.892 48.0361 118.901 47.933 118.905C47.7491 118.91 47.5474 118.923 47.3501 118.932C47.0407 118.95 46.7268 118.973 46.4085 119C46.117 119.031 45.8435 119.059 45.5655 119.095C45.292 119.126 45.014 119.167 44.7315 119.212C44.3504 119.27 43.9693 119.342 43.5837 119.419L43.3819 119.459C43.0321 119.532 42.6824 119.613 42.3282 119.698L42.2699 119.712L39.0999 120.477L39.472 120.568C23.3885 126.383 9.79803 146.973 3.58345 175.311C1.20702 186.149 0.00087738 197.631 0.00087738 209.437C0.00087738 221.243 1.20702 232.725 3.58345 243.563C10.1523 273.523 24.9713 294.829 42.2609 299.158C42.5479 299.23 42.8035 299.288 43.0635 299.347L43.1398 299.365C43.4088 299.423 43.6464 299.473 43.8841 299.518L44.2383 299.581C44.3952 299.608 44.5567 299.64 44.7136 299.662C44.9961 299.707 45.2785 299.748 45.5655 299.784C45.839 299.82 46.1171 299.847 46.3951 299.878C46.7224 299.91 47.0407 299.932 47.359 299.95C47.5474 299.964 47.7492 299.973 47.9509 299.977C48.0496 299.982 48.1527 299.986 48.2513 299.986C48.4576 299.995 48.6907 300 48.9329 300ZM48.9329 120.473C58.4161 120.473 67.5766 125.77 75.4278 135.788C83.1759 145.676 89.1483 159.459 92.695 175.649C95.049 186.369 96.2417 197.739 96.2417 209.441C96.2417 221.14 95.049 232.509 92.695 243.234C89.1483 259.423 83.1759 273.207 75.4278 283.095C67.5766 293.113 58.4161 298.41 48.9329 298.41C48.7132 298.41 48.4935 298.405 48.2782 298.401C48.1751 298.401 48.0944 298.396 48.0137 298.392C47.8075 298.387 47.6281 298.374 47.4532 298.365C47.1438 298.347 46.8479 298.324 46.552 298.297C46.2964 298.27 46.0408 298.243 45.7763 298.212C45.5028 298.176 45.2382 298.14 44.9692 298.099C44.8212 298.077 44.6732 298.05 44.5298 298.023L44.189 297.964C43.9648 297.919 43.7406 297.874 43.5164 297.824L43.4178 297.802C43.1757 297.748 42.9335 297.689 42.6914 297.631C25.9712 293.441 11.605 272.599 5.16625 243.234C2.81673 232.505 1.62402 221.135 1.62402 209.441C1.62402 197.748 2.81673 186.378 5.16625 175.649C11.605 146.279 25.9757 125.437 42.6645 121.257L42.7318 121.239C43.0546 121.158 43.3864 121.086 43.7182 121.013L43.911 120.973C44.2652 120.901 44.6284 120.833 44.9916 120.779C45.2562 120.739 45.5117 120.698 45.7718 120.667C46.0453 120.631 46.3053 120.604 46.5699 120.577C46.8568 120.55 47.1528 120.527 47.4487 120.514C47.6326 120.5 47.8119 120.491 47.9913 120.486C48.0899 120.482 48.1751 120.477 48.2558 120.477C48.4934 120.477 48.7132 120.473 48.9329 120.473Z" fill="#30322C"/>
  <path d="M84.1124 209.441C84.1124 163.959 65.9798 126.383 42.4622 120.486C44.5785 119.955 46.7397 119.676 48.9323 119.676C75.5079 119.676 97.0527 159.865 97.0527 209.437C97.0527 259.009 75.5079 299.198 48.9323 299.198C46.7397 299.198 44.5785 298.919 42.4622 298.387C65.9753 292.5 84.1124 254.923 84.1124 209.441Z" fill="#30322C"/>
  <path d="M0.811508 209.442C0.811508 221.46 2.07593 232.924 4.37613 243.401H132.111V175.482H4.37613C2.07593 185.96 0.811508 197.424 0.811508 209.442Z" fill="#F266FF"/>
  <path d="M3.72102 244.198H132.918V174.689H3.72102L3.582 175.315C1.20558 186.153 -0.000564575 197.635 -0.000564575 209.442C-0.000564575 221.248 1.20558 232.73 3.582 243.568L3.72102 244.198ZM131.295 242.608H5.02584C2.76599 232.063 1.61809 220.91 1.61809 209.442C1.61809 197.973 2.76599 186.82 5.02584 176.275H131.295V242.608Z" fill="#30322C"/>
</svg>
