<svg width="290" height="390" viewBox="0 0 290 390" fill="none" xmlns="http://www.w3.org/2000/svg">
  <path d="M205.506 286.474H184.625V307.292H205.506V286.474Z" fill="#F8E64B"/>
  <path d="M206.102 307.885H184.029V285.879H206.102V307.885ZM185.221 306.697H204.907V287.071H185.221V306.697Z" fill="#30322C"/>
  <path d="M205.506 286.298H184.625V307.116H205.506V286.298Z" fill="#F266FF"/>
  <path d="M206.102 307.71H184.029V285.704H206.102V307.71ZM185.221 306.522H204.907V286.895H185.221V306.522Z" fill="#30322C"/>
  <path d="M226.384 286.298H205.503V307.116H226.384V286.298Z" fill="#B5EE85"/>
  <path d="M226.98 307.71H204.907V285.704H226.98V307.71ZM206.102 306.522H225.789V286.895H206.102V306.522Z" fill="#30322C"/>
  <path d="M205.506 265.547H184.625V286.366H205.506V265.547Z" fill="#7C4FFF"/>
  <path d="M206.102 286.96H184.029V264.954H206.102V286.96ZM185.221 285.768H204.907V266.142H185.221V285.768Z" fill="#30322C"/>
  <path d="M226.362 244.69H205.48V265.508H226.362V244.69Z" fill="#7C4FFF"/>
  <path d="M226.958 266.103H204.885V244.096H226.958V266.103ZM206.076 264.911H225.763V245.284H206.076V264.911Z" fill="#30322C"/>
  <path d="M226.384 265.547H205.503V286.366H226.384V265.547Z" fill="#F266FF"/>
  <path d="M226.98 286.96H204.907V264.954H226.98V286.96ZM206.102 285.768H225.789V266.142H206.102V285.768Z" fill="#30322C"/>
  <path d="M205.506 327.675H184.625V348.493H205.506V327.675Z" fill="#F266FF"/>
  <path d="M206.102 349.084H184.029V327.078H206.102V349.084ZM185.221 347.896H204.907V328.269H185.221V347.896Z" fill="#30322C"/>
  <path d="M226.384 327.675H205.503V348.493H226.384V327.675Z" fill="#B5EE85"/>
  <path d="M226.98 349.084H204.907V327.078H226.98V349.084ZM206.102 347.896H225.789V328.269H206.102V347.896Z" fill="#30322C"/>
  <path d="M247.321 265.547H226.439V286.366H247.321V265.547Z" fill="#7C4FFF"/>
  <path d="M247.917 286.96H225.844V264.954H247.917V286.96ZM227.035 285.768H246.722V266.142H227.035V285.768Z" fill="#30322C"/>
  <path d="M247.321 327.675H226.439V348.493H247.321V327.675Z" fill="#F266FF"/>
  <path d="M247.917 349.084H225.844V327.078H247.917V349.084ZM227.035 347.896H246.722V328.269H227.035V347.896Z" fill="#30322C"/>
  <path d="M205.506 307.152H184.625V327.97H205.506V307.152Z" fill="#B5EE85"/>
  <path d="M206.102 328.565H184.029V306.558H206.102V328.565ZM185.221 327.373H204.907V307.747H185.221V327.373Z" fill="#30322C"/>
  <path d="M226.384 307.152H205.503V327.97H226.384V307.152Z" fill="#F8E64B"/>
  <path d="M226.98 328.565H204.907V306.558H226.98V328.565ZM206.102 327.373H225.789V307.747H206.102V327.373Z" fill="#30322C"/>
  <path d="M247.321 286.298H226.439V307.116H247.321V286.298Z" fill="#F266FF"/>
  <path d="M247.917 307.71H225.844V285.704H247.917V307.71ZM227.035 306.522H246.722V286.895H227.035V306.522Z" fill="#30322C"/>
  <path d="M247.321 307.152H226.439V327.97H247.321V307.152Z" fill="#B5EE85"/>
  <path d="M247.917 328.565H225.844V306.558H247.917V328.565ZM227.035 327.373H246.722V307.747H227.035V327.373Z" fill="#30322C"/>
  <path d="M268.258 265.658H247.377V286.477H268.258V265.658Z" fill="#F8E64B"/>
  <path d="M268.854 287.071H246.781V265.065H268.854V287.071ZM247.973 285.879H267.659V266.253H247.973V285.879Z" fill="#30322C"/>
  <path d="M289.405 265.658H268.523V286.477H289.405V265.658Z" fill="#B5EE85"/>
  <path d="M290.001 287.071H267.928V265.065H290.001V287.071ZM269.119 285.879H288.806V266.253H269.119V285.879Z" fill="#30322C"/>
  <path d="M267.927 244.791H247.531V265.132H267.927V244.791Z" fill="#B5EE85"/>
  <path d="M268.854 266.103H246.781V244.096H268.854V266.103ZM247.973 264.915H267.659V245.288H247.973V264.915Z" fill="#30322C"/>
  <path d="M289.074 244.791H268.678V265.132H289.074V244.791Z" fill="#F266FF"/>
  <path d="M290.001 266.103H267.928V244.096H290.001V266.103ZM269.119 264.915H288.806V245.288H269.119V264.915Z" fill="#30322C"/>
  <path d="M268.258 327.738H247.377V348.556H268.258V327.738Z" fill="#7C4FFF"/>
  <path d="M268.854 349.15H246.781V327.144H268.854V349.15ZM247.973 347.959H267.659V328.332H247.973V347.959Z" fill="#30322C"/>
  <path d="M289.405 327.738H268.523V348.556H289.405V327.738Z" fill="#F8E64B"/>
  <path d="M290.001 349.15H267.928V327.144H290.001V349.15ZM269.119 347.959H288.806V328.332H269.119V347.959Z" fill="#30322C"/>
  <path d="M268.258 348.431H247.377V369.249H268.258V348.431Z" fill="#F8E64B"/>
  <path d="M268.854 369.843H246.781V347.837H268.854V369.843ZM247.973 368.652H267.659V349.025H247.973V368.652Z" fill="#30322C"/>
  <path d="M289.405 348.431H268.523V369.249H289.405V348.431Z" fill="#B5EE85"/>
  <path d="M290.001 369.843H267.928V347.837H290.001V369.843ZM269.119 368.652H288.806V349.025H269.119V368.652Z" fill="#30322C"/>
  <path d="M268.258 368.588H247.377V389.406H268.258V368.588Z" fill="#B5EE85"/>
  <path d="M268.854 390H246.781V367.994H268.854V390ZM247.973 388.808H267.659V369.182H247.973V388.808Z" fill="#30322C"/>
  <path d="M289.405 368.588H268.523V389.406H289.405V368.588Z" fill="#F266FF"/>
  <path d="M290.001 390H267.928V367.994H290.001V390ZM269.119 388.808H288.806V369.182H269.119V388.808Z" fill="#30322C"/>
  <path d="M268.258 286.297H247.377V307.115H268.258V286.297Z" fill="#7C4FFF"/>
  <path d="M268.854 307.71H246.781V285.704H268.854V307.71ZM247.973 306.518H267.659V286.892H247.973V306.518Z" fill="#30322C"/>
  <path d="M289.405 286.297H268.523V307.115H289.405V286.297Z" fill="#F8E64B"/>
  <path d="M290.001 307.71H267.928V285.704H290.001V307.71ZM269.119 306.518H288.806V286.892H269.119V306.518Z" fill="#30322C"/>
  <path d="M268.258 307.044H247.377V327.863H268.258V307.044Z" fill="#F266FF"/>
  <path d="M268.854 328.457H246.781V306.451H268.854V328.457ZM247.973 327.265H267.659V307.639H247.973V327.265Z" fill="#30322C"/>
  <path d="M289.405 307.044H268.523V327.863H289.405V307.044Z" fill="#7C4FFF"/>
  <path d="M290.001 328.457H267.928V306.451H290.001V328.457ZM269.119 327.265H288.806V307.639H269.119V327.265Z" fill="#30322C"/>
  <path d="M163.504 327.727H142.623V348.545H163.504V327.727Z" fill="#F8E64B"/>
  <path d="M164.1 349.14H142.027V327.134H164.1V349.14ZM143.219 347.952H162.905V328.325H143.219V347.952Z" fill="#30322C"/>
  <path d="M163.321 286.297H142.439V307.115H163.321V286.297Z" fill="#F8E64B"/>
  <path d="M163.917 307.71H141.844V285.704H163.917V307.71ZM143.035 306.522H162.722V286.895H143.035V306.522Z" fill="#30322C"/>
  <path d="M163.504 307.027H142.623V327.845H163.504V307.027Z" fill="#7C4FFF"/>
  <path d="M164.1 328.439H142.027V306.433H164.1V328.439ZM143.219 327.248H162.905V307.621H143.219V327.248Z" fill="#30322C"/>
  <path d="M247.532 244.791H226.209V265.132H247.532V244.791Z" fill="#F8E64B"/>
  <path d="M247.897 266.103H225.824V244.096H247.897V266.103ZM227.016 264.915H246.702V245.288H227.016V264.915Z" fill="#30322C"/>
  <path d="M205.422 348.431H184.541V369.249H205.422V348.431Z" fill="#7C4FFF"/>
  <path d="M206.018 369.843H183.945V347.837H206.018V369.843ZM185.14 368.652H204.827V349.025H185.14V368.652Z" fill="#30322C"/>
  <path d="M205.422 368.588H184.541V389.406H205.422V368.588Z" fill="#F8E64B"/>
  <path d="M206.018 390H183.945V367.994H206.018V390ZM185.14 388.808H204.827V369.182H185.14V388.808Z" fill="#30322C"/>
  <path d="M226.37 348.431H205.488V369.249H226.37V348.431Z" fill="#F266FF"/>
  <path d="M226.965 369.843H204.893V347.837H226.965V369.843ZM206.084 368.652H225.77V349.025H206.084V368.652Z" fill="#30322C"/>
  <path d="M226.37 368.588H205.488V389.406H226.37V368.588Z" fill="#7C4FFF"/>
  <path d="M226.965 390H204.893V367.994H226.965V390ZM206.084 388.808H225.77V369.182H206.084V388.808Z" fill="#30322C"/>
  <path d="M247.315 348.431H226.434V369.249H247.315V348.431Z" fill="#7C4FFF"/>
  <path d="M247.911 369.843H225.838V347.837H247.911V369.843ZM227.029 368.652H246.716V349.025H227.029V368.652Z" fill="#30322C"/>
  <path d="M247.315 368.588H226.434V389.406H247.315V368.588Z" fill="#F8E64B"/>
  <path d="M247.911 390H225.838V367.994H247.911V390ZM227.029 388.808H246.716V369.182H227.029V388.808Z" fill="#30322C"/>
  <path d="M184.479 348.431H163.598V369.249H184.479V348.431Z" fill="#F8E64B"/>
  <path d="M185.075 369.843H163.002V347.837H185.075V369.843ZM164.194 368.652H183.88V349.025H164.194V368.652Z" fill="#30322C"/>
  <path d="M184.479 368.588H163.598V389.406H184.479V368.588Z" fill="#B5EE85"/>
  <path d="M185.075 390H163.002V367.994H185.075V390ZM164.194 388.808H183.88V369.182H164.194V388.808Z" fill="#30322C"/>
  <path d="M163.504 348.431H142.623V369.249H163.504V348.431Z" fill="#B5EE85"/>
  <path d="M164.1 369.843H142.027V347.837H164.1V369.843ZM143.219 368.652H162.905V349.025H143.219V368.652Z" fill="#30322C"/>
  <path d="M163.504 368.588H142.623V389.406H163.504V368.588Z" fill="#F266FF"/>
  <path d="M164.1 390H142.027V367.994H164.1V390ZM143.219 388.808H162.905V369.182H143.219V388.808Z" fill="#30322C"/>
  <path d="M184.514 327.675H163.633V348.493H184.514V327.675Z" fill="#7C4FFF"/>
  <path d="M185.11 349.084H163.037V327.078H185.11V349.084ZM164.229 347.896H183.915V328.269H164.229V347.896Z" fill="#30322C"/>
  <path d="M184.514 286.298H163.633V307.116H184.514V286.298Z" fill="#7C4FFF"/>
  <path d="M185.11 307.71H163.037V285.704H185.11V307.71ZM164.229 306.522H183.915V286.895H164.229V306.522Z" fill="#30322C"/>
  <path d="M184.514 307.152H163.633V327.97H184.514V307.152Z" fill="#F266FF"/>
  <path d="M185.11 328.565H163.037V306.558H185.11V328.565ZM164.229 327.373H183.915V307.747H164.229V327.373Z" fill="#30322C"/>
  <path d="M38.0024 81.9472H17.1211V102.765H38.0024V81.9472Z" fill="#F266FF"/>
  <path d="M38.5983 103.359H16.5254V81.3534H38.5983V103.359ZM17.717 102.168H37.4032V82.5414H17.717V102.168Z" fill="#30322C"/>
  <path d="M41.3584 47.276C41.132 47.276 40.9229 47.1474 40.8218 46.9425C39.5431 44.3302 37.1041 42.708 34.4596 42.708C31.815 42.708 29.376 44.3302 28.0973 46.9425C27.9962 47.1474 27.7906 47.276 27.5607 47.276C27.3342 47.276 27.1251 47.1474 27.0241 46.9425C25.7454 44.3302 23.3064 42.708 20.6618 42.708C18.0172 42.708 15.5782 44.3302 14.2995 46.9425C14.1984 47.1474 13.9929 47.276 13.7629 47.276C13.5364 47.276 13.3274 47.1474 13.2263 46.9425C11.9476 44.3302 9.50861 42.708 6.86404 42.708C4.58532 42.708 2.48081 43.8821 1.09058 45.9281C0.944242 46.1435 0.672463 46.2408 0.421595 46.1644C0.170727 46.088 0 45.8586 0 45.5946V43.7918C0 26.8781 12.3622 13.1152 27.5537 13.1152C42.7487 13.1152 55.1074 26.8781 55.1074 43.7918V45.5946C55.1074 45.8552 54.9367 46.088 54.6858 46.1644C54.4349 46.2408 54.1632 46.1469 54.0168 45.9281C52.6301 43.8821 50.5256 42.708 48.2434 42.708C45.5988 42.708 43.1598 44.3302 41.8811 46.9425C41.794 47.144 41.5849 47.276 41.3584 47.276ZM20.6653 41.5165C23.4283 41.5165 25.9893 43.0033 27.5642 45.4627C29.139 43.0033 31.7 41.5165 34.463 41.5165C37.2261 41.5165 39.787 43.0033 41.3619 45.4627C42.9368 43.0033 45.4943 41.5165 48.2608 41.5165C50.3967 41.5165 52.3897 42.3779 53.9297 43.9307V43.7918C53.9297 27.5312 42.1041 14.3067 27.5676 14.3067C13.0312 14.3067 1.20556 27.5347 1.20556 43.7918V43.9307C2.74561 42.3814 4.74211 41.5165 6.87449 41.5165C9.63753 41.5165 12.1985 43.0033 13.7734 45.4627C15.3413 43.0067 17.9022 41.5165 20.6653 41.5165Z" fill="#30322C"/>
  <path d="M27.0129 13.4602L13.2246 46.4334L14.3245 46.8906L28.1128 13.9174L27.0129 13.4602Z" fill="#30322C"/>
  <path d="M28.1565 13.7091H26.9648V46.6784H28.1565V13.7091Z" fill="#30322C"/>
  <path d="M28.1271 13.4556L27.0273 13.913L40.8228 46.8826L41.9226 46.4252L28.1271 13.4556Z" fill="#30322C"/>
  <path fill-rule="evenodd" clip-rule="evenodd" d="M28.156 16.6114V44.6398C29.7409 42.6756 32.0229 41.5165 34.4625 41.5165C36.2131 41.5165 37.8825 42.1132 39.2714 43.176L28.156 16.6114ZM41.4577 45.3154L28.4902 14.3245C42.6009 14.8702 53.9292 27.8768 53.9292 43.7918V43.9307C52.3892 42.3779 50.3962 41.5165 48.2603 41.5165C45.5495 41.5165 43.0393 42.944 41.4577 45.3154ZM15.8856 43.1563L26.9644 16.6626V44.6312C25.3798 42.6722 23.1008 41.5165 20.6648 41.5165C18.926 41.5165 17.2672 42.1067 15.8856 43.1563ZM26.6511 14.3243C12.5372 14.8661 1.20508 27.8776 1.20508 43.7918V43.9307C2.74513 42.3814 4.74163 41.5165 6.87401 41.5165C9.58672 41.5165 12.1046 42.9496 13.6859 45.3292L26.6511 14.3243Z" fill="#F266FF"/>
  <path d="M27.5645 82.5414C27.2335 82.5414 26.9688 82.2739 26.9688 81.9474V46.6785C26.9688 46.3485 27.237 46.0845 27.5645 46.0845C27.8956 46.0845 28.1604 46.3519 28.1604 46.6785V81.9439C28.1604 82.2739 27.8921 82.5414 27.5645 82.5414Z" fill="#30322C"/>
  <path d="M27.5608 82.5415C27.4876 82.5415 27.4145 82.5275 27.3448 82.4998C27.0381 82.3816 26.8849 82.0343 27.0068 81.7286L40.8011 46.4632C40.9195 46.1575 41.2645 46.0047 41.5746 46.1262C41.8812 46.2443 42.0345 46.5917 41.9125 46.8974L28.1183 82.1628C28.0277 82.399 27.8012 82.5415 27.5608 82.5415Z" fill="#30322C"/>
  <path d="M27.5642 82.5415C27.3237 82.5415 27.1008 82.3991 27.0067 82.1628L13.2124 46.8974C13.0939 46.5917 13.2438 46.2479 13.5504 46.1263C13.857 46.0082 14.2019 46.1575 14.3239 46.4632L28.1182 81.7286C28.2366 82.0343 28.0868 82.3782 27.7802 82.4998C27.707 82.5276 27.6338 82.5415 27.5642 82.5415Z" fill="#30322C"/>
  <path d="M27.5639 82.5413C27.3827 82.5413 27.2015 82.4579 27.0831 82.3016L0.125194 45.9489C-0.0699258 45.6849 -0.0141718 45.3132 0.250634 45.1187C0.515439 44.9242 0.888252 44.9797 1.08337 45.2437L28.0413 81.5999C28.2364 81.8639 28.1806 82.2356 27.9158 82.4301C27.8113 82.503 27.6859 82.5413 27.5639 82.5413Z" fill="#30322C"/>
  <path d="M27.5601 82.5413C27.4382 82.5413 27.3128 82.5031 27.2047 82.4232C26.9399 82.2287 26.8842 81.857 27.0793 81.593L54.0372 45.2368C54.2323 44.9728 54.6051 44.9173 54.8699 45.1118C55.1347 45.3063 55.1905 45.678 54.9954 45.942L28.0375 82.2947C27.926 82.458 27.7448 82.5413 27.5601 82.5413Z" fill="#30322C"/>
  <path d="M81.5795 191.805H60.6982V212.623H81.5795V191.805Z" fill="#B5EE85"/>
  <path d="M82.1764 213.217H60.1035V191.211H82.1764V213.217ZM61.2951 212.029H80.9813V192.402H61.2951V212.029Z" fill="#30322C"/>
  <path d="M50.4443 151.971C53.4199 151.971 56.0087 153.819 57.3432 156.539C58.6776 153.819 61.2665 151.971 64.2421 151.971C67.2176 151.971 69.8064 153.819 71.1409 156.539C72.4754 153.819 75.0642 151.971 78.0398 151.971C81.0154 151.971 83.6042 153.819 84.9387 156.539C86.2732 153.819 88.862 151.971 91.8375 151.971C94.395 151.971 96.6703 153.336 98.1023 155.452V153.649C98.1023 137.034 86.0327 123.567 71.1444 123.567C56.2561 123.567 44.1865 137.034 44.1865 153.649V155.452C45.6151 153.336 47.8868 151.971 50.4443 151.971Z" fill="#B5EE85"/>
  <path d="M84.9317 157.133C84.7052 157.133 84.4961 157.005 84.3951 156.8C83.1164 154.188 80.6773 152.566 78.0328 152.566C75.3882 152.566 72.9492 154.188 71.6705 156.8C71.5695 157.005 71.3639 157.133 71.1339 157.133C70.9074 157.133 70.6984 157.005 70.5973 156.8C69.3186 154.188 66.8796 152.566 64.235 152.566C61.5905 152.566 59.1515 154.188 57.8727 156.8C57.7717 157.005 57.5661 157.133 57.3362 157.133C57.1097 157.133 56.9006 157.005 56.7996 156.8C55.5208 154.188 53.0819 152.566 50.4373 152.566C48.1586 152.566 46.0541 153.74 44.6638 155.786C44.5175 156.001 44.2457 156.098 43.9948 156.022C43.744 155.945 43.5732 155.716 43.5732 155.452V153.649C43.5732 136.736 55.9355 122.973 71.1269 122.973C86.3184 122.973 98.6806 136.732 98.6806 153.649V155.452C98.6806 155.713 98.5099 155.945 98.2591 156.022C98.0082 156.098 97.7364 156.005 97.5901 155.786C96.2033 153.74 94.0988 152.566 91.8166 152.566C89.172 152.566 86.7331 154.188 85.4543 156.8C85.3672 157.005 85.1582 157.133 84.9317 157.133ZM64.2385 151.377C67.0016 151.377 69.5625 152.864 71.1374 155.324C72.7123 152.864 75.2732 151.377 78.0363 151.377C80.7993 151.377 83.3602 152.864 84.9351 155.324C86.51 152.864 89.0675 151.377 91.834 151.377C93.9699 151.377 95.9629 152.239 97.503 153.792V153.653C97.503 137.396 85.6773 124.168 71.1409 124.168C56.6045 124.168 44.7788 137.396 44.7788 153.653V153.792C46.3188 152.242 48.3153 151.377 50.4477 151.377C53.2108 151.377 55.7717 152.864 57.3466 155.324C58.918 152.864 61.4755 151.377 64.2385 151.377Z" fill="#30322C"/>
  <path d="M70.5871 123.315L56.7988 156.288L57.8987 156.745L71.687 123.772L70.5871 123.315Z" fill="#30322C"/>
  <path d="M71.7327 123.57H70.541V156.54H71.7327V123.57Z" fill="#30322C"/>
  <path d="M71.7014 123.314L70.6016 123.771L84.4001 156.74L85.4999 156.282L71.7014 123.314Z" fill="#30322C"/>
  <path d="M71.1368 192.403C70.8058 192.403 70.541 192.135 70.541 191.809V156.543C70.541 156.213 70.8093 155.949 71.1368 155.949C71.4644 155.949 71.7327 156.217 71.7327 156.543V191.809C71.7327 192.135 71.4678 192.403 71.1368 192.403Z" fill="#30322C"/>
  <path d="M71.137 192.402C71.0638 192.402 70.9906 192.389 70.921 192.361C70.6143 192.243 70.461 191.895 70.583 191.589L84.3773 156.324C84.4957 156.018 84.8441 155.866 85.1508 155.987C85.4574 156.105 85.6107 156.453 85.4887 156.758L71.6945 192.024C71.6004 192.256 71.3739 192.402 71.137 192.402Z" fill="#30322C"/>
  <path d="M71.1374 192.402C70.897 192.402 70.674 192.26 70.5799 192.024L56.7856 156.758C56.6672 156.453 56.817 156.109 57.1236 155.987C57.4302 155.869 57.7752 156.018 57.8971 156.324L71.6914 191.59C71.8099 191.895 71.66 192.239 71.3534 192.361C71.2837 192.389 71.2106 192.402 71.1374 192.402Z" fill="#30322C"/>
  <path d="M71.1372 192.402C70.956 192.402 70.7748 192.319 70.6563 192.163L43.6984 155.81C43.5033 155.546 43.5591 155.174 43.8239 154.98C44.0887 154.785 44.4615 154.841 44.6566 155.105L71.6145 191.458C71.8096 191.722 71.7539 192.093 71.4891 192.288C71.3846 192.364 71.2591 192.402 71.1372 192.402Z" fill="#30322C"/>
  <path d="M71.1373 192.402C71.0153 192.402 70.8899 192.364 70.7819 192.284C70.5171 192.09 70.4613 191.718 70.6564 191.454L97.6143 155.101C97.8095 154.837 98.1823 154.782 98.4471 154.976C98.7119 155.171 98.7676 155.542 98.5725 155.806L71.6146 192.159C71.4996 192.319 71.3185 192.402 71.1373 192.402Z" fill="#30322C"/>
  <path d="M125.153 68.8322H104.271V89.6502H125.153V68.8322Z" fill="#B5EE85"/>
  <path d="M125.749 90.2444H103.676V68.2383H125.749V90.2444ZM104.867 89.0529H124.554V69.4263H104.867V89.0529Z" fill="#30322C"/>
  <path d="M94.0195 28.9951C96.9951 28.9951 99.5839 30.8431 100.918 33.563C102.253 30.8431 104.842 28.9951 107.817 28.9951C110.793 28.9951 113.382 30.8431 114.716 33.563C116.051 30.8431 118.639 28.9951 121.615 28.9951C124.591 28.9951 127.179 30.8431 128.514 33.563C129.848 30.8431 132.437 28.9951 135.413 28.9951C137.97 28.9951 140.245 30.3602 141.677 32.4757V30.6729C141.677 14.058 129.608 0.590332 114.72 0.590332C99.8313 0.590332 87.7617 14.058 87.7617 30.6729V32.4757C89.1868 30.3637 91.4585 28.9951 94.0195 28.9951Z" fill="#B5EE85"/>
  <path d="M128.504 34.1608C128.277 34.1608 128.068 34.0323 127.967 33.8273C126.689 31.2151 124.25 29.5928 121.605 29.5928C118.96 29.5928 116.525 31.2151 115.243 33.8273C115.142 34.0323 114.936 34.1608 114.706 34.1608C114.48 34.1608 114.271 34.0323 114.17 33.8273C112.891 31.2151 110.452 29.5928 107.807 29.5928C105.163 29.5928 102.724 31.2151 101.445 33.8273C101.344 34.0323 101.138 34.1608 100.908 34.1608C100.682 34.1608 100.473 34.0323 100.372 33.8273C99.0931 31.2151 96.6541 29.5928 94.0095 29.5928C91.7308 29.5928 89.6263 30.767 88.2361 32.813C88.0897 33.0284 87.818 33.1256 87.5671 33.0492C87.3162 32.9728 87.1455 32.7435 87.1455 32.4795V30.6766C87.1455 13.763 99.5077 0 114.699 0C129.891 0 142.253 13.7595 142.253 30.6766V32.4795C142.253 32.74 142.082 32.9728 141.831 33.0492C141.58 33.1256 141.309 33.0319 141.162 32.813C139.776 30.767 137.671 29.5928 135.389 29.5928C132.744 29.5928 130.309 31.2151 129.027 33.8273C128.939 34.0288 128.734 34.1608 128.504 34.1608ZM107.814 28.4013C110.577 28.4013 113.138 29.8881 114.713 32.351C116.288 29.8916 118.849 28.4013 121.612 28.4013C124.375 28.4013 126.936 29.8881 128.511 32.351C130.086 29.8916 132.647 28.4013 135.41 28.4013C137.546 28.4013 139.539 29.2629 141.079 30.8156V30.6766C141.079 14.4195 129.253 1.19155 114.717 1.19155C100.18 1.19155 88.3546 14.4195 88.3546 30.6766V30.8156C89.8946 29.2663 91.8911 28.4013 94.0235 28.4013C96.7865 28.4013 99.3475 29.8881 100.922 32.3475C102.49 29.8916 105.051 28.4013 107.814 28.4013Z" fill="#30322C"/>
  <path d="M114.159 0.342244L100.371 33.3154L101.471 33.7726L115.259 0.799383L114.159 0.342244Z" fill="#30322C"/>
  <path d="M115.306 0.594238H114.114V33.5635H115.306V0.594238Z" fill="#30322C"/>
  <path d="M115.27 0.339226L114.17 0.796509L127.968 33.7649L129.068 33.3076L115.27 0.339226Z" fill="#30322C"/>
  <path d="M114.71 69.4262C114.379 69.4262 114.114 69.1587 114.114 68.8322V33.5668C114.114 33.2368 114.383 32.9728 114.71 32.9728C115.038 32.9728 115.306 33.2402 115.306 33.5668V68.8322C115.306 69.1587 115.041 69.4262 114.71 69.4262Z" fill="#30322C"/>
  <path d="M114.709 69.4262C114.636 69.4262 114.563 69.4123 114.493 69.3845C114.187 69.2664 114.033 68.919 114.155 68.6134L127.95 33.3479C128.068 33.0423 128.413 32.8894 128.723 33.011C129.03 33.1291 129.183 33.4765 129.061 33.7822L115.267 69.0476C115.173 69.2838 114.95 69.4262 114.709 69.4262Z" fill="#30322C"/>
  <path d="M114.711 69.4263C114.47 69.4263 114.247 69.2838 114.153 69.0476L100.359 33.7822C100.24 33.4765 100.39 33.1326 100.697 33.011C101.003 32.8929 101.348 33.0423 101.47 33.348L115.265 68.6134C115.383 68.9191 115.233 69.263 114.927 69.3846C114.857 69.4123 114.784 69.4263 114.711 69.4263Z" fill="#30322C"/>
  <path d="M114.71 69.4264C114.529 69.4264 114.347 69.343 114.229 69.1867L87.2746 32.8305C87.0795 32.5665 87.1352 32.1948 87.4 32.0003C87.6648 31.8058 88.0377 31.8614 88.2328 32.1254L115.191 68.4781C115.386 68.7421 115.33 69.1137 115.065 69.3082C114.957 69.3881 114.835 69.4264 114.71 69.4264Z" fill="#30322C"/>
  <path d="M114.711 69.4264C114.589 69.4264 114.463 69.3881 114.355 69.3082C114.09 69.1137 114.035 68.7421 114.23 68.4781L141.188 32.1254C141.383 31.8614 141.756 31.8058 142.02 32.0003C142.285 32.1948 142.341 32.5665 142.146 32.8305L115.188 69.1832C115.073 69.343 114.892 69.4264 114.711 69.4264Z" fill="#30322C"/>
  <path d="M212.213 129.529H191.332V150.347H212.213V129.529Z" fill="#F8E64B"/>
  <path d="M212.809 150.941H190.736V128.935H212.809V150.941ZM191.928 149.753H211.614V130.126H191.928V149.753Z" fill="#30322C"/>
  <path d="M181.162 89.1014C184.138 89.1014 186.726 90.9494 188.061 93.6693C189.395 90.9494 191.984 89.1014 194.96 89.1014C197.935 89.1014 200.524 90.9494 201.859 93.6693C203.193 90.9494 205.782 89.1014 208.758 89.1014C211.733 89.1014 214.322 90.9494 215.656 93.6693C216.991 90.9494 219.58 89.1014 222.555 89.1014C225.113 89.1014 227.388 90.4666 228.82 92.5821V90.7792C228.82 74.1643 216.751 60.6966 201.862 60.6966C186.974 60.6966 174.904 74.1643 174.904 90.7792V92.5821C176.329 90.4666 178.605 89.1014 181.162 89.1014Z" fill="#F8E64B"/>
  <path d="M215.649 94.2637C215.423 94.2637 215.214 94.1352 215.113 93.9302C213.834 91.3179 211.395 89.6957 208.751 89.6957C206.106 89.6957 203.667 91.3179 202.388 93.9302C202.287 94.1352 202.082 94.2637 201.852 94.2637C201.625 94.2637 201.416 94.1352 201.315 93.9302C200.036 91.3179 197.597 89.6957 194.953 89.6957C192.308 89.6957 189.869 91.3179 188.591 93.9302C188.489 94.1352 188.284 94.2637 188.054 94.2637C187.827 94.2637 187.618 94.1352 187.517 93.9302C186.239 91.3179 183.8 89.6957 181.155 89.6957C178.876 89.6957 176.772 90.8699 175.382 92.9124C175.235 93.1278 174.963 93.225 174.713 93.1486C174.462 93.0722 174.291 92.843 174.291 92.579V90.7761C174.291 73.8625 186.653 60.0995 201.845 60.0995C217.04 60.0995 229.398 73.8625 229.398 90.7761V92.579C229.398 92.8395 229.228 93.0722 228.977 93.1486C228.726 93.225 228.454 93.1313 228.308 92.9124C226.921 90.8664 224.817 89.6957 222.534 89.6957C219.89 89.6957 217.451 91.3179 216.172 93.9302C216.085 94.1352 215.876 94.2637 215.649 94.2637ZM194.956 88.5077C197.719 88.5077 200.28 89.9945 201.855 92.4539C203.43 89.9945 205.988 88.5077 208.754 88.5077C211.521 88.5077 214.078 89.9945 215.653 92.4539C217.228 89.9945 219.785 88.5077 222.552 88.5077C224.688 88.5077 226.681 89.3692 228.221 90.922V90.783C228.221 74.5224 216.395 61.2979 201.859 61.2979C187.322 61.2979 175.497 74.5259 175.497 90.783V90.922C177.037 89.3727 179.033 88.5077 181.165 88.5077C183.929 88.5077 186.489 89.9945 188.064 92.4539C189.632 89.9945 192.193 88.5077 194.956 88.5077Z" fill="#30322C"/>
  <path d="M201.3 60.4467L187.512 93.4199L188.612 93.877L202.4 60.9038L201.3 60.4467Z" fill="#30322C"/>
  <path d="M202.451 60.6967H201.26V93.6659H202.451V60.6967Z" fill="#30322C"/>
  <path d="M202.416 60.4351L201.316 60.8924L215.115 93.8607L216.215 93.4034L202.416 60.4351Z" fill="#30322C"/>
  <path d="M201.856 129.529C201.525 129.529 201.26 129.262 201.26 128.935V93.6697C201.26 93.3397 201.528 93.0757 201.856 93.0757C202.183 93.0757 202.451 93.3431 202.451 93.6697V128.935C202.451 129.265 202.183 129.529 201.856 129.529Z" fill="#30322C"/>
  <path d="M201.856 129.529C201.783 129.529 201.709 129.515 201.64 129.487C201.333 129.369 201.18 129.022 201.302 128.716L215.096 93.4509C215.214 93.1452 215.563 92.9958 215.869 93.1139C216.176 93.2321 216.329 93.5794 216.207 93.8851L202.413 129.151C202.319 129.387 202.093 129.529 201.856 129.529Z" fill="#30322C"/>
  <path d="M201.855 129.529C201.615 129.529 201.392 129.387 201.298 129.151L187.503 93.8851C187.385 93.5794 187.535 93.2355 187.841 93.1139C188.148 92.9958 188.493 93.1452 188.615 93.4509L202.409 128.716C202.528 129.022 202.378 129.366 202.071 129.487C202.001 129.515 201.928 129.529 201.855 129.529Z" fill="#30322C"/>
  <path d="M201.856 129.529C201.671 129.529 201.494 129.446 201.375 129.289L174.417 92.9333C174.222 92.6693 174.278 92.2976 174.543 92.103C174.807 91.9085 175.18 91.9641 175.375 92.2281L202.333 128.584C202.528 128.848 202.473 129.22 202.208 129.415C202.103 129.491 201.978 129.529 201.856 129.529Z" fill="#30322C"/>
  <path d="M201.855 129.529C201.733 129.529 201.608 129.491 201.5 129.411C201.235 129.216 201.179 128.845 201.374 128.581L228.332 92.2246C228.527 91.9606 228.9 91.905 229.165 92.0995C229.43 92.294 229.485 92.6658 229.29 92.9298L202.332 129.286C202.217 129.446 202.036 129.529 201.855 129.529Z" fill="#30322C"/>
  <path d="M168.723 236.186H147.842V257.004H168.723V236.186Z" fill="#F8E64B"/>
  <path d="M169.318 257.598H147.245V235.592H169.318V257.598ZM148.437 256.41H168.123V236.784H148.437V256.41Z" fill="#30322C"/>
  <path d="M137.59 196.353C140.565 196.353 143.154 198.201 144.489 200.921C145.823 198.201 148.412 196.353 151.388 196.353C154.363 196.353 156.952 198.201 158.286 200.921C159.621 198.201 162.21 196.353 165.185 196.353C168.161 196.353 170.75 198.201 172.084 200.921C173.419 198.201 176.007 196.353 178.983 196.353C181.541 196.353 183.816 197.718 185.248 199.833V198.03C185.248 181.416 173.178 167.948 158.29 167.948C143.402 167.948 131.332 181.416 131.332 198.03V199.833C132.757 197.718 135.029 196.353 137.59 196.353Z" fill="#F8E64B"/>
  <path d="M172.077 201.515C171.851 201.515 171.642 201.386 171.541 201.181C170.262 198.569 167.823 196.947 165.178 196.947C162.534 196.947 160.095 198.569 158.816 201.181C158.715 201.386 158.509 201.515 158.279 201.515C158.053 201.515 157.844 201.386 157.743 201.181C156.464 198.569 154.025 196.947 151.381 196.947C148.736 196.947 146.297 198.569 145.018 201.181C144.917 201.386 144.712 201.515 144.482 201.515C144.255 201.515 144.046 201.386 143.945 201.181C142.666 198.569 140.227 196.947 137.583 196.947C135.304 196.947 133.2 198.121 131.809 200.167C131.663 200.382 131.391 200.48 131.14 200.403C130.889 200.327 130.719 200.097 130.719 199.833V198.031C130.719 181.117 143.081 167.354 158.272 167.354C173.464 167.354 185.826 181.113 185.826 198.031V199.833C185.826 200.094 185.655 200.327 185.405 200.403C185.154 200.48 184.882 200.386 184.736 200.167C183.349 198.121 181.244 196.947 178.962 196.947C176.318 196.947 173.879 198.569 172.6 201.181C172.513 201.386 172.304 201.515 172.077 201.515ZM165.178 195.759C167.941 195.759 170.502 197.245 172.077 199.705C173.652 197.245 176.213 195.759 178.976 195.759C181.112 195.759 183.105 196.62 184.645 198.173V198.034C184.645 181.777 172.819 168.549 158.283 168.549C143.746 168.549 131.921 181.777 131.921 198.034V198.173C133.461 196.624 135.457 195.759 137.59 195.759C140.353 195.759 142.914 197.245 144.489 199.705C146.064 197.245 148.621 195.759 151.387 195.759C154.154 195.759 156.711 197.245 158.286 199.705C159.854 197.245 162.415 195.759 165.178 195.759Z" fill="#30322C"/>
  <path d="M157.73 167.695L143.941 200.668L145.041 201.125L158.83 168.152L157.73 167.695Z" fill="#30322C"/>
  <path d="M158.875 167.952H157.684V200.921H158.875V167.952Z" fill="#30322C"/>
  <path d="M158.846 167.686L157.746 168.143L171.545 201.111L172.644 200.654L158.846 167.686Z" fill="#30322C"/>
  <path d="M158.279 236.78C157.948 236.78 157.684 236.513 157.684 236.186V200.921C157.684 200.591 157.952 200.327 158.279 200.327C158.61 200.327 158.875 200.594 158.875 200.921V236.186C158.879 236.516 158.61 236.78 158.279 236.78Z" fill="#30322C"/>
  <path d="M158.28 236.78C158.206 236.78 158.133 236.766 158.064 236.739C157.757 236.621 157.604 236.273 157.726 235.967L171.52 200.702C171.638 200.396 171.987 200.243 172.293 200.365C172.6 200.483 172.753 200.831 172.631 201.136L158.837 236.402C158.746 236.638 158.52 236.78 158.28 236.78Z" fill="#30322C"/>
  <path d="M158.283 236.78C158.042 236.78 157.819 236.638 157.725 236.402L143.931 201.136C143.813 200.831 143.962 200.487 144.269 200.365C144.576 200.247 144.921 200.396 145.043 200.702L158.837 235.967C158.955 236.273 158.806 236.617 158.499 236.739C158.426 236.77 158.353 236.78 158.283 236.78Z" fill="#30322C"/>
  <path d="M158.284 236.78C158.102 236.78 157.921 236.697 157.803 236.541L130.845 200.188C130.65 199.924 130.706 199.552 130.97 199.358C131.235 199.163 131.608 199.219 131.803 199.483L158.761 235.835C158.956 236.099 158.9 236.471 158.636 236.666C158.531 236.742 158.406 236.78 158.284 236.78Z" fill="#30322C"/>
  <path d="M158.28 236.78C158.158 236.78 158.032 236.742 157.924 236.662C157.66 236.468 157.604 236.096 157.799 235.832L184.757 199.479C184.952 199.215 185.325 199.16 185.59 199.354C185.854 199.549 185.91 199.92 185.715 200.184L158.757 236.537C158.646 236.697 158.465 236.78 158.28 236.78Z" fill="#30322C"/>
</svg>
