<svg width="360" height="380" viewBox="0 0 360 380" fill="none" xmlns="http://www.w3.org/2000/svg">
  <path d="M358.917 56.5377C358.917 56.7417 358.913 56.9458 358.905 57.1499C358.901 57.2019 358.901 57.2499 358.897 57.2979C358.901 57.3179 358.897 57.342 358.893 57.366C358.893 57.4741 358.885 57.582 358.873 57.6941C358.877 57.6981 358.877 57.7061 358.873 57.7101C357.636 74.7772 331.657 89.9476 291.64 99.8917C289.03 100.54 286.359 101.168 283.632 101.768C255.371 108.027 221.016 111.793 183.866 112.045C182.537 112.057 181.199 112.061 179.862 112.061C178.525 112.061 177.187 112.057 175.858 112.045C138.708 111.793 104.349 108.027 76.0917 101.768C73.3649 101.168 70.6942 100.54 68.0835 99.8917C28.0626 89.9476 2.08005 74.7732 0.846786 57.7021C0.830769 57.566 0.826766 57.43 0.822762 57.2979C0.822762 57.2499 0.81875 57.2019 0.814746 57.1499C0.806738 56.9458 0.802734 56.7417 0.802734 56.5377C0.802734 56.2135 0.810745 55.8854 0.830766 55.5613C0.838774 55.3972 0.850793 55.2371 0.862806 55.0731C2.16814 38.042 28.1307 22.8996 68.0835 12.9715C70.6942 12.3232 73.3649 11.695 76.0917 11.0947C104.349 4.83615 138.708 1.07061 175.858 0.818505C177.187 0.8065 178.525 0.802483 179.862 0.802483C181.199 0.802483 182.537 0.8065 183.866 0.818505C221.016 1.07061 255.371 4.83615 283.632 11.0947C286.359 11.695 289.03 12.3232 291.64 12.9715C331.589 22.9036 357.552 38.042 358.857 55.0731C358.869 55.2371 358.881 55.3972 358.889 55.5613C358.909 55.8854 358.917 56.2135 358.917 56.5377Z" fill="#F8E64B"/>
  <path d="M179.86 112.861C178.519 112.861 177.181 112.857 175.848 112.845C139.775 112.601 105.22 109.039 75.9136 102.549C73.2789 101.968 70.5762 101.336 67.8854 100.668C25.9906 90.2555 1.2613 74.617 0.0440514 57.758C0.028035 57.634 0.0240319 57.4739 0.0200278 57.3218C0.0200278 57.2738 0.0160198 57.2458 0.0160198 57.2177C0.00400752 56.9656 0 56.7536 0 56.5375C0 56.1653 0.00801112 55.8292 0.0280316 55.509C0.0360398 55.361 0.0480589 55.2049 0.0600712 55.0449C1.35339 38.1899 26.0747 22.5834 67.8894 12.195C70.5722 11.5268 73.2749 10.8945 75.9176 10.3143C105.22 3.82358 139.775 0.262109 175.852 0.0180075C178.511 -0.00600249 181.209 -0.00600249 183.872 0.0180075C219.941 0.262109 254.496 3.82358 283.802 10.3143C286.445 10.8945 289.148 11.5308 291.83 12.195C333.645 22.5914 358.363 38.1978 359.652 55.0128C359.664 55.1849 359.676 55.353 359.684 55.521C359.704 55.8332 359.712 56.1773 359.712 56.5375C359.712 56.7536 359.708 56.9657 359.7 57.1818L359.696 57.2578C359.696 57.2738 359.696 57.2858 359.696 57.2978C359.696 57.3298 359.696 57.3578 359.692 57.3858L360 57.6939L359.644 58.0621C358.158 74.8051 333.477 90.3195 291.83 100.668C289.14 101.336 286.437 101.968 283.802 102.549C254.496 109.039 219.937 112.601 183.868 112.845C182.539 112.857 181.201 112.861 179.86 112.861ZM179.86 1.60265C178.527 1.60265 177.189 1.60667 175.864 1.61867C139.899 1.86277 105.46 5.4082 76.262 11.8749C73.6313 12.4551 70.9446 13.0835 68.2738 13.7477C27.1718 23.96 2.89096 39.0462 1.6577 55.1329C1.64569 55.309 1.63368 55.453 1.62567 55.5971C1.60565 55.8932 1.59764 56.1973 1.59764 56.5375C1.59764 56.7296 1.60165 56.9256 1.60965 57.1177C1.61366 57.1577 1.61766 57.2257 1.61766 57.2978C1.62166 57.3858 1.62167 57.4979 1.63769 57.6099C2.80688 73.7686 27.0917 88.8829 68.2738 99.1151C70.9526 99.7794 73.6393 100.412 76.262 100.988C105.46 107.455 139.899 111 175.86 111.244C178.519 111.268 181.201 111.268 183.856 111.244C219.817 111 254.256 107.455 283.458 100.988C286.081 100.412 288.767 99.7794 291.446 99.1151C332.324 88.9589 356.553 73.9887 358.046 57.9981L358.034 57.99L358.074 57.6099C358.074 57.6019 358.074 57.5979 358.074 57.5899L358.086 57.4178C358.086 57.4018 358.086 57.3819 358.086 57.3659L358.102 57.0897C358.106 56.9256 358.11 56.7336 358.11 56.5375C358.11 56.2093 358.102 55.8972 358.082 55.6091C358.074 55.441 358.062 55.289 358.05 55.1289C356.817 39.0462 332.54 23.964 291.438 13.7437C288.771 13.0795 286.081 12.4511 283.45 11.8709C254.252 5.40419 219.809 1.85877 183.852 1.61467C182.531 1.60666 181.193 1.60265 179.86 1.60265Z" fill="#30322C"/>
  <path d="M179.86 96.7662C89.3793 96.7662 14.5708 75.9135 2.50643 48.8343C1.38528 51.3513 0.804688 53.9204 0.804688 56.5334C0.804688 87.2542 80.9707 112.161 179.86 112.161C278.749 112.161 358.915 87.2542 358.915 56.5334C358.915 53.9204 358.334 51.3513 357.213 48.8343C345.145 75.9135 270.34 96.7662 179.86 96.7662Z" fill="#30322C"/>
  <path d="M76.0902 11.0946V223.179H68.082V12.9714C70.6927 12.3231 73.3634 11.6949 76.0902 11.0946Z" fill="#F266FF"/>
  <path d="M76.8911 223.979H67.2812V12.3471L67.8899 12.195C70.5726 11.5307 73.2754 10.8945 75.9181 10.3143L76.8911 10.0981V223.979ZM68.8829 222.378H75.2894V12.091C73.1713 12.5632 71.0211 13.0714 68.8829 13.5956V222.378Z" fill="#30322C"/>
  <path d="M183.864 0.879167V293.065H175.855V0.879167C177.185 0.866273 178.522 0.861958 179.86 0.861958C181.197 0.861958 182.534 0.866273 183.864 0.879167Z" fill="#5CB318"/>
  <path d="M184.665 293.924H175.055V0.0279469L175.847 0.0193421C178.51 -0.00644736 181.205 -0.00644736 183.872 0.0193421L184.665 0.0279469V293.924ZM176.656 292.205H183.063V1.73003C180.933 1.71284 178.787 1.71284 176.656 1.73003V292.205Z" fill="#30322C"/>
  <path d="M291.637 12.9714V218.285H283.629V11.0946C286.356 11.6949 289.026 12.3231 291.637 12.9714Z" fill="#7C4FFF"/>
  <path d="M292.438 219.085H282.828V10.0982L283.801 10.3143C286.448 10.8985 289.147 11.5308 291.829 12.1951L292.438 12.3472V219.085ZM284.43 217.484H290.836V13.5996C288.698 13.0714 286.548 12.5672 284.43 12.095V217.484Z" fill="#30322C"/>
  <path d="M22.2779 223.618L8.19531 232.807L17.388 246.88L31.4705 237.692L22.2779 223.618Z" fill="#7C4FFF"/>
  <path d="M17.0906 248.011L7.02416 232.596L22.4488 222.534L32.5152 237.949L17.0906 248.011ZM9.24049 233.065L17.5564 245.8L30.2999 237.488L21.9845 224.757L9.24049 233.065Z" fill="#30322C"/>
  <path d="M54.7427 242.576L40.6602 251.764L49.8528 265.838L63.9354 256.649L54.7427 242.576Z" fill="#7C4FFF"/>
  <path d="M49.5554 266.974L39.489 251.559L54.9137 241.498L64.98 256.912L49.5554 266.974ZM41.7048 252.024L50.0207 264.759L62.7642 256.447L54.4483 243.712L41.7048 252.024Z" fill="#30322C"/>
  <path d="M78.0201 247.462L63.9375 256.651L73.1301 270.724L87.2127 261.536L78.0201 247.462Z" fill="#7C4FFF"/>
  <path d="M72.8308 271.858L62.7644 256.443L78.189 246.381L88.2554 261.796L72.8308 271.858ZM64.9802 256.908L73.2956 269.639L86.0391 261.327L77.7232 248.592L64.9802 256.908Z" fill="#30322C"/>
  <path d="M31.4732 237.691L17.3906 246.879L26.5833 260.953L40.6659 251.764L31.4732 237.691Z" fill="#7C4FFF"/>
  <path d="M26.282 262.086L16.2156 246.671L31.6402 236.61L41.7066 252.024L26.282 262.086ZM18.4314 247.136L26.7473 259.871L39.4868 251.56L31.1709 238.825L18.4314 247.136Z" fill="#30322C"/>
  <path d="M40.6646 251.762L26.582 260.95L35.7747 275.023L49.8573 265.835L40.6646 251.762Z" fill="#7C4FFF"/>
  <path d="M35.4734 276.16L25.407 260.746L40.8316 250.684L50.898 266.099L35.4734 276.16ZM27.6228 261.211L35.9382 273.942L48.6817 265.63L40.3658 252.895L27.6228 261.211Z" fill="#30322C"/>
  <path d="M49.8541 265.836L35.7715 275.025L44.9641 289.098L59.0467 279.91L49.8541 265.836Z" fill="#7C4FFF"/>
  <path d="M44.6648 290.235L34.5984 274.821L50.023 264.759L60.0894 280.173L44.6648 290.235ZM36.8142 275.286L45.1301 288.021L57.8736 279.709L49.5582 266.977L36.8142 275.286Z" fill="#30322C"/>
  <path d="M59.0494 279.911L44.9668 289.099L54.1594 303.173L68.242 293.984L59.0494 279.911Z" fill="#7C4FFF"/>
  <path d="M53.8581 304.306L43.7917 288.891L59.2164 278.83L69.2828 294.244L53.8581 304.306ZM46.0081 289.36L54.324 302.095L67.0675 293.783L58.7516 281.048L46.0081 289.36Z" fill="#30322C"/>
  <path d="M64.5259 196.053L50.4434 205.241L59.636 219.314L73.7186 210.126L64.5259 196.053Z" fill="#7C4FFF"/>
  <path d="M59.3405 220.451L49.2742 205.036L64.6988 194.974L74.7652 210.389L59.3405 220.451ZM51.49 205.501L59.8059 218.236L72.5454 209.924L64.2295 197.189L51.49 205.501Z" fill="#30322C"/>
  <path d="M73.7174 210.125L59.6348 219.313L68.8274 233.387L82.91 224.198L73.7174 210.125Z" fill="#7C4FFF"/>
  <path d="M68.5281 234.522L58.4617 219.107L73.8863 209.045L83.9527 224.46L68.5281 234.522ZM60.678 219.576L68.9934 232.307L81.7329 223.996L73.417 211.26L60.678 219.576Z" fill="#30322C"/>
  <path d="M82.9107 224.2L68.8281 233.388L78.0208 247.462L92.1034 238.273L82.9107 224.2Z" fill="#7C4FFF"/>
  <path d="M77.7234 248.596L67.657 233.182L83.0816 223.12L93.148 238.534L77.7234 248.596ZM69.8728 233.646L78.1887 246.382L90.9322 238.07L82.6168 225.338L69.8728 233.646Z" fill="#30322C"/>
  <path d="M92.1021 238.271L78.0195 247.459L87.2122 261.533L101.295 252.344L92.1021 238.271Z" fill="#7C4FFF"/>
  <path d="M86.9148 262.671L76.8484 247.256L92.2731 237.195L102.339 252.609L86.9148 262.671ZM79.0642 247.721L87.3801 260.456L100.124 252.144L91.8077 239.409L79.0642 247.721Z" fill="#30322C"/>
  <path d="M101.295 252.345L87.2129 261.534L96.4055 275.607L110.488 266.419L101.295 252.345Z" fill="#7C4FFF"/>
  <path d="M96.1062 276.746L86.0398 261.331L101.464 251.27L111.531 266.684L96.1062 276.746ZM88.2556 261.796L96.571 274.527L109.311 266.216L100.995 253.481L88.2556 261.796Z" fill="#30322C"/>
  <path d="M68.2388 293.982L54.1562 303.17L63.3489 317.244L77.4315 308.055L68.2388 293.982Z" fill="#7C4FFF"/>
  <path d="M63.0476 318.381L52.9812 302.966L68.4058 292.905L78.4722 308.319L63.0476 318.381ZM55.197 303.431L63.5124 316.162L76.2519 307.851L67.9365 295.12L55.197 303.431Z" fill="#30322C"/>
  <path d="M110.491 266.418L96.4082 275.606L105.601 289.679L119.683 280.491L110.491 266.418Z" fill="#7C4FFF"/>
  <path d="M105.298 290.817L95.2312 275.402L110.656 265.34L120.722 280.755L105.298 290.817ZM97.4475 275.871L105.763 288.606L118.503 280.295L110.188 267.563L97.4475 275.871Z" fill="#30322C"/>
  <path d="M189.605 280.02L173.094 276.83L169.903 293.331L186.414 296.522L189.605 280.02Z" fill="#F266FF"/>
  <path d="M187.04 297.494L168.957 294L172.453 275.929L190.539 279.422L187.04 297.494ZM170.835 292.732L185.774 295.617L188.661 280.687L173.722 277.802L170.835 292.732Z" fill="#30322C"/>
  <path d="M206.116 283.21L189.605 280.019L186.414 296.52L202.925 299.711L206.116 283.21Z" fill="#F266FF"/>
  <path d="M203.551 300.683L185.469 297.19L188.964 279.118L207.047 282.612L203.551 300.683ZM187.343 295.921L202.282 298.806L205.169 283.876L190.23 280.991L187.343 295.921Z" fill="#30322C"/>
  <path d="M222.624 286.402L206.113 283.212L202.922 299.713L219.433 302.904L222.624 286.402Z" fill="#F266FF"/>
  <path d="M220.065 303.873L201.979 300.379L205.474 282.307L223.557 285.801L220.065 303.873ZM203.856 299.11L218.796 301.996L221.683 287.066L206.743 284.18L203.856 299.11Z" fill="#30322C"/>
  <path d="M199.73 316.214L183.219 313.023L180.028 329.525L196.539 332.715L199.73 316.214Z" fill="#F266FF"/>
  <path d="M197.17 333.685L179.088 330.191L182.583 312.116L200.666 315.609L197.17 333.685ZM180.962 328.927L195.901 331.812L198.788 316.882L183.849 313.997L180.962 328.927Z" fill="#30322C"/>
  <path d="M216.245 319.404L199.734 316.213L196.543 332.714L213.054 335.905L216.245 319.404Z" fill="#F266FF"/>
  <path d="M213.68 336.878L195.598 333.385L199.093 315.313L217.176 318.807L213.68 336.878ZM197.476 332.116L212.415 335.001L215.302 320.071L200.363 317.186L197.476 332.116Z" fill="#30322C"/>
  <path d="M239.009 289.568L222.498 286.377L219.307 302.878L235.818 306.069L239.009 289.568Z" fill="#F266FF"/>
  <path d="M236.446 307.038L218.363 303.544L221.859 285.473L239.941 288.966L236.446 307.038ZM220.237 302.276L235.176 305.161L238.063 290.231L223.124 287.346L220.237 302.276Z" fill="#30322C"/>
  <path d="M186.413 296.523L169.902 293.332L166.711 309.833L183.222 313.024L186.413 296.523Z" fill="#F266FF"/>
  <path d="M183.848 313.997L165.766 310.503L169.261 292.432L187.344 295.925L183.848 313.997ZM167.644 309.235L182.583 312.12L185.47 297.19L170.531 294.304L167.644 309.235Z" fill="#30322C"/>
  <path d="M183.218 313.025L166.707 309.834L163.516 326.335L180.027 329.526L183.218 313.025Z" fill="#F266FF"/>
  <path d="M180.659 330.495L162.576 327.002L166.072 308.93L184.154 312.424L180.659 330.495ZM164.45 325.733L179.389 328.619L182.276 313.688L167.337 310.803L164.45 325.733Z" fill="#30322C"/>
  <path d="M180.031 329.523L163.52 326.333L160.328 342.834L176.839 346.025L180.031 329.523Z" fill="#F266FF"/>
  <path d="M177.469 346.998L159.387 343.505L162.882 325.433L180.965 328.927L177.469 346.998ZM161.261 342.236L176.2 345.121L179.087 330.191L164.148 327.306L161.261 342.236Z" fill="#30322C"/>
  <path d="M176.835 346.026L160.324 342.835L157.133 359.337L173.644 362.527L176.835 346.026Z" fill="#F266FF"/>
  <path d="M174.274 363.501L156.191 360.008L159.687 341.932L177.769 345.426L174.274 363.501ZM158.065 358.739L173.005 361.624L175.892 346.694L160.952 343.809L158.065 358.739Z" fill="#30322C"/>
  <path d="M173.644 362.525L157.133 359.334L153.942 375.835L170.453 379.026L173.644 362.525Z" fill="#F266FF"/>
  <path d="M171.083 380L153 376.506L156.496 358.435L174.578 361.928L171.083 380ZM154.874 375.238L169.813 378.123L172.7 363.193L157.761 360.308L154.874 375.238Z" fill="#30322C"/>
  <path d="M317.511 212.129L300.918 209.393L298.18 225.976L314.774 228.712L317.511 212.129Z" fill="#F8E64B"/>
  <path d="M315.36 229.583L297.186 226.585L300.185 208.422L318.359 211.419L315.36 229.583ZM299.027 225.269L314.039 227.746L316.517 212.744L301.506 210.267L299.027 225.269Z" fill="#30322C"/>
  <path d="M334.105 214.865L317.512 212.129L314.774 228.713L331.367 231.449L334.105 214.865Z" fill="#F8E64B"/>
  <path d="M331.95 232.32L313.775 229.323L316.774 211.159L334.949 214.156L331.95 232.32ZM315.621 228.006L330.633 230.483L333.111 215.481L318.1 213.004L315.621 228.006Z" fill="#30322C"/>
  <path d="M350.697 217.602L334.104 214.866L331.366 231.449L347.959 234.186L350.697 217.602Z" fill="#F8E64B"/>
  <path d="M348.542 235.057L330.367 232.06L333.366 213.896L351.541 216.893L348.542 235.057ZM332.213 230.739L347.224 233.216L349.703 218.214L334.692 215.737L332.213 230.739Z" fill="#30322C"/>
  <path d="M284.324 206.659L267.73 203.923L264.993 220.506L281.586 223.243L284.324 206.659Z" fill="#F8E64B"/>
  <path d="M282.175 224.108L264 221.111L266.999 202.948L285.174 205.945L282.175 224.108ZM265.842 219.795L280.853 222.272L283.332 207.269L268.32 204.792L265.842 219.795Z" fill="#30322C"/>
  <path d="M300.918 209.392L284.324 206.656L281.586 223.239L298.18 225.975L300.918 209.392Z" fill="#F8E64B"/>
  <path d="M298.766 226.846L280.592 223.848L283.591 205.685L301.765 208.682L298.766 226.846ZM282.434 222.532L297.445 225.009L299.924 210.007L284.912 207.53L282.434 222.532Z" fill="#30322C"/>
  <path d="M314.771 228.712L298.178 225.976L295.44 242.56L312.033 245.296L314.771 228.712Z" fill="#F8E64B"/>
  <path d="M312.62 246.166L294.445 243.168L297.444 225.005L315.619 228.002L312.62 246.166ZM296.287 241.852L311.299 244.329L313.777 229.327L298.766 226.85L296.287 241.852Z" fill="#30322C"/>
  <path d="M312.035 245.296L295.441 242.56L292.704 259.143L309.297 261.879L312.035 245.296Z" fill="#F8E64B"/>
  <path d="M309.884 262.748L291.709 259.751L294.708 241.588L312.883 244.585L309.884 262.748ZM293.551 258.435L308.562 260.912L311.041 245.909L296.029 243.432L293.551 258.435Z" fill="#30322C"/>
  <path d="M309.295 261.88L292.701 259.144L289.963 275.727L306.557 278.463L309.295 261.88Z" fill="#F8E64B"/>
  <path d="M307.143 279.331L288.969 276.334L291.968 258.171L310.142 261.168L307.143 279.331ZM290.811 275.018L305.822 277.495L308.3 262.492L293.289 260.015L290.811 275.018Z" fill="#30322C"/>
  <path d="M306.558 278.463L289.965 275.727L287.227 292.311L303.821 295.047L306.558 278.463Z" fill="#F8E64B"/>
  <path d="M304.405 295.914L286.23 292.917L289.23 274.753L307.404 277.751L304.405 295.914ZM288.072 291.597L303.084 294.074L305.562 279.071L290.551 276.594L288.072 291.597Z" fill="#30322C"/>
  <path d="M303.82 295.048L287.227 292.311L284.489 308.895L301.083 311.632L303.82 295.048Z" fill="#F8E64B"/>
  <path d="M301.667 312.497L283.492 309.5L286.491 291.336L304.666 294.334L301.667 312.497ZM285.334 308.179L300.345 310.656L302.824 295.654L287.813 293.177L285.334 308.179Z" fill="#30322C"/>
</svg>
