<svg width="247" height="323" viewBox="0 0 247 323" fill="none" xmlns="http://www.w3.org/2000/svg">
  <path fill-rule="evenodd" clip-rule="evenodd" d="M93.1988 141.27C90.5961 139.157 88.8108 138.171 86.6567 137.985L87.3455 130.015C91.9414 130.412 95.2812 132.656 98.2409 135.059C99.1981 135.836 100.104 136.615 101.019 137.402C103.075 139.17 105.173 140.974 107.987 142.871C115.688 148.061 128.363 153.5 154.501 153.5C181.757 153.5 201.435 162.216 208.781 176.055C212.525 183.11 212.803 191.109 209.52 199.031C206.28 206.851 199.648 214.456 189.778 221.289C173.21 232.759 160.354 238.292 149.401 241.195C141.435 243.305 134.407 244.012 128.129 244.644C125.916 244.867 123.797 245.08 121.762 245.342C113.895 246.355 106.442 248.126 97.3926 253.863C88.2155 259.68 77.2164 269.692 62.5951 287.535L56.4072 282.465C71.2858 264.308 82.9118 253.57 93.1096 247.106C103.435 240.561 112.107 238.52 120.74 237.408C123.151 237.097 125.494 236.861 127.837 236.626C133.944 236.011 140.051 235.396 147.352 233.462C157.273 230.833 169.293 225.741 185.224 214.711C194.266 208.451 199.652 201.948 202.13 195.969C204.565 190.092 204.26 184.603 201.714 179.806C196.479 169.941 180.745 161.5 154.501 161.5C127.139 161.5 112.814 155.772 103.515 149.504C100.293 147.333 97.6026 145.021 95.4304 143.155C94.6134 142.453 93.8698 141.814 93.1988 141.27Z" fill="#5CB318" stroke="#30322C"/>
  <path d="M182.201 204.846L170.869 206.846L172.867 218.194L184.198 216.193L182.201 204.846Z" fill="#B5EE85"/>
  <path d="M172.415 218.854L170.216 206.369L182.684 204.167L184.883 216.652L172.415 218.854ZM171.553 207.302L173.351 217.515L183.55 215.714L181.751 205.501L171.553 207.302Z" fill="#30322C"/>
  <path d="M175.09 205.949L165.393 199.747L159.199 209.458L168.896 215.66L175.09 205.949Z" fill="#F8E64B"/>
  <path d="M158.408 209.62L165.22 198.936L175.889 205.761L169.073 216.445L158.408 209.62ZM165.57 200.527L159.997 209.269L168.727 214.85L174.3 206.108L165.57 200.527Z" fill="#30322C"/>
  <path d="M228.827 212.715L219.129 206.512L212.935 216.223L222.633 222.426L228.827 212.715Z" fill="#F8E64B"/>
  <path d="M222.81 223.208L212.141 216.383L218.956 205.699L229.625 212.524L222.81 223.208ZM213.733 216.032L222.463 221.613L228.037 212.871L219.307 207.29L213.733 216.032Z" fill="#30322C"/>
  <path d="M157.103 221.038L161.223 210.28L150.479 206.155L146.36 216.913L157.103 221.038Z" fill="#F8E64B"/>
  <path d="M157.43 221.791L145.609 217.255L150.139 205.418L161.96 209.955L157.43 221.791ZM147.095 216.59L156.765 220.304L160.474 210.62L150.804 206.906L147.095 216.59Z" fill="#30322C"/>
  <path d="M159.529 221.463L169.498 215.709L163.752 205.726L153.782 211.48L159.529 221.463Z" fill="#B5EE85"/>
  <path d="M159.321 222.258L153 211.277L163.966 204.947L170.287 215.929L159.321 222.258ZM154.572 211.702L159.746 220.688L168.719 215.507L163.545 206.522L154.572 211.702Z" fill="#30322C"/>
  <path d="M210.588 204.504L199.764 208.412L203.667 219.251L214.491 215.343L210.588 204.504Z" fill="#B5EE85"/>
  <path d="M203.329 219.99L199.034 208.067L210.941 203.766L215.236 215.689L203.329 219.99ZM200.507 208.757L204.022 218.515L213.767 214.995L210.252 205.237L200.507 208.757Z" fill="#30322C"/>
  <path d="M210.191 204.514L200.064 199.043L194.601 209.184L204.728 214.655L210.191 204.514Z" fill="#F266FF"/>
  <path d="M193.811 209.422L199.822 198.267L210.961 204.286L204.95 215.441L193.811 209.422ZM200.288 199.825L195.37 208.951L204.484 213.875L209.402 204.749L200.288 199.825Z" fill="#30322C"/>
  <path d="M203.249 209.012L193.551 202.809L187.357 212.52L197.055 218.723L203.249 209.012Z" fill="#F266FF"/>
  <path d="M197.236 219.506L186.566 212.681L193.382 201.998L204.051 208.823L197.236 219.506ZM188.155 212.33L196.885 217.912L202.459 209.17L193.729 203.588L188.155 212.33Z" fill="#30322C"/>
  <path d="M199.551 207.543L194.451 197.214L184.137 202.321L189.236 212.649L199.551 207.543Z" fill="#F8E64B"/>
  <path d="M188.988 213.437L183.377 202.076L194.723 196.458L200.334 207.819L188.988 213.437ZM184.92 202.597L189.512 211.892L198.795 207.294L194.203 197.999L184.92 202.597Z" fill="#30322C"/>
  <path d="M183.027 214.5L182.229 203.005L170.75 203.803L171.548 215.298L183.027 214.5Z" fill="#F8E64B"/>
  <path d="M171.008 215.908L170.129 203.262L182.758 202.382L183.636 215.028L171.008 215.908ZM171.358 204.332L172.076 214.677L182.411 213.958L181.693 203.609L171.358 204.332Z" fill="#30322C"/>
  <path d="M194.302 209.111L182.823 208.31L182.024 219.805L193.503 220.606L194.302 209.111Z" fill="#7C4FFF"/>
  <path d="M194.038 221.217L181.409 220.337L182.288 207.691L194.917 208.571L194.038 221.217ZM182.639 219.267L192.969 219.986L193.691 209.641L183.361 208.922L182.639 219.267Z" fill="#30322C"/>
  <path d="M238.836 218.103L230.699 209.955L222.563 218.103L230.699 226.25L238.836 218.103Z" fill="#F266FF"/>
  <path d="M230.699 227.075L221.746 218.11L230.699 209.145L239.652 218.11L230.699 227.075ZM223.376 218.11L230.699 225.443L238.022 218.11L230.699 210.777L223.376 218.11Z" fill="#30322C"/>
  <path d="M166.332 220.178L158.195 212.03L150.059 220.178L158.195 228.325L166.332 220.178Z" fill="#F266FF"/>
  <path d="M158.197 229.145L149.244 220.18L158.197 211.215L167.15 220.18L158.197 229.145ZM150.874 220.18L158.197 227.513L165.52 220.18L158.197 212.847L150.874 220.18Z" fill="#30322C"/>
  <path d="M152.525 218.967L144.389 210.819L136.252 218.967L144.389 227.114L152.525 218.967Z" fill="#B5EE85"/>
  <path d="M144.388 227.938L135.436 218.973L144.388 210.008L153.341 218.973L144.388 227.938ZM137.065 218.973L144.388 226.307L151.711 218.973L144.388 211.64L137.065 218.973Z" fill="#30322C"/>
  <path d="M222.743 210.416L211.411 208.416L209.414 219.763L220.745 221.763L222.743 210.416Z" fill="#7C4FFF"/>
  <path d="M221.201 222.448L208.733 220.246L210.932 207.761L223.4 209.963L221.201 222.448ZM210.066 219.312L220.265 221.113L222.064 210.901L211.865 209.1L210.066 219.312Z" fill="#30322C"/>
  <path d="M179.385 212.506L168.27 215.487L171.246 226.617L182.362 223.637L179.385 212.506Z" fill="#F8E64B"/>
  <path d="M170.831 227.306L167.555 215.061L179.783 211.781L183.059 224.026L170.831 227.306ZM168.966 215.879L171.643 225.898L181.648 223.216L178.971 213.198L168.966 215.879Z" fill="#30322C"/>
  <path d="M168.349 209.735L159.813 217.462L167.53 226.009L176.065 218.283L168.349 209.735Z" fill="#7C4FFF"/>
  <path d="M167.493 226.839L159.002 217.437L168.392 208.934L176.883 218.337L167.493 226.839ZM160.632 217.519L167.575 225.212L175.257 218.259L168.314 210.566L160.632 217.519Z" fill="#30322C"/>
  <path d="M179.003 206.487L169.033 212.242L174.78 222.225L184.749 216.47L179.003 206.487Z" fill="#B5EE85"/>
  <path d="M174.565 223.001L168.244 212.02L179.21 205.691L185.531 216.672L174.565 223.001ZM169.812 212.442L174.986 221.427L183.959 216.247L178.785 207.261L169.812 212.442Z" fill="#30322C"/>
  <path d="M151.911 214.072L141.087 217.98L144.99 228.819L155.814 224.911L151.911 214.072Z" fill="#F8E64B"/>
  <path d="M144.652 229.554L140.357 217.631L152.264 213.33L156.559 225.253L144.652 229.554ZM141.83 218.325L145.345 228.083L155.09 224.563L151.575 214.805L141.83 218.325Z" fill="#30322C"/>
  <path d="M198.428 218.443L188.73 212.24L182.536 221.951L192.234 228.154L198.428 218.443Z" fill="#F8E64B"/>
  <path d="M192.416 228.934L181.747 222.109L188.563 211.425L199.232 218.25L192.416 228.934ZM183.335 221.762L192.065 227.344L197.639 218.602L188.909 213.02L183.335 221.762Z" fill="#30322C"/>
  <path d="M227.341 215.681H215.834V227.203H227.341V215.681Z" fill="#B5EE85"/>
  <path d="M227.917 227.781H215.26V215.106H227.917V227.781ZM216.411 226.629H226.766V216.259H216.411V226.629Z" fill="#30322C"/>
  <path d="M213.941 216.501L203.117 220.41L207.02 231.249L217.844 227.34L213.941 216.501Z" fill="#B5EE85"/>
  <path d="M218.589 227.682L206.683 231.983L202.388 220.06L214.294 215.759L218.589 227.682ZM207.372 230.508L217.116 226.988L213.601 217.23L203.856 220.75L207.372 230.508Z" fill="#30322C"/>
  <path d="M169.704 218.11H158.197V229.632H169.704V218.11Z" fill="#B5EE85"/>
  <path d="M170.282 230.211H157.624V217.536H170.282V230.211ZM158.771 229.058H169.127V218.688H158.771V229.058Z" fill="#30322C"/>
  <path d="M210.16 219.542L202.023 211.395L193.887 219.542L202.023 227.69L210.16 219.542Z" fill="#B5EE85"/>
  <path d="M202.021 228.509L193.068 219.544L202.021 210.579L210.974 219.544L202.021 228.509ZM194.698 219.544L202.021 226.877L209.344 219.544L202.021 212.21L194.698 219.544Z" fill="#30322C"/>
  <path d="M187.437 100.131H182.329V224.014H187.437V100.131Z" fill="#7C4FFF"/>
  <path d="M188.011 224.592H181.752V99.557H188.011V224.592ZM182.907 223.439H186.864V100.71H182.907V223.439Z" fill="#30322C"/>
  <path d="M245.876 90.2822H123.887V126.584H245.876V90.2822Z" fill="#F8E64B"/>
  <path d="M246.455 127.163H123.314V89.7079H246.455V127.163ZM124.466 126.01H245.303V90.8606H124.466V126.01Z" fill="#30322C"/>
  <path d="M180.775 226.816L172.639 218.669L164.502 226.816L172.639 234.963L180.775 226.816Z" fill="#F266FF"/>
  <path d="M172.638 235.788L163.686 226.823L172.638 217.858L181.591 226.823L172.638 235.788ZM165.315 226.823L172.638 234.156L179.961 226.823L172.638 219.49L165.315 226.823Z" fill="#30322C"/>
  <path d="M185.288 208.674L176.752 216.401L184.468 224.948L193.004 217.221L185.288 208.674Z" fill="#7C4FFF"/>
  <path d="M184.433 225.774L175.942 216.371L185.333 207.868L193.823 217.271L184.433 225.774ZM177.568 216.453L184.511 224.146L192.194 217.193L185.25 209.5L177.568 216.453Z" fill="#30322C"/>
  <path d="M189.443 230.377L184.344 220.049L174.029 225.155L179.129 235.484L189.443 230.377Z" fill="#F8E64B"/>
  <path d="M178.881 236.271L173.27 224.91L184.615 219.292L190.226 230.653L178.881 236.271ZM174.808 225.431L179.4 234.726L188.683 230.128L184.091 220.833L174.808 225.431Z" fill="#30322C"/>
  <path d="M195.399 233.699L195.399 222.177L183.893 222.177L183.893 233.699L195.399 233.699Z" fill="#B5EE85"/>
  <path d="M183.314 234.276V221.601H195.972V234.276H183.314ZM184.466 222.75V233.123H194.825V222.75H184.466Z" fill="#30322C"/>
  <path d="M208.537 223.714L198.839 217.512L192.645 227.223L202.343 233.425L208.537 223.714Z" fill="#F8E64B"/>
  <path d="M202.525 234.206L191.855 227.381L198.671 216.697L209.34 223.522L202.525 234.206ZM193.444 227.03L202.174 232.611L207.748 223.869L199.018 218.288L193.444 227.03Z" fill="#30322C"/>
  <path d="M136.34 98.6729H132.441V102.577H136.34V98.6729Z" fill="#F266FF"/>
  <path d="M136.773 103.011H132.012V98.2433H136.773V103.011ZM132.874 102.143H135.911V99.1026H132.874V102.143Z" fill="#30322C"/>
  <path d="M140.239 98.6729H136.34V102.577H140.239V98.6729Z" fill="#F266FF"/>
  <path d="M140.671 103.011H135.91V98.2433H140.671V103.011ZM136.772 102.143H139.809V99.1026H136.772V102.143Z" fill="#30322C"/>
  <path d="M144.137 98.6729H140.238V102.577H144.137V98.6729Z" fill="#F266FF"/>
  <path d="M144.571 103.011H139.81V98.2433H144.571V103.011ZM140.672 102.143H143.708V99.1026H140.672V102.143Z" fill="#30322C"/>
  <path d="M136.34 102.577H132.441V106.481H136.34V102.577Z" fill="#F266FF"/>
  <path d="M136.773 106.915H132.012V102.147H136.773V106.915ZM132.874 106.052H135.911V103.011H132.874V106.052Z" fill="#30322C"/>
  <path d="M136.34 106.481H132.441V110.385H136.34V106.481Z" fill="#F266FF"/>
  <path d="M136.773 110.819H132.012V106.052H136.773V110.819ZM132.874 109.956H135.911V106.915H132.874V109.956Z" fill="#30322C"/>
  <path d="M140.239 106.481H136.34V110.385H140.239V106.481Z" fill="#F266FF"/>
  <path d="M140.671 110.819H135.91V106.052H140.671V110.819ZM136.772 109.956H139.809V106.915H136.772V109.956Z" fill="#30322C"/>
  <path d="M144.137 106.481H140.238V110.385H144.137V106.481Z" fill="#F266FF"/>
  <path d="M144.571 110.819H139.81V106.052H144.571V110.819ZM140.672 109.956H143.708V106.915H140.672V109.956Z" fill="#30322C"/>
  <path d="M136.34 114.289H132.441V118.194H136.34V114.289Z" fill="#F266FF"/>
  <path d="M136.773 118.627H132.012V113.86H136.773V118.627ZM132.874 117.764H135.911V114.723H132.874V117.764Z" fill="#30322C"/>
  <path d="M140.239 114.289H136.34V118.194H140.239V114.289Z" fill="#F266FF"/>
  <path d="M140.671 118.627H135.91V113.86H140.671V118.627ZM136.772 117.764H139.809V114.723H136.772V117.764Z" fill="#30322C"/>
  <path d="M144.137 114.289H140.238V118.194H144.137V114.289Z" fill="#F266FF"/>
  <path d="M144.571 118.627H139.81V113.86H144.571V118.627ZM140.672 117.764H143.708V114.723H140.672V117.764Z" fill="#30322C"/>
  <path d="M144.137 110.385H140.238V114.289H144.137V110.385Z" fill="#F266FF"/>
  <path d="M144.571 114.723H139.81V109.956H144.571V114.723ZM140.672 113.86H143.708V110.819H140.672V113.86Z" fill="#30322C"/>
  <path d="M237.324 95.1117H232.002V100.441H237.324V95.1117Z" fill="#F266FF"/>
  <path d="M237.758 100.875H231.573V94.682H237.758V100.875ZM232.436 100.007H236.895V95.5413H232.436V100.007Z" fill="#30322C"/>
  <path d="M232.006 95.1117H226.684V100.441H232.006V95.1117Z" fill="#F266FF"/>
  <path d="M232.435 100.875H226.251V94.682H232.435V100.875ZM227.113 100.007H231.573V95.5413H227.113V100.007Z" fill="#30322C"/>
  <path d="M226.685 95.1117H221.363V100.441H226.685V95.1117Z" fill="#F266FF"/>
  <path d="M227.114 100.875H220.93V94.682H227.114V100.875ZM221.792 100.007H226.252V95.5413H221.792V100.007Z" fill="#30322C"/>
  <path d="M237.324 100.441H232.002V105.771H237.324V100.441Z" fill="#F266FF"/>
  <path d="M237.758 106.2H231.573V100.007H237.758V106.2ZM232.436 105.337H236.895V100.871H232.436V105.337Z" fill="#30322C"/>
  <path d="M237.324 105.771H232.002V111.1H237.324V105.771Z" fill="#F266FF"/>
  <path d="M237.758 111.53H231.573V105.337H237.758V111.53ZM232.436 110.666H236.895V106.2H232.436V110.666Z" fill="#30322C"/>
  <path d="M232.006 105.771H226.684V111.1H232.006V105.771Z" fill="#F266FF"/>
  <path d="M232.435 111.53H226.251V105.337H232.435V111.53ZM227.113 110.666H231.573V106.2H227.113V110.666Z" fill="#30322C"/>
  <path d="M226.685 105.771H221.363V111.1H226.685V105.771Z" fill="#F266FF"/>
  <path d="M227.114 111.53H220.93V105.337H227.114V111.53ZM221.792 110.666H226.252V106.2H221.792V110.666Z" fill="#30322C"/>
  <path d="M237.324 116.425H232.002V121.755H237.324V116.425Z" fill="#F266FF"/>
  <path d="M237.758 122.189H231.573V115.996H237.758V122.189ZM232.436 121.325H236.895V116.859H232.436V121.325Z" fill="#30322C"/>
  <path d="M232.006 116.425H226.684V121.755H232.006V116.425Z" fill="#F266FF"/>
  <path d="M232.435 122.189H226.251V115.996H232.435V122.189ZM227.113 121.325H231.573V116.859H227.113V121.325Z" fill="#30322C"/>
  <path d="M226.685 116.425H221.363V121.755H226.685V116.425Z" fill="#F266FF"/>
  <path d="M227.114 122.189H220.93V115.996H227.114V122.189ZM221.792 121.325H226.252V116.859H221.792V121.325Z" fill="#30322C"/>
  <path d="M226.685 111.1H221.363V116.429H226.685V111.1Z" fill="#F266FF"/>
  <path d="M227.114 116.859H220.93V110.666H227.114V116.859ZM221.792 115.996H226.252V111.53H221.792V115.996Z" fill="#30322C"/>
  <path d="M155.521 106.481H151.622V110.385H155.521V106.481Z" fill="#F266FF"/>
  <path d="M155.953 110.819H151.192V106.052H155.953V110.819ZM152.055 109.956H155.091V106.915H152.055V109.956Z" fill="#30322C"/>
  <path d="M155.521 114.289H151.622V118.194H155.521V114.289Z" fill="#F266FF"/>
  <path d="M155.953 118.627H151.192V113.86H155.953V118.627ZM152.055 117.764H155.091V114.723H152.055V117.764Z" fill="#30322C"/>
  <path d="M155.521 110.385H151.622V114.289H155.521V110.385Z" fill="#F266FF"/>
  <path d="M155.953 114.723H151.192V109.956H155.953V114.723ZM152.055 113.86H155.091V110.819H152.055V113.86Z" fill="#30322C"/>
  <path d="M155.521 98.6729H151.622V102.577H155.521V98.6729Z" fill="#F266FF"/>
  <path d="M155.953 103.011H151.192V98.2433H155.953V103.011ZM152.055 102.143H155.091V99.1026H152.055V102.143Z" fill="#30322C"/>
  <path d="M155.521 102.577H151.622V106.481H155.521V102.577Z" fill="#F266FF"/>
  <path d="M155.953 106.915H151.192V102.147H155.953V106.915ZM152.055 106.052H155.091V103.011H152.055V106.052Z" fill="#30322C"/>
  <path d="M159.418 102.577H155.52V106.481H159.418V102.577Z" fill="#F266FF"/>
  <path d="M159.852 106.915H155.091V102.147H159.852V106.915ZM155.953 106.052H158.99V103.011H155.953V106.052Z" fill="#30322C"/>
  <path d="M151.62 102.577H147.722V106.481H151.62V102.577Z" fill="#F266FF"/>
  <path d="M152.054 106.915H147.293V102.147H152.054V106.915ZM148.155 106.052H151.192V103.011H148.155V106.052Z" fill="#30322C"/>
  <path d="M159.418 114.289H155.52V118.194H159.418V114.289Z" fill="#F266FF"/>
  <path d="M159.852 118.627H155.091V113.86H159.852V118.627ZM155.953 117.764H158.99V114.723H155.953V117.764Z" fill="#30322C"/>
  <path d="M170.801 98.6729H166.902V102.577H170.801V98.6729Z" fill="#F266FF"/>
  <path d="M171.235 103.011H166.474V98.2433H171.235V103.011ZM167.336 102.143H170.372V99.1026H167.336V102.143Z" fill="#30322C"/>
  <path d="M178.6 102.577H174.701V106.481H178.6V102.577Z" fill="#F266FF"/>
  <path d="M179.033 106.915H174.271V102.147H179.033V106.915ZM175.134 106.052H178.17V103.011H175.134V106.052Z" fill="#30322C"/>
  <path d="M174.7 106.481H170.801V110.385H174.7V106.481Z" fill="#F266FF"/>
  <path d="M175.134 110.819H170.373V106.052H175.134V110.819ZM171.235 109.956H174.272V106.915H171.235V109.956Z" fill="#30322C"/>
  <path d="M178.6 106.481H174.701V110.385H178.6V106.481Z" fill="#F266FF"/>
  <path d="M179.033 110.819H174.271V106.052H179.033V110.819ZM175.134 109.956H178.17V106.915H175.134V109.956Z" fill="#30322C"/>
  <path d="M170.801 106.481H166.902V110.385H170.801V106.481Z" fill="#F266FF"/>
  <path d="M171.235 110.819H166.474V106.052H171.235V110.819ZM167.336 109.956H170.372V106.915H167.336V109.956Z" fill="#30322C"/>
  <path d="M174.7 98.6729H170.801V102.577H174.7V98.6729Z" fill="#F266FF"/>
  <path d="M175.134 103.011H170.373V98.2433H175.134V103.011ZM171.235 102.143H174.272V99.1026H171.235V102.143Z" fill="#30322C"/>
  <path d="M178.6 110.385H174.701V114.289H178.6V110.385Z" fill="#F266FF"/>
  <path d="M179.033 114.723H174.271V109.956H179.033V114.723ZM175.134 113.86H178.17V110.819H175.134V113.86Z" fill="#30322C"/>
  <path d="M178.6 114.289H174.701V118.194H178.6V114.289Z" fill="#F266FF"/>
  <path d="M179.033 118.627H174.271V113.86H179.033V118.627ZM175.134 117.764H178.17V114.723H175.134V117.764Z" fill="#30322C"/>
  <path d="M166.904 110.385H163.005V114.289H166.904V110.385Z" fill="#F266FF"/>
  <path d="M167.336 114.723H162.575V109.956H167.336V114.723ZM163.437 113.86H166.474V110.819H163.437V113.86Z" fill="#30322C"/>
  <path d="M166.904 114.289H163.005V118.194H166.904V114.289Z" fill="#F266FF"/>
  <path d="M167.336 118.627H162.575V113.86H167.336V118.627ZM163.437 117.764H166.474V114.723H163.437V117.764Z" fill="#30322C"/>
  <path d="M166.904 102.577H163.005V106.481H166.904V102.577Z" fill="#F266FF"/>
  <path d="M167.336 106.915H162.575V102.147H167.336V106.915ZM163.437 106.052H166.474V103.011H163.437V106.052Z" fill="#30322C"/>
  <path d="M166.904 106.481H163.005V110.385H166.904V106.481Z" fill="#F266FF"/>
  <path d="M167.336 110.819H162.575V106.052H167.336V110.819ZM163.437 109.956H166.474V106.915H163.437V109.956Z" fill="#30322C"/>
  <path d="M189.983 98.6729H186.084V102.577H189.983V98.6729Z" fill="#F266FF"/>
  <path d="M190.415 103.011H185.654V98.2433H190.415V103.011ZM186.517 102.143H189.553V99.1026H186.517V102.143Z" fill="#30322C"/>
  <path d="M197.784 106.481H193.885V110.385H197.784V106.481Z" fill="#F266FF"/>
  <path d="M198.213 110.819H193.452V106.052H198.213V110.819ZM194.314 109.956H197.351V106.915H194.314V109.956Z" fill="#30322C"/>
  <path d="M193.881 106.481H189.982V110.385H193.881V106.481Z" fill="#F266FF"/>
  <path d="M194.314 110.819H189.553V106.052H194.314V110.819ZM190.415 109.956H193.452V106.915H190.415V109.956Z" fill="#30322C"/>
  <path d="M193.881 98.6729H189.982V102.577H193.881V98.6729Z" fill="#F266FF"/>
  <path d="M194.314 103.011H189.553V98.2433H194.314V103.011ZM190.415 102.143H193.452V99.1026H190.415V102.143Z" fill="#30322C"/>
  <path d="M197.784 98.6729H193.885V102.577H197.784V98.6729Z" fill="#F266FF"/>
  <path d="M198.213 103.011H193.452V98.2433H198.213V103.011ZM194.314 102.143H197.351V99.1026H194.314V102.143Z" fill="#30322C"/>
  <path d="M197.784 110.385H193.885V114.289H197.784V110.385Z" fill="#F266FF"/>
  <path d="M198.213 114.723H193.452V109.956H198.213V114.723ZM194.314 113.86H197.351V110.819H194.314V113.86Z" fill="#30322C"/>
  <path d="M193.881 114.289H189.982V118.194H193.881V114.289Z" fill="#F266FF"/>
  <path d="M194.314 118.627H189.553V113.86H194.314V118.627ZM190.415 117.764H193.452V114.723H190.415V117.764Z" fill="#30322C"/>
  <path d="M197.784 114.289H193.885V118.194H197.784V114.289Z" fill="#F266FF"/>
  <path d="M198.213 118.627H193.452V113.86H198.213V118.627ZM194.314 117.764H197.351V114.723H194.314V117.764Z" fill="#30322C"/>
  <path d="M186.083 110.385H182.185V114.289H186.083V110.385Z" fill="#F266FF"/>
  <path d="M186.517 114.723H181.756V109.956H186.517V114.723ZM182.618 113.86H185.655V110.819H182.618V113.86Z" fill="#30322C"/>
  <path d="M189.983 114.289H186.084V118.194H189.983V114.289Z" fill="#F266FF"/>
  <path d="M190.415 118.627H185.654V113.86H190.415V118.627ZM186.517 117.764H189.553V114.723H186.517V117.764Z" fill="#30322C"/>
  <path d="M186.083 102.577H182.185V106.481H186.083V102.577Z" fill="#F266FF"/>
  <path d="M186.517 106.915H181.756V102.147H186.517V106.915ZM182.618 106.052H185.655V103.011H182.618V106.052Z" fill="#30322C"/>
  <path d="M186.083 106.481H182.185V110.385H186.083V106.481Z" fill="#F266FF"/>
  <path d="M186.517 110.819H181.756V106.052H186.517V110.819ZM182.618 109.956H185.655V106.915H182.618V109.956Z" fill="#30322C"/>
  <path d="M209.162 98.6729H205.264V102.577H209.162V98.6729Z" fill="#F266FF"/>
  <path d="M209.596 103.011H204.835V98.2433H209.596V103.011ZM205.697 102.143H208.734V99.1026H205.697V102.143Z" fill="#30322C"/>
  <path d="M213.067 106.481H209.168V110.385H213.067V106.481Z" fill="#F266FF"/>
  <path d="M213.494 110.819H208.733V106.052H213.494V110.819ZM209.596 109.956H212.632V106.915H209.596V109.956Z" fill="#30322C"/>
  <path d="M209.162 106.481H205.264V110.385H209.162V106.481Z" fill="#F266FF"/>
  <path d="M209.596 110.819H204.835V106.052H209.596V110.819ZM205.697 109.956H208.734V106.915H205.697V109.956Z" fill="#30322C"/>
  <path d="M213.067 98.6729H209.168V102.577H213.067V98.6729Z" fill="#F266FF"/>
  <path d="M213.494 103.011H208.733V98.2433H213.494V103.011ZM209.596 102.143H212.632V99.1026H209.596V102.143Z" fill="#30322C"/>
  <path d="M209.162 114.289H205.264V118.194H209.162V114.289Z" fill="#F266FF"/>
  <path d="M209.596 118.627H204.835V113.86H209.596V118.627ZM205.697 117.764H208.734V114.723H205.697V117.764Z" fill="#30322C"/>
  <path d="M213.067 114.289H209.168V118.194H213.067V114.289Z" fill="#F266FF"/>
  <path d="M213.494 118.627H208.733V113.86H213.494V118.627ZM209.596 117.764H212.632V114.723H209.596V117.764Z" fill="#30322C"/>
  <path d="M205.264 110.385H201.365V114.289H205.264V110.385Z" fill="#F266FF"/>
  <path d="M205.698 114.723H200.937V109.956H205.698V114.723ZM201.799 113.86H204.835V110.819H201.799V113.86Z" fill="#30322C"/>
  <path d="M205.264 114.289H201.365V118.194H205.264V114.289Z" fill="#F266FF"/>
  <path d="M205.698 118.627H200.937V113.86H205.698V118.627ZM201.799 117.764H204.835V114.723H201.799V117.764Z" fill="#30322C"/>
  <path d="M205.264 98.6729H201.365V102.577H205.264V98.6729Z" fill="#F266FF"/>
  <path d="M205.698 103.011H200.937V98.2433H205.698V103.011ZM201.799 102.143H204.835V99.1026H201.799V102.143Z" fill="#30322C"/>
  <path d="M205.264 102.577H201.365V106.481H205.264V102.577Z" fill="#F266FF"/>
  <path d="M205.698 106.915H200.937V102.147H205.698V106.915ZM201.799 106.052H204.835V103.011H201.799V106.052Z" fill="#30322C"/>
  <path d="M205.264 106.481H201.365V110.385H205.264V106.481Z" fill="#F266FF"/>
  <path d="M205.698 110.819H200.937V106.052H205.698V110.819ZM201.799 109.956H204.835V106.915H201.799V109.956Z" fill="#30322C"/>
  <path d="M33.8044 282.012L22.4727 284.012L24.4702 295.359L35.8019 293.359L33.8044 282.012Z" fill="#B5EE85"/>
  <path d="M24.0252 296.027L21.8262 283.542L34.2941 281.34L36.4931 293.825L24.0252 296.027ZM23.1588 284.476L24.9576 294.689L35.1563 292.887L33.3575 282.679L23.1588 284.476Z" fill="#30322C"/>
  <path d="M106.258 299.395L96.5605 293.192L90.3665 302.903L100.064 309.106L106.258 299.395Z" fill="#F8E64B"/>
  <path d="M100.248 309.892L89.5791 303.067L96.3948 292.383L107.064 299.208L100.248 309.892ZM91.1675 302.716L99.8975 308.297L105.471 299.555L96.7413 293.974L91.1675 302.716Z" fill="#30322C"/>
  <path d="M34.5418 307.723L38.6611 296.965L27.9174 292.84L23.798 303.598L34.5418 307.723Z" fill="#F8E64B"/>
  <path d="M34.8641 308.475L23.0439 303.939L27.574 292.102L39.3941 296.638L34.8641 308.475ZM24.5292 303.273L34.1999 306.988L37.9089 297.304L28.2382 293.59L24.5292 303.273Z" fill="#30322C"/>
  <path d="M60.7412 301.593L60.7412 290.071L49.2346 290.071L49.2346 301.593L60.7412 301.593Z" fill="#B5EE85"/>
  <path d="M48.6562 302.17V289.495H61.3139V302.17H48.6562ZM49.8073 290.644V301.018H60.167V290.644H49.8073Z" fill="#30322C"/>
  <path d="M36.9682 308.144L46.9375 302.389L41.1911 292.406L31.2218 298.161L36.9682 308.144Z" fill="#B5EE85"/>
  <path d="M36.7571 308.946L30.4365 297.965L41.4027 291.635L47.7233 302.616L36.7571 308.946ZM32.0043 298.386L37.1779 307.372L46.1514 302.191L40.9777 293.205L32.0043 298.386Z" fill="#30322C"/>
  <path d="M57.3922 279.588L46.0605 281.588L48.0581 292.935L59.3898 290.935L57.3922 279.588Z" fill="#F266FF"/>
  <path d="M47.6082 293.602L45.4092 281.117L57.8771 278.915L60.0761 291.4L47.6082 293.602ZM46.7459 282.055L48.5447 292.268L58.7435 290.466L56.9447 280.254L46.7459 282.055Z" fill="#30322C"/>
  <path d="M88.0215 291.189L77.1973 295.098L81.1003 305.937L91.9246 302.028L88.0215 291.189Z" fill="#B5EE85"/>
  <path d="M80.7626 306.673L76.4678 294.75L88.3746 290.45L92.6694 302.373L80.7626 306.673ZM77.9407 295.44L81.4558 305.199L91.2007 301.679L87.6856 291.92L77.9407 295.44Z" fill="#30322C"/>
  <path d="M80.6763 295.695L70.9785 289.493L64.7845 299.204L74.4823 305.406L80.6763 295.695Z" fill="#F266FF"/>
  <path d="M74.6691 306.19L64 299.365L70.8157 288.682L81.4848 295.507L74.6691 306.19ZM65.5884 299.018L74.3184 304.6L79.8922 295.858L71.1622 290.276L65.5884 299.018Z" fill="#30322C"/>
  <path d="M71.7388 295.796L60.2598 294.995L59.4601 306.49L70.939 307.29L71.7388 295.796Z" fill="#7C4FFF"/>
  <path d="M71.4716 307.9L58.8428 307.02L59.7216 294.374L72.3504 295.254L71.4716 307.9ZM60.0722 305.95L70.403 306.669L71.125 296.324L60.7942 295.606L60.0722 305.95Z" fill="#30322C"/>
  <path d="M116.271 304.792L108.135 296.644L99.9985 304.792L108.135 312.939L116.271 304.792Z" fill="#F266FF"/>
  <path d="M108.136 313.759L99.1836 304.794L108.136 295.829L117.089 304.794L108.136 313.759ZM100.809 304.794L108.132 312.127L115.455 304.794L108.132 297.461L100.809 304.794Z" fill="#30322C"/>
  <path d="M53.1285 292.381L44.9922 284.233L36.8559 292.381L44.9922 300.528L53.1285 292.381Z" fill="#F266FF"/>
  <path d="M44.9919 301.348L36.0391 292.383L44.9919 283.418L53.9446 292.383L44.9919 301.348ZM37.6687 292.383L44.9919 299.716L52.315 292.383L44.9919 285.05L37.6687 292.383Z" fill="#30322C"/>
  <path d="M43.7711 306.864L35.6348 298.716L27.4984 306.864L35.6348 315.011L43.7711 306.864Z" fill="#F266FF"/>
  <path d="M35.6305 315.833L26.6777 306.868L35.6305 297.903L44.5833 306.868L35.6305 315.833ZM28.3074 306.868L35.6305 314.201L42.9537 306.868L35.6305 299.535L28.3074 306.868Z" fill="#30322C"/>
  <path d="M36.4555 281.131L27.9199 288.858L35.6363 297.405L44.1719 289.679L36.4555 281.131Z" fill="#7C4FFF"/>
  <path d="M35.5903 298.233L27.0996 288.83L36.4897 280.328L44.9804 289.731L35.5903 298.233ZM28.7293 288.913L35.6728 296.605L43.3549 289.652L36.4113 281.96L28.7293 288.913Z" fill="#30322C"/>
  <path d="M29.9625 305.656L21.8262 297.508L13.6898 305.656L21.8262 313.803L29.9625 305.656Z" fill="#B5EE85"/>
  <path d="M21.8258 314.622L12.873 305.657L21.8258 296.692L30.7786 305.657L21.8258 314.622ZM14.5027 305.661L21.8258 312.995L29.149 305.661L21.8258 298.328L14.5027 305.661Z" fill="#30322C"/>
  <path d="M99.0387 300.112L87.707 298.112L85.7095 309.459L97.0412 311.459L99.0387 300.112Z" fill="#7C4FFF"/>
  <path d="M97.4923 312.139L85.0244 309.937L87.2234 297.452L99.6913 299.654L97.4923 312.139ZM86.357 309.004L96.5558 310.805L98.3546 300.592L88.1558 298.791L86.357 309.004Z" fill="#30322C"/>
  <path d="M56.8117 299.193L45.6963 302.173L48.6731 313.304L59.7884 310.323L56.8117 299.193Z" fill="#F8E64B"/>
  <path d="M48.268 313.994L44.9922 301.749L57.2208 298.469L60.4966 310.714L48.268 313.994ZM46.4032 302.563L49.0808 312.581L59.0856 309.9L56.408 299.882L46.4032 302.563Z" fill="#30322C"/>
  <path d="M45.7944 296.42L37.2588 304.147L44.9751 312.694L53.5107 304.968L45.7944 296.42Z" fill="#7C4FFF"/>
  <path d="M44.9302 313.523L36.4395 304.12L45.8296 295.618L54.3203 305.021L44.9302 313.523ZM38.065 304.203L45.0086 311.896L52.6906 304.942L45.7471 297.25L38.065 304.203Z" fill="#30322C"/>
  <path d="M29.3487 300.756L18.5244 304.664L22.4275 315.503L33.2517 311.595L29.3487 300.756Z" fill="#F8E64B"/>
  <path d="M22.0898 316.242L17.7949 304.319L29.7017 300.018L33.9966 311.941L22.0898 316.242ZM19.2678 305.009L22.7829 314.767L32.5278 311.247L29.0127 301.489L19.2678 305.009Z" fill="#30322C"/>
  <path d="M75.856 305.123L66.1582 298.921L59.9642 308.632L69.662 314.834L75.856 305.123Z" fill="#F8E64B"/>
  <path d="M69.8488 315.622L59.1797 308.797L65.9954 298.113L76.6645 304.938L69.8488 315.622ZM60.7722 308.446L69.5022 314.027L75.0761 305.285L66.346 299.704L60.7722 308.446Z" fill="#30322C"/>
  <path d="M104.778 302.369H93.2715V313.891H104.778V302.369Z" fill="#B5EE85"/>
  <path d="M105.356 314.465H92.6982V301.79H105.356V314.465ZM93.8452 313.317H104.201V302.947H93.8452V313.317Z" fill="#30322C"/>
  <path d="M91.3741 303.183L80.5498 307.091L84.4528 317.93L95.2771 314.022L91.3741 303.183Z" fill="#B5EE85"/>
  <path d="M96.0278 314.37L84.121 318.671L79.8262 306.748L91.733 302.447L96.0278 314.37ZM84.81 317.196L94.555 313.676L91.0399 303.918L81.2949 307.438L84.81 317.196Z" fill="#30322C"/>
  <path d="M47.1394 304.794H35.6328V316.316H47.1394V304.794Z" fill="#B5EE85"/>
  <path d="M47.7163 316.894H35.0586V304.22H47.7163V316.894ZM36.2097 315.742H46.5652V305.372H36.2097V315.742Z" fill="#30322C"/>
  <path d="M87.5953 306.226L79.459 298.078L71.3227 306.226L79.459 314.373L87.5953 306.226Z" fill="#B5EE85"/>
  <path d="M79.4586 315.192L70.5059 306.227L79.4586 297.262L88.4114 306.227L79.4586 315.192ZM72.1355 306.231L79.4586 313.565L86.7818 306.231L79.4586 298.898L72.1355 306.231Z" fill="#30322C"/>
  <path d="M64.8733 186.815H59.7656V310.697H64.8733V186.815Z" fill="#7C4FFF"/>
  <path d="M65.4472 311.276H59.1885V186.241H65.4472V311.276ZM60.3395 310.123H64.2961V187.393H60.3395V310.123Z" fill="#30322C"/>
  <path d="M123.315 176.97H1.32617V213.272H123.315V176.97Z" fill="#F8E64B"/>
  <path d="M123.888 213.846H0.748047V176.392H123.888V213.846ZM1.89912 212.694H122.737V177.544H1.89912V212.694Z" fill="#30322C"/>
  <path d="M58.2125 313.505L50.0762 305.357L41.9398 313.505L50.0762 321.652L58.2125 313.505Z" fill="#F266FF"/>
  <path d="M50.0758 322.472L41.123 313.507L50.0758 304.542L59.0286 313.507L50.0758 322.472ZM42.7486 313.507L50.0717 320.84L57.3949 313.507L50.0717 306.174L42.7486 313.507Z" fill="#30322C"/>
  <path d="M66.8839 317.061L61.7842 306.733L51.4697 311.839L56.5694 322.168L66.8839 317.061Z" fill="#F8E64B"/>
  <path d="M56.3131 322.959L50.7021 311.598L62.0479 305.979L67.6588 317.341L56.3131 322.959ZM52.2452 312.119L56.8371 321.414L66.1199 316.816L61.528 307.52L52.2452 312.119Z" fill="#30322C"/>
  <path d="M72.8359 320.382L72.8359 308.86L61.3293 308.86L61.3293 320.382L72.8359 320.382Z" fill="#B5EE85"/>
  <path d="M60.752 320.96V308.285H73.4096V320.96H60.752ZM61.903 309.437V319.811H72.2627V309.437H61.903Z" fill="#30322C"/>
  <path d="M33.9082 301.379L33.9082 289.857L22.4016 289.857L22.4016 301.379L33.9082 301.379Z" fill="#B5EE85"/>
  <path d="M21.8262 301.96V289.285H34.4839V301.96H21.8262ZM22.9772 290.433V300.807H33.3369V290.433H22.9772Z" fill="#30322C"/>
  <path d="M85.9673 310.397L76.2695 304.194L70.0755 313.905L79.7733 320.108L85.9673 310.397Z" fill="#F8E64B"/>
  <path d="M79.9621 320.889L69.293 314.064L76.1086 303.381L86.7777 310.206L79.9621 320.889ZM70.8814 313.717L79.6114 319.299L85.1852 310.557L76.4552 304.976L70.8814 313.717Z" fill="#30322C"/>
  <path d="M75.0181 238.26L65.3203 232.058L59.1263 241.769L68.8241 247.971L75.0181 238.26Z" fill="#F8E64B"/>
  <path d="M69.008 248.76L58.3389 241.935L65.1546 231.252L75.8236 238.077L69.008 248.76ZM59.9273 241.584L68.6573 247.166L74.2311 238.424L65.5011 232.842L59.9273 241.584Z" fill="#30322C"/>
  <path d="M77.1053 240.66L65.8691 243.141L68.3465 254.393L79.5827 251.912L77.1053 240.66Z" fill="#B5EE85"/>
  <path d="M80.2869 252.359L67.9263 255.09L65.1992 242.712L77.5599 239.981L80.2869 252.359ZM68.7968 253.718L78.9131 251.483L76.6811 241.353L66.5648 243.588L68.7968 253.718Z" fill="#30322C"/>
  <path d="M62.7869 237.998H51.2803V249.52H62.7869V237.998Z" fill="#B5EE85"/>
  <path d="M63.364 250.099H50.7021V237.424H63.3598V250.099H63.364ZM51.8532 248.946H62.2087V238.577H51.8532V248.946Z" fill="#30322C"/>
  <path d="M70.2105 244.844L59.4668 240.719L55.3474 251.477L66.0912 255.602L70.2105 244.844Z" fill="#F266FF"/>
  <path d="M66.4295 256.354L54.6094 251.818L59.1394 239.981L70.9596 244.518L66.4295 256.354ZM56.0988 251.152L65.7694 254.867L69.4784 245.183L59.8078 241.469L56.0988 251.152Z" fill="#30322C"/>
  <path d="M86.1961 284.687H74.6895V296.209H86.1961V284.687Z" fill="#B5EE85"/>
  <path d="M86.7739 296.787H74.1162V284.112H86.7739V296.787ZM75.2673 295.635H85.6228V285.265H75.2673V295.635Z" fill="#30322C"/>
  <path d="M72.5347 300.704L62.8369 294.501L56.6429 304.212L66.3407 310.415L72.5347 300.704Z" fill="#F8E64B"/>
  <path d="M66.5285 311.197L55.8594 304.372L62.675 293.689L73.3441 300.514L66.5285 311.197ZM57.4478 304.025L66.1778 309.607L71.7516 300.865L63.0216 295.283L57.4478 304.025Z" fill="#30322C"/>
  <path d="M98.6724 291.949L88.9746 285.747L82.7806 295.458L92.4784 301.66L98.6724 291.949Z" fill="#F8E64B"/>
  <path d="M92.6652 302.443L81.9961 295.618L88.8118 284.934L99.4808 291.759L92.6652 302.443ZM83.5845 295.271L92.3145 300.852L97.8883 292.111L89.1583 286.529L83.5845 295.271Z" fill="#30322C"/>
  <path d="M13.7777 185.357H9.87891V189.261H13.7777V185.357Z" fill="#F266FF"/>
  <path d="M14.2064 189.695H9.44531V184.927H14.2064V189.695ZM10.3076 188.831H13.3441V185.79H10.3076V188.831Z" fill="#30322C"/>
  <path d="M17.6752 185.357H13.7764V189.261H17.6752V185.357Z" fill="#F266FF"/>
  <path d="M18.1087 189.695H13.3477V184.927H18.1087V189.695ZM14.2058 188.831H17.2423V185.79H14.2058V188.831Z" fill="#30322C"/>
  <path d="M21.5736 185.357H17.6748V189.261H21.5736V185.357Z" fill="#F266FF"/>
  <path d="M22.0074 189.695H17.2422V184.927H22.0033V189.695H22.0074ZM18.1086 188.831H21.1451V185.79H18.1086V188.831Z" fill="#30322C"/>
  <path d="M13.7777 189.261H9.87891V193.165H13.7777V189.261Z" fill="#F266FF"/>
  <path d="M14.2064 193.599H9.44531V188.831H14.2064V193.599ZM10.3076 192.735H13.3441V189.695H10.3076V192.735Z" fill="#30322C"/>
  <path d="M13.7777 193.169H9.87891V197.073H13.7777V193.169Z" fill="#F266FF"/>
  <path d="M14.2064 197.503H9.44531V192.735H14.2064V197.503ZM10.3076 196.639H13.3441V193.599H10.3076V196.639Z" fill="#30322C"/>
  <path d="M17.6752 193.169H13.7764V197.073H17.6752V193.169Z" fill="#F266FF"/>
  <path d="M18.1087 197.503H13.3477V192.735H18.1087V197.503ZM14.2058 196.639H17.2423V193.599H14.2058V196.639Z" fill="#30322C"/>
  <path d="M21.5736 193.169H17.6748V197.073H21.5736V193.169Z" fill="#F266FF"/>
  <path d="M22.0074 197.503H17.2422V192.735H22.0033V197.503H22.0074ZM18.1086 196.639H21.1451V193.599H18.1086V196.639Z" fill="#30322C"/>
  <path d="M13.7777 200.977H9.87891V204.881H13.7777V200.977Z" fill="#F266FF"/>
  <path d="M14.2064 205.315H9.44531V200.548H14.2064V205.315ZM10.3076 204.448H13.3441V201.407H10.3076V204.448Z" fill="#30322C"/>
  <path d="M17.6752 200.977H13.7764V204.881H17.6752V200.977Z" fill="#F266FF"/>
  <path d="M18.1087 205.315H13.3477V200.548H18.1087V205.315ZM14.2058 204.448H17.2423V201.407H14.2058V204.448Z" fill="#30322C"/>
  <path d="M21.5736 200.977H17.6748V204.881H21.5736V200.977Z" fill="#F266FF"/>
  <path d="M22.0074 205.315H17.2422V200.548H22.0033V205.315H22.0074ZM18.1086 204.448H21.1451V201.407H18.1086V204.448Z" fill="#30322C"/>
  <path d="M21.5736 197.073H17.6748V200.977H21.5736V197.073Z" fill="#F266FF"/>
  <path d="M22.0074 201.411H17.2422V196.644H22.0033V201.411H22.0074ZM18.1086 200.544H21.1451V197.503H18.1086V200.544Z" fill="#30322C"/>
  <path d="M114.764 181.8H109.441V187.129H114.764V181.8Z" fill="#F266FF"/>
  <path d="M115.191 187.559H109.007V181.366H115.191V187.559ZM109.873 186.695H114.333V182.229H109.873V186.695Z" fill="#30322C"/>
  <path d="M109.439 181.8H104.117V187.129H109.439V181.8Z" fill="#F266FF"/>
  <path d="M109.874 187.559H103.689V181.366H109.874V187.559ZM104.552 186.695H109.012V182.229H104.552V186.695Z" fill="#30322C"/>
  <path d="M104.117 181.8H98.7949V187.129H104.117V181.8Z" fill="#F266FF"/>
  <path d="M104.552 187.559H98.3672V181.366H104.552V187.559ZM99.2295 186.695H103.689V182.229H99.2295V186.695Z" fill="#30322C"/>
  <path d="M114.764 187.125H109.441V192.454H114.764V187.125Z" fill="#F266FF"/>
  <path d="M115.191 192.888H109.007V186.695H115.191V192.888ZM109.873 192.025H114.333V187.559H109.873V192.025Z" fill="#30322C"/>
  <path d="M114.764 192.454H109.441V197.784H114.764V192.454Z" fill="#F266FF"/>
  <path d="M115.191 198.218H109.007V192.025H115.191V198.218ZM109.873 197.35H114.333V192.884H109.873V197.35Z" fill="#30322C"/>
  <path d="M109.439 192.454H104.117V197.784H109.439V192.454Z" fill="#F266FF"/>
  <path d="M109.874 198.218H103.689V192.025H109.874V198.218ZM104.552 197.35H109.012V192.884H104.552V197.35Z" fill="#30322C"/>
  <path d="M104.117 192.454H98.7949V197.784H104.117V192.454Z" fill="#F266FF"/>
  <path d="M104.552 198.218H98.3672V192.025H104.552V198.218ZM99.2295 197.35H103.689V192.884H99.2295V197.35Z" fill="#30322C"/>
  <path d="M114.764 203.113H109.441V208.443H114.764V203.113Z" fill="#F266FF"/>
  <path d="M115.191 208.872H109.007V202.679H115.191V208.872ZM109.873 208.009H114.333V203.543H109.873V208.009Z" fill="#30322C"/>
  <path d="M109.439 203.113H104.117V208.443H109.439V203.113Z" fill="#F266FF"/>
  <path d="M109.874 208.872H103.689V202.679H109.874V208.872ZM104.552 208.009H109.012V203.543H104.552V208.009Z" fill="#30322C"/>
  <path d="M104.117 203.113H98.7949V208.443H104.117V203.113Z" fill="#F266FF"/>
  <path d="M104.552 208.872H98.3672V202.679H104.552V208.872ZM99.2295 208.009H103.689V203.543H99.2295V208.009Z" fill="#30322C"/>
  <path d="M114.764 197.784H109.441V203.113H114.764V197.784Z" fill="#F266FF"/>
  <path d="M115.191 203.543H109.007V197.35H115.191V203.543ZM109.873 202.679H114.333V198.213H109.873V202.679Z" fill="#30322C"/>
  <path d="M32.9593 193.169H29.0605V197.073H32.9593V193.169Z" fill="#F266FF"/>
  <path d="M33.3871 197.503H28.626V192.735H33.3871V197.503ZM29.4882 196.639H32.5248V193.599H29.4882V196.639Z" fill="#30322C"/>
  <path d="M32.9593 200.977H29.0605V204.881H32.9593V200.977Z" fill="#F266FF"/>
  <path d="M33.3871 205.315H28.626V200.548H33.3871V205.315ZM29.4882 204.448H32.5248V201.407H29.4882V204.448Z" fill="#30322C"/>
  <path d="M32.9593 197.073H29.0605V200.977H32.9593V197.073Z" fill="#F266FF"/>
  <path d="M33.3871 201.411H28.626V196.644H33.3871V201.411ZM29.4882 200.544H32.5248V197.503H29.4882V200.544Z" fill="#30322C"/>
  <path d="M32.9593 185.357H29.0605V189.261H32.9593V185.357Z" fill="#F266FF"/>
  <path d="M33.3871 189.695H28.626V184.927H33.3871V189.695ZM29.4882 188.831H32.5248V185.79H29.4882V188.831Z" fill="#30322C"/>
  <path d="M32.9593 189.261H29.0605V193.165H32.9593V189.261Z" fill="#F266FF"/>
  <path d="M33.3871 193.599H28.626V188.831H33.3871V193.599ZM29.4882 192.735H32.5248V189.695H29.4882V192.735Z" fill="#30322C"/>
  <path d="M36.8568 189.261H32.958V193.165H36.8568V189.261Z" fill="#F266FF"/>
  <path d="M37.2904 193.599H32.5293V188.831H37.2904V193.599ZM33.3874 192.735H36.424V189.695H33.3874V192.735Z" fill="#30322C"/>
  <path d="M29.059 189.261H25.1602V193.165H29.059V189.261Z" fill="#F266FF"/>
  <path d="M29.4876 193.599H24.7266V188.831H29.4876V193.599ZM25.5888 192.735H28.6254V189.695H25.5888V192.735Z" fill="#30322C"/>
  <path d="M36.8568 200.977H32.958V204.881H36.8568V200.977Z" fill="#F266FF"/>
  <path d="M37.2904 205.315H32.5293V200.548H37.2904V205.315ZM33.3874 204.448H36.424V201.407H33.3874V204.448Z" fill="#30322C"/>
  <path d="M48.2396 185.357H44.3408V189.261H48.2396V185.357Z" fill="#F266FF"/>
  <path d="M48.6693 189.695H43.9082V184.927H48.6693V189.695ZM44.7705 188.831H47.807V185.79H44.7705V188.831Z" fill="#30322C"/>
  <path d="M56.0365 189.261H52.1377V193.165H56.0365V189.261Z" fill="#F266FF"/>
  <path d="M56.47 193.599H51.709V188.831H56.47V193.599ZM52.5713 192.735H55.6078V189.695H52.5713V192.735Z" fill="#30322C"/>
  <path d="M52.139 193.169H48.2402V197.073H52.139V193.169Z" fill="#F266FF"/>
  <path d="M52.5716 197.503H47.8105V192.735H52.5716V197.503ZM48.6687 196.639H51.7052V193.599H48.6687V196.639Z" fill="#30322C"/>
  <path d="M56.0365 193.169H52.1377V197.073H56.0365V193.169Z" fill="#F266FF"/>
  <path d="M56.47 197.503H51.709V192.735H56.47V197.503ZM52.5713 196.639H55.6078V193.599H52.5713V196.639Z" fill="#30322C"/>
  <path d="M48.2396 193.169H44.3408V197.073H48.2396V193.169Z" fill="#F266FF"/>
  <path d="M48.6693 197.503H43.9082V192.735H48.6693V197.503ZM44.7705 196.639H47.807V193.599H44.7705V196.639Z" fill="#30322C"/>
  <path d="M52.139 185.357H48.2402V189.261H52.139V185.357Z" fill="#F266FF"/>
  <path d="M52.5716 189.695H47.8105V184.927H52.5716V189.695ZM48.6687 188.831H51.7052V185.79H48.6687V188.831Z" fill="#30322C"/>
  <path d="M56.0365 197.073H52.1377V200.977H56.0365V197.073Z" fill="#F266FF"/>
  <path d="M56.47 201.411H51.709V196.644H56.47V201.411ZM52.5713 200.544H55.6078V197.503H52.5713V200.544Z" fill="#30322C"/>
  <path d="M56.0365 200.977H52.1377V204.881H56.0365V200.977Z" fill="#F266FF"/>
  <path d="M56.47 205.315H51.709V200.548H56.47V205.315ZM52.5713 204.448H55.6078V201.407H52.5713V204.448Z" fill="#30322C"/>
  <path d="M44.3402 197.073H40.4414V200.977H44.3402V197.073Z" fill="#F266FF"/>
  <path d="M44.7689 201.411H40.0078V196.644H44.7689V201.411ZM40.8701 200.544H43.9066V197.503H40.8701V200.544Z" fill="#30322C"/>
  <path d="M44.3402 200.977H40.4414V204.881H44.3402V200.977Z" fill="#F266FF"/>
  <path d="M44.7689 205.315H40.0078V200.548H44.7689V205.315ZM40.8701 204.448H43.9066V201.407H40.8701V204.448Z" fill="#30322C"/>
  <path d="M44.3402 189.261H40.4414V193.165H44.3402V189.261Z" fill="#F266FF"/>
  <path d="M44.7689 193.599H40.0078V188.831H44.7689V193.599ZM40.8701 192.735H43.9066V189.695H40.8701V192.735Z" fill="#30322C"/>
  <path d="M44.3402 193.169H40.4414V197.073H44.3402V193.169Z" fill="#F266FF"/>
  <path d="M44.7689 197.503H40.0078V192.735H44.7689V197.503ZM40.8701 196.639H43.9066V193.599H40.8701V196.639Z" fill="#30322C"/>
  <path d="M67.4203 185.357H63.5215V189.261H67.4203V185.357Z" fill="#F266FF"/>
  <path d="M67.8529 189.695H63.0918V184.927H67.8529V189.695ZM63.9499 188.831H66.9865V185.79H63.9499V188.831Z" fill="#30322C"/>
  <path d="M75.2171 193.169H71.3184V197.073H75.2171V193.169Z" fill="#F266FF"/>
  <path d="M75.6497 197.503H70.8887V192.735H75.6497V197.503ZM71.7509 196.639H74.7875V193.599H71.7509V196.639Z" fill="#30322C"/>
  <path d="M71.3177 193.169H67.4189V197.073H71.3177V193.169Z" fill="#F266FF"/>
  <path d="M71.7513 197.503H66.9902V192.735H71.7513V197.503ZM67.8525 196.639H70.889V193.599H67.8525V196.639Z" fill="#30322C"/>
  <path d="M71.3177 185.357H67.4189V189.261H71.3177V185.357Z" fill="#F266FF"/>
  <path d="M71.7513 189.695H66.9902V184.927H71.7513V189.695ZM67.8525 188.831H70.889V185.79H67.8525V188.831Z" fill="#30322C"/>
  <path d="M75.2171 185.357H71.3184V189.261H75.2171V185.357Z" fill="#F266FF"/>
  <path d="M75.6497 189.695H70.8887V184.927H75.6497V189.695ZM71.7509 188.831H74.7875V185.79H71.7509V188.831Z" fill="#30322C"/>
  <path d="M75.2171 197.073H71.3184V200.977H75.2171V197.073Z" fill="#F266FF"/>
  <path d="M75.6497 201.411H70.8887V196.644H75.6497V201.411ZM71.7509 200.544H74.7875V197.503H71.7509V200.544Z" fill="#30322C"/>
  <path d="M71.3177 200.977H67.4189V204.881H71.3177V200.977Z" fill="#F266FF"/>
  <path d="M71.7513 205.315H66.9902V200.548H71.7513V205.315ZM67.8525 204.448H70.889V201.407H67.8525V204.448Z" fill="#30322C"/>
  <path d="M75.2171 200.977H71.3184V204.881H75.2171V200.977Z" fill="#F266FF"/>
  <path d="M75.6497 205.315H70.8887V200.548H75.6497V205.315ZM71.7509 204.448H74.7875V201.407H71.7509V204.448Z" fill="#30322C"/>
  <path d="M63.5209 197.073H59.6221V200.977H63.5209V197.073Z" fill="#F266FF"/>
  <path d="M63.9495 201.411H59.1885V196.644H63.9495V201.411ZM60.0507 200.544H63.0873V197.503H60.0507V200.544Z" fill="#30322C"/>
  <path d="M67.4203 200.977H63.5215V204.881H67.4203V200.977Z" fill="#F266FF"/>
  <path d="M67.8529 205.315H63.0918V200.548H67.8529V205.315ZM63.9499 204.448H66.9865V201.407H63.9499V204.448Z" fill="#30322C"/>
  <path d="M63.5209 189.261H59.6221V193.165H63.5209V189.261Z" fill="#F266FF"/>
  <path d="M63.9495 193.599H59.1885V188.831H63.9495V193.599ZM60.0507 192.735H63.0873V189.695H60.0507V192.735Z" fill="#30322C"/>
  <path d="M63.5209 193.169H59.6221V197.073H63.5209V193.169Z" fill="#F266FF"/>
  <path d="M63.9495 197.503H59.1885V192.735H63.9495V197.503ZM60.0507 196.639H63.0873V193.599H60.0507V196.639Z" fill="#30322C"/>
  <path d="M86.6 185.357H82.7012V189.261H86.6V185.357Z" fill="#F266FF"/>
  <path d="M87.0326 189.695H82.2715V184.927H87.0326V189.695ZM83.1338 188.831H86.1703V185.79H83.1338V188.831Z" fill="#30322C"/>
  <path d="M90.4994 193.169H86.6006V197.073H90.4994V193.169Z" fill="#F266FF"/>
  <path d="M90.9329 197.503H86.1719V192.735H90.9329V197.503ZM87.0341 196.639H90.0707V193.599H87.0341V196.639Z" fill="#30322C"/>
  <path d="M86.6 193.169H82.7012V197.073H86.6V193.169Z" fill="#F266FF"/>
  <path d="M87.0326 197.503H82.2715V192.735H87.0326V197.503ZM83.1338 196.639H86.1703V193.599H83.1338V196.639Z" fill="#30322C"/>
  <path d="M90.4994 185.357H86.6006V189.261H90.4994V185.357Z" fill="#F266FF"/>
  <path d="M90.9329 189.695H86.1719V184.927H90.9329V189.695ZM87.0341 188.831H90.0707V185.79H87.0341V188.831Z" fill="#30322C"/>
  <path d="M86.6 200.977H82.7012V204.881H86.6V200.977Z" fill="#F266FF"/>
  <path d="M87.0326 205.315H82.2715V200.548H87.0326V205.315ZM83.1338 204.448H86.1703V201.407H83.1338V204.448Z" fill="#30322C"/>
  <path d="M90.4994 200.977H86.6006V204.881H90.4994V200.977Z" fill="#F266FF"/>
  <path d="M90.9329 205.315H86.1719V200.548H90.9329V205.315ZM87.0341 204.448H90.0707V201.407H87.0341V204.448Z" fill="#30322C"/>
  <path d="M82.7015 197.073H78.8027V200.977H82.7015V197.073Z" fill="#F266FF"/>
  <path d="M83.1341 201.411H78.373V196.644H83.1341V201.411ZM79.2312 200.544H82.2677V197.503H79.2312V200.544Z" fill="#30322C"/>
  <path d="M82.7015 200.977H78.8027V204.881H82.7015V200.977Z" fill="#F266FF"/>
  <path d="M83.1341 205.315H78.373V200.548H83.1341V205.315ZM79.2312 204.448H82.2677V201.407H79.2312V204.448Z" fill="#30322C"/>
  <path d="M82.7015 185.357H78.8027V189.261H82.7015V185.357Z" fill="#F266FF"/>
  <path d="M83.1341 189.695H78.373V184.927H83.1341V189.695ZM79.2312 188.831H82.2677V185.79H79.2312V188.831Z" fill="#30322C"/>
  <path d="M82.7015 189.261H78.8027V193.165H82.7015V189.261Z" fill="#F266FF"/>
  <path d="M83.1341 193.599H78.373V188.831H83.1341V193.599ZM79.2312 192.735H82.2677V189.695H79.2312V192.735Z" fill="#30322C"/>
  <path d="M82.7015 193.169H78.8027V197.073H82.7015V193.169Z" fill="#F266FF"/>
  <path d="M83.1341 197.503H78.373V192.735H83.1341V197.503ZM79.2312 196.639H82.2677V193.599H79.2312V196.639Z" fill="#30322C"/>
  <path d="M58.0639 251.586L51.5488 242.089L42.0639 248.612L48.579 258.11L58.0639 251.586Z" fill="#7C4FFF"/>
  <path d="M48.4417 258.911L41.2754 248.463L51.7093 241.287L58.8757 251.735L48.4417 258.911ZM42.872 248.76L48.7347 257.308L57.2708 251.433L51.4081 242.886L42.872 248.76Z" fill="#30322C"/>
  <path d="M67.1078 255.509L60.5928 246.011L51.1079 252.535L57.6229 262.033L67.1078 255.509Z" fill="#B5EE85"/>
  <path d="M57.4886 262.836L50.3223 252.388L60.7562 245.212L67.9226 255.66L57.4886 262.836ZM51.9189 252.681L57.7816 261.229L66.3177 255.358L60.455 246.81L51.9189 252.681Z" fill="#30322C"/>
  <path d="M57.7241 255.024L47.3164 250.11L42.41 260.532L52.8177 265.445L57.7241 255.024Z" fill="#F266FF"/>
  <path d="M53.0995 266.224L41.6465 260.82L47.0429 249.355L58.4918 254.759L53.0995 266.224ZM43.1812 260.27L52.5507 264.695L56.9653 255.313L47.5958 250.892L43.1812 260.27Z" fill="#30322C"/>
  <path d="M76.9792 260.125L73.5732 249.119L62.5821 252.529L65.9881 263.535L76.9792 260.125Z" fill="#7C4FFF"/>
  <path d="M65.625 264.269L61.8789 252.16L73.9714 248.409L77.7175 260.518L65.625 264.269ZM63.3147 252.921L66.3801 262.828L76.2735 259.758L73.2081 249.851L63.3147 252.921Z" fill="#30322C"/>
  <path d="M77.7191 265.938L85.8555 257.791L77.7191 249.643L69.5828 257.791L77.7191 265.938Z" fill="#B5EE85"/>
  <path d="M68.7656 257.792L77.7184 248.827L86.6712 257.792L77.7184 266.757L68.7656 257.792ZM77.7143 250.454L70.3912 257.787L77.7143 265.121L85.0374 257.787L77.7143 250.454Z" fill="#30322C"/>
  <path d="M69.2406 273.794L79.9844 277.919L84.1037 267.161L73.36 263.036L69.2406 273.794Z" fill="#F8E64B"/>
  <path d="M73.0222 262.282L84.8424 266.818L80.3123 278.655L68.4922 274.119L73.0222 262.282ZM83.353 267.484L73.6823 263.769L69.9733 273.453L79.644 277.167L83.353 267.484Z" fill="#30322C"/>
  <path d="M77.2828 259.221L78.6279 270.664L90.0551 269.317L88.71 257.874L77.2828 259.221Z" fill="#7C4FFF"/>
  <path d="M89.2361 257.234L90.7172 269.822L78.1462 271.305L76.665 258.717L89.2361 257.234ZM89.4382 268.814L88.2294 258.515L77.944 259.725L79.1528 270.024L89.4382 268.814Z" fill="#30322C"/>
  <path d="M87.2848 265.811L79.1484 273.959L87.2848 282.106L95.4211 273.959L87.2848 265.811Z" fill="#F266FF"/>
  <path d="M96.2376 273.957L87.2848 282.922L78.332 273.957L87.2848 264.992L96.2376 273.957ZM87.2889 281.295L94.6121 273.961L87.2889 266.628L79.9658 273.961L87.2889 281.295Z" fill="#30322C"/>
  <path d="M65.8633 269.587L68.0449 258.273L56.7466 256.089L54.565 267.403L65.8633 269.587Z" fill="#F8E64B"/>
  <path d="M53.9004 267.855L56.3016 255.408L68.7323 257.812L66.3312 270.26L53.9004 267.855ZM57.2133 256.759L55.2495 266.942L65.4194 268.909L67.3832 258.725L57.2133 256.759Z" fill="#30322C"/>
  <path d="M72.7025 270.781L78.8965 261.07L69.1987 254.868L63.0047 264.579L72.7025 270.781Z" fill="#7C4FFF"/>
  <path d="M62.2207 264.765L69.0364 254.082L79.7055 260.906L72.8898 271.59L62.2207 264.765ZM69.3871 255.672L63.8132 264.414L72.5432 269.995L78.1171 261.254L69.3871 255.672Z" fill="#30322C"/>
  <path d="M72.7025 284.711L78.8965 275L69.1987 268.797L63.0047 278.508L72.7025 284.711Z" fill="#F8E64B"/>
  <path d="M62.2207 278.696L69.0364 268.012L79.7055 274.837L72.8898 285.521L62.2207 278.696ZM69.3871 269.603L63.8132 278.345L72.5432 283.926L78.1171 275.184L69.3871 269.603Z" fill="#30322C"/>
  <path d="M76.8671 287.545L87.1816 282.438L82.0819 272.109L71.7674 277.216L76.8671 287.545Z" fill="#B5EE85"/>
  <path d="M70.9805 276.961L82.3303 271.342L87.9413 282.703L76.5956 288.322L70.9805 276.961ZM81.8063 272.883L72.5194 277.481L77.1113 286.777L86.3941 282.179L81.8063 272.883Z" fill="#30322C"/>
  <path d="M85.8183 292.649L96.1328 287.543L91.0331 277.214L80.7186 282.321L85.8183 292.649Z" fill="#7C4FFF"/>
  <path d="M79.9287 282.067L91.2785 276.449L96.8895 287.81L85.5438 293.428L79.9287 282.067ZM90.7546 277.99L81.4676 282.588L86.0595 291.883L95.3424 287.285L90.7546 277.99Z" fill="#30322C"/>
  <path d="M68.3956 276.615L69.1953 265.12L57.7163 264.32L56.9166 275.814L68.3956 276.615Z" fill="#F266FF"/>
  <path d="M56.3086 276.354L57.1874 263.708L69.8162 264.588L68.9374 277.234L56.3086 276.354ZM58.2559 264.935L57.5339 275.284L67.8647 276.002L68.5826 265.658L58.2559 264.935Z" fill="#30322C"/>
  <path d="M49.6917 274.108L60.2812 269.601L55.7799 258.997L45.1903 263.504L49.6917 274.108Z" fill="#7C4FFF"/>
  <path d="M44.4434 263.191L56.0944 258.234L61.0452 269.9L49.3942 274.858L44.4434 263.191ZM55.4838 259.741L45.9492 263.798L50.0007 273.346L59.5311 269.289L55.4838 259.741Z" fill="#30322C"/>
  <path d="M43.6756 272.237L47.7949 261.479L37.0512 257.354L32.9318 268.112L43.6756 272.237Z" fill="#B5EE85"/>
  <path d="M32.1777 268.455L36.7078 256.618L48.5279 261.154L43.9979 272.991L32.1777 268.455ZM37.372 258.106L33.663 267.789L43.3337 271.503L47.0427 261.82L37.372 258.106Z" fill="#30322C"/>
  <path d="M40.3598 281.298L48.4961 273.151L40.3598 265.004L32.2234 273.151L40.3598 281.298Z" fill="#F266FF"/>
  <path d="M31.4023 273.152L40.3551 264.187L49.3079 273.152L40.3551 282.117L31.4023 273.152ZM40.3551 265.815L33.032 273.148L40.3551 280.481L47.6783 273.148L40.3551 265.815Z" fill="#30322C"/>
  <path d="M37.8872 285.374L39.8848 274.027L28.5531 272.026L26.5555 283.373L37.8872 285.374Z" fill="#F266FF"/>
  <path d="M25.8779 283.827L28.0769 271.342L40.5448 273.544L38.3458 286.029L25.8779 283.827ZM29.0093 272.677L27.2105 282.889L37.4093 284.691L39.2081 274.478L29.0093 272.677Z" fill="#30322C"/>
  <path d="M53.4766 276.678L53.4766 265.155L41.97 265.155L41.97 276.678L53.4766 276.678Z" fill="#7C4FFF"/>
  <path d="M41.3945 277.258V264.583H54.0522V277.258H41.3945ZM42.5456 265.732V276.106H52.9053V265.732H42.5456Z" fill="#30322C"/>
  <path d="M45.5618 290.203L49.2715 279.296L38.3793 275.581L34.6696 286.488L45.5618 290.203Z" fill="#F8E64B"/>
  <path d="M33.9395 286.856L38.0198 274.854L50.005 278.94L45.9205 290.941L33.9395 286.856ZM38.7377 276.316L35.4 286.137L45.2068 289.479L48.5445 279.663L38.7377 276.316Z" fill="#30322C"/>
  <path d="M51.1938 275.791L61.6016 280.704L66.508 270.282L56.1003 265.369L51.1938 275.791Z" fill="#B5EE85"/>
  <path d="M55.8181 264.588L67.2711 269.991L61.8746 281.456L50.4258 276.052L55.8181 264.588ZM65.7363 270.545L56.3668 266.12L51.9523 275.503L61.3218 279.923L65.7363 270.545Z" fill="#30322C"/>
  <path d="M54.9321 286.193L57.6465 274.996L46.4644 272.278L43.7499 283.475L54.9321 286.193Z" fill="#F266FF"/>
  <path d="M43.0576 283.906L46.0446 271.586L58.3475 274.577L55.3605 286.897L43.0576 283.906ZM46.8904 272.978L44.448 283.059L54.5147 285.505L56.9571 275.424L46.8904 272.978Z" fill="#30322C"/>
  <path d="M59.7284 291.134L70.043 286.027L64.9432 275.699L54.6287 280.805L59.7284 291.134Z" fill="#7C4FFF"/>
  <path d="M53.8379 280.551L65.1877 274.932L70.7987 286.294L59.453 291.912L53.8379 280.551ZM64.6679 276.473L55.3809 281.072L59.9728 290.367L69.2557 285.769L64.6679 276.473Z" fill="#30322C"/>
  <path d="M90.1636 122.041L78.6846 121.24L77.8849 132.735L89.3638 133.536L90.1636 122.041Z" fill="#7C4FFF"/>
  <path d="M89.9003 134.149L77.2715 133.265L78.1503 120.619L90.7791 121.499L89.9003 134.149ZM78.501 132.199L88.8317 132.918L89.5537 122.573L79.223 121.854L78.501 132.199Z" fill="#30322C"/>
  <path d="M78.2853 121.822L67.1699 124.803L70.1467 135.933L81.2621 132.952L78.2853 121.822Z" fill="#F8E64B"/>
  <path d="M69.7387 136.628L66.4629 124.382L78.6915 121.102L81.9673 133.347L69.7387 136.628ZM67.8698 125.2L70.5474 135.219L80.5522 132.538L77.8746 122.519L67.8698 125.2Z" fill="#30322C"/>
  <path d="M101.099 130.389L93.3828 121.842L84.8472 129.568L92.5636 138.116L101.099 130.389Z" fill="#F8E64B"/>
  <path d="M92.5161 138.933L84.0254 129.53L93.4155 121.028L101.906 130.431L92.5161 138.933ZM85.6509 129.613L92.5986 137.305L100.281 130.348L93.3371 122.655L85.6509 129.613Z" fill="#30322C"/>
  <path d="M68.5359 127.96H57.0293V139.482H68.5359V127.96Z" fill="#B5EE85"/>
  <path d="M69.1147 140.061H56.457V127.386H69.1147V140.061ZM57.6081 138.908H67.9636V128.538H57.6081V138.908Z" fill="#30322C"/>
  <path d="M83.2873 10.4275H78.1797V134.31H83.2873V10.4275Z" fill="#7C4FFF"/>
  <path d="M83.8603 134.888H77.6016V9.84908H83.8603V134.888ZM78.7526 133.736H82.7092V11.0017H78.7526V133.736Z" fill="#30322C"/>
  <path d="M141.727 0.578415H19.7383V36.8805H141.727V0.578415Z" fill="#F8E64B"/>
  <path d="M142.301 37.4547H19.1611V0H142.301V37.4547ZM20.3122 36.3062H141.15V1.15678H20.3122V36.3062Z" fill="#30322C"/>
  <path d="M78.5582 134.03L70.4219 125.882L62.2855 134.03L70.4219 142.177L78.5582 134.03Z" fill="#F266FF"/>
  <path d="M70.4196 142.998L61.4668 134.033L70.4196 125.068L79.3724 134.033L70.4196 142.998ZM63.0965 134.033L70.4196 141.366L77.7427 134.033L70.4196 126.7L63.0965 134.033Z" fill="#30322C"/>
  <path d="M85.297 136.865L80.1973 126.536L69.8827 131.643L74.9825 141.972L85.297 136.865Z" fill="#F8E64B"/>
  <path d="M74.7262 142.754L69.1152 131.393L80.4609 125.775L86.0719 137.136L74.7262 142.754ZM70.6582 131.914L75.2502 141.209L84.533 136.611L79.9411 127.316L70.6582 131.914Z" fill="#30322C"/>
  <path d="M87.1153 142.244L94.1309 133.11L85.0096 126.085L77.994 135.218L87.1153 142.244Z" fill="#B5EE85"/>
  <path d="M77.1973 135.326L84.9165 125.279L94.9502 133.009L87.231 143.056L77.1973 135.326ZM85.1269 126.894L78.8104 135.115L87.0206 141.441L93.337 133.219L85.1269 126.894Z" fill="#30322C"/>
  <path d="M104.384 129.474L93.0859 127.289L90.9043 138.603L102.203 140.787L104.384 129.474Z" fill="#F8E64B"/>
  <path d="M102.657 141.457L90.2266 139.053L92.6277 126.605L105.058 129.009L102.657 141.457ZM91.5715 138.14L101.741 140.106L103.705 129.922L93.5354 127.956L91.5715 138.14Z" fill="#30322C"/>
  <path d="M34.348 8.96919H30.4492V12.8733H34.348V8.96919Z" fill="#F266FF"/>
  <path d="M34.7767 13.307H30.0156V8.53946H34.7767V13.307ZM30.8779 12.4394H33.9144V9.39878H30.8779V12.4394Z" fill="#30322C"/>
  <path d="M38.2465 8.96919H34.3477V12.8733H38.2465V8.96919Z" fill="#F266FF"/>
  <path d="M38.68 13.307H33.9189V8.53946H38.68V13.307ZM34.7771 12.4394H37.8136V9.39878H34.7771V12.4394Z" fill="#30322C"/>
  <path d="M42.1468 8.96919H38.248V12.8733H42.1468V8.96919Z" fill="#F266FF"/>
  <path d="M42.5794 13.307H37.8184V8.53946H42.5794V13.307ZM38.6806 12.4394H41.7172V9.39878H38.6806V12.4394Z" fill="#30322C"/>
  <path d="M34.348 12.8733H30.4492V16.7774H34.348V12.8733Z" fill="#F266FF"/>
  <path d="M34.7767 17.2111H30.0156V12.4436H34.7767V17.2111ZM30.8779 16.3436H33.9144V13.3029H30.8779V16.3436Z" fill="#30322C"/>
  <path d="M34.348 16.7774H30.4492V20.6815H34.348V16.7774Z" fill="#F266FF"/>
  <path d="M34.7767 21.1152H30.0156V16.3477H34.7767V21.1152ZM30.8779 20.2518H33.9144V17.2111H30.8779V20.2518Z" fill="#30322C"/>
  <path d="M38.2465 16.7774H34.3477V20.6815H38.2465V16.7774Z" fill="#F266FF"/>
  <path d="M38.68 21.1152H33.9189V16.3477H38.68V21.1152ZM34.7771 20.2518H37.8136V17.2111H34.7771V20.2518Z" fill="#30322C"/>
  <path d="M42.1468 16.7774H38.248V20.6815H42.1468V16.7774Z" fill="#F266FF"/>
  <path d="M42.5794 21.1152H37.8184V16.3477H42.5794V21.1152ZM38.6806 20.2518H41.7172V17.2111H38.6806V20.2518Z" fill="#30322C"/>
  <path d="M34.348 24.5856H30.4492V28.4897H34.348V24.5856Z" fill="#F266FF"/>
  <path d="M34.7767 28.9235H30.0156V24.1559H34.7767V28.9235ZM30.8779 28.06H33.9144V25.0194H30.8779V28.06Z" fill="#30322C"/>
  <path d="M38.2465 24.5856H34.3477V28.4897H38.2465V24.5856Z" fill="#F266FF"/>
  <path d="M38.68 28.9235H33.9189V24.1559H38.68V28.9235ZM34.7771 28.06H37.8136V25.0194H34.7771V28.06Z" fill="#30322C"/>
  <path d="M42.1468 24.5856H38.248V28.4897H42.1468V24.5856Z" fill="#F266FF"/>
  <path d="M42.5794 28.9235H37.8184V24.1559H42.5794V28.9235ZM38.6806 28.06H41.7172V25.0194H38.6806V28.06Z" fill="#30322C"/>
  <path d="M42.1468 20.6815H38.248V24.5856H42.1468V20.6815Z" fill="#F266FF"/>
  <path d="M42.5794 25.0194H37.8184V20.2518H42.5794V25.0194ZM38.6806 24.1559H41.7172V21.1153H38.6806V24.1559Z" fill="#30322C"/>
  <path d="M131.017 5.40796H125.695V10.7374H131.017V5.40796Z" fill="#F266FF"/>
  <path d="M131.446 11.1711H125.262V4.97826H131.446V11.1711ZM126.128 10.3036H130.588V5.83757H126.128V10.3036Z" fill="#30322C"/>
  <path d="M125.694 5.40796H120.372V10.7374H125.694V5.40796Z" fill="#F266FF"/>
  <path d="M126.128 11.1711H119.943V4.97826H126.128V11.1711ZM120.806 10.3036H125.266V5.83757H120.806V10.3036Z" fill="#30322C"/>
  <path d="M131.017 10.7374H125.695V16.0668H131.017V10.7374Z" fill="#F266FF"/>
  <path d="M131.446 16.4964H125.262V10.3036H131.446V16.4964ZM126.128 15.633H130.588V11.167H126.128V15.633Z" fill="#30322C"/>
  <path d="M131.017 16.0668H125.695V21.3962H131.017V16.0668Z" fill="#F266FF"/>
  <path d="M131.446 21.8259H125.262V15.633H131.446V21.8259ZM126.128 20.9624H130.588V16.4964H126.128V20.9624Z" fill="#30322C"/>
  <path d="M131.017 26.7215H125.695V32.0509H131.017V26.7215Z" fill="#F266FF"/>
  <path d="M131.446 32.4847H125.262V26.2918H131.446V32.4847ZM126.128 31.6213H130.588V27.1553H126.128V31.6213Z" fill="#30322C"/>
  <path d="M131.017 21.3962H125.695V26.7256H131.017V21.3962Z" fill="#F266FF"/>
  <path d="M131.446 27.1553H125.262V20.9624H131.446V27.1553ZM126.128 26.2918H130.588V21.8259H126.128V26.2918Z" fill="#30322C"/>
  <path d="M53.5297 16.7774H49.6309V20.6815H53.5297V16.7774Z" fill="#F266FF"/>
  <path d="M53.9622 21.1152H49.2012V16.3477H53.9622V21.1152ZM50.0593 20.2518H53.0958V17.2111H50.0593V20.2518Z" fill="#30322C"/>
  <path d="M53.5297 24.5856H49.6309V28.4897H53.5297V24.5856Z" fill="#F266FF"/>
  <path d="M53.9622 28.9235H49.2012V24.1559H53.9622V28.9235ZM50.0593 28.06H53.0958V25.0194H50.0593V28.06Z" fill="#30322C"/>
  <path d="M53.5297 20.6815H49.6309V24.5856H53.5297V20.6815Z" fill="#F266FF"/>
  <path d="M53.9622 25.0194H49.2012V20.2518H53.9622V25.0194ZM50.0593 24.1559H53.0958V21.1153H50.0593V24.1559Z" fill="#30322C"/>
  <path d="M53.5297 8.96919H49.6309V12.8733H53.5297V8.96919Z" fill="#F266FF"/>
  <path d="M53.9622 13.307H49.2012V8.53946H53.9622V13.307ZM50.0593 12.4394H53.0958V9.39878H50.0593V12.4394Z" fill="#30322C"/>
  <path d="M53.5297 12.8733H49.6309V16.7774H53.5297V12.8733Z" fill="#F266FF"/>
  <path d="M53.9622 17.2111H49.2012V12.4436H53.9622V17.2111ZM50.0593 16.3436H53.0958V13.3029H50.0593V16.3436Z" fill="#30322C"/>
  <path d="M57.4261 12.8733H53.5273V16.7774H57.4261V12.8733Z" fill="#F266FF"/>
  <path d="M57.8609 17.2111H53.0957V12.4436H57.8568V17.2111H57.8609ZM53.9621 16.3436H56.9986V13.3029H53.9621V16.3436Z" fill="#30322C"/>
  <path d="M49.6293 12.8733H45.7305V16.7774H49.6293V12.8733Z" fill="#F266FF"/>
  <path d="M50.0589 17.2111H45.2979V12.4436H50.0589V17.2111ZM46.1601 16.3436H49.1967V13.3029H46.1601V16.3436Z" fill="#30322C"/>
  <path d="M57.4261 24.5856H53.5273V28.4897H57.4261V24.5856Z" fill="#F266FF"/>
  <path d="M57.8609 28.9235H53.0957V24.1559H57.8568V28.9235H57.8609ZM53.9621 28.06H56.9986V25.0194H53.9621V28.06Z" fill="#30322C"/>
  <path d="M68.8109 8.96919H64.9121V12.8733H68.8109V8.96919Z" fill="#F266FF"/>
  <path d="M69.2435 13.307H64.4824V8.53946H69.2435V13.307ZM65.3406 12.4394H68.3771V9.39878H65.3406V12.4394Z" fill="#30322C"/>
  <path d="M76.6068 12.8733H72.708V16.7774H76.6068V12.8733Z" fill="#F266FF"/>
  <path d="M77.0404 17.2111H72.2793V12.4436H77.0404V17.2111ZM73.1416 16.3436H76.1781V13.3029H73.1416V16.3436Z" fill="#30322C"/>
  <path d="M72.7084 16.7774H68.8096V20.6815H72.7084V16.7774Z" fill="#F266FF"/>
  <path d="M73.1419 21.1152H68.3809V16.3477H73.1419V21.1152ZM69.2431 20.2518H72.2796V17.2111H69.2431V20.2518Z" fill="#30322C"/>
  <path d="M76.6068 16.7774H72.708V20.6815H76.6068V16.7774Z" fill="#F266FF"/>
  <path d="M77.0404 21.1152H72.2793V16.3477H77.0404V21.1152ZM73.1416 20.2518H76.1781V17.2111H73.1416V20.2518Z" fill="#30322C"/>
  <path d="M68.8109 16.7774H64.9121V20.6815H68.8109V16.7774Z" fill="#F266FF"/>
  <path d="M69.2435 21.1152H64.4824V16.3477H69.2435V21.1152ZM65.3406 20.2518H68.3771V17.2111H65.3406V20.2518Z" fill="#30322C"/>
  <path d="M72.7084 8.96919H68.8096V12.8733H72.7084V8.96919Z" fill="#F266FF"/>
  <path d="M73.1419 13.307H68.3809V8.53946H73.1419V13.307ZM69.2431 12.4394H72.2796V9.39878H69.2431V12.4394Z" fill="#30322C"/>
  <path d="M76.6068 20.6815H72.708V24.5856H76.6068V20.6815Z" fill="#F266FF"/>
  <path d="M77.0404 25.0194H72.2793V20.2518H77.0404V25.0194ZM73.1416 24.1559H76.1781V21.1153H73.1416V24.1559Z" fill="#30322C"/>
  <path d="M76.6068 24.5856H72.708V28.4897H76.6068V24.5856Z" fill="#F266FF"/>
  <path d="M77.0404 28.9235H72.2793V24.1559H77.0404V28.9235ZM73.1416 28.06H76.1781V25.0194H73.1416V28.06Z" fill="#30322C"/>
  <path d="M64.9115 20.6815H61.0127V24.5856H64.9115V20.6815Z" fill="#F266FF"/>
  <path d="M65.3411 25.0194H60.5801V20.2518H65.3411V25.0194ZM61.4424 24.1559H64.4789V21.1153H61.4424V24.1559Z" fill="#30322C"/>
  <path d="M64.9115 24.5856H61.0127V28.4897H64.9115V24.5856Z" fill="#F266FF"/>
  <path d="M65.3411 28.9235H60.5801V24.1559H65.3411V28.9235ZM61.4424 28.06H64.4789V25.0194H61.4424V28.06Z" fill="#30322C"/>
  <path d="M64.9115 12.8733H61.0127V16.7774H64.9115V12.8733Z" fill="#F266FF"/>
  <path d="M65.3411 17.2111H60.5801V12.4436H65.3411V17.2111ZM61.4424 16.3436H64.4789V13.3029H61.4424V16.3436Z" fill="#30322C"/>
  <path d="M64.9115 16.7774H61.0127V20.6815H64.9115V16.7774Z" fill="#F266FF"/>
  <path d="M65.3411 21.1152H60.5801V16.3477H65.3411V21.1152ZM61.4424 20.2518H64.4789V17.2111H61.4424V20.2518Z" fill="#30322C"/>
  <path d="M87.9906 8.96919H84.0918V12.8733H87.9906V8.96919Z" fill="#F266FF"/>
  <path d="M88.4242 13.307H83.6631V8.53946H88.4242V13.307ZM84.5254 12.4394H87.5619V9.39878H84.5254V12.4394Z" fill="#30322C"/>
  <path d="M95.7894 16.7774H91.8906V20.6815H95.7894V16.7774Z" fill="#F266FF"/>
  <path d="M96.222 21.1152H91.4609V16.3477H96.222V21.1152ZM92.3232 20.2518H95.3597V17.2111H92.3232V20.2518Z" fill="#30322C"/>
  <path d="M91.889 16.7774H87.9902V20.6815H91.889V16.7774Z" fill="#F266FF"/>
  <path d="M92.3226 21.1152H87.5615V16.3477H92.3226V21.1152ZM88.4238 20.2518H91.4603V17.2111H88.4238V20.2518Z" fill="#30322C"/>
  <path d="M91.889 8.96919H87.9902V12.8733H91.889V8.96919Z" fill="#F266FF"/>
  <path d="M92.3226 13.307H87.5615V8.53946H92.3226V13.307ZM88.4238 12.4394H91.4603V9.39878H88.4238V12.4394Z" fill="#30322C"/>
  <path d="M95.7894 8.96919H91.8906V12.8733H95.7894V8.96919Z" fill="#F266FF"/>
  <path d="M96.222 13.307H91.4609V8.53946H96.222V13.307ZM92.3232 12.4394H95.3597V9.39878H92.3232V12.4394Z" fill="#30322C"/>
  <path d="M95.7894 20.6815H91.8906V24.5856H95.7894V20.6815Z" fill="#F266FF"/>
  <path d="M96.222 25.0194H91.4609V20.2518H96.222V25.0194ZM92.3232 24.1559H95.3597V21.1153H92.3232V24.1559Z" fill="#30322C"/>
  <path d="M91.889 24.5856H87.9902V28.4897H91.889V24.5856Z" fill="#F266FF"/>
  <path d="M92.3226 28.9235H87.5615V24.1559H92.3226V28.9235ZM88.4238 28.06H91.4603V25.0194H88.4238V28.06Z" fill="#30322C"/>
  <path d="M95.7894 24.5856H91.8906V28.4897H95.7894V24.5856Z" fill="#F266FF"/>
  <path d="M96.222 28.9235H91.4609V24.1559H96.222V28.9235ZM92.3232 28.06H95.3597V25.0194H92.3232V28.06Z" fill="#30322C"/>
  <path d="M84.0922 20.6815H80.1934V24.5856H84.0922V20.6815Z" fill="#F266FF"/>
  <path d="M84.5247 25.0194H79.7637V20.2518H84.5247V25.0194ZM80.6218 24.1559H83.6583V21.1153H80.6218V24.1559Z" fill="#30322C"/>
  <path d="M87.9906 24.5856H84.0918V28.4897H87.9906V24.5856Z" fill="#F266FF"/>
  <path d="M88.4242 28.9235H83.6631V24.1559H88.4242V28.9235ZM84.5254 28.06H87.5619V25.0194H84.5254V28.06Z" fill="#30322C"/>
  <path d="M84.0922 12.8733H80.1934V16.7774H84.0922V12.8733Z" fill="#F266FF"/>
  <path d="M84.5247 17.2111H79.7637V12.4436H84.5247V17.2111ZM80.6218 16.3436H83.6583V13.3029H80.6218V16.3436Z" fill="#30322C"/>
  <path d="M84.0922 16.7774H80.1934V20.6815H84.0922V16.7774Z" fill="#F266FF"/>
  <path d="M84.5247 21.1152H79.7637V16.3477H84.5247V21.1152ZM80.6218 20.2518H83.6583V17.2111H80.6218V20.2518Z" fill="#30322C"/>
  <path d="M107.17 8.96919H103.271V12.8733H107.17V8.96919Z" fill="#F266FF"/>
  <path d="M107.604 13.307H102.843V8.53946H107.604V13.307ZM103.705 12.4394H106.742V9.39878H103.705V12.4394Z" fill="#30322C"/>
  <path d="M111.07 16.7774H107.171V20.6815H111.07V16.7774Z" fill="#F266FF"/>
  <path d="M111.503 21.1152H106.742V16.3477H111.503V21.1152ZM107.604 20.2518H110.641V17.2111H107.604V20.2518Z" fill="#30322C"/>
  <path d="M107.17 16.7774H103.271V20.6815H107.17V16.7774Z" fill="#F266FF"/>
  <path d="M107.604 21.1152H102.843V16.3477H107.604V21.1152ZM103.705 20.2518H106.742V17.2111H103.705V20.2518Z" fill="#30322C"/>
  <path d="M111.07 8.96919H107.171V12.8733H111.07V8.96919Z" fill="#F266FF"/>
  <path d="M111.503 13.307H106.742V8.53946H111.503V13.307ZM107.604 12.4394H110.641V9.39878H107.604V12.4394Z" fill="#30322C"/>
  <path d="M107.17 24.5856H103.271V28.4897H107.17V24.5856Z" fill="#F266FF"/>
  <path d="M107.604 28.9235H102.843V24.1559H107.604V28.9235ZM103.705 28.06H106.742V25.0194H103.705V28.06Z" fill="#30322C"/>
  <path d="M111.07 24.5856H107.171V28.4897H111.07V24.5856Z" fill="#F266FF"/>
  <path d="M111.503 28.9235H106.742V24.1559H111.503V28.9235ZM107.604 28.06H110.641V25.0194H107.604V28.06Z" fill="#30322C"/>
  <path d="M103.272 20.6815H99.373V24.5856H103.272V20.6815Z" fill="#F266FF"/>
  <path d="M103.705 25.0194H98.9443V20.2518H103.705V25.0194ZM99.8025 24.1559H102.839V21.1153H99.8025V24.1559Z" fill="#30322C"/>
  <path d="M103.272 24.5856H99.373V28.4897H103.272V24.5856Z" fill="#F266FF"/>
  <path d="M103.705 28.9235H98.9443V24.1559H103.705V28.9235ZM99.8025 28.06H102.839V25.0194H99.8025V28.06Z" fill="#30322C"/>
  <path d="M103.272 8.96919H99.373V12.8733H103.272V8.96919Z" fill="#F266FF"/>
  <path d="M103.705 13.307H98.9443V8.53946H103.705V13.307ZM99.8025 12.4394H102.839V9.39878H99.8025V12.4394Z" fill="#30322C"/>
  <path d="M103.272 12.8733H99.373V16.7774H103.272V12.8733Z" fill="#F266FF"/>
  <path d="M103.705 17.2111H98.9443V12.4436H103.705V17.2111ZM99.8025 16.3436H102.839V13.3029H99.8025V16.3436Z" fill="#30322C"/>
  <path d="M103.272 16.7774H99.373V20.6815H103.272V16.7774Z" fill="#F266FF"/>
  <path d="M103.705 21.1152H98.9443V16.3477H103.705V21.1152ZM99.8025 20.2518H102.839V17.2111H99.8025V20.2518Z" fill="#30322C"/>
</svg>
