<svg width="270" height="312" viewBox="0 0 270 312" fill="none" xmlns="http://www.w3.org/2000/svg">
  <path d="M130.983 192.383L110.012 196.074L113.709 217.014L134.68 213.323L130.983 192.383Z" fill="#B5EE85"/>
  <path d="M112.907 218.224L108.84 195.191L131.908 191.129L135.975 214.163L112.907 218.224ZM111.305 196.913L114.632 215.757L133.505 212.435L130.177 193.591L111.305 196.913Z" fill="#30322C"/>
  <path d="M217.266 206.925L199.318 195.48L187.855 213.4L205.803 224.846L217.266 206.925Z" fill="#F8E64B"/>
  <path d="M206.158 226.256L186.417 213.669L199.024 193.958L218.764 206.545L206.158 226.256ZM189.356 213.02L205.508 223.322L215.825 207.194L199.673 196.892L189.356 213.02Z" fill="#30322C"/>
  <path d="M84.5815 222.24L92.2051 202.386L72.3219 194.774L64.6983 214.627L84.5815 222.24Z" fill="#F8E64B"/>
  <path d="M85.1747 223.641L63.3047 215.268L71.6896 193.431L93.5597 201.803L85.1747 223.641ZM66.0518 214.046L83.9503 220.898L90.8126 203.031L72.9141 196.179L66.0518 214.046Z" fill="#30322C"/>
  <path d="M89.0519 223.009L107.502 212.39L96.8672 193.968L78.4172 204.586L89.0519 223.009Z" fill="#B5EE85"/>
  <path d="M88.6729 224.507L76.9766 204.243L97.2707 192.565L108.967 212.828L88.6729 224.507ZM79.8833 205.025L89.4554 221.605L106.06 212.047L96.4882 195.467L79.8833 205.025Z" fill="#30322C"/>
  <path d="M183.522 191.751L163.489 198.963L170.713 218.965L190.745 211.753L183.522 191.751Z" fill="#B5EE85"/>
  <path d="M170.105 220.319L162.156 198.316L184.191 190.38L192.134 212.382L170.105 220.319ZM164.882 199.592L171.382 217.597L189.414 211.106L182.914 193.102L164.882 199.592Z" fill="#30322C"/>
  <path d="M169.938 200.094L151.99 188.648L140.527 206.569L158.475 218.015L169.938 200.094Z" fill="#F266FF"/>
  <path d="M158.828 219.425L139.088 206.837L151.695 187.127L171.435 199.714L158.828 219.425ZM142.027 206.189L158.179 216.491L168.496 200.363L152.344 190.061L142.027 206.189Z" fill="#30322C"/>
  <path d="M50.3833 138.813L29.7676 133.488L24.4353 154.073L45.051 159.398L50.3833 138.813Z" fill="#F8E64B"/>
  <path d="M45.8375 160.744L23.1582 154.886L29.025 132.241L51.7043 138.099L45.8375 160.744ZM25.7562 153.361L44.3096 158.15L49.1115 139.625L30.5582 134.835L25.7562 153.361Z" fill="#30322C"/>
  <path d="M78.4423 79.2397L93.5 64.2045L78.4423 49.1693L63.3845 64.2045L78.4423 79.2397Z" fill="#7C4FFF"/>
  <path d="M61.8672 64.2041L78.4294 47.6667L94.9916 64.2041L78.4294 80.7416L61.8672 64.2041ZM78.4294 50.6702L64.8751 64.2041L78.4294 77.7381L91.9837 64.2041L78.4294 50.6702Z" fill="#30322C"/>
  <path d="M22.2407 31.6994L25.9375 10.7594L4.96613 7.06814L1.26931 28.0081L22.2407 31.6994Z" fill="#F266FF"/>
  <path d="M0 28.8275L4.06736 5.79414L27.1353 9.85542L23.0679 32.8887L0 28.8275ZM5.79226 8.25536L2.46491 27.0999L21.3377 30.4223L24.665 11.5777L5.79226 8.25536Z" fill="#30322C"/>
  <path d="M245.355 17.7649L238.666 37.9522L258.884 44.631L265.572 24.4437L245.355 17.7649Z" fill="#7C4FFF"/>
  <path d="M266.911 23.7883L259.554 45.9923L237.316 38.646L244.674 16.4419L266.911 23.7883ZM258.202 43.3079L264.223 25.1385L246.026 19.1264L240.005 37.2957L258.202 43.3079Z" fill="#30322C"/>
  <path d="M248.443 110.633L241.754 130.821L261.971 137.5L268.66 117.312L248.443 110.633Z" fill="#B5EE85"/>
  <path d="M270 116.661L262.643 138.865L240.405 131.518L247.763 109.314L270 116.661ZM261.29 136.18L267.312 118.011L249.115 111.999L243.094 130.168L261.29 136.18Z" fill="#30322C"/>
  <path d="M179.61 65.7889L165.477 81.6938L181.405 95.8062L195.539 79.9013L179.61 65.7889Z" fill="#F8E64B"/>
  <path d="M197.048 79.7529L181.503 97.2472L163.982 81.725L179.528 64.2308L197.048 79.7529ZM181.322 94.2491L194.04 79.9336L179.704 67.2342L166.985 81.5496L181.322 94.2491Z" fill="#30322C"/>
  <path d="M164.841 147.99L168.538 168.93L189.509 165.238L185.813 144.298L164.841 147.99Z" fill="#F266FF"/>
  <path d="M186.652 143.006L190.719 166.039L167.651 170.1L163.584 147.067L186.652 143.006ZM188.249 164.311L184.922 145.467L166.049 148.789L169.376 167.634L188.249 164.311Z" fill="#30322C"/>
  <path d="M99.4818 126.9L108.262 146.273L127.664 137.506L118.884 118.133L99.4818 126.9Z" fill="#B5EE85"/>
  <path d="M119.364 116.767L129.022 138.078L107.679 147.721L98.0215 126.41L119.364 116.767ZM126.205 137.015L118.305 119.579L100.843 127.468L108.743 144.903L126.205 137.015Z" fill="#30322C"/>
  <path d="M143.634 1.47322L127.066 14.8307L140.444 31.3735L157.012 18.016L143.634 1.47322Z" fill="#B5EE85"/>
  <path d="M158.557 18.196L140.334 32.8888L125.619 14.6929L143.842 0L158.557 18.196ZM140.653 29.896L155.565 17.8717L143.523 2.98215L128.611 15.0065L140.653 29.896Z" fill="#30322C"/>
  <path d="M153.408 200.266L132.164 198.789L130.684 220.001L151.928 221.479L153.408 200.266Z" fill="#7C4FFF"/>
  <path d="M152.915 222.583L129.549 220.956L131.178 197.625L154.544 199.252L152.915 222.583ZM131.817 218.984L150.934 220.313L152.265 201.224L133.148 199.895L131.817 218.984Z" fill="#30322C"/>
  <path d="M235.814 216.84L220.756 201.805L205.698 216.84L220.756 231.876L235.814 216.84Z" fill="#F266FF"/>
  <path d="M220.755 233.39L204.192 216.853L220.755 200.315L237.317 216.853L220.755 233.39ZM207.2 216.853L220.755 230.387L234.309 216.853L220.755 203.319L207.2 216.853Z" fill="#30322C"/>
  <path d="M101.657 220.664L86.5996 205.628L71.5419 220.664L86.5996 235.699L101.657 220.664Z" fill="#F266FF"/>
  <path d="M86.5964 237.212L70.0342 220.675L86.5964 204.137L103.159 220.675L86.5964 237.212ZM73.0421 220.675L86.5964 234.209L100.151 220.675L86.5964 207.141L73.0421 220.675Z" fill="#30322C"/>
  <path d="M76.1075 218.436L61.0498 203.4L45.9921 218.436L61.0498 233.471L76.1075 218.436Z" fill="#B5EE85"/>
  <path d="M61.0476 234.985L44.4854 218.447L61.0476 201.91L77.6098 218.447L61.0476 234.985ZM47.4933 218.447L61.0476 231.981L74.6019 218.447L61.0476 204.913L47.4933 218.447Z" fill="#30322C"/>
  <path d="M203.946 208.182L182.975 204.49L179.278 225.43L200.249 229.122L203.946 208.182Z" fill="#7C4FFF"/>
  <path d="M201.057 230.397L177.989 226.336L182.057 203.303L205.124 207.364L201.057 230.397ZM180.459 224.614L199.332 227.936L202.66 209.092L183.787 205.769L180.459 224.614Z" fill="#30322C"/>
  <path d="M125.803 206.547L105.232 212.047L110.741 232.588L131.312 227.087L125.803 206.547Z" fill="#F8E64B"/>
  <path d="M109.973 233.82L103.915 211.228L126.541 205.179L132.599 227.771L109.973 233.82ZM106.524 212.733L111.48 231.216L129.991 226.267L125.034 207.784L106.524 212.733Z" fill="#30322C"/>
  <path d="M105.39 201.372L89.5938 215.631L103.874 231.404L119.671 217.145L105.39 201.372Z" fill="#7C4FFF"/>
  <path d="M103.797 232.959L88.0869 215.609L105.464 199.922L121.174 217.272L103.797 232.959ZM91.1002 215.757L103.952 229.956L118.172 217.124L105.32 202.925L91.1002 215.757Z" fill="#30322C"/>
  <path d="M74.9541 209.402L54.9219 216.614L62.1452 236.616L82.1774 229.404L74.9541 209.402Z" fill="#FEFDF1"/>
  <path d="M61.5368 237.972L53.5938 215.97L75.6288 208.034L83.5772 230.036L61.5368 237.972ZM56.3142 217.246L62.8145 235.251L80.8461 228.76L74.3458 210.755L56.3142 217.246Z" fill="#30322C"/>
  <path d="M161.021 217.492L143.073 206.046L131.61 223.966L149.558 235.412L161.021 217.492Z" fill="#FEFDF1"/>
  <path d="M149.912 236.824L130.172 224.236L142.779 204.525L162.519 217.113L149.912 236.824ZM133.111 223.588L149.263 233.89L159.58 217.761L143.428 207.46L133.111 223.588Z" fill="#30322C"/>
  <path d="M214.543 212.371H193.248V233.635H214.543V212.371Z" fill="#B5EE85"/>
  <path d="M215.608 234.698H192.184V211.308H215.608V234.698ZM194.313 232.571H213.479V213.435H194.313V232.571Z" fill="#30322C"/>
  <path d="M107.891 216.852H86.5957V238.116H107.891V216.852Z" fill="#B5EE85"/>
  <path d="M108.956 239.179H85.5312V215.789H108.956V239.179ZM87.6608 237.052H106.826V217.916H87.6608V237.052Z" fill="#30322C"/>
  <path d="M182.749 219.486L167.691 204.451L152.634 219.486L167.691 234.521L182.749 219.486Z" fill="#B5EE85"/>
  <path d="M167.687 236.037L151.125 219.5L167.687 202.962L184.249 219.5L167.687 236.037ZM154.133 219.5L167.687 233.034L181.241 219.5L167.687 205.966L154.133 219.5Z" fill="#30322C"/>
  <path d="M38.4961 233.215C38.4961 227.575 43.0745 223.003 48.723 223.003H235.364C241.012 223.003 245.59 227.575 245.59 233.215C245.59 238.855 241.012 243.426 235.364 243.426H48.723C43.0745 243.426 38.4961 238.855 38.4961 233.215Z" fill="#7C4FFF"/>
  <path d="M235.364 244.49H48.7233C42.4945 244.49 37.4316 239.429 37.4316 233.215C37.4316 226.995 42.4998 221.94 48.7233 221.94H235.364C241.593 221.94 246.656 227.001 246.656 233.215C246.656 239.434 241.587 244.49 235.364 244.49ZM48.7233 224.066C43.6711 224.066 39.5611 228.17 39.5611 233.215C39.5611 238.259 43.6711 242.363 48.7233 242.363H235.364C240.416 242.363 244.526 238.259 244.526 233.215C244.526 228.17 240.416 224.066 235.364 224.066H48.7233Z" fill="#30322C"/>
  <path d="M69.2415 302.506L55.2666 243.426H228.821L214.846 302.501C213.675 307.444 209.256 310.937 204.172 310.937H79.921C74.8315 310.937 70.4127 307.45 69.2415 302.506Z" fill="#7C4FFF"/>
  <path d="M204.167 312H79.9159C74.31 312 69.492 308.194 68.2036 302.745L53.9199 242.363H230.163L215.879 302.745C214.591 308.199 209.778 312 204.167 312ZM70.2798 302.261C71.3393 306.748 75.3055 309.879 79.9212 309.879H204.172C208.788 309.879 212.754 306.748 213.814 302.261L227.48 244.495H56.6138L70.2798 302.261Z" fill="#30322C"/>
  <path d="M142.043 249.391C144.689 249.391 146.835 251.533 146.835 254.175V300.199C146.835 302.841 144.689 304.983 142.043 304.983C139.397 304.983 137.252 302.841 137.252 300.199V254.175C137.252 251.533 139.397 249.391 142.043 249.391Z" fill="#FEFDF1"/>
  <path d="M142.044 306.041C138.812 306.041 136.188 303.42 136.188 300.194V254.169C136.188 250.943 138.812 248.322 142.044 248.322C145.275 248.322 147.9 250.943 147.9 254.169V300.194C147.9 303.42 145.275 306.041 142.044 306.041ZM142.044 250.454C139.989 250.454 138.317 252.123 138.317 254.175V300.199C138.317 302.251 139.989 303.92 142.044 303.92C144.099 303.92 145.77 302.251 145.77 300.199V254.175C145.77 252.123 144.099 250.454 142.044 250.454Z" fill="#30322C"/>
  <path d="M136.767 228.165H147.415C150.353 228.165 152.738 230.546 152.738 233.481C152.738 236.415 150.353 238.796 147.415 238.796H136.767C133.828 238.796 131.443 236.415 131.443 233.481C131.443 230.546 133.823 228.165 136.767 228.165Z" fill="#FEFDF1"/>
  <path d="M147.409 239.859H136.762C133.237 239.859 130.373 237 130.373 233.48C130.373 229.961 133.237 227.102 136.762 227.102H147.409C150.933 227.102 153.798 229.961 153.798 233.48C153.798 237 150.933 239.859 147.409 239.859ZM136.762 229.228C134.414 229.228 132.503 231.136 132.503 233.48C132.503 235.825 134.414 237.733 136.762 237.733H147.409C149.757 237.733 151.668 235.825 151.668 233.48C151.668 231.136 149.757 229.228 147.409 229.228H136.762Z" fill="#30322C"/>
  <path d="M97.2292 174.672C99.2895 173.013 102.303 173.332 103.969 175.389L145.777 227.086C147.438 229.143 147.118 232.151 145.058 233.815C142.998 235.474 139.984 235.155 138.318 233.098L96.5105 181.402C94.8495 179.344 95.1689 176.336 97.2292 174.672Z" fill="#F266FF"/>
  <path d="M142.055 235.942C141.847 235.942 141.634 235.931 141.421 235.91C139.867 235.745 138.467 234.985 137.487 233.768L95.6795 182.071C94.6946 180.854 94.2474 179.334 94.4125 177.776C94.5775 176.219 95.3388 174.826 96.5579 173.848C97.7771 172.864 99.2943 172.418 100.86 172.583C102.414 172.747 103.814 173.508 104.794 174.725L146.601 226.421C147.586 227.638 148.033 229.159 147.868 230.716C147.703 232.268 146.942 233.666 145.723 234.645C144.669 235.49 143.386 235.942 142.055 235.942ZM100.231 174.672C99.3848 174.672 98.565 174.959 97.8995 175.496C97.1275 176.118 96.6431 177.005 96.5366 177.994C96.4302 178.983 96.7176 179.95 97.3405 180.726L139.148 232.423C139.771 233.199 140.665 233.682 141.656 233.783C142.646 233.89 143.615 233.603 144.392 232.981C145.169 232.359 145.654 231.466 145.755 230.477C145.861 229.488 145.574 228.521 144.951 227.745L103.143 176.049C102.521 175.272 101.626 174.789 100.636 174.688C100.497 174.682 100.364 174.672 100.231 174.672Z" fill="#30322C"/>
  <path d="M175.487 249.811C178.096 250.268 179.831 252.75 179.373 255.355L171.372 300.677C170.914 303.282 168.428 305.015 165.819 304.558C163.21 304.101 161.475 301.618 161.933 299.014L169.934 253.691C170.397 251.092 172.884 249.353 175.487 249.811Z" fill="#FEFDF1"/>
  <path d="M166.655 305.695C166.32 305.695 165.979 305.669 165.633 305.605C162.455 305.047 160.325 302.006 160.884 298.833L168.886 253.51C169.445 250.337 172.49 248.205 175.668 248.769C177.207 249.04 178.554 249.896 179.448 251.171C180.348 252.453 180.688 254.005 180.417 255.541L172.415 300.863C171.92 303.697 169.439 305.695 166.655 305.695ZM174.651 250.799C172.878 250.799 171.303 252.07 170.983 253.877L162.982 299.2C162.625 301.22 163.982 303.155 166.005 303.511C168.029 303.867 169.966 302.511 170.323 300.491L178.325 255.169C178.5 254.191 178.277 253.202 177.707 252.389C177.137 251.575 176.28 251.033 175.301 250.858C175.082 250.821 174.87 250.799 174.651 250.799Z" fill="#30322C"/>
  <path d="M202.776 250.161C205.385 250.618 207.12 253.101 206.662 255.706L198.661 301.028C198.203 303.633 195.717 305.366 193.108 304.908C190.499 304.451 188.764 301.969 189.222 299.364L197.223 254.042C197.686 251.437 200.167 249.704 202.776 250.161Z" fill="#FEFDF1"/>
  <path d="M193.944 306.041C193.608 306.041 193.268 306.014 192.922 305.951C191.383 305.679 190.036 304.824 189.142 303.548C188.242 302.267 187.901 300.714 188.173 299.178L196.175 253.856C196.734 250.682 199.779 248.551 202.957 249.114C206.135 249.672 208.265 252.713 207.706 255.886L199.704 301.209C199.209 304.042 196.728 306.041 193.944 306.041ZM201.94 251.15C200.167 251.15 198.592 252.421 198.272 254.228L190.27 299.55C190.095 300.529 190.318 301.517 190.888 302.331C191.458 303.144 192.315 303.686 193.294 303.861C195.317 304.218 197.255 302.862 197.612 300.842L205.614 255.52C205.97 253.5 204.613 251.565 202.59 251.208C202.371 251.171 202.158 251.15 201.94 251.15Z" fill="#30322C"/>
  <path d="M108.69 249.81C106.081 250.268 104.346 252.75 104.804 255.355L112.805 300.677C113.263 303.282 115.749 305.015 118.358 304.558C120.967 304.101 122.702 301.618 122.244 299.013L114.243 253.691C113.78 251.092 111.299 249.353 108.69 249.81Z" fill="#FEFDF1"/>
  <path d="M117.511 305.695C116.318 305.695 115.158 305.334 114.162 304.637C112.879 303.739 112.027 302.4 111.756 300.863L103.754 255.541C103.483 254.005 103.829 252.452 104.723 251.171C105.623 249.89 106.965 249.04 108.503 248.769C111.687 248.21 114.727 250.337 115.286 253.51L123.287 298.833C123.846 302.006 121.717 305.047 118.538 305.605C118.198 305.663 117.857 305.695 117.511 305.695ZM109.525 250.799C109.312 250.799 109.094 250.82 108.876 250.858C107.896 251.028 107.039 251.575 106.47 252.389C105.9 253.202 105.682 254.191 105.852 255.169L113.854 300.491C114.024 301.469 114.572 302.325 115.387 302.894C116.201 303.463 117.192 303.681 118.171 303.511C120.194 303.154 121.552 301.219 121.195 299.199L113.193 253.877C112.874 252.075 111.298 250.799 109.525 250.799Z" fill="#30322C"/>
  <path d="M81.401 250.161C78.7923 250.618 77.0568 253.101 77.5147 255.706L85.5162 301.028C85.9741 303.633 88.4603 305.366 91.0689 304.909C93.6776 304.451 95.4132 301.969 94.9553 299.364L86.9537 254.042C86.4905 251.437 84.0096 249.704 81.401 250.161Z" fill="#FEFDF1"/>
  <path d="M90.2324 306.041C87.4427 306.041 84.9671 304.042 84.4667 301.209L76.4651 255.886C75.9061 252.713 78.0356 249.672 81.2139 249.114C82.7525 248.843 84.307 249.189 85.59 250.082C86.873 250.98 87.7249 252.32 87.9964 253.856L95.998 299.178C96.2695 300.715 95.9234 302.267 95.029 303.548C94.1293 304.829 92.7878 305.679 91.2492 305.951C90.9085 306.014 90.5678 306.041 90.2324 306.041ZM81.5865 251.209C79.5635 251.565 78.206 253.5 78.5627 255.52L86.5643 300.842C86.921 302.862 88.8588 304.218 90.8819 303.861C91.8614 303.691 92.7186 303.144 93.2882 302.331C93.8579 301.517 94.0761 300.529 93.9057 299.55L85.9042 254.228C85.7338 253.25 85.1855 252.394 84.3709 251.825C83.5564 251.256 82.5661 251.033 81.5865 251.209Z" fill="#30322C"/>
  <path d="M113.524 232.417H55.2656V234.544H113.524V232.417Z" fill="#30322C"/>
  <path d="M228.821 232.417H165.191V234.544H228.821V232.417Z" fill="#30322C"/>
</svg>
