<svg width="250" height="274" viewBox="0 0 250 274" fill="none" xmlns="http://www.w3.org/2000/svg">
  <path d="M105.033 129.402L105.033 116.743L92.352 116.743L92.352 129.402L105.033 129.402Z" fill="#B5EE85"/>
  <path d="M106.094 130.457H91.2988V115.689H106.094V130.457ZM93.4124 128.347H103.98V117.798H93.4124V128.347Z" fill="#30322C"/>
  <path d="M68.3836 125.981L56.8779 120.658L51.5455 132.143L63.0512 137.466L68.3836 125.981Z" fill="#B5EE85"/>
  <path d="M63.4951 138.854L50.0742 132.641L56.2933 119.244L69.7142 125.452L63.4951 138.854ZM52.8799 131.618L62.4701 136.053L66.9138 126.48L57.3236 122.044L52.8799 131.618Z" fill="#30322C"/>
  <path d="M164.556 141.564L153.051 136.241L147.718 147.726L159.224 153.049L164.556 141.564Z" fill="#7C4FFF"/>
  <path d="M159.667 154.44L146.246 148.232L152.465 134.835L165.886 141.048L159.667 154.44ZM149.052 147.203L158.642 151.639L163.086 142.066L153.496 137.63L149.052 147.203Z" fill="#30322C"/>
  <path d="M176.855 146.899L169.11 136.874L159.068 144.605L166.813 154.629L176.855 146.899Z" fill="#F266FF"/>
  <path d="M166.615 156.043L157.58 144.35L169.294 135.331L178.33 147.024L166.615 156.043ZM160.544 144.735L166.996 153.09L175.366 146.65L168.914 138.295L160.544 144.735Z" fill="#30322C"/>
  <path d="M186.75 138.726L175.244 133.403L169.912 144.888L181.417 150.211L186.75 138.726Z" fill="#F8E64B"/>
  <path d="M181.86 151.597L168.439 145.389L174.658 131.992L188.079 138.2L181.86 151.597ZM171.24 144.36L180.83 148.796L185.274 139.223L175.684 134.787L171.24 144.36Z" fill="#30322C"/>
  <path d="M153.504 145.447L143.205 138.06L135.804 148.34L146.103 155.727L153.504 145.447Z" fill="#F266FF"/>
  <path d="M146.336 157.109L134.32 148.49L142.954 136.496L154.97 145.115L146.336 157.109ZM137.274 148.01L145.855 154.166L152.021 145.6L143.44 139.445L137.274 148.01Z" fill="#30322C"/>
  <path d="M72.5917 132.243L81.5586 123.292L72.5917 114.341L63.6248 123.292L72.5917 132.243Z" fill="#F8E64B"/>
  <path d="M72.5734 133.732L62.1113 123.289L72.5734 112.846L83.0354 123.289L72.5734 133.732ZM65.102 123.289L72.5734 130.747L80.0447 123.289L72.5734 115.831L65.102 123.289Z" fill="#30322C"/>
  <path d="M89.8863 132.778L95.2188 121.293L83.7131 115.97L78.3806 127.455L89.8863 132.778Z" fill="#7C4FFF"/>
  <path d="M90.4122 134.107L76.9912 127.894L83.2103 114.497L96.6313 120.705L90.4122 134.107ZM79.7917 126.871L89.3818 131.306L93.8255 121.733L84.2353 117.297L79.7917 126.871Z" fill="#30322C"/>
  <path d="M83.0238 137.918L91.5469 128.544L82.1564 120.036L73.6334 129.41L83.0238 137.918Z" fill="#B5EE85"/>
  <path d="M83.1204 139.482L72.167 129.555L82.1112 118.621L93.0646 128.548L83.1204 139.482ZM75.1524 129.413L82.9777 136.502L90.0793 128.69L82.2538 121.601L75.1524 129.413Z" fill="#30322C"/>
  <path d="M98.6973 136.964L98.6973 124.306L86.016 124.306L86.016 136.964L98.6973 136.964Z" fill="#F8E64B"/>
  <path d="M99.7538 138.015H84.959V123.247H99.7538V138.015ZM87.0725 135.906H97.6402V125.357H87.0725V135.906Z" fill="#30322C"/>
  <path d="M163.287 122.195L150.754 120.267L148.823 132.777L161.355 134.705L163.287 122.195Z" fill="#F8E64B"/>
  <path d="M162.251 135.969L147.631 133.722L149.882 119.128L164.502 121.374L162.251 135.969ZM150.04 131.955L160.486 133.564L162.098 123.136L151.652 121.527L150.04 131.955Z" fill="#30322C"/>
  <path d="M180.164 121.298L168.5 126.264L173.475 137.908L185.139 132.942L180.164 121.298Z" fill="#F8E64B"/>
  <path d="M172.914 139.387L167.112 125.805L180.718 120.014L186.52 133.601L172.914 139.387ZM169.881 126.913L174.029 136.618L183.751 132.477L179.603 122.772L169.881 126.913Z" fill="#30322C"/>
  <path d="M90.2754 153.132L90.2754 140.474L77.5942 140.474L77.5942 153.132L90.2754 153.132Z" fill="#F8E64B"/>
  <path d="M91.3319 154.192H76.5371V139.424H91.3319V154.192ZM78.6506 152.082H89.2183V141.533H78.6506V152.082Z" fill="#30322C"/>
  <path d="M66.2344 151.805L66.2344 139.146L53.5531 139.146L53.5531 151.805L66.2344 151.805Z" fill="#7C4FFF"/>
  <path d="M67.2889 152.863H52.4941V138.094H67.2889V152.863ZM54.6077 150.753H65.1754V140.204H54.6077V150.753Z" fill="#30322C"/>
  <path d="M72.0634 154.434L81.0303 145.483L72.0634 136.532L63.0965 145.483L72.0634 154.434Z" fill="#B5EE85"/>
  <path d="M72.0441 155.922L61.582 145.478L72.0441 135.035L82.5061 145.478L72.0441 155.922ZM64.5727 145.478L72.0441 152.937L79.5154 145.478L72.0441 138.021L64.5727 145.478Z" fill="#30322C"/>
  <path d="M111.576 140.559L99.1562 138.003L96.5959 150.401L109.016 152.957L111.576 140.559Z" fill="#B5EE85"/>
  <path d="M109.898 154.202L95.4102 151.222L98.3955 136.76L112.884 139.74L109.898 154.202ZM97.9041 149.577L108.255 151.708L110.39 141.375L100.039 139.244L97.9041 149.577Z" fill="#30322C"/>
  <path d="M97.953 139.437L86.6299 145.138L92.3402 156.44L103.663 150.74L97.953 139.437Z" fill="#7C4FFF"/>
  <path d="M91.8914 157.778L85.2285 144.592L98.4381 137.942L105.101 151.128L91.8914 157.778ZM88.0659 145.526L92.8267 154.946L102.264 150.194L97.503 140.774L88.0659 145.526Z" fill="#30322C"/>
  <path d="M97.953 139.437L86.6299 145.138L92.3402 156.44L103.663 150.74L97.953 139.437Z" fill="#7C4FFF"/>
  <path d="M91.8914 157.778L85.2285 144.592L98.4381 137.942L105.101 151.128L91.8914 157.778ZM88.0659 145.526L92.8267 154.946L102.264 150.194L97.503 140.774L88.0659 145.526Z" fill="#30322C"/>
  <path d="M107.833 122.206L96.5098 127.906L102.22 139.209L113.543 133.509L107.833 122.206Z" fill="#7C4FFF"/>
  <path d="M101.772 140.552L95.1094 127.366L108.319 120.715L114.982 133.901L101.772 140.552ZM97.9468 128.3L102.708 137.72L112.145 132.968L107.384 123.548L97.9468 128.3Z" fill="#30322C"/>
  <path d="M190.794 136.212L179.471 141.912L185.181 153.215L196.504 147.514L190.794 136.212Z" fill="#7C4FFF"/>
  <path d="M184.729 154.551L178.066 141.365L191.276 134.713L197.939 147.899L184.729 154.551ZM180.904 142.298L185.665 151.718L195.102 146.966L190.341 137.546L180.904 142.298Z" fill="#30322C"/>
  <path d="M196.493 128.403L184.987 123.08L179.655 134.565L191.161 139.888L196.493 128.403Z" fill="#7C4FFF"/>
  <path d="M191.603 141.28L178.182 135.072L184.401 121.675L197.822 127.883L191.603 141.28ZM180.987 134.044L190.578 138.479L195.021 128.906L185.431 124.471L180.987 134.044Z" fill="#30322C"/>
  <path d="M147.438 124.406L136.115 130.106L141.826 141.409L153.149 135.708L147.438 124.406Z" fill="#7C4FFF"/>
  <path d="M141.374 142.746L134.711 129.56L147.921 122.909L154.583 136.095L141.374 142.746ZM137.548 130.494L142.309 139.914L151.746 135.162L146.985 125.742L137.548 130.494Z" fill="#30322C"/>
  <path d="M169.282 123.051L157.959 128.751L163.669 140.054L174.992 134.354L169.282 123.051Z" fill="#F266FF"/>
  <path d="M163.219 141.391L156.556 128.205L169.765 121.554L176.428 134.74L163.219 141.391ZM159.393 129.138L164.154 138.559L173.591 133.806L168.83 124.386L159.393 129.138Z" fill="#30322C"/>
  <path d="M75.5747 121.848L63.0469 123.811L65.0137 136.316L77.5415 134.353L75.5747 121.848Z" fill="#7C4FFF"/>
  <path d="M64.1877 137.493L61.8945 122.904L76.5096 120.615L78.8028 135.204L64.1877 137.493ZM64.3039 124.661L65.9419 135.083L76.3828 133.448L74.7448 123.026L64.3039 124.661Z" fill="#30322C"/>
  <path d="M55.1217 124.128H44.3057V156.829H55.1217V124.128Z" fill="#F266FF"/>
  <path d="M56.1835 157.884H43.2539V123.073H56.1835V157.884ZM45.3622 155.774H54.0646V125.183H45.3622V155.774Z" fill="#30322C"/>
  <path d="M120.921 124.128H110.105V156.829H120.921V124.128Z" fill="#F266FF"/>
  <path d="M121.978 157.884H109.049V123.073H121.978V157.884ZM111.162 155.774H119.865V125.183H111.162V155.774Z" fill="#30322C"/>
  <path d="M110.111 147.862H55.127V156.829H110.111V147.862Z" fill="#F266FF"/>
  <path d="M111.162 157.884H54.0645V146.808H111.162V157.884ZM56.1833 155.774H109.054V148.917H56.1833V155.774Z" fill="#30322C"/>
  <path d="M110.111 132.831H55.127V141.797H110.111V132.831Z" fill="#F266FF"/>
  <path d="M111.162 142.852H54.0645V131.776H111.162V142.852ZM56.1833 140.742H109.054V133.885H56.1833V140.742Z" fill="#30322C"/>
  <path d="M139.89 124.128H129.074V156.829H139.89V124.128Z" fill="#B5EE85"/>
  <path d="M140.947 157.884H128.018V123.073H140.947V157.884ZM130.131 155.774H138.834V125.183H130.131V155.774Z" fill="#30322C"/>
  <path d="M205.689 124.128H194.873V156.829H205.689V124.128Z" fill="#B5EE85"/>
  <path d="M206.746 157.884H193.816V123.073H206.746V157.884ZM195.93 155.774H204.632V125.183H195.93V155.774Z" fill="#30322C"/>
  <path d="M194.874 147.862H139.891V156.829H194.874V147.862Z" fill="#B5EE85"/>
  <path d="M195.931 157.884H138.834V146.808H195.931V157.884ZM140.948 155.774H193.818V148.917H140.948V155.774Z" fill="#30322C"/>
  <path d="M194.874 132.831H139.891V141.797H194.874V132.831Z" fill="#B5EE85"/>
  <path d="M195.931 142.852H138.834V131.776H195.931V142.852ZM140.948 140.742H193.818V133.885H140.948V140.742Z" fill="#30322C"/>
  <path d="M238.83 156.908H11.1699V272.945H238.83V156.908Z" fill="#7C4FFF"/>
  <path d="M239.887 274H10.1133V155.853H239.887V274ZM12.2268 271.89H237.773V157.963H12.2268V271.89Z" fill="#30322C"/>
  <path d="M238.83 156.908H11.1699V172.731H238.83V156.908Z" fill="#5CB318"/>
  <path d="M239.887 173.786H10.1133V155.853H239.887V173.786ZM12.2268 171.677H237.773V157.963H12.2268V171.677Z" fill="#30322C"/>
  <path d="M225.697 156.903L225.697 57.3858H212.562L212.562 156.903H225.697Z" fill="#5CB318"/>
  <path d="M226.751 157.958H211.502V56.3305H226.751V157.958ZM213.615 155.848H224.638V58.4403H213.615V155.848Z" fill="#30322C"/>
  <path d="M37.4414 156.901L37.4414 57.3835H24.3058L24.3058 156.901H37.4414Z" fill="#5CB318"/>
  <path d="M38.4933 157.958H23.2441V56.3305H38.4933V157.958ZM25.363 155.848H36.3851V58.4403H25.363V155.848Z" fill="#30322C"/>
  <path d="M52.2301 190.664H39.5488V203.323H52.2301V190.664Z" fill="#B5EE85"/>
  <path d="M53.287 204.378H38.4922V189.61H53.287V204.378ZM40.6057 202.268H51.1734V191.719H40.6057V202.268Z" fill="#30322C"/>
  <path d="M52.2301 203.323H39.5488V215.982H52.2301V203.323Z" fill="#B5EE85"/>
  <path d="M53.287 217.036H38.4922V202.268H53.287V217.036ZM40.6057 214.927H51.1734V204.378H40.6057V214.927Z" fill="#30322C"/>
  <path d="M64.9117 203.323H52.2305V215.982H64.9117V203.323Z" fill="#B5EE85"/>
  <path d="M65.9686 217.036H51.1738V202.268H65.9686V217.036ZM53.2874 214.927H63.8551V204.378H53.2874V214.927Z" fill="#30322C"/>
  <path d="M39.5504 203.323H26.8691V215.982H39.5504V203.323Z" fill="#F266FF"/>
  <path d="M40.6063 217.036H25.8115V202.268H40.6063V217.036ZM27.9251 214.927H38.4928V204.378H27.9251V214.927Z" fill="#30322C"/>
  <path d="M52.2301 215.982H39.5488V228.64H52.2301V215.982Z" fill="#B5EE85"/>
  <path d="M53.287 229.695H38.4922V214.927H53.287V229.695ZM40.6057 227.585H51.1734V217.037H40.6057V227.585Z" fill="#30322C"/>
  <path d="M52.2301 228.64H39.5488V241.299H52.2301V228.64Z" fill="#B5EE85"/>
  <path d="M53.287 242.354H38.4922V227.585H53.287V242.354ZM40.6057 240.244H51.1734V229.695H40.6057V240.244Z" fill="#30322C"/>
  <path d="M52.2301 241.299H39.5488V253.957H52.2301V241.299Z" fill="#B5EE85"/>
  <path d="M53.287 255.012H38.4922V240.244H53.287V255.012ZM40.6057 252.902H51.1734V242.354H40.6057V252.902Z" fill="#30322C"/>
  <path d="M115.637 190.664H102.956V203.323H115.637V190.664Z" fill="#B5EE85"/>
  <path d="M116.694 204.378H101.899V189.61H116.694V204.378ZM104.013 202.268H114.581V191.719H104.013V202.268Z" fill="#30322C"/>
  <path d="M115.637 203.323H102.956V215.982H115.637V203.323Z" fill="#B5EE85"/>
  <path d="M116.694 217.036H101.899V202.268H116.694V217.036ZM104.013 214.927H114.581V204.378H104.013V214.927Z" fill="#30322C"/>
  <path d="M115.637 215.982H102.956V228.64H115.637V215.982Z" fill="#F8E64B"/>
  <path d="M116.694 229.695H101.899V214.927H116.694V229.695ZM104.013 227.585H114.581V217.037H104.013V227.585Z" fill="#30322C"/>
  <path d="M115.637 228.64H102.956V241.299H115.637V228.64Z" fill="#B5EE85"/>
  <path d="M116.694 242.354H101.899V227.585H116.694V242.354ZM104.013 240.244H114.581V229.695H104.013V240.244Z" fill="#30322C"/>
  <path d="M115.637 241.299H102.956V253.957H115.637V241.299Z" fill="#B5EE85"/>
  <path d="M116.694 255.012H101.899V240.244H116.694V255.012ZM104.013 252.902H114.581V242.354H104.013V252.902Z" fill="#30322C"/>
  <path d="M141 190.664H128.318V203.323H141V190.664Z" fill="#B5EE85"/>
  <path d="M142.056 204.378H127.262V189.61H142.056V204.378ZM129.375 202.268H139.943V191.719H129.375V202.268Z" fill="#30322C"/>
  <path d="M153.681 190.664H141V203.323H153.681V190.664Z" fill="#F266FF"/>
  <path d="M154.738 204.378H139.943V189.61H154.738V204.378ZM142.057 202.268H152.625V191.719H142.057V202.268Z" fill="#30322C"/>
  <path d="M166.363 190.664H153.682V203.323H166.363V190.664Z" fill="#B5EE85"/>
  <path d="M167.419 204.378H152.624V189.61H167.419V204.378ZM154.738 202.268H165.305V191.719H154.738V202.268Z" fill="#30322C"/>
  <path d="M153.681 215.982H141V228.64H153.681V215.982Z" fill="#B5EE85"/>
  <path d="M154.738 229.695H139.943V214.927H154.738V229.695ZM142.057 227.585H152.625V217.037H142.057V227.585Z" fill="#30322C"/>
  <path d="M166.363 215.982H153.682V228.64H166.363V215.982Z" fill="#B5EE85"/>
  <path d="M167.419 229.695H152.624V214.927H167.419V229.695ZM154.738 227.585H165.305V217.037H154.738V227.585Z" fill="#30322C"/>
  <path d="M153.681 241.299H141V253.957H153.681V241.299Z" fill="#B5EE85"/>
  <path d="M154.738 255.012H139.943V240.244H154.738V255.012ZM142.057 252.902H152.625V242.354H142.057V252.902Z" fill="#30322C"/>
  <path d="M166.363 241.299H153.682V253.957H166.363V241.299Z" fill="#B5EE85"/>
  <path d="M167.419 255.012H152.624V240.244H167.419V255.012ZM154.738 252.902H165.305V242.354H154.738V252.902Z" fill="#30322C"/>
  <path d="M141 203.323H128.318V215.982H141V203.323Z" fill="#B5EE85"/>
  <path d="M142.056 217.036H127.262V202.268H142.056V217.036ZM129.375 214.927H139.943V204.378H129.375V214.927Z" fill="#30322C"/>
  <path d="M141 215.982H128.318V228.64H141V215.982Z" fill="#B5EE85"/>
  <path d="M142.056 229.695H127.262V214.927H142.056V229.695ZM129.375 227.585H139.943V217.037H129.375V227.585Z" fill="#30322C"/>
  <path d="M191.724 190.664H179.043V203.323H191.724V190.664Z" fill="#B5EE85"/>
  <path d="M192.781 204.378H177.986V189.609H192.781V204.378ZM180.1 202.268H190.668V191.719H180.1V202.268Z" fill="#30322C"/>
  <path d="M204.406 190.664H191.725V203.323H204.406V190.664Z" fill="#B5EE85"/>
  <path d="M205.463 204.378H190.668V189.61H205.463V204.378ZM192.782 202.268H203.349V191.719H192.782V202.268Z" fill="#30322C"/>
  <path d="M217.087 190.664H204.405V203.323H217.087V190.664Z" fill="#B5EE85"/>
  <path d="M218.144 204.378H203.35V189.61H218.144V204.378ZM205.463 202.268H216.031V191.719H205.463V202.268Z" fill="#30322C"/>
  <path d="M204.406 215.982H191.725V228.64H204.406V215.982Z" fill="#B5EE85"/>
  <path d="M205.463 229.695H190.668V214.927H205.463V229.695ZM192.782 227.585H203.349V217.037H192.782V227.585Z" fill="#30322C"/>
  <path d="M217.087 215.982H204.405V228.64H217.087V215.982Z" fill="#B5EE85"/>
  <path d="M218.144 229.695H203.35V214.927H218.144V229.695ZM205.463 227.585H216.031V217.037H205.463V227.585Z" fill="#30322C"/>
  <path d="M217.087 228.64H204.405V241.299H217.087V228.64Z" fill="#B5EE85"/>
  <path d="M218.144 242.354H203.35V227.585H218.144V242.354ZM205.463 240.244H216.031V229.695H205.463V240.244Z" fill="#30322C"/>
  <path d="M191.724 203.323H179.043V215.982H191.724V203.323Z" fill="#B5EE85"/>
  <path d="M192.781 217.037H177.986V202.268H192.781V217.037ZM180.1 214.927H190.668V204.378H180.1V214.927Z" fill="#30322C"/>
  <path d="M191.724 215.982H179.043V228.64H191.724V215.982Z" fill="#B5EE85"/>
  <path d="M192.781 229.695H177.986V214.927H192.781V229.695ZM180.1 227.585H190.668V217.037H180.1V227.585Z" fill="#30322C"/>
  <path d="M204.406 241.299H191.725V253.957H204.406V241.299Z" fill="#B5EE85"/>
  <path d="M205.463 255.012H190.668V240.244H205.463V255.012ZM192.782 252.902H203.349V242.354H192.782V252.902Z" fill="#30322C"/>
  <path d="M217.087 241.299H204.405V253.957H217.087V241.299Z" fill="#5CB318"/>
  <path d="M218.144 255.012H203.35V240.244H218.144V255.012ZM205.463 252.902H216.031V242.354H205.463V252.902Z" fill="#30322C"/>
  <path d="M191.724 241.299H179.043V253.957H191.724V241.299Z" fill="#B5EE85"/>
  <path d="M192.781 255.012H177.986V240.244H192.781V255.012ZM180.1 252.902H190.668V242.354H180.1V252.902Z" fill="#30322C"/>
  <path d="M141 228.64H128.318V241.299H141V228.64Z" fill="#B5EE85"/>
  <path d="M142.056 242.354H127.262V227.585H142.056V242.354ZM129.375 240.244H139.943V229.695H129.375V240.244Z" fill="#30322C"/>
  <path d="M141 241.299H128.318V253.957H141V241.299Z" fill="#B5EE85"/>
  <path d="M142.056 255.012H127.262V240.244H142.056V255.012ZM129.375 252.902H139.943V242.354H129.375V252.902Z" fill="#30322C"/>
  <path d="M90.275 190.664H77.5938V203.323H90.275V190.664Z" fill="#B5EE85"/>
  <path d="M91.3319 204.378H76.5371V189.61H91.3319V204.378ZM78.6506 202.268H89.2183V191.719H78.6506V202.268Z" fill="#30322C"/>
  <path d="M90.275 215.982H77.5938V228.64H90.275V215.982Z" fill="#B5EE85"/>
  <path d="M91.3319 229.695H76.5371V214.927H91.3319V229.695ZM78.6506 227.585H89.2183V217.037H78.6506V227.585Z" fill="#30322C"/>
  <path d="M90.275 228.64H77.5938V241.299H90.275V228.64Z" fill="#B5EE85"/>
  <path d="M91.3319 242.354H76.5371V227.585H91.3319V242.354ZM78.6506 240.244H89.2183V229.695H78.6506V240.244Z" fill="#30322C"/>
  <path d="M90.275 241.299H77.5938V253.957H90.275V241.299Z" fill="#B5EE85"/>
  <path d="M91.3319 255.012H76.5371V240.244H91.3319V255.012ZM78.6506 252.902H89.2183V242.354H78.6506V252.902Z" fill="#30322C"/>
  <path d="M64.9117 241.299H52.2305V253.957H64.9117V241.299Z" fill="#B5EE85"/>
  <path d="M65.9686 255.012H51.1738V240.244H65.9686V255.012ZM53.2874 252.902H63.8551V242.354H53.2874V252.902Z" fill="#30322C"/>
  <path d="M225.747 1.05493H24.358C24.358 1.05493 1.06152 55.3127 1.06152 61.2833C1.06152 73.3142 10.8313 83.0666 22.8838 83.0666C28.4952 83.0666 33.6047 80.9516 37.4725 77.481C41.3403 80.9516 46.4498 83.0666 52.0612 83.0666C57.6727 83.0666 62.7822 80.9516 66.6499 77.481C70.5177 80.9516 75.6272 83.0666 81.2386 83.0666C86.8501 83.0666 91.9596 80.9516 95.8273 77.481C99.6951 80.9516 104.805 83.0666 110.416 83.0666C116.027 83.0666 121.137 80.9516 125.005 77.481C128.873 80.9516 133.982 83.0666 139.593 83.0666C145.205 83.0666 150.314 80.9516 154.182 77.481C158.05 80.9516 163.159 83.0666 168.771 83.0666C174.382 83.0666 179.492 80.9516 183.36 77.481C187.227 80.9516 192.337 83.0666 197.948 83.0666C203.56 83.0666 208.669 80.9516 212.537 77.481C216.405 80.9516 221.514 83.0666 227.126 83.0666C239.178 83.0666 248.948 73.3142 248.948 61.2833C248.943 56.6155 225.747 1.05493 225.747 1.05493Z" fill="#B5EE85"/>
  <path d="M227.121 84.1215C221.774 84.1215 216.633 82.2649 212.532 78.8735C208.432 82.2649 203.291 84.1215 197.944 84.1215C192.596 84.1215 187.455 82.2649 183.355 78.8735C179.255 82.2649 174.113 84.1215 168.766 84.1215C163.419 84.1215 158.278 82.2649 154.177 78.8735C150.077 82.2649 144.936 84.1215 139.589 84.1215C134.241 84.1215 129.1 82.2649 125 78.8735C120.9 82.2649 115.759 84.1215 110.411 84.1215C105.064 84.1215 99.9229 82.2649 95.8226 78.8735C91.7223 82.2649 86.5811 84.1215 81.2339 84.1215C75.8866 84.1215 70.7455 82.2649 66.6452 78.8735C62.5449 82.2649 57.4037 84.1215 52.0565 84.1215C46.7092 84.1215 41.568 82.2649 37.4677 78.8735C33.3675 82.2649 28.2263 84.1215 22.879 84.1215C10.2665 84.1215 0 73.8786 0 61.2833C0 55.2652 20.9927 6.21323 23.3863 0.638182L23.6611 0H226.45L226.719 0.648741C229.102 6.35565 250 56.5416 250 61.2833C250 73.8786 239.739 84.1215 227.121 84.1215ZM212.532 76.0622L213.24 76.6951C217.055 80.1234 221.985 82.0117 227.121 82.0117C238.571 82.0117 247.887 72.7129 247.887 61.2833C247.887 58.0448 234.328 24.3783 225.039 2.10976H25.0507C18.4089 17.6112 2.11354 56.626 2.11354 61.2833C2.11354 72.7129 11.4289 82.0117 22.879 82.0117C28.0149 82.0117 32.9448 80.1234 36.7597 76.6951L37.4677 76.0622L38.1758 76.6951C41.9907 80.1234 46.9206 82.0117 52.0565 82.0117C57.1924 82.0117 62.1222 80.1234 65.9371 76.6951L66.6452 76.0622L67.3532 76.6951C71.1682 80.1234 76.098 82.0117 81.2339 82.0117C86.3698 82.0117 91.2996 80.1234 95.1146 76.6951L95.8226 76.0622L96.5306 76.6951C100.346 80.1234 105.275 82.0117 110.411 82.0117C115.547 82.0117 120.477 80.1234 124.292 76.6951L125 76.0622L125.708 76.6951C129.523 80.1234 134.453 82.0117 139.589 82.0117C144.725 82.0117 149.654 80.1234 153.469 76.6951L154.177 76.0622L154.885 76.6951C158.7 80.1234 163.63 82.0117 168.766 82.0117C173.902 82.0117 178.832 80.1234 182.647 76.6951L183.355 76.0622L184.063 76.6951C187.878 80.1234 192.808 82.0117 197.944 82.0117C203.079 82.0117 208.009 80.1234 211.824 76.6951L212.532 76.0622Z" fill="#30322C"/>
  <path d="M18.2031 15.8233L24.3535 1.05493H225.747L231.834 15.8233H18.2031Z" fill="#5CB318"/>
  <path d="M233.413 16.8781H16.6221L23.6496 0H226.454L233.413 16.8781ZM19.7871 14.7683H230.253L225.033 2.10976H25.0551L19.7871 14.7683Z" fill="#30322C"/>
  <path d="M126.057 35.618H123.943V77.4756H126.057V35.618Z" fill="#30322C"/>
  <path d="M150.035 35.4958L147.938 35.7537L153.1 77.6115L155.198 77.3537L150.035 35.4958Z" fill="#30322C"/>
  <path d="M175.615 35.4486L173.546 35.8799L182.302 77.7373L184.371 77.3061L175.615 35.4486Z" fill="#30322C"/>
  <path d="M200.012 35.2299L198 35.8768L211.508 77.735L213.519 77.0881L200.012 35.2299Z" fill="#30322C"/>
  <path d="M100.271 35.5815L95.1123 77.4393L97.21 77.6969L102.369 35.8391L100.271 35.5815Z" fill="#30322C"/>
  <path d="M74.8053 35.438L66.041 77.2953L68.11 77.727L76.8742 35.8697L74.8053 35.438Z" fill="#30322C"/>
  <path d="M50.3052 35.3224L36.793 77.1807L38.8046 77.8277L52.3168 35.9695L50.3052 35.3224Z" fill="#30322C"/>
</svg>
