<svg width="18" height="10" viewBox="0 0 18 10" fill="none" xmlns="http://www.w3.org/2000/svg">
<path d="M9 0.999999L9.70711 0.292892C9.51957 0.105356 9.26522 -6.76196e-07 9 -6.99382e-07C8.73478 -7.22568e-07 8.48043 0.105355 8.29289 0.292892L9 0.999999ZM0.292893 8.29289C-0.0976314 8.68342 -0.0976315 9.31658 0.292892 9.70711C0.683418 10.0976 1.31658 10.0976 1.70711 9.70711L0.292893 8.29289ZM16.2929 9.70711C16.6834 10.0976 17.3166 10.0976 17.7071 9.70711C18.0976 9.31658 18.0976 8.68342 17.7071 8.29289L16.2929 9.70711ZM8.29289 0.292892L0.292893 8.29289L1.70711 9.70711L9.70711 1.70711L8.29289 0.292892ZM8.29289 1.70711L16.2929 9.70711L17.7071 8.29289L9.70711 0.292892L8.29289 1.70711Z" fill="#333333"/>
</svg>
