<svg width="28" height="28" viewBox="0 0 28 28" fill="none" xmlns="http://www.w3.org/2000/svg">
<g clip-path="url(#clip0_127_5315)">
<path d="M22.6348 4.80319H5.34668V20.516H22.6348V4.80319Z" fill="white"/>
<path fill-rule="evenodd" clip-rule="evenodd" d="M27.9906 14C27.9906 21.7218 21.7269 27.9814 14 27.9814C6.27312 27.9814 0.00927734 21.7218 0.00927734 14C0.00927734 6.27829 6.27312 0.0186157 14 0.0186157C21.7269 0.0186157 27.9906 6.27829 27.9906 14ZM10.0354 19.5639H7.3202C6.74966 19.5639 6.46783 19.5639 6.29599 19.454C6.11039 19.3338 5.99697 19.1346 5.98323 18.9147C5.9729 18.7122 6.11384 18.4648 6.39566 17.9702L13.0998 6.16102C13.3851 5.65955 13.5294 5.40882 13.7116 5.31609C13.9075 5.21649 14.1412 5.21649 14.3371 5.31609C14.5193 5.40882 14.6637 5.65955 14.9489 6.16102L16.3271 8.5653L16.3342 8.57757C16.6423 9.11554 16.7985 9.38836 16.8667 9.67469C16.9423 9.98725 16.9423 10.317 16.8667 10.6295C16.798 10.918 16.6433 11.1928 16.3306 11.7389L12.809 17.9599L12.7999 17.9758C12.4898 18.5182 12.3326 18.7931 12.1148 19.0005C11.8776 19.2273 11.5924 19.392 11.2796 19.4849C10.9943 19.5639 10.6747 19.5639 10.0354 19.5639ZM16.8922 19.5639H20.7827C21.3567 19.5639 21.6455 19.5639 21.8174 19.4507C22.003 19.3304 22.1198 19.1277 22.1302 18.908C22.1401 18.712 22.0022 18.4742 21.7321 18.0084C21.7228 17.9925 21.7135 17.9764 21.704 17.9599L19.7551 14.6283L19.733 14.5908C19.4591 14.128 19.3209 13.8943 19.1434 13.804C18.9476 13.7044 18.7171 13.7044 18.5213 13.804C18.3426 13.8967 18.1982 14.1406 17.913 14.6317L15.9711 17.9634L15.9644 17.9749C15.6801 18.4652 15.5381 18.7103 15.5483 18.9114C15.5621 19.1312 15.6755 19.3338 15.8611 19.454C16.0295 19.5639 16.3182 19.5639 16.8922 19.5639Z" fill="#E84142"/>
</g>
<defs>
<clipPath id="clip0_127_5315">
<rect width="28" height="28" fill="white"/>
</clipPath>
</defs>
</svg>
