<svg width="28" height="28" viewBox="0 0 28 28" fill="none" xmlns="http://www.w3.org/2000/svg">
<g clip-path="url(#clip0_127_2713)">
<path d="M27.5795 17.3867C25.7097 24.8867 18.1133 29.4511 10.6123 27.5809C3.11452 25.7111 -1.44988 18.1142 0.420744 10.6148C2.28972 3.11387 9.88608 -1.45087 17.3847 0.418928C24.8851 2.28873 29.4493 9.88639 27.5793 17.3868L27.5794 17.3867H27.5795Z" fill="#F7931A"/>
<path d="M20.1737 12.0053C20.4523 10.1422 19.0339 9.14075 17.0943 8.47266L17.7235 5.94894L16.1873 5.56614L15.5747 8.02341C15.1709 7.92268 14.7561 7.82777 14.3439 7.73368L14.9608 5.26018L13.4255 4.87738L12.796 7.40028C12.4618 7.32419 12.1335 7.24898 11.815 7.16974L11.8168 7.1618L9.69825 6.63277L9.28958 8.2736C9.28958 8.2736 10.4294 8.53486 10.4053 8.55095C11.0275 8.70622 11.14 9.11803 11.1213 9.44445L10.4045 12.3196C10.4474 12.3304 10.5029 12.3462 10.5642 12.3708C10.513 12.3581 10.4584 12.3442 10.4019 12.3306L9.39722 16.3583C9.3212 16.5473 9.12822 16.8309 8.69328 16.7232C8.70867 16.7455 7.57669 16.4446 7.57669 16.4446L6.81396 18.2031L8.81317 18.7015C9.18509 18.7947 9.54955 18.8923 9.90847 18.9841L9.27275 21.5368L10.8072 21.9196L11.4368 19.394C11.856 19.5078 12.2628 19.6128 12.6611 19.7117L12.0337 22.2254L13.57 22.6082L14.2056 20.0603C16.8253 20.5561 18.7951 20.3562 19.6242 17.9867C20.2923 16.079 19.5909 14.9786 18.2127 14.2611C19.2166 14.0296 19.9726 13.3694 20.1742 12.0055L20.1738 12.0052L20.1737 12.0053ZM16.6637 16.9273C16.1889 18.835 12.9769 17.8037 11.9355 17.5451L12.7791 14.1633C13.8204 14.4233 17.1599 14.9377 16.6637 16.9273H16.6637ZM17.1388 11.9777C16.7057 13.7129 14.0323 12.8314 13.1651 12.6152L13.9299 9.54805C14.7972 9.76422 17.59 10.1677 17.1389 11.9777H17.1388Z" fill="white"/>
</g>
<defs>
<clipPath id="clip0_127_2713">
<rect width="28" height="28" fill="white"/>
</clipPath>
</defs>
</svg>
