<svg width="271" height="60" viewBox="0 0 271 60" fill="none" xmlns="http://www.w3.org/2000/svg">
<g filter="url(#filter0_d_532_1893)">
<mask id="path-1-outside-1_532_1893" maskUnits="userSpaceOnUse" x="93" y="12" width="176" height="41" fill="black">
<rect fill="white" x="93" y="12" width="176" height="41"/>
<path d="M104.949 15.4636C109.386 15.4636 112.821 16.6606 115.254 19.0546C117.687 21.4208 118.904 24.8169 118.904 29.243C118.904 33.6413 117.687 37.0375 115.254 39.4315C112.821 41.8255 109.386 43.0225 104.949 43.0225H94V15.4636H104.949ZM104.649 38.4293C107.339 38.4293 109.357 37.6499 110.703 36.091C112.077 34.5043 112.764 32.2216 112.764 29.243C112.764 26.2645 112.077 23.9957 110.703 22.4368C109.357 20.8501 107.339 20.0567 104.649 20.0567H99.9254V38.4293H104.649Z"/>
<path d="M127.097 19.1381C125.866 19.1381 124.95 18.8876 124.349 18.3865C123.748 17.8576 123.448 17.0921 123.448 16.0899C123.448 15.06 123.748 14.2944 124.349 13.7934C124.95 13.2645 125.866 13 127.097 13C128.328 13 129.244 13.2645 129.845 13.7934C130.446 14.2944 130.747 15.06 130.747 16.0899C130.747 17.0921 130.446 17.8576 129.845 18.3865C129.244 18.8876 128.328 19.1381 127.097 19.1381ZM130.017 22.1445V43.0225H124.135V22.1445H130.017Z"/>
<path d="M156.047 17.1756L156.734 21.2677C156.619 21.2677 156.491 21.2677 156.348 21.2677C156.233 21.2398 156.104 21.2259 155.961 21.2259C154.644 21.2259 153.657 21.5182 152.998 22.1028C152.34 22.6595 152.011 23.439 152.011 24.4411L149.606 23.4807C149.606 22.3672 149.835 21.3373 150.293 20.3908C150.751 19.4165 151.424 18.637 152.311 18.0525C153.227 17.4679 154.315 17.1756 155.575 17.1756C155.632 17.1756 155.703 17.1756 155.789 17.1756C155.875 17.1756 155.961 17.1756 156.047 17.1756ZM149.005 39.0974C151.324 39.0974 153.113 39.5846 154.372 40.5589C155.632 41.5332 156.262 42.8972 156.262 44.651C156.262 46.2377 155.789 47.5739 154.845 48.6595C153.9 49.773 152.569 50.6081 150.852 51.1649C149.163 51.7216 147.202 52 144.969 52C141.276 52 138.571 51.4989 136.854 50.4968C135.165 49.4946 134.321 48.1863 134.321 46.5717C134.321 45.4304 134.764 44.47 135.652 43.6906C136.568 42.9111 138.07 42.4797 140.16 42.3961L139.945 43.0642C138.457 42.8137 137.312 42.3405 136.51 41.6445C135.737 40.9208 135.351 39.9325 135.351 38.6799C135.351 37.3994 135.852 36.3555 136.854 35.5482C137.884 34.7131 139.273 34.2259 141.019 34.0867L143.595 35.2559H142.994C141.763 35.3394 140.89 35.5899 140.375 36.0075C139.888 36.3972 139.645 36.8426 139.645 37.3437C139.645 37.9283 139.874 38.3737 140.332 38.6799C140.818 38.9582 141.505 39.0974 142.393 39.0974H149.005ZM145.012 48.0749C146.501 48.0749 147.717 47.9497 148.662 47.6991C149.635 47.4486 150.351 47.1285 150.809 46.7388C151.295 46.349 151.539 45.9176 151.539 45.4443C151.539 44.9154 151.324 44.4839 150.894 44.1499C150.465 43.8437 149.692 43.6906 148.576 43.6906H141.319C140.632 43.6906 140.06 43.8576 139.602 44.1916C139.172 44.5257 138.958 44.985 138.958 45.5696C138.958 46.349 139.487 46.9615 140.546 47.4069C141.634 47.8522 143.123 48.0749 145.012 48.0749ZM145.055 21.727C147.059 21.727 148.791 22.0193 150.25 22.6039C151.739 23.1606 152.87 23.9679 153.642 25.0257C154.444 26.0835 154.845 27.3501 154.845 28.8255C154.845 30.273 154.444 31.5257 153.642 32.5835C152.87 33.6413 151.739 34.4625 150.25 35.0471C148.791 35.6039 147.059 35.8822 145.055 35.8822C141.878 35.8822 139.444 35.2559 137.756 34.0032C136.095 32.7227 135.265 30.9968 135.265 28.8255C135.265 27.3501 135.652 26.0835 136.424 25.0257C137.226 23.9679 138.357 23.1606 139.817 22.6039C141.276 22.0193 143.023 21.727 145.055 21.727ZM145.055 25.318C143.91 25.318 142.965 25.6242 142.221 26.2366C141.477 26.849 141.105 27.6981 141.105 28.7837C141.105 29.8694 141.477 30.7323 142.221 31.3726C142.965 31.985 143.91 32.2912 145.055 32.2912C146.2 32.2912 147.13 31.985 147.846 31.3726C148.59 30.7323 148.962 29.8694 148.962 28.7837C148.962 27.6981 148.59 26.849 147.846 26.2366C147.13 25.6242 146.2 25.318 145.055 25.318Z"/>
<path d="M162.781 19.1381C161.55 19.1381 160.634 18.8876 160.033 18.3865C159.432 17.8576 159.131 17.0921 159.131 16.0899C159.131 15.06 159.432 14.2944 160.033 13.7934C160.634 13.2645 161.55 13 162.781 13C164.012 13 164.928 13.2645 165.529 13.7934C166.13 14.2944 166.431 15.06 166.431 16.0899C166.431 17.0921 166.13 17.8576 165.529 18.3865C164.928 18.8876 164.012 19.1381 162.781 19.1381ZM165.701 22.1445V43.0225H159.818V22.1445H165.701Z"/>
<path d="M194.532 15.4636V20.0985H185.042V43.0225H179.117V20.0985H169.585V15.4636H194.532Z"/>
<path d="M201.148 19.1381C199.917 19.1381 199.001 18.8876 198.4 18.3865C197.799 17.8576 197.498 17.0921 197.498 16.0899C197.498 15.06 197.799 14.2944 198.4 13.7934C199.001 13.2645 199.917 13 201.148 13C202.379 13 203.295 13.2645 203.896 13.7934C204.497 14.2944 204.798 15.06 204.798 16.0899C204.798 17.0921 204.497 17.8576 203.896 18.3865C203.295 18.8876 202.379 19.1381 201.148 19.1381ZM204.068 22.1445V43.0225H198.185V22.1445H204.068Z"/>
<path d="M216.1 13V36.5921C216.1 37.5664 216.272 38.2484 216.615 38.6381C216.959 39.0278 217.531 39.2227 218.333 39.2227C218.819 39.2227 219.22 39.1949 219.535 39.1392C219.85 39.0557 220.251 38.9443 220.737 38.8051L220.222 42.5632C219.735 42.8415 219.12 43.0503 218.376 43.1895C217.66 43.3565 216.944 43.44 216.229 43.44C214.139 43.44 212.608 42.9529 211.635 41.9786C210.69 40.9764 210.218 39.3897 210.218 37.2184V13H216.1Z"/>
<path d="M233.977 43.44C231.715 43.44 229.74 43.0086 228.051 42.1456C226.391 41.2827 225.103 40.0439 224.187 38.4293C223.271 36.8148 222.813 34.8662 222.813 32.5835C222.813 30.3009 223.271 28.3523 224.187 26.7377C225.103 25.1231 226.377 23.8844 228.008 23.0214C229.668 22.1585 231.558 21.727 233.676 21.727C235.852 21.727 237.698 22.1585 239.215 23.0214C240.732 23.8565 241.891 25.0118 242.693 26.4872C243.494 27.9347 243.895 29.591 243.895 31.4561C243.895 32.0128 243.881 32.5418 243.852 33.0428C243.824 33.5439 243.781 33.9893 243.723 34.379H226.591V30.4122H241.147L238.313 31.4143C238.313 29.6606 237.898 28.3105 237.068 27.364C236.267 26.4176 235.122 25.9443 233.633 25.9443C232.545 25.9443 231.601 26.1949 230.799 26.6959C230.026 27.197 229.439 27.9486 229.039 28.9507C228.638 29.9251 228.438 31.1638 228.438 32.667C228.438 34.1424 228.652 35.3672 229.082 36.3415C229.54 37.288 230.169 37.9979 230.971 38.4711C231.801 38.9443 232.789 39.1809 233.934 39.1809C235.193 39.1809 236.209 38.9443 236.982 38.4711C237.755 37.9979 238.356 37.3437 238.786 36.5086L243.466 38.2623C243.008 39.348 242.306 40.2805 241.362 41.06C240.446 41.8394 239.344 42.4379 238.056 42.8555C236.796 43.2452 235.436 43.44 233.977 43.44Z"/>
<path d="M257.468 43.44C255.292 43.44 253.303 43.0642 251.499 42.3126C249.725 41.561 248.279 40.5032 247.163 39.1392L250.555 35.7987C251.242 36.8009 252.158 37.6221 253.303 38.2623C254.448 38.9026 255.808 39.2227 257.382 39.2227C258.498 39.2227 259.386 39.0696 260.044 38.7634C260.731 38.4293 261.075 37.9143 261.075 37.2184C261.075 36.773 260.917 36.3972 260.602 36.091C260.287 35.757 259.658 35.4925 258.713 35.2976L254.935 34.546C252.444 34.045 250.669 33.2934 249.61 32.2912C248.58 31.2612 248.064 29.939 248.064 28.3244C248.064 27.1831 248.408 26.1114 249.095 25.1092C249.811 24.1071 250.87 23.2998 252.272 22.6874C253.675 22.0471 255.421 21.727 257.511 21.727C259.658 21.727 261.518 22.061 263.093 22.7291C264.696 23.3694 265.955 24.3298 266.871 25.6103L263.35 28.9507C262.721 27.9764 261.89 27.2388 260.86 26.7377C259.858 26.2088 258.799 25.9443 257.683 25.9443C256.881 25.9443 256.194 26.0278 255.622 26.1949C255.049 26.3619 254.62 26.5985 254.333 26.9047C254.047 27.1831 253.904 27.545 253.904 27.9904C253.904 28.4358 254.104 28.8255 254.505 29.1595C254.906 29.4657 255.636 29.7302 256.695 29.9529L261.075 30.8298C263.193 31.2473 264.71 31.9572 265.626 32.9593C266.542 33.9336 267 35.1167 267 36.5086C267 37.8448 266.628 39.0418 265.884 40.0996C265.168 41.1296 264.095 41.9508 262.663 42.5632C261.261 43.1478 259.529 43.44 257.468 43.44Z"/>
</mask>
<path d="M104.949 15.4636C109.386 15.4636 112.821 16.6606 115.254 19.0546C117.687 21.4208 118.904 24.8169 118.904 29.243C118.904 33.6413 117.687 37.0375 115.254 39.4315C112.821 41.8255 109.386 43.0225 104.949 43.0225H94V15.4636H104.949ZM104.649 38.4293C107.339 38.4293 109.357 37.6499 110.703 36.091C112.077 34.5043 112.764 32.2216 112.764 29.243C112.764 26.2645 112.077 23.9957 110.703 22.4368C109.357 20.8501 107.339 20.0567 104.649 20.0567H99.9254V38.4293H104.649Z" fill="#FEFDF1"/>
<path d="M127.097 19.1381C125.866 19.1381 124.95 18.8876 124.349 18.3865C123.748 17.8576 123.448 17.0921 123.448 16.0899C123.448 15.06 123.748 14.2944 124.349 13.7934C124.95 13.2645 125.866 13 127.097 13C128.328 13 129.244 13.2645 129.845 13.7934C130.446 14.2944 130.747 15.06 130.747 16.0899C130.747 17.0921 130.446 17.8576 129.845 18.3865C129.244 18.8876 128.328 19.1381 127.097 19.1381ZM130.017 22.1445V43.0225H124.135V22.1445H130.017Z" fill="#FEFDF1"/>
<path d="M156.047 17.1756L156.734 21.2677C156.619 21.2677 156.491 21.2677 156.348 21.2677C156.233 21.2398 156.104 21.2259 155.961 21.2259C154.644 21.2259 153.657 21.5182 152.998 22.1028C152.34 22.6595 152.011 23.439 152.011 24.4411L149.606 23.4807C149.606 22.3672 149.835 21.3373 150.293 20.3908C150.751 19.4165 151.424 18.637 152.311 18.0525C153.227 17.4679 154.315 17.1756 155.575 17.1756C155.632 17.1756 155.703 17.1756 155.789 17.1756C155.875 17.1756 155.961 17.1756 156.047 17.1756ZM149.005 39.0974C151.324 39.0974 153.113 39.5846 154.372 40.5589C155.632 41.5332 156.262 42.8972 156.262 44.651C156.262 46.2377 155.789 47.5739 154.845 48.6595C153.9 49.773 152.569 50.6081 150.852 51.1649C149.163 51.7216 147.202 52 144.969 52C141.276 52 138.571 51.4989 136.854 50.4968C135.165 49.4946 134.321 48.1863 134.321 46.5717C134.321 45.4304 134.764 44.47 135.652 43.6906C136.568 42.9111 138.07 42.4797 140.16 42.3961L139.945 43.0642C138.457 42.8137 137.312 42.3405 136.51 41.6445C135.737 40.9208 135.351 39.9325 135.351 38.6799C135.351 37.3994 135.852 36.3555 136.854 35.5482C137.884 34.7131 139.273 34.2259 141.019 34.0867L143.595 35.2559H142.994C141.763 35.3394 140.89 35.5899 140.375 36.0075C139.888 36.3972 139.645 36.8426 139.645 37.3437C139.645 37.9283 139.874 38.3737 140.332 38.6799C140.818 38.9582 141.505 39.0974 142.393 39.0974H149.005ZM145.012 48.0749C146.501 48.0749 147.717 47.9497 148.662 47.6991C149.635 47.4486 150.351 47.1285 150.809 46.7388C151.295 46.349 151.539 45.9176 151.539 45.4443C151.539 44.9154 151.324 44.4839 150.894 44.1499C150.465 43.8437 149.692 43.6906 148.576 43.6906H141.319C140.632 43.6906 140.06 43.8576 139.602 44.1916C139.172 44.5257 138.958 44.985 138.958 45.5696C138.958 46.349 139.487 46.9615 140.546 47.4069C141.634 47.8522 143.123 48.0749 145.012 48.0749ZM145.055 21.727C147.059 21.727 148.791 22.0193 150.25 22.6039C151.739 23.1606 152.87 23.9679 153.642 25.0257C154.444 26.0835 154.845 27.3501 154.845 28.8255C154.845 30.273 154.444 31.5257 153.642 32.5835C152.87 33.6413 151.739 34.4625 150.25 35.0471C148.791 35.6039 147.059 35.8822 145.055 35.8822C141.878 35.8822 139.444 35.2559 137.756 34.0032C136.095 32.7227 135.265 30.9968 135.265 28.8255C135.265 27.3501 135.652 26.0835 136.424 25.0257C137.226 23.9679 138.357 23.1606 139.817 22.6039C141.276 22.0193 143.023 21.727 145.055 21.727ZM145.055 25.318C143.91 25.318 142.965 25.6242 142.221 26.2366C141.477 26.849 141.105 27.6981 141.105 28.7837C141.105 29.8694 141.477 30.7323 142.221 31.3726C142.965 31.985 143.91 32.2912 145.055 32.2912C146.2 32.2912 147.13 31.985 147.846 31.3726C148.59 30.7323 148.962 29.8694 148.962 28.7837C148.962 27.6981 148.59 26.849 147.846 26.2366C147.13 25.6242 146.2 25.318 145.055 25.318Z" fill="#FEFDF1"/>
<path d="M162.781 19.1381C161.55 19.1381 160.634 18.8876 160.033 18.3865C159.432 17.8576 159.131 17.0921 159.131 16.0899C159.131 15.06 159.432 14.2944 160.033 13.7934C160.634 13.2645 161.55 13 162.781 13C164.012 13 164.928 13.2645 165.529 13.7934C166.13 14.2944 166.431 15.06 166.431 16.0899C166.431 17.0921 166.13 17.8576 165.529 18.3865C164.928 18.8876 164.012 19.1381 162.781 19.1381ZM165.701 22.1445V43.0225H159.818V22.1445H165.701Z" fill="#FEFDF1"/>
<path d="M194.532 15.4636V20.0985H185.042V43.0225H179.117V20.0985H169.585V15.4636H194.532Z" fill="#FEFDF1"/>
<path d="M201.148 19.1381C199.917 19.1381 199.001 18.8876 198.4 18.3865C197.799 17.8576 197.498 17.0921 197.498 16.0899C197.498 15.06 197.799 14.2944 198.4 13.7934C199.001 13.2645 199.917 13 201.148 13C202.379 13 203.295 13.2645 203.896 13.7934C204.497 14.2944 204.798 15.06 204.798 16.0899C204.798 17.0921 204.497 17.8576 203.896 18.3865C203.295 18.8876 202.379 19.1381 201.148 19.1381ZM204.068 22.1445V43.0225H198.185V22.1445H204.068Z" fill="#FEFDF1"/>
<path d="M216.1 13V36.5921C216.1 37.5664 216.272 38.2484 216.615 38.6381C216.959 39.0278 217.531 39.2227 218.333 39.2227C218.819 39.2227 219.22 39.1949 219.535 39.1392C219.85 39.0557 220.251 38.9443 220.737 38.8051L220.222 42.5632C219.735 42.8415 219.12 43.0503 218.376 43.1895C217.66 43.3565 216.944 43.44 216.229 43.44C214.139 43.44 212.608 42.9529 211.635 41.9786C210.69 40.9764 210.218 39.3897 210.218 37.2184V13H216.1Z" fill="#FEFDF1"/>
<path d="M233.977 43.44C231.715 43.44 229.74 43.0086 228.051 42.1456C226.391 41.2827 225.103 40.0439 224.187 38.4293C223.271 36.8148 222.813 34.8662 222.813 32.5835C222.813 30.3009 223.271 28.3523 224.187 26.7377C225.103 25.1231 226.377 23.8844 228.008 23.0214C229.668 22.1585 231.558 21.727 233.676 21.727C235.852 21.727 237.698 22.1585 239.215 23.0214C240.732 23.8565 241.891 25.0118 242.693 26.4872C243.494 27.9347 243.895 29.591 243.895 31.4561C243.895 32.0128 243.881 32.5418 243.852 33.0428C243.824 33.5439 243.781 33.9893 243.723 34.379H226.591V30.4122H241.147L238.313 31.4143C238.313 29.6606 237.898 28.3105 237.068 27.364C236.267 26.4176 235.122 25.9443 233.633 25.9443C232.545 25.9443 231.601 26.1949 230.799 26.6959C230.026 27.197 229.439 27.9486 229.039 28.9507C228.638 29.9251 228.438 31.1638 228.438 32.667C228.438 34.1424 228.652 35.3672 229.082 36.3415C229.54 37.288 230.169 37.9979 230.971 38.4711C231.801 38.9443 232.789 39.1809 233.934 39.1809C235.193 39.1809 236.209 38.9443 236.982 38.4711C237.755 37.9979 238.356 37.3437 238.786 36.5086L243.466 38.2623C243.008 39.348 242.306 40.2805 241.362 41.06C240.446 41.8394 239.344 42.4379 238.056 42.8555C236.796 43.2452 235.436 43.44 233.977 43.44Z" fill="#FEFDF1"/>
<path d="M257.468 43.44C255.292 43.44 253.303 43.0642 251.499 42.3126C249.725 41.561 248.279 40.5032 247.163 39.1392L250.555 35.7987C251.242 36.8009 252.158 37.6221 253.303 38.2623C254.448 38.9026 255.808 39.2227 257.382 39.2227C258.498 39.2227 259.386 39.0696 260.044 38.7634C260.731 38.4293 261.075 37.9143 261.075 37.2184C261.075 36.773 260.917 36.3972 260.602 36.091C260.287 35.757 259.658 35.4925 258.713 35.2976L254.935 34.546C252.444 34.045 250.669 33.2934 249.61 32.2912C248.58 31.2612 248.064 29.939 248.064 28.3244C248.064 27.1831 248.408 26.1114 249.095 25.1092C249.811 24.1071 250.87 23.2998 252.272 22.6874C253.675 22.0471 255.421 21.727 257.511 21.727C259.658 21.727 261.518 22.061 263.093 22.7291C264.696 23.3694 265.955 24.3298 266.871 25.6103L263.35 28.9507C262.721 27.9764 261.89 27.2388 260.86 26.7377C259.858 26.2088 258.799 25.9443 257.683 25.9443C256.881 25.9443 256.194 26.0278 255.622 26.1949C255.049 26.3619 254.62 26.5985 254.333 26.9047C254.047 27.1831 253.904 27.545 253.904 27.9904C253.904 28.4358 254.104 28.8255 254.505 29.1595C254.906 29.4657 255.636 29.7302 256.695 29.9529L261.075 30.8298C263.193 31.2473 264.71 31.9572 265.626 32.9593C266.542 33.9336 267 35.1167 267 36.5086C267 37.8448 266.628 39.0418 265.884 40.0996C265.168 41.1296 264.095 41.9508 262.663 42.5632C261.261 43.1478 259.529 43.44 257.468 43.44Z" fill="#FEFDF1"/>
<path d="M104.949 15.4636C109.386 15.4636 112.821 16.6606 115.254 19.0546C117.687 21.4208 118.904 24.8169 118.904 29.243C118.904 33.6413 117.687 37.0375 115.254 39.4315C112.821 41.8255 109.386 43.0225 104.949 43.0225H94V15.4636H104.949ZM104.649 38.4293C107.339 38.4293 109.357 37.6499 110.703 36.091C112.077 34.5043 112.764 32.2216 112.764 29.243C112.764 26.2645 112.077 23.9957 110.703 22.4368C109.357 20.8501 107.339 20.0567 104.649 20.0567H99.9254V38.4293H104.649Z" stroke="#30322C" stroke-width="2" mask="url(#path-1-outside-1_532_1893)"/>
<path d="M127.097 19.1381C125.866 19.1381 124.95 18.8876 124.349 18.3865C123.748 17.8576 123.448 17.0921 123.448 16.0899C123.448 15.06 123.748 14.2944 124.349 13.7934C124.95 13.2645 125.866 13 127.097 13C128.328 13 129.244 13.2645 129.845 13.7934C130.446 14.2944 130.747 15.06 130.747 16.0899C130.747 17.0921 130.446 17.8576 129.845 18.3865C129.244 18.8876 128.328 19.1381 127.097 19.1381ZM130.017 22.1445V43.0225H124.135V22.1445H130.017Z" stroke="#30322C" stroke-width="2" mask="url(#path-1-outside-1_532_1893)"/>
<path d="M156.047 17.1756L156.734 21.2677C156.619 21.2677 156.491 21.2677 156.348 21.2677C156.233 21.2398 156.104 21.2259 155.961 21.2259C154.644 21.2259 153.657 21.5182 152.998 22.1028C152.34 22.6595 152.011 23.439 152.011 24.4411L149.606 23.4807C149.606 22.3672 149.835 21.3373 150.293 20.3908C150.751 19.4165 151.424 18.637 152.311 18.0525C153.227 17.4679 154.315 17.1756 155.575 17.1756C155.632 17.1756 155.703 17.1756 155.789 17.1756C155.875 17.1756 155.961 17.1756 156.047 17.1756ZM149.005 39.0974C151.324 39.0974 153.113 39.5846 154.372 40.5589C155.632 41.5332 156.262 42.8972 156.262 44.651C156.262 46.2377 155.789 47.5739 154.845 48.6595C153.9 49.773 152.569 50.6081 150.852 51.1649C149.163 51.7216 147.202 52 144.969 52C141.276 52 138.571 51.4989 136.854 50.4968C135.165 49.4946 134.321 48.1863 134.321 46.5717C134.321 45.4304 134.764 44.47 135.652 43.6906C136.568 42.9111 138.07 42.4797 140.16 42.3961L139.945 43.0642C138.457 42.8137 137.312 42.3405 136.51 41.6445C135.737 40.9208 135.351 39.9325 135.351 38.6799C135.351 37.3994 135.852 36.3555 136.854 35.5482C137.884 34.7131 139.273 34.2259 141.019 34.0867L143.595 35.2559H142.994C141.763 35.3394 140.89 35.5899 140.375 36.0075C139.888 36.3972 139.645 36.8426 139.645 37.3437C139.645 37.9283 139.874 38.3737 140.332 38.6799C140.818 38.9582 141.505 39.0974 142.393 39.0974H149.005ZM145.012 48.0749C146.501 48.0749 147.717 47.9497 148.662 47.6991C149.635 47.4486 150.351 47.1285 150.809 46.7388C151.295 46.349 151.539 45.9176 151.539 45.4443C151.539 44.9154 151.324 44.4839 150.894 44.1499C150.465 43.8437 149.692 43.6906 148.576 43.6906H141.319C140.632 43.6906 140.06 43.8576 139.602 44.1916C139.172 44.5257 138.958 44.985 138.958 45.5696C138.958 46.349 139.487 46.9615 140.546 47.4069C141.634 47.8522 143.123 48.0749 145.012 48.0749ZM145.055 21.727C147.059 21.727 148.791 22.0193 150.25 22.6039C151.739 23.1606 152.87 23.9679 153.642 25.0257C154.444 26.0835 154.845 27.3501 154.845 28.8255C154.845 30.273 154.444 31.5257 153.642 32.5835C152.87 33.6413 151.739 34.4625 150.25 35.0471C148.791 35.6039 147.059 35.8822 145.055 35.8822C141.878 35.8822 139.444 35.2559 137.756 34.0032C136.095 32.7227 135.265 30.9968 135.265 28.8255C135.265 27.3501 135.652 26.0835 136.424 25.0257C137.226 23.9679 138.357 23.1606 139.817 22.6039C141.276 22.0193 143.023 21.727 145.055 21.727ZM145.055 25.318C143.91 25.318 142.965 25.6242 142.221 26.2366C141.477 26.849 141.105 27.6981 141.105 28.7837C141.105 29.8694 141.477 30.7323 142.221 31.3726C142.965 31.985 143.91 32.2912 145.055 32.2912C146.2 32.2912 147.13 31.985 147.846 31.3726C148.59 30.7323 148.962 29.8694 148.962 28.7837C148.962 27.6981 148.59 26.849 147.846 26.2366C147.13 25.6242 146.2 25.318 145.055 25.318Z" stroke="#30322C" stroke-width="2" mask="url(#path-1-outside-1_532_1893)"/>
<path d="M162.781 19.1381C161.55 19.1381 160.634 18.8876 160.033 18.3865C159.432 17.8576 159.131 17.0921 159.131 16.0899C159.131 15.06 159.432 14.2944 160.033 13.7934C160.634 13.2645 161.55 13 162.781 13C164.012 13 164.928 13.2645 165.529 13.7934C166.13 14.2944 166.431 15.06 166.431 16.0899C166.431 17.0921 166.13 17.8576 165.529 18.3865C164.928 18.8876 164.012 19.1381 162.781 19.1381ZM165.701 22.1445V43.0225H159.818V22.1445H165.701Z" stroke="#30322C" stroke-width="2" mask="url(#path-1-outside-1_532_1893)"/>
<path d="M194.532 15.4636V20.0985H185.042V43.0225H179.117V20.0985H169.585V15.4636H194.532Z" stroke="#30322C" stroke-width="2" mask="url(#path-1-outside-1_532_1893)"/>
<path d="M201.148 19.1381C199.917 19.1381 199.001 18.8876 198.4 18.3865C197.799 17.8576 197.498 17.0921 197.498 16.0899C197.498 15.06 197.799 14.2944 198.4 13.7934C199.001 13.2645 199.917 13 201.148 13C202.379 13 203.295 13.2645 203.896 13.7934C204.497 14.2944 204.798 15.06 204.798 16.0899C204.798 17.0921 204.497 17.8576 203.896 18.3865C203.295 18.8876 202.379 19.1381 201.148 19.1381ZM204.068 22.1445V43.0225H198.185V22.1445H204.068Z" stroke="#30322C" stroke-width="2" mask="url(#path-1-outside-1_532_1893)"/>
<path d="M216.1 13V36.5921C216.1 37.5664 216.272 38.2484 216.615 38.6381C216.959 39.0278 217.531 39.2227 218.333 39.2227C218.819 39.2227 219.22 39.1949 219.535 39.1392C219.85 39.0557 220.251 38.9443 220.737 38.8051L220.222 42.5632C219.735 42.8415 219.12 43.0503 218.376 43.1895C217.66 43.3565 216.944 43.44 216.229 43.44C214.139 43.44 212.608 42.9529 211.635 41.9786C210.69 40.9764 210.218 39.3897 210.218 37.2184V13H216.1Z" stroke="#30322C" stroke-width="2" mask="url(#path-1-outside-1_532_1893)"/>
<path d="M233.977 43.44C231.715 43.44 229.74 43.0086 228.051 42.1456C226.391 41.2827 225.103 40.0439 224.187 38.4293C223.271 36.8148 222.813 34.8662 222.813 32.5835C222.813 30.3009 223.271 28.3523 224.187 26.7377C225.103 25.1231 226.377 23.8844 228.008 23.0214C229.668 22.1585 231.558 21.727 233.676 21.727C235.852 21.727 237.698 22.1585 239.215 23.0214C240.732 23.8565 241.891 25.0118 242.693 26.4872C243.494 27.9347 243.895 29.591 243.895 31.4561C243.895 32.0128 243.881 32.5418 243.852 33.0428C243.824 33.5439 243.781 33.9893 243.723 34.379H226.591V30.4122H241.147L238.313 31.4143C238.313 29.6606 237.898 28.3105 237.068 27.364C236.267 26.4176 235.122 25.9443 233.633 25.9443C232.545 25.9443 231.601 26.1949 230.799 26.6959C230.026 27.197 229.439 27.9486 229.039 28.9507C228.638 29.9251 228.438 31.1638 228.438 32.667C228.438 34.1424 228.652 35.3672 229.082 36.3415C229.54 37.288 230.169 37.9979 230.971 38.4711C231.801 38.9443 232.789 39.1809 233.934 39.1809C235.193 39.1809 236.209 38.9443 236.982 38.4711C237.755 37.9979 238.356 37.3437 238.786 36.5086L243.466 38.2623C243.008 39.348 242.306 40.2805 241.362 41.06C240.446 41.8394 239.344 42.4379 238.056 42.8555C236.796 43.2452 235.436 43.44 233.977 43.44Z" stroke="#30322C" stroke-width="2" mask="url(#path-1-outside-1_532_1893)"/>
<path d="M257.468 43.44C255.292 43.44 253.303 43.0642 251.499 42.3126C249.725 41.561 248.279 40.5032 247.163 39.1392L250.555 35.7987C251.242 36.8009 252.158 37.6221 253.303 38.2623C254.448 38.9026 255.808 39.2227 257.382 39.2227C258.498 39.2227 259.386 39.0696 260.044 38.7634C260.731 38.4293 261.075 37.9143 261.075 37.2184C261.075 36.773 260.917 36.3972 260.602 36.091C260.287 35.757 259.658 35.4925 258.713 35.2976L254.935 34.546C252.444 34.045 250.669 33.2934 249.61 32.2912C248.58 31.2612 248.064 29.939 248.064 28.3244C248.064 27.1831 248.408 26.1114 249.095 25.1092C249.811 24.1071 250.87 23.2998 252.272 22.6874C253.675 22.0471 255.421 21.727 257.511 21.727C259.658 21.727 261.518 22.061 263.093 22.7291C264.696 23.3694 265.955 24.3298 266.871 25.6103L263.35 28.9507C262.721 27.9764 261.89 27.2388 260.86 26.7377C259.858 26.2088 258.799 25.9443 257.683 25.9443C256.881 25.9443 256.194 26.0278 255.622 26.1949C255.049 26.3619 254.62 26.5985 254.333 26.9047C254.047 27.1831 253.904 27.545 253.904 27.9904C253.904 28.4358 254.104 28.8255 254.505 29.1595C254.906 29.4657 255.636 29.7302 256.695 29.9529L261.075 30.8298C263.193 31.2473 264.71 31.9572 265.626 32.9593C266.542 33.9336 267 35.1167 267 36.5086C267 37.8448 266.628 39.0418 265.884 40.0996C265.168 41.1296 264.095 41.9508 262.663 42.5632C261.261 43.1478 259.529 43.44 257.468 43.44Z" stroke="#30322C" stroke-width="2" mask="url(#path-1-outside-1_532_1893)"/>
</g>
<rect width="76" height="60" fill="#A6EF68"/>
<rect width="1" height="60" fill="#30322C"/>
<rect x="75" width="3" height="60" fill="#30322C"/>
<rect y="1.00006" width="0.999997" height="78" transform="rotate(-90 0 1.00006)" fill="#30322C"/>
<rect y="59.9999" width="0.999997" height="78" transform="rotate(-90 0 59.9999)" fill="#30322C"/>
<rect x="14" y="20" width="8" height="20" fill="#F8E64B"/>
<rect x="21" y="39" width="34" height="8" fill="#FEFDF1"/>
<rect x="53.9995" y="46.0001" width="8" height="8" fill="#7C4FFF"/>
<rect x="14" y="6" width="8" height="8" fill="#7C4FFF"/>
<rect x="21" y="12.9999" width="34" height="8" fill="#FEFDF1"/>
<rect x="53.9995" y="20" width="8" height="20" fill="#F266FF"/>
<rect x="35.9995" y="25.9999" width="8" height="8" transform="rotate(90 35.9995 25.9999)" fill="#F8E64B"/>
<rect x="40.9998" y="28" width="8" height="4" fill="#F266FF"/>
<rect x="21" y="14" width="0.999999" height="34" transform="rotate(-90 21 14)" fill="#30322C"/>
<rect x="21" y="40.0001" width="0.999999" height="34" transform="rotate(-90 21 40.0001)" fill="#30322C"/>
<rect x="21" y="21.0001" width="0.999999" height="34" transform="rotate(-90 21 21.0001)" fill="#30322C"/>
<rect x="21" y="47" width="0.999999" height="34" transform="rotate(-90 21 47)" fill="#30322C"/>
<rect x="53.9995" y="21.0001" width="1" height="10" transform="rotate(-90 53.9995 21.0001)" fill="#30322C"/>
<rect x="14" y="21.0001" width="1" height="10" transform="rotate(-90 14 21.0001)" fill="#30322C"/>
<rect x="14" y="7.00012" width="1" height="8" transform="rotate(-90 14 7.00012)" fill="#30322C"/>
<rect x="53.9995" y="47" width="1" height="8" transform="rotate(-90 53.9995 47)" fill="#30322C"/>
<rect x="28.0002" y="26.9999" width="1" height="8" transform="rotate(-90 28.0002 26.9999)" fill="#30322C"/>
<rect x="40.9998" y="29.0001" width="1" height="8" transform="rotate(-90 40.9998 29.0001)" fill="#30322C"/>
<rect x="14" y="14" width="1" height="8" transform="rotate(-90 14 14)" fill="#30322C"/>
<rect x="53.9995" y="53.9999" width="1" height="8" transform="rotate(-90 53.9995 53.9999)" fill="#30322C"/>
<rect x="28.0002" y="34" width="1" height="8" transform="rotate(-90 28.0002 34)" fill="#30322C"/>
<rect x="40.9998" y="32.0001" width="1" height="8" transform="rotate(-90 40.9998 32.0001)" fill="#30322C"/>
<rect x="15" y="14" width="1" height="8" transform="rotate(180 15 14)" fill="#30322C"/>
<rect x="54.9998" y="53.9999" width="1" height="8" transform="rotate(180 54.9998 53.9999)" fill="#30322C"/>
<rect x="28.9995" y="34" width="1" height="8" transform="rotate(180 28.9995 34)" fill="#30322C"/>
<rect x="42.0002" y="32.0001" width="1" height="4" transform="rotate(180 42.0002 32.0001)" fill="#30322C"/>
<rect x="24.0005" y="14" width="3" height="8" transform="rotate(180 24.0005 14)" fill="#30322C"/>
<rect x="64.0002" y="53.9999" width="3" height="8" transform="rotate(180 64.0002 53.9999)" fill="#30322C"/>
<rect x="37.9995" y="34" width="3" height="8" transform="rotate(180 37.9995 34)" fill="#30322C"/>
<rect x="51" y="32.0001" width="3" height="4" transform="rotate(180 51 32.0001)" fill="#30322C"/>
<rect x="53.9995" y="40.0001" width="1" height="10" transform="rotate(-90 53.9995 40.0001)" fill="#30322C"/>
<rect x="14" y="40.0001" width="1" height="10" transform="rotate(-90 14 40.0001)" fill="#30322C"/>
<rect x="21.9995" y="21.0001" width="0.999999" height="8" transform="rotate(180 21.9995 21.0001)" fill="#30322C"/>
<rect x="21.9995" y="47" width="0.999999" height="8" transform="rotate(180 21.9995 47)" fill="#30322C"/>
<rect x="56.9998" y="21.0001" width="3" height="8" transform="rotate(180 56.9998 21.0001)" fill="#30322C"/>
<rect x="56.9998" y="47" width="3" height="8" transform="rotate(180 56.9998 47)" fill="#30322C"/>
<rect width="1" height="20" transform="matrix(1 -8.74228e-08 -8.74228e-08 -1 53.9995 40.0001)" fill="#30322C"/>
<rect width="1" height="20" transform="matrix(1 -8.74228e-08 -8.74228e-08 -1 14 40.0001)" fill="#30322C"/>
<rect width="3" height="20" transform="matrix(1 -8.74228e-08 -8.74228e-08 -1 61 40.0001)" fill="#30322C"/>
<rect width="3" height="20" transform="matrix(1 -8.74228e-08 -8.74228e-08 -1 21 40.0001)" fill="#30322C"/>
<defs>
<filter id="filter0_d_532_1893" x="93" y="12" width="177.191" height="41" filterUnits="userSpaceOnUse" color-interpolation-filters="sRGB">
<feFlood flood-opacity="0" result="BackgroundImageFix"/>
<feColorMatrix in="SourceAlpha" type="matrix" values="0 0 0 0 0 0 0 0 0 0 0 0 0 0 0 0 0 0 127 0" result="hardAlpha"/>
<feOffset dx="2"/>
<feComposite in2="hardAlpha" operator="out"/>
<feColorMatrix type="matrix" values="0 0 0 0 0.172549 0 0 0 0 0.184314 0 0 0 0 0.196078 0 0 0 1 0"/>
<feBlend mode="normal" in2="BackgroundImageFix" result="effect1_dropShadow_532_1893"/>
<feBlend mode="normal" in="SourceGraphic" in2="effect1_dropShadow_532_1893" result="shape"/>
</filter>
</defs>
</svg>
