<svg width="50" height="50" viewBox="0 0 50 50" fill="none" xmlns="http://www.w3.org/2000/svg">
<rect width="50" height="50" rx="25" fill="#A6EF68"/>
<g clip-path="url(#clip0_243_11292)">
<path d="M2.48927 2L22 16.3798L18.3913 7.89563L2.48927 2Z" fill="#E2761B"/>
<path d="M47.5298 2L28.1759 16.5159L31.6081 7.89563L47.5298 2Z" fill="#E4761B"/>
<path d="M9.50997 35.3326L14.7061 43.2332L3.58779 46.2682L0.391415 35.5078L9.50997 35.3326Z" fill="#E4761B"/>
<path d="M49.5879 35.5078L46.4112 46.2682L35.293 43.2332L40.4891 35.3326L49.5879 35.5078Z" fill="#E4761B"/>
<path d="M35.9213 21.9837L39.02 26.635L27.9807 27.1215L28.3723 15.3489L35.9213 21.9837Z" fill="#E4761B"/>
<path d="M14.0978 21.9836L21.7445 15.2127L22 27.1215L10.9794 26.6349L14.0978 21.9836Z" fill="#E4761B"/>
<path d="M35.2935 43.2332L28.6659 40.022L34.3918 35.5851L35.2935 43.2332Z" fill="#E4761B"/>
<path d="M21.354 40.022L14.7067 43.2332L15.6281 35.5851L21.354 40.022Z" fill="#E4761B"/>
<path d="M14.7067 43.2332L21.354 40.022L20.8242 44.3228L20.8834 46.1321L14.7067 43.2332Z" fill="#D7C1B3"/>
<path d="M35.2935 43.2332L29.1168 46.1321L29.1562 44.3228L28.6659 40.022L35.2935 43.2332Z" fill="#D7C1B3"/>
<path d="M29.0203 32.745L34.5498 31.1296L30.6481 29.3586L29.0203 32.745Z" fill="#233447"/>
<path d="M21 32.745L19.3722 29.3586L15.4507 31.1296L21 32.745Z" fill="#233447"/>
<path d="M35.2941 43.2332L34.353 35.3326L40.4902 35.5078L35.2941 43.2332Z" fill="#CD6116"/>
<path d="M15.647 35.3326L14.7058 43.2332L9.50973 35.5078L15.647 35.3326Z" fill="#CD6116"/>
<path d="M10.9794 26.6349L22 27.1215L20.9799 32.745L19.3521 29.3586L15.4307 31.1296L10.9794 26.6349Z" fill="#CD6116"/>
<path d="M34.549 31.1296L30.6276 29.3586L29.0195 32.745L27.9807 27.1215L39.02 26.6349L34.549 31.1296Z" fill="#CD6116"/>
<path d="M39.02 26.6349L34.3922 35.5851L34.549 31.1296L39.02 26.6349Z" fill="#E4751F"/>
<path d="M15.4311 31.1296L15.6274 35.5851L10.9799 26.6349L15.4311 31.1296Z" fill="#E4751F"/>
<path d="M27.9802 27.1216L29.019 32.745L27.7247 39.3798L27.4307 30.6431L27.9802 27.1216Z" fill="#E4751F"/>
<path d="M22.0005 27.1216L22.5293 30.6235L22.2945 39.3798L20.9804 32.745L22.0005 27.1216Z" fill="#E4751F"/>
<path d="M20.9799 32.745L22.2939 39.3798L21.3528 40.022L15.6269 35.5851L15.4306 31.1296L20.9799 32.745Z" fill="#F6851B"/>
<path d="M34.5498 31.1296L34.3929 35.5851L28.6671 40.022L27.7259 39.3798L29.0203 32.745L34.5498 31.1296Z" fill="#F6851B"/>
<path d="M20.8821 46.1321L20.8229 44.3229L21.3133 43.8941H28.7054L29.1562 44.3229L29.1168 46.1321L35.2935 43.2332L33.1369 44.9837L28.7646 48H21.2541L16.862 44.9837L14.7054 43.2332L20.8821 46.1321Z" fill="#C0AD9E"/>
<path d="M21.3532 40.022L22.2944 39.3798H27.7253L28.6664 40.022L29.1567 44.3228L28.7059 43.894H21.3138L20.8235 44.3228L21.3532 40.022Z" fill="#161616"/>
<path d="M1.66669 17.3138L0.000427246 9.37492L2.49044 2L21.354 15.8932L14.099 21.9837L3.84397 24.9608L1.56902 22.3341L2.54964 21.6341L0.981043 20.2136L2.19646 19.2796L0.627863 18.0921L1.66669 17.3138Z" fill="#763D16"/>
<path d="M50 9.37492L48.3337 17.3138L49.3923 18.0921L47.8237 19.2796L49.0194 20.2136L47.4508 21.6341L48.4314 22.3341L46.1762 24.9608L35.9211 21.9837L28.6662 15.8932L47.5297 2L50 9.37492Z" fill="#763D16"/>
<path d="M3.84327 24.9609L14.0983 21.9837L10.9799 26.635L15.6274 35.5851L9.50993 35.5078H0.391376L3.84327 24.9609Z" fill="#F6851B"/>
<path d="M35.9204 21.9837L46.1755 24.9609L49.5879 35.5078H40.4891L34.3913 35.5851L39.0191 26.635L35.9204 21.9837Z" fill="#F6851B"/>
<path d="M22.001 27.1216L21.3538 15.8932L18.3725 7.89566H31.6089L28.667 15.8932L27.9814 27.1216L27.7456 30.6627L27.7259 39.3798H22.295L22.2555 30.6627L22.001 27.1216Z" fill="#F6851B"/>
</g>
<circle cx="44" cy="44" r="6" fill="#29FF16"/>
<defs>
<clipPath id="clip0_243_11292">
<rect width="50" height="50" fill="white" transform="matrix(-1 0 0 1 50 0)"/>
</clipPath>
</defs>
</svg>
