<svg width="40" height="42" viewBox="0 0 40 42" fill="none" xmlns="http://www.w3.org/2000/svg">
<g clip-path="url(#clip0_6_81)">
<path d="M2.09199 29.0761L4.50745 37.3222L9.24927 36.0128L2.09199 29.0761Z" fill="#E4761B"/>
<path d="M9.24927 36.0128L4.67574 29.6859L2.09199 29.0761L9.24927 36.0128Z" fill="#E4761B"/>
<path d="M5.64587 22.8591L2.09198 29.0762L4.67573 29.6859L5.64587 22.8591ZM5.64587 22.8591L3.35911 21.2599L2.09198 29.0762L5.64587 22.8591Z" fill="#F6851B"/>
<path d="M8.55627 18.1614L1.98306 15.4427L2.30974 16.9319L8.55627 18.1614ZM2.51763 18.7211L8.55627 18.1614L2.30974 16.9319L2.51763 18.7211Z" fill="#763D16"/>
<path d="M2.51763 18.7211L3.35908 21.2599L8.55627 18.1614L2.51763 18.7211ZM1.20101 16.0724L2.30974 16.9319L1.98306 15.4427L1.20101 16.0724ZM2.51763 18.7211L2.30974 16.9319L1.4287 17.6716L2.51763 18.7211Z" fill="#763D16"/>
<path d="M14.3474 34.0038L12.7041 34.5336L9.24921 36.0129L14.3474 34.0038Z" fill="#E2761B"/>
<path d="M3.35911 21.2599L2.51766 18.7211L1.79501 19.2808L3.35911 21.2599ZM3.35911 21.2599L10.1798 18.991L8.55631 18.1613L3.35911 21.2599Z" fill="#763D16"/>
<path d="M6.9328 10.3751L8.55631 18.1614L10.1798 18.991L6.9328 10.3751Z" fill="#763D16"/>
<path d="M1.98306 15.4426L8.55627 18.1614L6.93277 10.3751L1.98306 15.4426Z" fill="#763D16"/>
<path d="M6.93274 10.3751L0.0724468 9.57544L1.98303 15.4426L6.93274 10.3751Z" fill="#763D16"/>
<path d="M3.35911 21.2599L5.64588 22.8591L10.1798 18.991L3.35911 21.2599Z" fill="#F6851B"/>
<path d="M0.369429 3.96811L0.0724468 9.57544L6.93274 10.3751L0.369429 3.96811Z" fill="#763D16"/>
<path d="M0.369424 3.96811L14.0801 14.0333L14.2583 7.20657L0.369424 3.96811Z" fill="#E2761B"/>
<path d="M24.4547 6.38696L14.2583 7.20657L14.0801 14.0333L24.4547 6.38696Z" fill="#F6851B"/>
<path d="M10.1798 18.991L14.0802 14.0333L6.93282 10.3751L10.1798 18.991Z" fill="#763D16"/>
<path d="M10.1798 18.991L5.64591 22.8591L12.0112 23.5688L10.1798 18.991Z" fill="#E4761B"/>
<path d="M12.0112 23.5688L14.0802 14.0333L10.1798 18.991L12.0112 23.5688Z" fill="#E4761B"/>
<path d="M6.93282 10.3751L14.0802 14.0333L0.369513 3.96811L6.93282 10.3751Z" fill="#763D16"/>
<path d="M24.3657 35.8529L21.1286 39.2613L25.5338 35.2132L24.3657 35.8529Z" fill="#C0AD9E"/>
<path d="M9.24927 36.0128L7.71486 30.1256L4.67574 29.6859L9.24927 36.0128Z" fill="#CD6116"/>
<path d="M37.4923 19.4507L31.8892 13.5036L36.7697 18.7411L37.4923 19.4507Z" fill="#E2761B"/>
<path d="M4.67568 29.6859L7.7148 30.1257L5.64582 22.8591L4.67568 29.6859ZM14.0801 14.0333L19.5347 13.8534L24.4547 6.38696L14.0801 14.0333Z" fill="#F6851B"/>
<path d="M5.64579 22.8591L7.71477 30.1256L7.88306 26.5773L5.64579 22.8591Z" fill="#E4751F"/>
<path d="M12.0112 23.5688L5.64591 22.8591L7.88318 26.5773L12.0112 23.5688Z" fill="#CD6116"/>
<path d="M19.5347 13.8534L14.0801 14.0333L12.0111 23.5688L19.5347 13.8534Z" fill="#F6851B"/>
<path d="M19.5347 13.8534L34.2551 0.0999451L24.4547 6.38695L19.5347 13.8534ZM24.4646 37.9419L37.2547 41.94L39.8087 32.0947L24.4646 37.9419Z" fill="#E4761B"/>
<path d="M35.5916 21.9096L30.7606 18.0814L26.7118 19.0309L35.5916 21.9096Z" fill="#763D16"/>
<path d="M26.7118 19.0309L30.7606 18.0814L28.5926 9.04568L26.7118 19.0309Z" fill="#763D16"/>
<path d="M36.7697 18.7411L30.7607 18.0814L35.5916 21.9096L36.7697 18.7411Z" fill="#763D16"/>
<path d="M7.88318 26.5774L10.3778 25.308L12.0112 23.5688L7.88318 26.5774Z" fill="#CD6116"/>
<path d="M36.7696 18.7411L37.1953 16.4722L30.7607 18.0814L36.7696 18.7411Z" fill="#763D16"/>
<path d="M10.8926 28.1666L10.3778 25.308L7.88316 26.5773L10.8926 28.1666Z" fill="#333333"/>
<path d="M7.71487 30.1256L10.8926 28.1666L7.88316 26.5773L7.71487 30.1256Z" fill="#F6851B"/>
<path d="M30.7607 18.0814L37.1953 16.4721L37.72 14.5631L30.7607 18.0814ZM28.5927 9.04568L30.7607 18.0814L37.72 14.5631L28.5927 9.04568ZM28.5927 9.04568L19.5347 13.8534L26.7118 19.0309L28.5927 9.04568Z" fill="#763D16"/>
<path d="M26.7118 19.0309L19.5347 13.8534L16.3372 23.7187L26.7118 19.0309ZM16.3372 23.7187L26.2564 23.5088L26.7118 19.0309L16.3372 23.7187Z" fill="#E4761B"/>
<path d="M35.5916 21.9096L26.7118 19.0309L26.2564 23.5088L35.5916 21.9096ZM12.0111 23.5688L16.3372 23.7187L19.5347 13.8534L12.0111 23.5688Z" fill="#F6851B"/>
<path d="M10.3778 25.308L10.8926 28.1666L12.0112 23.5688L10.3778 25.308Z" fill="#CD6116"/>
<path d="M34.2551 0.0999451L19.5347 13.8534L28.5927 9.04569L34.2551 0.0999451Z" fill="#763D16"/>
<path d="M39.8087 32.0947L27.3948 31.575L24.4646 37.9419L39.8087 32.0947Z" fill="#E4761B"/>
<path d="M24.4647 37.9419L27.3949 31.575L21.2969 31.2751L24.4647 37.9419Z" fill="#CD6116"/>
<path d="M10.8925 28.1666L7.71481 30.1257L5.96262 34.2937L10.8925 28.1666ZM26.2564 23.5088L39.8087 32.0947L35.5916 21.9096L26.2564 23.5088ZM27.3948 31.575L39.8087 32.0947L26.2564 23.5088L27.3948 31.575ZM12.0112 23.5688L11.1994 26.5474L15.1196 26.7773L12.0112 23.5688ZM15.1196 26.7773L16.3372 23.7187L12.0112 23.5688L15.1196 26.7773Z" fill="#F6851B"/>
<path d="M21.1285 39.2613L24.4646 37.9419L12.8625 39.911L21.1285 39.2613Z" fill="#C0AD9E"/>
<path d="M35.5916 21.9096L37.4923 19.4508L36.7697 18.7411L35.5916 21.9096Z" fill="#763D16"/>
<path d="M11.5459 38.4517L12.8625 39.911L24.4646 37.9419L11.5459 38.4517Z" fill="#D7C1B3"/>
<path d="M10.9222 34.8734L24.4646 37.9419L21.2968 31.2751L10.9222 34.8734Z" fill="#E4761B"/>
<path d="M24.4646 37.9419L10.9222 34.8734L11.5459 38.4517L24.4646 37.9419Z" fill="#D7C1B3"/>
<path d="M37.7199 14.5631L38.1654 6.87674L28.5927 9.04571L37.7199 14.5631ZM36.7696 18.7411L38.0862 17.3917L37.1953 16.4722L36.7696 18.7411Z" fill="#763D16"/>
<path d="M18.5547 25.6978L16.3372 23.7187L16.654 28.5564L18.5547 25.6978Z" fill="#CD6116"/>
<path d="M16.3372 23.7187L18.5547 25.6978L21.7819 27.387L16.3372 23.7187Z" fill="#CD6116"/>
<path d="M5.96267 34.2937L6.56653 33.8439L10.8926 28.1666L5.96267 34.2937Z" fill="#F6851B"/>
<path d="M21.7819 27.3869L26.2565 23.5088L16.3373 23.7187L21.7819 27.3869Z" fill="#CD6116"/>
<path d="M16.6541 28.5564L16.3373 23.7187L15.1196 26.7773L16.6541 28.5564Z" fill="#E4751F"/>
<path d="M38.5219 15.3227L37.72 14.5631L37.1953 16.4722L38.5219 15.3227Z" fill="#763D16"/>
<path d="M16.654 28.5564L21.7819 27.3869L18.5547 25.6978L16.654 28.5564Z" fill="#333333"/>
<path d="M28.5927 9.04568L38.1654 6.87672L34.2551 0.0999451L28.5927 9.04568Z" fill="#763D16"/>
<path d="M12.8625 39.911L12.3181 41.4103L21.1285 39.2613L12.8625 39.911Z" fill="#C0AD9E"/>
<path d="M21.2968 31.2751L21.7819 27.387L16.654 28.5564L21.2968 31.2751Z" fill="#F6851B"/>
<path d="M26.2565 23.5088L21.7819 27.3869L21.2969 31.2751L26.2565 23.5088Z" fill="#E4751F"/>
<path d="M15.1196 26.7772L11.1995 26.5473L6.56653 33.8439L15.1196 26.7772ZM26.2565 23.5088L21.2969 31.2751L27.3949 31.5749L26.2565 23.5088Z" fill="#F6851B"/>
<path d="M15.1196 26.7773L10.2491 34.2637L16.6541 28.5564L15.1196 26.7773Z" fill="#E4751F"/>
<path d="M16.6541 28.5564L10.2491 34.2637L10.9223 34.8734L16.6541 28.5564Z" fill="#F6851B"/>
<path d="M10.9223 34.8734L21.2969 31.2751L16.654 28.5564L10.9223 34.8734ZM6.56655 33.8439L10.2491 34.2637L15.1196 26.7773L6.56655 33.8439Z" fill="#F6851B"/>
<path d="M5.59638 37.3622L7.18029 40.5707L12.3181 41.4103L5.59638 37.3622ZM12.3181 41.4103L12.8625 39.911L11.5459 38.4517L12.3181 41.4103Z" fill="#C0AD9E"/>
<path d="M11.546 38.4517L10.5758 38.0619L12.3181 41.4103L11.546 38.4517ZM12.3181 41.4103L10.5758 38.0619L5.59641 37.3622L12.3181 41.4103Z" fill="#C0AD9E"/>
<path d="M6.56652 33.8439L5.34889 34.5935L9.05127 35.0433L6.56652 33.8439Z" fill="#333333"/>
<path d="M9.05119 35.0433L10.249 34.2637L6.56644 33.8439L9.05119 35.0433ZM9.47687 35.633L4.97264 35.0833L5.5963 37.3622L9.47687 35.633Z" fill="#333333"/>
<path d="M5.59635 37.3622L10.5758 38.0619L9.47692 35.633L5.59635 37.3622ZM10.5758 38.0619L11.5459 38.4517L10.9222 34.8734L10.5758 38.0619ZM10.9222 34.8734L10.2491 34.2637L9.05124 35.0433L10.9222 34.8734ZM5.34886 34.5935L4.97269 35.0833L9.47692 35.633L5.34886 34.5935Z" fill="#333333"/>
<path d="M9.47693 35.633L9.05125 35.0433L5.34887 34.5935L9.47693 35.633ZM10.9222 34.8734L9.47693 35.633L10.5758 38.0619L10.9222 34.8734Z" fill="#333333"/>
<path d="M9.05125 35.0433L9.47693 35.633L10.9222 34.8734L9.05125 35.0433Z" fill="#333333"/>
</g>
<defs>
<clipPath id="clip0_6_81">
<rect width="40" height="42" fill="white" transform="matrix(-1 0 0 1 40 0)"/>
</clipPath>
</defs>
</svg>
