<svg width="28" height="22" viewBox="0 0 28 22" fill="none" xmlns="http://www.w3.org/2000/svg">
<g clip-path="url(#clip0_127_5301)">
<path d="M4.54811 16.7912C4.71708 16.6218 4.94941 16.5229 5.19583 16.5229H27.5423C27.9507 16.5229 28.1548 17.017 27.8662 17.3064L23.4518 21.7318C23.2828 21.9012 23.0505 22 22.8041 22H0.457586C0.0492378 22 -0.154936 21.5059 0.133724 21.2166L4.54811 16.7912Z" fill="url(#paint0_linear_127_5301)"/>
<path d="M4.54811 0.268207C4.72412 0.0988129 4.95645 0 5.19583 0H27.5423C27.9507 0 28.1548 0.494065 27.8662 0.783446L23.4518 5.20885C23.2828 5.37825 23.0505 5.47706 22.8041 5.47706H0.457586C0.0492378 5.47706 -0.154936 4.983 0.133724 4.69362L4.54811 0.268207Z" fill="url(#paint1_linear_127_5301)"/>
<path d="M23.4518 8.47673C23.2828 8.30734 23.0505 8.20853 22.8041 8.20853H0.457586C0.0492378 8.20853 -0.154936 8.70259 0.133724 8.99197L4.54811 13.4174C4.71708 13.5868 4.94941 13.6856 5.19583 13.6856H27.5423C27.9507 13.6856 28.1548 13.1915 27.8662 12.9021L23.4518 8.47673Z" fill="url(#paint2_linear_127_5301)"/>
</g>
<defs>
<linearGradient id="paint0_linear_127_5301" x1="25.4076" y1="-2.64361" x2="9.88131" y2="27.0214" gradientUnits="userSpaceOnUse">
<stop stop-color="#00FFA3"/>
<stop offset="1" stop-color="#DC1FFF"/>
</linearGradient>
<linearGradient id="paint1_linear_127_5301" x1="18.6452" y1="-6.18297" x2="3.11892" y2="23.482" gradientUnits="userSpaceOnUse">
<stop stop-color="#00FFA3"/>
<stop offset="1" stop-color="#DC1FFF"/>
</linearGradient>
<linearGradient id="paint2_linear_127_5301" x1="22.0049" y1="-4.42457" x2="6.47859" y2="25.2404" gradientUnits="userSpaceOnUse">
<stop stop-color="#00FFA3"/>
<stop offset="1" stop-color="#DC1FFF"/>
</linearGradient>
<clipPath id="clip0_127_5301">
<rect width="28" height="22" fill="white"/>
</clipPath>
</defs>
</svg>
